<?xml version="1.0" standalone="no"?>
<!DOCTYPE svg PUBLIC "-//W3C//DTD SVG 1.1//EN" "http://www.w3.org/Graphics/SVG/1.1/DTD/svg11.dtd" >
<svg xmlns="http://www.w3.org/2000/svg" xmlns:xlink="http://www.w3.org/1999/xlink" version="1.1">
<metadata>
Created by FontForge 20170731 at Thu Apr  5 21:40:35 2007
 By Aleksey,,,
(c) Copyright 2006 Berthold LLC. All Rights Reserved. This font software computer program is the property of Berthold. You may not reproduce, modify, adapt, translate, alter nor create derivative works of the font software. You may not reverse engineer, decompile, decrypt, disassemble, nor seek to discover the source code of the font software.
</metadata>
<defs>
<font id="AkzidGrtskNext-Light" horiz-adv-x="202" >
  <font-face 
    font-family="Akzidenz-Grotesk Next Light"
    font-weight="300"
    font-stretch="normal"
    units-per-em="1000"
    panose-1="2 0 5 3 0 0 0 2 0 3"
    ascent="750"
    descent="-250"
    x-height="488"
    cap-height="706"
    bbox="-116 -280 1235 998"
    underline-thickness="0"
    underline-position="0"
    unicode-range="U+0020-FB05"
  />
<missing-glyph horiz-adv-x="500" 
d="M0 0v706h500v-706h-500zM250 401l170 255h-340zM280 353l170 -258v516zM80 50h340l-170 258zM50 611v-516l170 258z" />
    <glyph glyph-name="fi" unicode="fi" horiz-adv-x="480" 
d="M408 0h-58v488h58v-488zM409 624h-60v82h60v-82zM267 436h-107v-436h-60v436h-93v52h93v83q0 75 25 107q28 35 90 35q29 0 55 -9v-54q-23 11 -49 11q-37 0 -51 -25q-10 -17 -10 -60v-88h107v-52z" />
    <glyph glyph-name="fl" unicode="fl" horiz-adv-x="480" 
d="M408 0h-58v706h58v-706zM267 436h-107v-436h-60v436h-93v52h93v83q0 75 25 107q28 35 90 35q29 0 55 -9v-54q-23 11 -49 11q-37 0 -51 -25q-10 -17 -10 -60v-88h107v-52z" />
    <glyph glyph-name="longs_t" unicode="&#x17f;t" horiz-adv-x="483" 
d="M131 576v-576h-60v571q0 75 25 107q28 35 90 35q30 0 55 -9v-54q-23 11 -49 11q-37 0 -51 -25q-10 -17 -10 -60zM470 54v-52q-30 -9 -60 -9q-61 0 -86 37q-18 26 -18 84v322h-91v52h92v171h59v-171h102v-52h-102v-316q0 -43 14 -60q12 -16 43 -16q20 0 47 10z" />
    <glyph glyph-name="longs_i" unicode="&#x17f;i" horiz-adv-x="410" 
d="M339 0h-60v488h60v-488zM340 624h-62v82h62v-82zM131 576v-576h-60v571q0 75 25 107q28 35 87 35q30 0 51 -7v-54q-20 9 -45 9q-34 0 -48 -25q-10 -17 -10 -60z" />
    <glyph glyph-name="longs_longs_i" unicode="&#x17f;&#x17f;i" horiz-adv-x="618" 
d="M131 576v-576h-60v571q0 75 25 107q28 35 90 35q30 0 55 -9v-54q-23 11 -49 11q-37 0 -51 -25q-10 -17 -10 -60zM547 0h-60v488h60v-488zM548 624h-62v82h62v-82zM339 576v-576h-60v571q0 75 25 107q28 35 87 35q30 0 51 -7v-54q-20 9 -45 9q-34 0 -48 -25
q-10 -17 -10 -60z" />
    <glyph glyph-name="longs_l" unicode="&#x17f;l" horiz-adv-x="410" 
d="M339 0h-60v706h60v-706zM131 576v-576h-60v571q0 75 25 107q28 35 87 35q30 0 51 -7v-54q-20 9 -45 9q-34 0 -48 -25q-10 -17 -10 -60z" />
    <glyph glyph-name="longs_longs_l" unicode="&#x17f;&#x17f;l" horiz-adv-x="618" 
d="M131 576v-576h-60v571q0 75 25 107q28 35 90 35q30 0 55 -9v-54q-23 11 -49 11q-37 0 -51 -25q-10 -17 -10 -60zM547 0h-60v706h60v-706zM339 576v-576h-60v571q0 75 25 107q28 35 87 35q30 0 51 -7v-54q-20 9 -45 9q-34 0 -48 -25q-10 -17 -10 -60z" />
    <glyph glyph-name="longs_b" unicode="&#x17f;b" horiz-adv-x="730" 
d="M279 706h60v-300q59 90 164 90q86 0 136 -68t50 -186q0 -120 -53.5 -185.5t-142.5 -65.5q-103 0 -156 86v-77h-58v706zM338 253q0 -100 39 -154.5t108 -54.5q68 0 105 52t37 148q0 94 -37 147t-101 53q-68 0 -109.5 -52t-41.5 -139zM131 576v-576h-60v571q0 75 25 107
q28 35 87 35q30 0 51 -7v-54q-20 9 -45 9q-34 0 -48 -25q-10 -17 -10 -60z" />
    <glyph glyph-name="longs_longs_b" unicode="&#x17f;&#x17f;b" horiz-adv-x="938" 
d="M131 576v-576h-60v571q0 75 25 107q28 35 90 35q30 0 55 -9v-54q-23 11 -49 11q-37 0 -51 -25q-10 -17 -10 -60zM487 706h60v-300q59 90 164 90q86 0 136 -68t50 -186q0 -120 -53.5 -185.5t-142.5 -65.5q-103 0 -156 86v-77h-58v706zM546 253q0 -100 39 -154.5t108 -54.5
q68 0 105 52t37 148q0 94 -37 147t-101 53q-68 0 -109.5 -52t-41.5 -139zM339 576v-576h-60v571q0 75 25 107q28 35 87 35q30 0 51 -7v-54q-20 9 -45 9q-34 0 -48 -25q-10 -17 -10 -60z" />
    <glyph glyph-name="longs_h" unicode="&#x17f;h" horiz-adv-x="723" 
d="M657 0h-59v298q0 74 -22 106q-26 37 -88 37q-28 0 -58.5 -14t-51.5 -41q-39 -48 -39 -142v-244h-60v706h60v-305q25 45 69 69.5t97 24.5q77 0 117 -46q35 -41 35 -133v-316zM131 576v-576h-60v571q0 75 25 107q28 35 87 35q30 0 51 -7v-54q-20 9 -45 9q-34 0 -48 -25
q-10 -17 -10 -60z" />
    <glyph glyph-name="longs_longs_h" unicode="&#x17f;&#x17f;h" horiz-adv-x="931" 
d="M131 576v-576h-60v571q0 75 25 107q28 35 90 35q30 0 55 -9v-54q-23 11 -49 11q-37 0 -51 -25q-10 -17 -10 -60zM865 0h-59v298q0 74 -22 106q-26 37 -88 37q-28 0 -58.5 -14t-51.5 -41q-39 -48 -39 -142v-244h-60v706h60v-305q25 45 69 69.5t97 24.5q77 0 117 -46
q35 -41 35 -133v-316zM339 576v-576h-60v571q0 75 25 107q28 35 87 35q30 0 51 -7v-54q-20 9 -45 9q-34 0 -48 -25q-10 -17 -10 -60z" />
    <glyph glyph-name="longs_k" unicode="&#x17f;k" horiz-adv-x="676" 
d="M676 0h-72l-168 257l-98 -103v-154h-59v706h59v-481l239 263h74l-174 -189zM131 576v-576h-60v571q0 75 25 107q28 35 87 35q30 0 51 -7v-54q-20 9 -45 9q-34 0 -48 -25q-10 -17 -10 -60z" />
    <glyph glyph-name="longs_longs_k" unicode="&#x17f;&#x17f;k" horiz-adv-x="884" 
d="M131 576v-576h-60v571q0 75 25 107q28 35 90 35q30 0 55 -9v-54q-23 11 -49 11q-37 0 -51 -25q-10 -17 -10 -60zM884 0h-72l-168 257l-98 -103v-154h-59v706h59v-481l239 263h74l-174 -189zM339 576v-576h-60v571q0 75 25 107q28 35 87 35q30 0 51 -7v-54q-20 9 -45 9
q-34 0 -48 -25q-10 -17 -10 -60z" />
    <glyph glyph-name="longs_longs" unicode="&#x17f;&#x17f;" horiz-adv-x="416" 
d="M131 576v-576h-60v571q0 75 25 107q28 35 90 35q30 0 55 -9v-54q-23 11 -49 11q-37 0 -51 -25q-10 -17 -10 -60zM339 576v-576h-60v571q0 75 25 107q28 35 90 35q29 0 55 -9v-54q-23 11 -49 11q-37 0 -51 -25q-10 -17 -10 -60z" />
    <glyph glyph-name="longs_longs_t" unicode="&#x17f;&#x17f;t" horiz-adv-x="691" 
d="M131 576v-576h-60v571q0 75 25 107q28 35 90 35q30 0 55 -9v-54q-23 11 -49 11q-37 0 -51 -25q-10 -17 -10 -60zM339 576v-576h-60v571q0 75 25 107q28 35 90 35q29 0 55 -9v-54q-23 11 -49 11q-37 0 -51 -25q-10 -17 -10 -60zM678 54v-52q-30 -9 -60 -9q-61 0 -86 37
q-18 26 -18 84v322h-91v52h92v171h59v-171h102v-52h-102v-316q0 -43 14 -60q12 -16 43 -16q20 0 47 10z" />
    <glyph glyph-name=".notdef" horiz-adv-x="500" 
d="M0 0v706h500v-706h-500zM250 401l170 255h-340zM280 353l170 -258v516zM80 50h340l-170 258zM50 611v-516l170 258z" />
    <glyph glyph-name=".null" horiz-adv-x="0" 
 />
    <glyph glyph-name="nonmarkingreturn" horiz-adv-x="333" 
 />
    <glyph glyph-name="space" unicode=" " horiz-adv-x="188" 
 />
    <glyph glyph-name="exclam" unicode="!" horiz-adv-x="236" 
d="M161 195h-41q0 -1 -2.5 53t-5 121t-3.5 95l-6 242h74q-2 -141 -5 -243zM173 110v-110h-66v110h66z" />
    <glyph glyph-name="quotedbl" unicode="&#x22;" horiz-adv-x="349" 
d="M106 422h-32l-24 284h79zM276 422h-32l-24 284h79z" />
    <glyph glyph-name="numbersign" unicode="#" horiz-adv-x="668" 
d="M395 0h-46l36 255h-120l-37 -255h-46l37 255h-149v45h155l17 117h-147v44h154l33 237h46l-33 -237h120l33 237h46l-33 -237h137v-44h-144l-17 -117h138v-45h-143zM391 300l17 117h-120l-17 -117h120z" />
    <glyph glyph-name="dollar" unicode="$" horiz-adv-x="560" 
d="M298 689q141 -6 198 -131l-49 -31q-23 56 -58.5 81.5t-90.5 28.5v-252l19 -5q105 -30 148.5 -70.5t43.5 -117.5q0 -83 -57.5 -134.5t-153.5 -57.5v-100h-42v99q-90 5 -145.5 50t-76.5 119l56 32q13 -66 52.5 -102t113.5 -44v280l-19 5q-89 23 -132 67.5t-43 113.5
q0 72 53 118t141 51v91h42v-91zM256 637q-61 -2 -98 -33t-37 -80q0 -50 31 -79.5t104 -50.5v243zM298 323v-269q72 6 112 41t40 94q0 54 -33 82t-119 52z" />
    <glyph glyph-name="percent" unicode="%" horiz-adv-x="883" 
d="M338 0h-54l262 689h54zM365 472q0 -104 -43.5 -162t-120.5 -58t-120 58t-43 164q0 104 44.5 163.5t121.5 59.5t119 -61t42 -164zM309 471q0 84 -28.5 131t-78.5 47q-49 0 -78 -46t-29 -127q0 -86 28 -131.5t78 -45.5q51 0 79.5 44.5t28.5 127.5zM845 212
q0 -104 -43.5 -162t-120.5 -58t-120 58t-43 164q0 104 44.5 163.5t121.5 59.5t119 -61t42 -164zM789 211q0 84 -28.5 131t-78.5 47q-49 0 -78 -46t-29 -127q0 -86 28 -131.5t78 -45.5q51 0 79.5 44.5t28.5 127.5z" />
    <glyph glyph-name="ampersand" unicode="&#x26;" horiz-adv-x="621" 
d="M518 313l55 -27q-32 -98 -76 -161q6 -9 32 -40q29 -33 78 -33v-54q-10 -1 -21 -1q-56 0 -100 49q-10 12 -26 32q-79 -88 -199 -88q-95 0 -155 54.5t-60 137.5q0 71 36.5 122.5t137.5 107.5q-63 87 -63 161q0 60 41 96.5t108 36.5q61 0 98.5 -33t37.5 -86
q0 -55 -31.5 -96.5t-111.5 -90.5l163 -231q42 66 56 144zM425 121l-176 250q-79 -45 -111 -87t-32 -97q0 -66 45.5 -104.5t118.5 -38.5q94 0 155 77zM271 438q114 66 114 144q0 33 -22 53t-59 20q-40 0 -63.5 -22t-23.5 -59q0 -31 11 -59.5t43 -76.5z" />
    <glyph glyph-name="quotesingle" unicode="'" horiz-adv-x="177" 
d="M105 422h-32l-23 284h77z" />
    <glyph glyph-name="parenleft" unicode="(" horiz-adv-x="356" 
d="M328 -162l-23 -25q-109 76 -164.5 209t-55.5 278t55 268.5t166 205.5l21 -24q-175 -172 -175 -448q0 -292 176 -464z" />
    <glyph glyph-name="parenright" unicode=")" horiz-adv-x="356" 
d="M28 749l23 25q109 -76 164.5 -209t55.5 -278t-55 -268.5t-166 -205.5l-21 24q175 172 175 448q0 292 -176 464z" />
    <glyph glyph-name="asterisk" unicode="*" horiz-adv-x="314" 
d="M256 476l-37 -26l-61 95l-65 -95l-36 26l72 89l-107 34l14 41l103 -39l-4 116h46l-4 -116l101 38l14 -40l-104 -34z" />
    <glyph glyph-name="plus" unicode="+" horiz-adv-x="704" 
d="M382 15h-58v256h-258v57h258v257h58v-257h257v-57h-257v-256z" />
    <glyph glyph-name="comma" unicode="," horiz-adv-x="188" 
d="M126 110v-112q0 -38 -5 -61q-8 -34 -38 -69l-31 22q16 16 25 36q10 23 10 74h-29v110h68z" />
    <glyph glyph-name="hyphen" unicode="-" horiz-adv-x="362" 
d="M314 263h-266v56h266v-56z" />
    <glyph glyph-name="period" unicode="." horiz-adv-x="188" 
d="M127 111v-111h-66v111h66z" />
    <glyph glyph-name="slash" unicode="/" horiz-adv-x="420" 
d="M67 -175h-55l326 931h55z" />
    <glyph glyph-name="zero" unicode="0" horiz-adv-x="542" 
d="M502 340q0 -168 -61 -260t-172 -92t-170 92t-59 263q0 169 61 263.5t172 94.5q109 0 169 -95.5t60 -265.5zM441 337q0 148 -44 228.5t-124 80.5t-125.5 -79t-45.5 -221q0 -147 43 -224.5t125 -77.5t126.5 76t44.5 217z" />
    <glyph glyph-name="one" unicode="1" horiz-adv-x="542" 
d="M124 535v55q58 3 94.5 32t41.5 73h51v-695h-62v580q-43 -39 -125 -45z" />
    <glyph glyph-name="two" unicode="2" horiz-adv-x="542" 
d="M146 53q111 2 340 2v-55h-426v47q20 16 59 46.5t57 45t45.5 37.5t49.5 42t44 40q113 106 113 231q0 75 -43 116t-116 41q-72 0 -115 -42.5t-43 -114.5q0 -29 15 -77l-63 10q-10 35 -10 69q0 93 61 151.5t162 58.5q100 0 157.5 -57.5t57.5 -156.5q0 -83 -39 -151
t-122 -139q-47 -40 -184 -144z" />
    <glyph glyph-name="three" unicode="3" horiz-adv-x="542" 
d="M181 327v58q15 -1 31 -1q90 0 139 35.5t49 102.5q0 60 -36 92t-97 32q-56 0 -94.5 -33.5t-51.5 -95.5l-57 21q23 80 78 121.5t130 41.5q89 0 139 -47.5t50 -129.5q0 -129 -143 -166q76 -5 120.5 -50.5t44.5 -122.5q0 -88 -60.5 -142.5t-157.5 -54.5q-85 0 -141.5 44.5
t-75.5 124.5l57 27q30 -140 158 -140q70 0 112.5 38.5t42.5 103.5q0 76 -48.5 109t-144.5 33q-26 0 -44 -1z" />
    <glyph glyph-name="four" unicode="4" horiz-adv-x="542" 
d="M403 0h-59v163h-312v52l297 474h74v-473h118v-53h-118v-163zM96 216h248q0 274 3 413q-90 -155 -251 -413z" />
    <glyph glyph-name="five" unicode="5" horiz-adv-x="542" 
d="M160 635l-18 -240q56 70 153 70q88 0 140.5 -64t52.5 -170q0 -112 -60.5 -177.5t-163.5 -65.5q-80 0 -133 44t-70 125l60 28q19 -141 143 -141q74 0 117 48t43 135t-39.5 136t-108.5 49q-49 0 -84.5 -24.5t-51.5 -70.5l-55 8l24 364h338v-54h-287z" />
    <glyph glyph-name="six" unicode="6" horiz-adv-x="542" 
d="M485 561l-56 -28q-27 113 -128 113q-181 0 -188 -305q25 55 75.5 85.5t116.5 30.5q88 0 141.5 -65.5t53.5 -170.5q0 -107 -59.5 -170t-156.5 -63q-108 0 -168 85t-60 252q0 182 64 279.5t184 97.5q70 0 113.5 -34.5t67.5 -106.5zM439 219q0 86 -40 135.5t-110 49.5
q-69 0 -116 -48.5t-47 -119.5q0 -83 43 -137.5t117 -54.5q70 0 111.5 47t41.5 128z" />
    <glyph glyph-name="seven" unicode="7" horiz-adv-x="542" 
d="M46 635v54h441v-48q-101 -153 -158.5 -301t-72.5 -340h-66q24 342 230 635h-374z" />
    <glyph glyph-name="eight" unicode="8" horiz-adv-x="542" 
d="M349 361q69 -12 106.5 -58.5t37.5 -119.5q0 -87 -61 -141t-163 -54q-99 0 -159 54t-60 143q0 65 35.5 111.5t104.5 64.5q-123 36 -123 163q0 80 57 128.5t150 48.5q89 0 143 -49.5t54 -131.5q0 -117 -122 -159zM112 187q0 -67 44.5 -105.5t117.5 -38.5q69 0 113 38
t44 102q0 67 -44 108t-115 41t-115.5 -40t-44.5 -105zM411 521q0 58 -39 93t-100 35q-65 0 -105.5 -34t-40.5 -94q0 -59 39.5 -96t104.5 -37q62 0 101.5 38t39.5 95z" />
    <glyph glyph-name="nine" unicode="9" horiz-adv-x="542" 
d="M53 129l56 28q27 -113 134 -113q91 0 136 74t49 231q-25 -55 -74.5 -85t-115.5 -30q-89 0 -142.5 65t-53.5 170q0 106 61 169.5t156 63.5q108 0 167.5 -84.5t59.5 -252.5q0 -377 -246 -377q-140 0 -187 141zM102 471q0 -87 40 -135.5t111 -48.5q70 0 116.5 48t46.5 119
q0 83 -43 137.5t-117 54.5q-69 0 -111.5 -47.5t-42.5 -127.5z" />
    <glyph glyph-name="colon" unicode=":" horiz-adv-x="236" 
d="M175 111v-111h-66v111h66zM175 488v-112h-66v112h66z" />
    <glyph glyph-name="semicolon" unicode=";" horiz-adv-x="236" 
d="M174 110v-112q0 -38 -5 -61q-8 -34 -38 -69l-31 22q16 16 25 36q10 23 10 74h-29v110h68zM175 488v-112h-66v112h66z" />
    <glyph glyph-name="less" unicode="&#x3c;" horiz-adv-x="732" 
d="M586 30l-470 232v65l470 237v-67l-410 -201l410 -197v-69z" />
    <glyph glyph-name="equal" unicode="=" horiz-adv-x="732" 
d="M638 367h-544v57h544v-57zM638 178h-544v59h544v-59z" />
    <glyph glyph-name="greater" unicode="&#x3e;" horiz-adv-x="732" 
d="M146 564l470 -232v-64l-470 -238v67l409 202l-409 196v69z" />
    <glyph glyph-name="question" unicode="?" horiz-adv-x="521" 
d="M281 193h-56v24q0 43 12 70.5t52 65.5l39 39q79 79 79 146q0 59 -34 91t-94 32q-64 0 -101.5 -38t-37.5 -109q0 -18 3 -38l-63 10q-2 24 -2 33q0 90 55.5 144.5t149.5 54.5q85 0 136.5 -47.5t51.5 -126.5q0 -91 -91 -178l-45 -43q-29 -28 -41.5 -51t-12.5 -56v-23z
M286 110v-110h-66v110h66z" />
    <glyph glyph-name="at" unicode="@" horiz-adv-x="913" 
d="M811 14q-134 -115 -340 -115q-185 0 -292.5 105.5t-107.5 283.5q0 194 124 321t304 127q162 0 258.5 -91.5t96.5 -253.5q0 -120 -62 -202.5t-141 -82.5q-38 0 -63.5 23t-30.5 71q-49 -94 -142 -94q-68 0 -106 44t-38 122q0 107 64 183t152 76q73 0 96 -54l7 47h54
l-31 -206q-8 -56 -8 -88q0 -76 49 -76q57 0 103.5 70t46.5 169q0 140 -81 218t-221 78q-165 0 -271.5 -116.5t-106.5 -283.5q0 -159 93.5 -249.5t260.5 -90.5q184 0 303 107zM567 379q0 105 -84 105q-63 0 -109.5 -63.5t-46.5 -147.5q0 -56 25 -87t69 -31q66 0 106 69.5
t40 154.5z" />
    <glyph glyph-name="A" unicode="A" horiz-adv-x="608" 
d="M608 0h-70l-74 206h-319l-75 -206h-70l275 706h66zM166 261h278q-124 335 -138 376q-24 -69 -140 -376z" />
    <glyph glyph-name="B" unicode="B" horiz-adv-x="628" 
d="M80 706h260q101 0 151 -27q71 -39 71 -141q0 -125 -121 -159q72 -12 109.5 -59t37.5 -121q0 -99 -57 -146q-65 -53 -228 -53h-223v706zM143 649v-245h179q89 0 129 27q47 31 47 101q0 67 -43 93q-39 24 -131 24h-181zM143 348v-291h188q109 0 153 38q38 34 38 102
q0 73 -45 112q-47 39 -148 39h-186z" />
    <glyph glyph-name="C" unicode="C" horiz-adv-x="639" 
d="M605 528l-63 -23q-35 157 -185 157q-113 0 -177.5 -78.5t-64.5 -218.5q0 -148 65.5 -233.5t176.5 -85.5q75 0 126.5 42t67.5 123l65 -23q-28 -97 -96.5 -149t-168.5 -52q-140 0 -221.5 99.5t-81.5 271.5q0 170 84.5 265.5t225.5 95.5q99 0 162.5 -51t84.5 -140z" />
    <glyph glyph-name="D" unicode="D" horiz-adv-x="678" 
d="M80 0v706h179q180 0 262 -59q108 -77 108 -285q0 -93 -19.5 -157t-63.5 -112q-87 -93 -289 -93h-177zM143 57h101q104 0 164 20.5t99 67.5q55 66 55 214q0 180 -83 238q-74 52 -224 52h-112v-592z" />
    <glyph glyph-name="E" unicode="E" horiz-adv-x="586" 
d="M553 0h-473v706h449v-58h-385v-255h350v-58h-350v-277h409v-58z" />
    <glyph glyph-name="F" unicode="F" horiz-adv-x="562" 
d="M144 0h-64v706h449v-58h-385v-245h346v-59h-346v-344z" />
    <glyph glyph-name="G" unicode="G" horiz-adv-x="696" 
d="M622 0h-62v101q-68 -114 -217 -114q-133 0 -214 98t-81 260q0 164 85.5 269t231.5 105q207 0 256 -189l-66 -23q-35 155 -184 155q-116 0 -185.5 -85t-69.5 -229q0 -139 65.5 -220.5t174.5 -81.5q146 0 190 134q14 45 14 127h-242v58h304v-365z" />
    <glyph glyph-name="H" unicode="H" horiz-adv-x="689" 
d="M609 0h-64v338h-402v-338h-63v706h63v-311h402v311h64v-706z" />
    <glyph glyph-name="I" unicode="I" horiz-adv-x="223" 
d="M143 0h-63v706h63v-706z" />
    <glyph glyph-name="J" unicode="J" horiz-adv-x="396" 
d="M316 706v-504q0 -103 -31 -150q-43 -65 -152 -65q-73 0 -133 35l25 64q49 -41 106 -41q69 0 98 42q23 34 23 126v493h64z" />
    <glyph glyph-name="K" unicode="K" horiz-adv-x="630" 
d="M630 0h-75l-259 387l-153 -163v-224h-63v706h63v-403l376 403h80l-260 -274z" />
    <glyph glyph-name="L" unicode="L" horiz-adv-x="547" 
d="M519 0h-439v706h63v-648h376v-58z" />
    <glyph glyph-name="M" unicode="M" horiz-adv-x="803" 
d="M723 0h-61q0 539 4 644q-54 -155 -239 -644h-49q-207 539 -241 643q4 -73 4 -643h-61v706h91q176 -453 233 -616q37 108 225 616h94v-706z" />
    <glyph glyph-name="N" unicode="N" horiz-adv-x="698" 
d="M618 0h-71q-368 555 -408 622q2 -122 2 -622h-61v706h73q351 -532 406 -621q-3 118 -3 621h62v-706z" />
    <glyph glyph-name="O" unicode="O" horiz-adv-x="698" 
d="M650 349q0 -167 -79 -264.5t-214 -97.5q-146 0 -227.5 103t-81.5 269t82 263t223 97q98 0 166.5 -51.5t99.5 -133t31 -185.5zM583 349q0 147 -62 230t-170 83q-109 0 -173 -81t-64 -219q0 -146 65.5 -231.5t176.5 -85.5q104 0 165.5 81t61.5 223z" />
    <glyph glyph-name="P" unicode="P" horiz-adv-x="643" 
d="M142 0h-62v706h253q129 0 182 -25q41 -20 64.5 -64.5t23.5 -101.5q0 -131 -112 -176q-62 -25 -193 -25h-156v-314zM142 371h153q121 0 171 22q70 30 70 123q0 70 -45 104q-25 19 -61.5 24t-117.5 5h-170v-278z" />
    <glyph glyph-name="Q" unicode="Q" horiz-adv-x="702" 
d="M557 73l147 -120l-42 -42l-148 123q-64 -47 -161 -47q-144 0 -224.5 102.5t-80.5 270.5q0 165 82 262t223 97q99 0 168 -51.5t99.5 -133t30.5 -186.5q0 -172 -94 -275zM583 349q0 147 -62 230t-170 83q-109 0 -172.5 -81t-63.5 -218q0 -147 65 -232.5t176 -85.5
q104 0 165.5 81.5t61.5 222.5z" />
    <glyph glyph-name="R" unicode="R" horiz-adv-x="624" 
d="M601 0h-78l-211 310h-169v-310h-63v706h217q127 0 181 -23q44 -19 72 -64.5t28 -107.5q0 -83 -51.5 -133.5t-148.5 -60.5zM143 367h164q118 0 163 41q41 37 41 105q0 75 -53 110q-23 16 -57 21t-94 5h-164v-282z" />
    <glyph glyph-name="S" unicode="S" horiz-adv-x="586" 
d="M28 181l61 29q52 -166 207 -166q78 0 127 36.5t49 100.5q0 52 -34 82t-124 60l-59 20q-101 34 -146 77t-45 117q0 81 64.5 132t161.5 51q181 0 247 -163l-59 -30q-45 137 -186 137q-76 0 -119.5 -34t-43.5 -90q0 -49 35 -78t124 -59l62 -21q104 -34 146.5 -78.5
t42.5 -119.5q0 -90 -68 -144t-178 -54q-97 0 -164.5 50.5t-100.5 144.5z" />
    <glyph glyph-name="T" unicode="T" horiz-adv-x="551" 
d="M307 0h-65v648h-216v58h498v-58h-217v-648z" />
    <glyph glyph-name="U" unicode="U" horiz-adv-x="677" 
d="M597 706v-393q0 -94 -9 -144.5t-34 -87.5q-64 -94 -218 -94q-151 0 -215 97q-26 39 -33.5 89t-7.5 137v396h63v-434q0 -98 33 -152q47 -76 162 -76q111 0 163 71q33 46 33 160v431h63z" />
    <glyph glyph-name="V" unicode="V" horiz-adv-x="569" 
d="M315 0h-64l-251 706h69q171 -492 217 -636q34 117 215 636h68z" />
    <glyph glyph-name="W" unicode="W" horiz-adv-x="842" 
d="M654 0h-63q-144 513 -167 616q-25 -115 -165 -616h-64l-195 706h66q147 -548 165 -627q20 86 163 627h59q136 -493 169 -626q27 132 156 626h64z" />
    <glyph glyph-name="X" unicode="X" horiz-adv-x="590" 
d="M590 0h-74q-191 284 -225 333q-34 -55 -218 -333h-73l253 373l-224 333h77q142 -215 189 -290q17 26 191 290h73l-225 -329z" />
    <glyph glyph-name="Y" unicode="Y" horiz-adv-x="577" 
d="M317 0h-63v294l-254 412h74q172 -286 213 -363q44 79 220 363h70l-260 -412v-294z" />
    <glyph glyph-name="Z" unicode="Z" horiz-adv-x="569" 
d="M536 0h-507v48l430 600h-407v58h488v-50l-427 -598h423v-58z" />
    <glyph glyph-name="bracketleft" unicode="[" horiz-adv-x="307" 
d="M262 -176h-172v933h172v-44h-112v-846h112v-43z" />
    <glyph glyph-name="backslash" unicode="\" horiz-adv-x="432" 
d="M358 -174l-331 929h54l331 -929h-54z" />
    <glyph glyph-name="bracketright" unicode="]" horiz-adv-x="307" 
d="M45 757h172v-933h-172v43h112v846h-112v44z" />
    <glyph glyph-name="asciicircum" unicode="^" horiz-adv-x="621" 
d="M520 328h-65l-143 316l-145 -316h-67l182 378h63z" />
    <glyph glyph-name="underscore" unicode="_" horiz-adv-x="671" 
d="M671 -194h-671v44h671v-44z" />
    <glyph glyph-name="grave" unicode="`" 
d="M173 565h-44l-100 146h78z" />
    <glyph glyph-name="a" unicode="a" horiz-adv-x="473" 
d="M347 297v35q0 66 -28 91q-28 26 -82 26q-116 0 -127 -113l-59 8q9 77 59 116t129 39q102 0 139 -56q26 -40 26 -128v-201q0 -36 8.5 -52t38.5 -16q9 0 21 2v-48q-22 -2 -35 -2q-43 0 -64 18t-24 59q-52 -82 -169 -82q-66 0 -107 37.5t-41 96.5q0 92 92 130q66 27 223 40z
M347 251q-139 -10 -197 -37q-59 -27 -59 -84q0 -43 27.5 -66t74.5 -23q77 0 118 50q36 45 36 127v33z" />
    <glyph glyph-name="b" unicode="b" horiz-adv-x="522" 
d="M71 706h60v-300q59 90 164 90q86 0 136 -68t50 -186q0 -120 -53.5 -185.5t-142.5 -65.5q-103 0 -156 86v-77h-58v706zM130 253q0 -100 39 -154.5t108 -54.5q68 0 105 52t37 148q0 94 -37 147t-101 53q-68 0 -109.5 -52t-41.5 -139z" />
    <glyph glyph-name="c" unicode="c" horiz-adv-x="457" 
d="M439 360l-58 -19q-20 106 -119 106q-75 0 -117.5 -52.5t-42.5 -149.5q0 -95 44 -150t120 -55q100 0 121 104l57 -18q-19 -62 -64.5 -100t-120.5 -38q-100 0 -159 69t-59 190q0 117 60 184.5t163 67.5q143 0 175 -139z" />
    <glyph glyph-name="d" unicode="d" horiz-adv-x="522" 
d="M451 0h-59v81q-54 -90 -160 -90q-89 0 -140 68t-51 188q0 115 56 182t144 67q106 0 151 -78v288h59v-706zM391 243q0 97 -37 149t-106 52q-68 0 -106.5 -51.5t-38.5 -144.5q0 -96 37.5 -150t102.5 -54q67 0 107.5 50t40.5 149z" />
    <glyph glyph-name="e" unicode="e" horiz-adv-x="509" 
d="M413 145l54 -18q-19 -65 -70.5 -102t-124.5 -37q-112 0 -171.5 70t-59.5 193q0 115 61 181.5t162 66.5q200 0 205 -260h-367q0 -97 46.5 -148t124.5 -51q113 0 140 105zM406 289q-5 77 -41.5 119t-102.5 42q-67 0 -109 -41t-50 -120h303z" />
    <glyph glyph-name="f" unicode="f" horiz-adv-x="278" 
d="M267 436h-107v-436h-60v436h-93v52h93v83q0 75 25 107q28 35 90 35q29 0 55 -9v-54q-23 11 -49 11q-37 0 -51 -25q-10 -17 -10 -60v-88h107v-52z" />
    <glyph glyph-name="g" unicode="g" horiz-adv-x="523" 
d="M391 13v70q-51 -87 -157 -87q-90 0 -141.5 66.5t-51.5 182.5q0 117 55 183.5t148 66.5q106 0 148 -79v71h59v-487q0 -118 -53.5 -166.5t-150.5 -48.5q-157 0 -191 141l63 17q21 -106 132 -106q77 0 108.5 39t31.5 137zM251 443q-69 0 -109 -50.5t-40 -139.5
q0 -96 39 -152t107 -56q65 0 103.5 50.5t38.5 143.5q0 97 -35.5 150.5t-103.5 53.5z" />
    <glyph glyph-name="h" unicode="h" horiz-adv-x="515" 
d="M449 0h-59v298q0 74 -22 106q-26 37 -88 37q-28 0 -58.5 -14t-51.5 -41q-39 -48 -39 -142v-244h-60v706h60v-305q25 45 69 69.5t97 24.5q77 0 117 -46q35 -41 35 -133v-316z" />
    <glyph glyph-name="i" unicode="i" 
d="M131 0h-60v488h60v-488zM132 624h-62v82h62v-82z" />
    <glyph glyph-name="j" unicode="j" horiz-adv-x="216" 
d="M86 487h58v-531q0 -94 -23 -126q-32 -45 -107 -45q-25 0 -45 6v53q21 -7 37 -7q51 0 68 28q12 20 12 96v526zM145 623h-60v83h60v-83z" />
    <glyph glyph-name="k" unicode="k" horiz-adv-x="468" 
d="M468 0h-72l-168 257l-98 -103v-154h-59v706h59v-481l239 263h74l-174 -189z" />
    <glyph glyph-name="l" unicode="l" 
d="M131 0h-60v706h60v-706z" />
    <glyph glyph-name="m" unicode="m" horiz-adv-x="800" 
d="M733 0h-59v288q0 79 -17 110q-24 43 -81 43q-66 0 -105 -52q-39 -49 -39 -147v-242h-59v285q0 72 -12 104q-19 52 -86 52q-28 0 -58.5 -15t-51.5 -46q-35 -49 -35 -136v-244h-59v488h59v-87q26 46 70 70t93 24q106 0 131 -98q25 48 70 72.5t99 24.5q109 0 133 -96
q7 -29 7 -92v-306z" />
    <glyph glyph-name="n" unicode="n" horiz-adv-x="515" 
d="M449 0h-59v298q0 65 -16 97q-23 46 -94 46q-67 0 -110 -55q-39 -49 -39 -142v-244h-60v488h60v-87q25 45 69 69.5t97 24.5q95 0 132 -70q20 -39 20 -120v-305z" />
    <glyph glyph-name="o" unicode="o" horiz-adv-x="526" 
d="M264 -12q-106 0 -164.5 69.5t-58.5 189.5q0 117 61.5 184.5t167.5 67.5q100 0 157 -68.5t57 -189.5q0 -116 -59.5 -184.5t-160.5 -68.5zM423 240q0 97 -42 152t-114 55q-75 0 -119.5 -52t-44.5 -141q0 -99 43.5 -156.5t116.5 -57.5t116.5 53t43.5 147z" />
    <glyph glyph-name="p" unicode="p" horiz-adv-x="522" 
d="M71 488h60v-86q55 94 163 94q86 0 136.5 -68.5t50.5 -186.5q0 -117 -54 -183t-143 -66q-111 0 -154 89v-287h-59v694zM130 253q0 -100 39 -155t109 -55q68 0 104.5 52t36.5 149q0 94 -37 147.5t-101 53.5q-67 0 -109 -53t-42 -139z" />
    <glyph glyph-name="q" unicode="q" horiz-adv-x="522" 
d="M450 -206h-59v288q-61 -90 -165 -90q-86 0 -135.5 68t-49.5 186q0 119 53.5 184.5t142.5 65.5q103 0 156 -85v77h57v-694zM392 235q0 99 -39 154t-108 55q-68 0 -105.5 -52t-37.5 -149q0 -93 37.5 -146t101.5 -53q68 0 109.5 52t41.5 139z" />
    <glyph glyph-name="r" unicode="r" horiz-adv-x="320" 
d="M131 0h-60v488h58v-83q45 89 138 89q24 0 48 -7v-66q-22 13 -53 13q-63 0 -95 -48q-36 -42 -36 -142v-244z" />
    <glyph glyph-name="s" unicode="s" horiz-adv-x="426" 
d="M23 122l56 25q15 -50 50.5 -79t88.5 -29q52 0 84 22.5t32 61.5q0 36 -23 55.5t-86 39.5l-54 18q-123 39 -123 134q0 57 46.5 93t122.5 36q129 0 172 -118l-55 -24q-25 92 -120 92q-51 0 -79 -20t-28 -55q0 -32 21 -51.5t75 -35.5l48 -14q74 -22 108.5 -54t34.5 -88
q0 -65 -48.5 -104t-129.5 -39q-74 0 -122.5 37t-70.5 97z" />
    <glyph glyph-name="t" unicode="t" horiz-adv-x="275" 
d="M262 54v-52q-30 -9 -60 -9q-61 0 -86 37q-18 26 -18 84v322h-91v52h92v171h59v-171h102v-52h-102v-316q0 -43 14 -60q12 -16 43 -16q20 0 47 10z" />
    <glyph glyph-name="u" unicode="u" horiz-adv-x="517" 
d="M68 488h59v-293q0 -78 25 -111q29 -38 91 -38t101 47q42 51 42 139v256h60v-488h-60v84q-54 -92 -163 -92q-82 0 -122 52q-33 43 -33 133v311z" />
    <glyph glyph-name="v" unicode="v" horiz-adv-x="433" 
d="M248 0h-61l-187 488h66q117 -317 153 -421q35 101 150 421h64z" />
    <glyph glyph-name="w" unicode="w" horiz-adv-x="667" 
d="M516 0h-58q-93 307 -122 413q-22 -88 -122 -413h-59l-155 488h64q53 -170 125 -412q26 101 118 412h59q94 -311 121 -412q30 110 118 412h62z" />
    <glyph glyph-name="x" unicode="x" horiz-adv-x="431" 
d="M422 0h-69q-104 160 -139 217q-15 -24 -138 -217h-66l167 253l-154 235h69q94 -147 124 -197q1 2 42 66t83 131h67l-156 -233z" />
    <glyph glyph-name="y" unicode="y" horiz-adv-x="438" 
d="M191 -13l-186 501h66q110 -307 153 -436q68 203 149 436h65l-200 -543q-33 -87 -58 -118q-34 -42 -98 -42q-26 0 -50 8v53q23 -9 48 -9t38 7t31 40t42 103z" />
    <glyph glyph-name="z" unicode="z" horiz-adv-x="413" 
d="M384 0h-358v37l275 399h-261v52h338v-37l-273 -399h279v-52z" />
    <glyph glyph-name="braceleft" unicode="{" horiz-adv-x="334" 
d="M52 275v30q47 21 60 48q15 29 15 122v88q0 71 16 111t51 63q34 23 96 31v-36q-33 -9 -51 -21q-29 -19 -41 -53t-12 -102v-76q0 -100 -17 -137q-15 -33 -61 -52q44 -21 60 -51q18 -35 18 -139v-77q0 -80 19 -118q23 -44 85 -56v-37q-69 8 -104 33q-31 24 -45 62.5
t-14 108.5v89q0 78 -9 108q-7 25 -22.5 38.5t-43.5 22.5z" />
    <glyph glyph-name="bar" unicode="|" horiz-adv-x="240" 
d="M149 -176h-59v933h59v-933z" />
    <glyph glyph-name="braceright" unicode="}" horiz-adv-x="334" 
d="M281 305v-30q-47 -21 -60 -48q-15 -29 -15 -121v-88q0 -71 -16 -111t-51 -63q-34 -23 -96 -31v36q33 9 51 21q29 19 41 53t12 102v76q0 99 17 136q15 33 61 52q-44 21 -60 51q-18 35 -18 140v77q0 80 -19 118q-23 44 -85 56v37q69 -8 104 -33q31 -24 45 -62.5t14 -108.5
v-89q0 -78 9 -108q13 -46 66 -62z" />
    <glyph glyph-name="asciitilde" unicode="~" horiz-adv-x="703" 
d="M113 227l-43 40q69 105 163 105q28 0 54 -9.5t83 -42.5q67 -38 101 -38q62 0 119 88l43 -41q-71 -105 -164 -105q-47 0 -119 41q-53 31 -74.5 40t-44.5 9q-35 0 -62.5 -20t-55.5 -67z" />
    <glyph glyph-name="uni00A0" unicode="&#xa0;" horiz-adv-x="188" 
 />
    <glyph glyph-name="exclamdown" unicode="&#xa1;" horiz-adv-x="236" 
d="M74 511h41q0 1 2.5 -53t5 -121t3.5 -95l6 -242h-74q2 141 5 243zM62 596v110h66v-110h-66z" />
    <glyph glyph-name="cent" unicode="&#xa2;" horiz-adv-x="507" 
d="M253 -103v98q-88 9 -138 74.5t-50 174.5q0 105 50 168.5t138 73.5v92h43v-90q124 -6 162 -125l-57 -19q-23 89 -105 94v-394q85 3 112 93l56 -18q-44 -118 -168 -125v-97h-43zM125 242q0 -81 33.5 -132.5t94.5 -62.5v390q-61 -11 -94.5 -61.5t-33.5 -133.5z" />
    <glyph glyph-name="sterling" unicode="&#xa3;" horiz-adv-x="597" 
d="M247 353h202v-45h-186q25 -85 25 -121q0 -46 -16 -84q101 -59 142 -59q81 0 94 112l53 -18q-26 -149 -141 -149q-31 0 -60 8.5t-49 19.5t-65 38q-45 -61 -125 -61q-44 0 -70.5 22t-26.5 58t24.5 60t66.5 24q56 0 113 -32q8 19 8 46q0 33 -33 136h-124v45h108
q-36 111 -36 173q0 80 54 127.5t142 47.5q131 0 183 -133l-55 -28q-31 106 -131 106q-63 0 -97.5 -31.5t-34.5 -88.5q0 -58 35 -173zM206 78q-51 33 -89 33q-42 0 -42 -37q0 -38 51 -38q46 0 80 42z" />
    <glyph glyph-name="currency" unicode="&#xa4;" horiz-adv-x="670" 
d="M171 541q70 59 165 59q92 0 162 -58l72 72l36 -36l-71 -73q60 -70 60 -162t-60 -162l73 -73l-37 -35l-72 71q-68 -58 -163 -58t-164 57l-72 -71l-37 36l72 73q-60 70 -60 162q0 91 60 162l-72 72l37 37zM126 345q0 -92 59.5 -152t150.5 -60q89 0 148.5 60t59.5 150
q0 89 -59.5 149t-148.5 60t-149.5 -59.5t-60.5 -147.5z" />
    <glyph glyph-name="yen" unicode="&#xa5;" horiz-adv-x="616" 
d="M538 350h-162l-40 -63v-20h202v-45h-202v-222h-63v222h-202v45h202v20l-38 63h-164v44h136l-181 295h71q180 -300 210 -354q54 94 214 354h69l-186 -295h134v-44z" />
    <glyph glyph-name="brokenbar" unicode="&#xa6;" horiz-adv-x="240" 
d="M149 363h-59v394h59v-394zM149 -176h-59v393h59v-393z" />
    <glyph glyph-name="section" unicode="&#xa7;" horiz-adv-x="546" 
d="M74 0l50 39q47 -106 152 -106q60 0 95 26.5t35 65.5q0 36 -25 59.5t-106 61.5l-97 44q-122 54 -122 150q0 103 127 147q-76 44 -76 121q0 60 48.5 99t125.5 39q113 0 176 -93l-47 -40q-40 79 -133 79q-50 0 -80 -22t-30 -57q0 -36 24.5 -59.5t100.5 -56.5l79 -34
q69 -30 97 -65.5t28 -82.5q0 -94 -115 -157q50 -30 69 -59t19 -71q0 -66 -55 -108t-141 -42q-64 0 -116 31.5t-83 90.5zM212 237l125 -56q53 29 77 57.5t24 65.5t-23.5 61.5t-77.5 49.5l-108 48q-115 -34 -115 -116q0 -36 23 -61t75 -49z" />
    <glyph glyph-name="dieresis" unicode="&#xa8;" 
d="M31 596h-57v83h57v-83zM228 596h-56v83h56v-83z" />
    <glyph glyph-name="copyright" unicode="&#xa9;" horiz-adv-x="825" 
d="M784 360q0 -159 -104 -267t-258 -108q-160 0 -269.5 107.5t-109.5 262.5q0 154 108 260t265 106q153 0 260.5 -105t107.5 -256zM741 350q0 143 -92.5 238.5t-231.5 95.5q-141 0 -236.5 -95.5t-95.5 -234.5q0 -138 97.5 -235t236.5 -97q135 0 228.5 95.5t93.5 232.5z
M589 496l-42 -32q-45 75 -126 75q-76 0 -120.5 -50.5t-44.5 -137.5q0 -85 45 -136.5t120 -51.5q88 0 134 77l42 -33q-62 -91 -178 -91q-99 0 -159 65.5t-60 171.5q0 102 62.5 167.5t160.5 65.5q112 0 166 -90z" />
    <glyph glyph-name="ordfeminine" unicode="&#xaa;" horiz-adv-x="402" 
d="M288 552v21q0 53 -17 74q-21 27 -72 27q-46 0 -69.5 -21.5t-28.5 -67.5l-51 8q18 124 152 124q81 0 111 -41q24 -32 24 -105v-155q0 -33 8.5 -46.5t29.5 -13.5q6 0 18 2v-43q-14 -2 -26 -2q-36 0 -55 14t-23 48q-45 -67 -140 -67q-52 0 -84.5 30t-32.5 77q0 65 60 96
q55 28 196 41zM288 512q-122 -14 -163 -34q-39 -20 -39 -61q0 -30 20 -48t56 -18q58 0 93 35q33 32 33 98v28z" />
    <glyph glyph-name="guillemotleft" unicode="&#xab;" horiz-adv-x="442" 
d="M184 459l38 -29l-112 -163l112 -161l-38 -30l-141 191zM355 459l38 -29l-112 -163l112 -161l-38 -30l-140 191z" />
    <glyph glyph-name="logicalnot" unicode="&#xac;" horiz-adv-x="732" 
d="M627 35h-59v242h-485v58h544v-300z" />
    <glyph glyph-name="uni00AD" unicode="&#xad;" horiz-adv-x="361" 
d="M313 263h-266v56h266v-56z" />
    <glyph glyph-name="registered" unicode="&#xae;" horiz-adv-x="825" 
d="M783 359q0 -158 -104 -265.5t-258 -107.5q-159 0 -269 107t-110 262q0 153 108.5 259.5t264.5 106.5q154 0 261 -105.5t107 -256.5zM741 350q0 143 -92.5 238.5t-232.5 95.5t-235.5 -95.5t-95.5 -235.5q0 -137 97 -234t236 -97q135 0 229 95.5t94 232.5zM603 139h-62
l-129 189h-89v-189h-51v443h122q93 0 125 -14q66 -29 66 -111q0 -108 -118 -125zM323 374h85q62 0 88 13q38 18 38 71q0 48 -35 66q-25 13 -82 13h-94v-163z" />
    <glyph glyph-name="macron" unicode="&#xaf;" 
d="M217 597h-232v49h232v-49z" />
    <glyph glyph-name="degree" unicode="&#xb0;" horiz-adv-x="349" 
d="M173 719q63 0 105 -41.5t42 -103.5t-42 -103.5t-103 -41.5q-62 0 -104 42t-42 103q0 60 42 102.5t102 42.5zM176 677q-45 0 -73.5 -29.5t-28.5 -73.5q0 -45 28.5 -74.5t72.5 -29.5t72 30t28 74t-28 73.5t-71 29.5z" />
    <glyph glyph-name="plusminus" unicode="&#xb1;" horiz-adv-x="732" 
d="M396 150h-59v238h-243v56h243v238h59v-238h242v-56h-242v-238zM638 0h-544v57h544v-57z" />
    <glyph glyph-name="twosuperior" unicode="&#xb2;" horiz-adv-x="403" 
d="M131 488q22 1 220 1v-49h-299v46q24 15 108 75q76 54 104.5 93t28.5 88q0 41 -25.5 64t-70.5 23q-43 0 -68 -22.5t-25 -61.5q0 -27 9 -55l-55 8q-8 23 -8 49q0 60 40.5 95t111.5 35t110.5 -36.5t39.5 -99.5q0 -43 -22.5 -81t-78.5 -86q-59 -49 -120 -86z" />
    <glyph glyph-name="threesuperior" unicode="&#xb3;" horiz-adv-x="403" 
d="M141 638v45q14 -1 23 -1q56 0 88.5 20t32.5 59q0 33 -22.5 51t-61.5 18q-81 0 -94 -83l-51 16q28 114 149 114q63 0 99.5 -30.5t36.5 -83.5q0 -40 -25 -65.5t-71 -33.5q50 -4 80 -32t30 -76q0 -55 -43 -89.5t-112 -34.5q-124 0 -153 116l51 21q15 -90 101 -90
q44 0 71.5 21.5t27.5 59.5q0 41 -31 60t-97 19q-17 0 -29 -1z" />
    <glyph glyph-name="acute" unicode="&#xb4;" 
d="M72 565h-45l71 146h77z" />
    <glyph glyph-name="mu" unicode="&#xb5;" horiz-adv-x="516" 
d="M128 488v-246q0 -102 17 -139q12 -26 39 -42t60 -16q46 0 81 27t49 72q11 38 11 130v214h59v-488h-56v83q-49 -91 -150 -91q-83 0 -114 64v-233h-55v665h59z" />
    <glyph glyph-name="paragraph" unicode="&#xb6;" horiz-adv-x="574" 
d="M527 706v-43h-66v-805h-45v805h-161v-805h-45v470q-80 10 -124 58.5t-44 126.5q0 109 87 161q54 32 173 32h225z" />
    <glyph glyph-name="periodcentered" unicode="&#xb7;" horiz-adv-x="188" 
d="M127 345v-111h-66v111h66z" />
    <glyph glyph-name="cedilla" unicode="&#xb8;" 
d="M75 5h37l-27 -63q13 3 23 3q35 0 56 -20.5t21 -54.5q0 -39 -26.5 -63.5t-69.5 -24.5q-45 0 -73 27l22 34q22 -22 50 -22q22 0 35 13t13 33q0 19 -12.5 30.5t-34.5 11.5q-23 0 -42 -13l-14 20z" />
    <glyph glyph-name="onesuperior" unicode="&#xb9;" horiz-adv-x="403" 
d="M98 761v49q84 4 93 65h49v-435h-56v344q-28 -20 -86 -23z" />
    <glyph glyph-name="ordmasculine" unicode="&#xba;" horiz-adv-x="431" 
d="M216 307q-85 0 -133.5 53.5t-48.5 150.5q0 96 49.5 151t135.5 55q82 0 130 -56t48 -152q0 -92 -49 -147t-132 -55zM343 508q0 76 -34 119.5t-90 43.5q-59 0 -95 -41t-36 -113q0 -78 34.5 -121t94.5 -43q57 0 91.5 41.5t34.5 113.5z" />
    <glyph glyph-name="guillemotright" unicode="&#xbb;" horiz-adv-x="442" 
d="M258 76l-38 30l112 162l-112 162l38 29l140 -191zM86 76l-38 30l112 162l-112 162l38 29l141 -191z" />
    <glyph glyph-name="onequarter" unicode="&#xbc;" horiz-adv-x="883" 
d="M308 0h-54l262 689h54zM88 581v49q84 4 93 65h49v-435h-56v344q-28 -20 -86 -23zM734 0h-53v99h-208v42l199 288h62v-283h78v-47h-78v-99zM531 146h150q0 124 1 224q-8 -13 -151 -224z" />
    <glyph glyph-name="onehalf" unicode="&#xbd;" horiz-adv-x="883" 
d="M291 0h-53l262 689h53zM80 581v49q84 4 93 65h49v-435h-56v344q-28 -20 -86 -23zM584 48q22 1 220 1v-49h-299v46q24 15 108 75q76 54 104.5 93t28.5 88q0 41 -25.5 64t-70.5 23q-43 0 -68 -22.5t-25 -61.5q0 -27 9 -55l-55 8q-8 23 -8 49q0 60 40.5 95t111.5 35
t110.5 -36.5t39.5 -99.5q0 -43 -22.5 -81t-78.5 -86q-59 -49 -120 -86z" />
    <glyph glyph-name="threequarters" unicode="&#xbe;" horiz-adv-x="883" 
d="M345 0h-54l262 689h54zM141 458v45q14 -1 23 -1q56 0 88.5 20t32.5 59q0 33 -22.5 51t-61.5 18q-81 0 -94 -83l-51 16q28 114 149 114q63 0 99.5 -30.5t36.5 -83.5q0 -40 -25 -65.5t-71 -33.5q50 -4 80 -32t30 -76q0 -55 -43 -89.5t-112 -34.5q-124 0 -153 116l51 21
q15 -90 101 -90q44 0 71.5 21.5t27.5 59.5q0 41 -31 60t-97 19q-17 0 -29 -1zM757 0h-53v99h-208v42l199 288h62v-283h78v-47h-78v-99zM554 146h150q0 124 1 224q-8 -13 -151 -224z" />
    <glyph glyph-name="questiondown" unicode="&#xbf;" horiz-adv-x="521" 
d="M239 513h56v-24q0 -43 -12 -70.5t-52 -65.5l-39 -39q-79 -79 -79 -146q0 -59 34 -91t94 -32q64 0 101.5 38t37.5 109q0 18 -3 38l63 -10q2 -24 2 -33q0 -90 -55.5 -144.5t-149.5 -54.5q-85 0 -136.5 47.5t-51.5 126.5q0 91 91 178l45 43q29 28 41.5 51t12.5 56v23z
M234 596v110h66v-110h-66z" />
    <glyph glyph-name="Agrave" unicode="&#xc0;" horiz-adv-x="608" 
d="M608 0h-70l-74 206h-319l-75 -206h-70l275 706h66zM166 261h278q-124 335 -138 376q-24 -69 -140 -376zM358 768h-51l-113 117h86z" />
    <glyph glyph-name="Aacute" unicode="&#xc1;" horiz-adv-x="608" 
d="M608 0h-70l-74 206h-319l-75 -206h-70l275 706h66zM166 261h278q-124 335 -138 376q-24 -69 -140 -376zM311 768h-52l85 117h87z" />
    <glyph glyph-name="Acircumflex" unicode="&#xc2;" horiz-adv-x="608" 
d="M608 0h-70l-74 206h-319l-75 -206h-70l275 706h66zM166 261h278q-124 335 -138 376q-24 -69 -140 -376zM432 771h-55l-71 71l-72 -71h-53l95 114h60z" />
    <glyph glyph-name="Atilde" unicode="&#xc3;" horiz-adv-x="608" 
d="M608 0h-70l-74 206h-319l-75 -206h-70l275 706h66zM166 261h278q-124 335 -138 376q-24 -69 -140 -376zM459 844q-37 -68 -89 -68q-28 0 -54 16l-25 15q-17 11 -35 11q-34 0 -53 -44l-38 24q32 71 90 71q25 0 51 -14l23 -13q28 -14 39 -14q17 0 28.5 8.5t24.5 31.5z" />
    <glyph glyph-name="Adieresis" unicode="&#xc4;" horiz-adv-x="608" 
d="M608 0h-70l-74 206h-319l-75 -206h-70l275 706h66zM166 261h278q-124 335 -138 376q-24 -69 -140 -376zM218 771h-59v82h59v-82zM453 771h-58v82h58v-82z" />
    <glyph glyph-name="Aring" unicode="&#xc5;" horiz-adv-x="608" 
d="M608 0h-70l-74 206h-319l-75 -206h-70l275 706h66zM166 261h278q-124 335 -138 376q-24 -69 -140 -376zM306 896q39 0 62.5 -22t23.5 -61q0 -36 -23.5 -59t-60.5 -23q-38 0 -62 23t-24 60q0 36 23.5 59t60.5 23zM308 862q-22 0 -35.5 -13t-13.5 -36q0 -21 13.5 -35
t34.5 -14t34.5 14t13.5 35q0 22 -13.5 35.5t-33.5 13.5z" />
    <glyph glyph-name="AE" unicode="&#xc6;" horiz-adv-x="969" 
d="M0 0l429 706h482v-58h-385v-255h350v-58h-350v-277h409v-58h-473v200h-270l-120 -200h-72zM462 255v399q-51 -92 -237 -399h237z" />
    <glyph glyph-name="Ccedilla" unicode="&#xc7;" horiz-adv-x="639" 
d="M605 528l-63 -23q-35 157 -185 157q-113 0 -177.5 -78.5t-64.5 -218.5q0 -148 65.5 -233.5t176.5 -85.5q75 0 126.5 42t67.5 123l65 -23q-28 -95 -93 -146.5t-161 -54.5l-20 -47q14 3 24 3q34 0 55.5 -20t21.5 -55q0 -39 -27 -63.5t-70 -24.5q-44 0 -74 27l22 34
q22 -22 51 -22q22 0 35 13t13 33q0 19 -12.5 30.5t-34.5 11.5t-42 -13l-14 19l35 75q-130 10 -203.5 108t-73.5 262q0 170 84.5 265.5t225.5 95.5q99 0 162.5 -51t84.5 -140z" />
    <glyph glyph-name="Egrave" unicode="&#xc8;" horiz-adv-x="586" 
d="M553 0h-473v706h449v-58h-385v-255h350v-58h-350v-277h409v-58zM348 768h-51l-113 117h86z" />
    <glyph glyph-name="Eacute" unicode="&#xc9;" horiz-adv-x="586" 
d="M553 0h-473v706h449v-58h-385v-255h350v-58h-350v-277h409v-58zM306 768h-52l85 117h87z" />
    <glyph glyph-name="Ecircumflex" unicode="&#xca;" horiz-adv-x="586" 
d="M553 0h-473v706h449v-58h-385v-255h350v-58h-350v-277h409v-58zM427 771h-55l-71 71l-72 -71h-53l95 114h60z" />
    <glyph glyph-name="Edieresis" unicode="&#xcb;" horiz-adv-x="586" 
d="M553 0h-473v706h449v-58h-385v-255h350v-58h-350v-277h409v-58zM218 771h-59v82h59v-82zM453 771h-58v82h58v-82z" />
    <glyph glyph-name="Igrave" unicode="&#xcc;" horiz-adv-x="223" 
d="M143 0h-63v706h63v-706zM161 768h-51l-113 117h86z" />
    <glyph glyph-name="Iacute" unicode="&#xcd;" horiz-adv-x="223" 
d="M143 0h-63v706h63v-706zM114 768h-52l85 117h87z" />
    <glyph glyph-name="Icircumflex" unicode="&#xce;" horiz-adv-x="223" 
d="M143 0h-63v706h63v-706zM237 771h-55l-71 71l-72 -71h-53l95 114h60z" />
    <glyph glyph-name="Idieresis" unicode="&#xcf;" horiz-adv-x="223" 
d="M143 0h-63v706h63v-706zM38 771h-59v82h59v-82zM243 771h-58v82h58v-82z" />
    <glyph glyph-name="Eth" unicode="&#xd0;" horiz-adv-x="678" 
d="M80 0v345h-74v57h74v304h179q180 0 262 -59q108 -77 108 -285q0 -93 -19.5 -157t-63.5 -112q-87 -93 -289 -93h-177zM143 57h101q104 0 164 20.5t99 67.5q55 66 55 214q0 180 -83 238q-74 52 -224 52h-112v-247h253v-57h-253v-288z" />
    <glyph glyph-name="Ntilde" unicode="&#xd1;" horiz-adv-x="698" 
d="M618 0h-71q-368 555 -408 622q2 -122 2 -622h-61v706h73q351 -532 406 -621q-3 118 -3 621h62v-706zM505 844q-37 -68 -89 -68q-28 0 -54 16l-25 15q-17 11 -35 11q-34 0 -53 -44l-38 24q32 71 90 71q25 0 51 -14l23 -13q28 -14 39 -14q17 0 28.5 8.5t24.5 31.5z" />
    <glyph glyph-name="Ograve" unicode="&#xd2;" horiz-adv-x="698" 
d="M650 349q0 -167 -79 -264.5t-214 -97.5q-146 0 -227.5 103t-81.5 269t82 263t223 97q98 0 166.5 -51.5t99.5 -133t31 -185.5zM583 349q0 147 -62 230t-170 83q-109 0 -173 -81t-64 -219q0 -146 65.5 -231.5t176.5 -85.5q104 0 165.5 81t61.5 223zM401 768h-51l-113 117
h86z" />
    <glyph glyph-name="Oacute" unicode="&#xd3;" horiz-adv-x="698" 
d="M650 349q0 -167 -79 -264.5t-214 -97.5q-146 0 -227.5 103t-81.5 269t82 263t223 97q98 0 166.5 -51.5t99.5 -133t31 -185.5zM583 349q0 147 -62 230t-170 83q-109 0 -173 -81t-64 -219q0 -146 65.5 -231.5t176.5 -85.5q104 0 165.5 81t61.5 223zM353 768h-52l85 117h87z
" />
    <glyph glyph-name="Ocircumflex" unicode="&#xd4;" horiz-adv-x="698" 
d="M650 349q0 -167 -79 -264.5t-214 -97.5q-146 0 -227.5 103t-81.5 269t82 263t223 97q98 0 166.5 -51.5t99.5 -133t31 -185.5zM583 349q0 147 -62 230t-170 83q-109 0 -173 -81t-64 -219q0 -146 65.5 -231.5t176.5 -85.5q104 0 165.5 81t61.5 223zM478 771h-55l-71 71
l-72 -71h-53l95 114h60z" />
    <glyph glyph-name="Otilde" unicode="&#xd5;" horiz-adv-x="698" 
d="M650 349q0 -167 -79 -264.5t-214 -97.5q-146 0 -227.5 103t-81.5 269t82 263t223 97q98 0 166.5 -51.5t99.5 -133t31 -185.5zM583 349q0 147 -62 230t-170 83q-109 0 -173 -81t-64 -219q0 -146 65.5 -231.5t176.5 -85.5q104 0 165.5 81t61.5 223zM498 844
q-37 -68 -89 -68q-28 0 -54 16l-25 15q-17 11 -35 11q-34 0 -53 -44l-38 24q32 71 90 71q25 0 51 -14l23 -13q28 -14 39 -14q17 0 28.5 8.5t24.5 31.5z" />
    <glyph glyph-name="Odieresis" unicode="&#xd6;" horiz-adv-x="698" 
d="M650 349q0 -167 -79 -264.5t-214 -97.5q-146 0 -227.5 103t-81.5 269t82 263t223 97q98 0 166.5 -51.5t99.5 -133t31 -185.5zM583 349q0 147 -62 230t-170 83q-109 0 -173 -81t-64 -219q0 -146 65.5 -231.5t176.5 -85.5q104 0 165.5 81t61.5 223zM263 771h-59v82h59v-82z
M498 771h-58v82h58v-82z" />
    <glyph glyph-name="multiply" unicode="&#xd7;" horiz-adv-x="732" 
d="M580 133l-40 -40l-174 172l-173 -172l-40 39l173 173l-174 172l41 41l174 -172l173 173l39 -40l-173 -173z" />
    <glyph glyph-name="Oslash" unicode="&#xd8;" horiz-adv-x="698" 
d="M653 693l-72 -89q69 -100 69 -255q0 -167 -79 -264.5t-214 -97.5q-129 0 -209 82l-69 -86l-35 30l74 92q-70 99 -70 254q0 166 82 263t223 97q121 0 198 -79l66 82zM583 349q0 123 -45 202l-349 -432q63 -74 167 -74t165.5 81t61.5 223zM114 362q0 -125 47 -204l350 433
q-62 71 -160 71q-109 0 -173 -81t-64 -219z" />
    <glyph glyph-name="Ugrave" unicode="&#xd9;" horiz-adv-x="677" 
d="M597 706v-393q0 -94 -9 -144.5t-34 -87.5q-64 -94 -218 -94q-151 0 -215 97q-26 39 -33.5 89t-7.5 137v396h63v-434q0 -98 33 -152q47 -76 162 -76q111 0 163 71q33 46 33 160v431h63zM387 768h-51l-113 117h86z" />
    <glyph glyph-name="Uacute" unicode="&#xda;" horiz-adv-x="677" 
d="M597 706v-393q0 -94 -9 -144.5t-34 -87.5q-64 -94 -218 -94q-151 0 -215 97q-26 39 -33.5 89t-7.5 137v396h63v-434q0 -98 33 -152q47 -76 162 -76q111 0 163 71q33 46 33 160v431h63zM347 768h-52l85 117h87z" />
    <glyph glyph-name="Ucircumflex" unicode="&#xdb;" horiz-adv-x="677" 
d="M597 706v-393q0 -94 -9 -144.5t-34 -87.5q-64 -94 -218 -94q-151 0 -215 97q-26 39 -33.5 89t-7.5 137v396h63v-434q0 -98 33 -152q47 -76 162 -76q111 0 163 71q33 46 33 160v431h63zM464 771h-55l-71 71l-72 -71h-53l95 114h60z" />
    <glyph glyph-name="Udieresis" unicode="&#xdc;" horiz-adv-x="677" 
d="M597 706v-393q0 -94 -9 -144.5t-34 -87.5q-64 -94 -218 -94q-151 0 -215 97q-26 39 -33.5 89t-7.5 137v396h63v-434q0 -98 33 -152q47 -76 162 -76q111 0 163 71q33 46 33 160v431h63zM252 771h-59v82h59v-82zM487 771h-58v82h58v-82z" />
    <glyph glyph-name="Yacute" unicode="&#xdd;" horiz-adv-x="577" 
d="M317 0h-63v294l-254 412h74q172 -286 213 -363q44 79 220 363h70l-260 -412v-294zM297 768h-52l85 117h87z" />
    <glyph glyph-name="Thorn" unicode="&#xde;" horiz-adv-x="638" 
d="M143 576h183q135 0 184 -24q40 -19 64 -64t24 -101q0 -119 -92 -168q-64 -35 -207 -35h-156v-184h-63v706h63v-130zM143 242h166q96 0 140 16q82 29 82 129q0 70 -45 104q-24 18 -59 23t-121 5h-163v-277z" />
    <glyph glyph-name="germandbls" unicode="&#xdf;" horiz-adv-x="506" 
d="M71 0v509q0 96 39 148q47 61 143 61q79 0 125.5 -43.5t46.5 -118.5q0 -65 -34 -107.5t-103 -55.5q84 -5 131.5 -55.5t47.5 -143.5q0 -92 -52 -146t-140 -54q-41 0 -85 11v59q37 -18 75 -18q66 0 103 39t37 112q0 81 -47 123t-133 42q-17 0 -31 -1v54q13 -1 29 -1
q58 0 100 35t42 102q0 55 -31 85.5t-83 30.5q-62 0 -91 -38q-30 -38 -30 -127v-502h-59z" />
    <glyph glyph-name="agrave" unicode="&#xe0;" horiz-adv-x="473" 
d="M347 297v35q0 66 -28 91q-28 26 -82 26q-116 0 -127 -113l-59 8q9 77 59 116t129 39q102 0 139 -56q26 -40 26 -128v-201q0 -36 8.5 -52t38.5 -16q9 0 21 2v-48q-22 -2 -35 -2q-43 0 -64 18t-24 59q-52 -82 -169 -82q-66 0 -107 37.5t-41 96.5q0 92 92 130q66 27 223 40z
M347 251q-139 -10 -197 -37q-59 -27 -59 -84q0 -43 27.5 -66t74.5 -23q77 0 118 50q36 45 36 127v33zM272 565h-44l-100 146h78z" />
    <glyph glyph-name="aacute" unicode="&#xe1;" horiz-adv-x="473" 
d="M347 297v35q0 66 -28 91q-28 26 -82 26q-116 0 -127 -113l-59 8q9 77 59 116t129 39q102 0 139 -56q26 -40 26 -128v-201q0 -36 8.5 -52t38.5 -16q9 0 21 2v-48q-22 -2 -35 -2q-43 0 -64 18t-24 59q-52 -82 -169 -82q-66 0 -107 37.5t-41 96.5q0 92 92 130q66 27 223 40z
M347 251q-139 -10 -197 -37q-59 -27 -59 -84q0 -43 27.5 -66t74.5 -23q77 0 118 50q36 45 36 127v33zM244 565h-45l71 146h77z" />
    <glyph glyph-name="acircumflex" unicode="&#xe2;" horiz-adv-x="473" 
d="M347 297v35q0 66 -28 91q-28 26 -82 26q-116 0 -127 -113l-59 8q9 77 59 116t129 39q102 0 139 -56q26 -40 26 -128v-201q0 -36 8.5 -52t38.5 -16q9 0 21 2v-48q-22 -2 -35 -2q-43 0 -64 18t-24 59q-52 -82 -169 -82q-66 0 -107 37.5t-41 96.5q0 92 92 130q66 27 223 40z
M347 251q-139 -10 -197 -37q-59 -27 -59 -84q0 -43 27.5 -66t74.5 -23q77 0 118 50q36 45 36 127v33zM353 564h-52l-67 101l-70 -101h-50l91 147h57z" />
    <glyph glyph-name="atilde" unicode="&#xe3;" horiz-adv-x="473" 
d="M347 297v35q0 66 -28 91q-28 26 -82 26q-116 0 -127 -113l-59 8q9 77 59 116t129 39q102 0 139 -56q26 -40 26 -128v-201q0 -36 8.5 -52t38.5 -16q9 0 21 2v-48q-22 -2 -35 -2q-43 0 -64 18t-24 59q-52 -82 -169 -82q-66 0 -107 37.5t-41 96.5q0 92 92 130q66 27 223 40z
M347 251q-139 -10 -197 -37q-59 -27 -59 -84q0 -43 27.5 -66t74.5 -23q77 0 118 50q36 45 36 127v33zM376 654q-37 -67 -86 -67q-26 0 -51 15l-20 12q-22 13 -38 13q-33 0 -50 -44l-37 24q31 70 87 70q23 0 50 -15l20 -11q24 -13 38 -13q29 0 52 40z" />
    <glyph glyph-name="adieresis" unicode="&#xe4;" horiz-adv-x="473" 
d="M347 297v35q0 66 -28 91q-28 26 -82 26q-116 0 -127 -113l-59 8q9 77 59 116t129 39q102 0 139 -56q26 -40 26 -128v-201q0 -36 8.5 -52t38.5 -16q9 0 21 2v-48q-22 -2 -35 -2q-43 0 -64 18t-24 59q-52 -82 -169 -82q-66 0 -107 37.5t-41 96.5q0 92 92 130q66 27 223 40z
M347 251q-139 -10 -197 -37q-59 -27 -59 -84q0 -43 27.5 -66t74.5 -23q77 0 118 50q36 45 36 127v33zM164 596h-57v83h57v-83zM361 596h-56v83h56v-83z" />
    <glyph glyph-name="aring" unicode="&#xe5;" horiz-adv-x="473" 
d="M347 297v35q0 66 -28 91q-28 26 -82 26q-116 0 -127 -113l-59 8q9 77 59 116t129 39q102 0 139 -56q26 -40 26 -128v-201q0 -36 8.5 -52t38.5 -16q9 0 21 2v-48q-22 -2 -35 -2q-43 0 -64 18t-24 59q-52 -82 -169 -82q-66 0 -107 37.5t-41 96.5q0 92 92 130q66 27 223 40z
M347 251q-139 -10 -197 -37q-59 -27 -59 -84q0 -43 27.5 -66t74.5 -23q77 0 118 50q36 45 36 127v33zM236 713q38 0 62 -23t24 -60q0 -36 -24 -59.5t-61 -23.5q-38 0 -62.5 23.5t-24.5 60.5q0 36 24 59t62 23zM237 683q-23 0 -37.5 -14.5t-14.5 -37.5t14.5 -38t37.5 -15
q22 0 36.5 15t14.5 37q0 23 -14.5 38t-36.5 15z" />
    <glyph glyph-name="ae" unicode="&#xe6;" horiz-adv-x="810" 
d="M714 141l54 -16q-19 -63 -70.5 -100t-124.5 -37q-146 0 -200 125q-52 -122 -193 -122q-66 0 -107 38t-41 97q0 83 73 120t242 51v41q0 111 -110 111q-116 0 -127 -113l-59 8q9 77 59 116t129 39q123 0 152 -93q53 92 174 92q201 0 205 -259h-367q0 -89 45 -144t126 -55
q113 0 140 101zM347 251q-144 -12 -200 -39.5t-56 -82.5q0 -43 27.5 -66.5t74.5 -23.5q60 0 103 38q51 45 51 141v33zM707 288q-5 78 -41 120t-103 42t-109.5 -41t-49.5 -121h303z" />
    <glyph glyph-name="ccedilla" unicode="&#xe7;" horiz-adv-x="457" 
d="M439 360l-58 -19q-20 106 -119 106q-75 0 -117.5 -52.5t-42.5 -149.5q0 -95 44 -150t120 -55q100 0 121 104l57 -18q-18 -59 -60.5 -96.5t-112.5 -40.5l-20 -47q13 3 24 3q35 0 56 -20.5t21 -54.5q0 -39 -27 -63.5t-70 -24.5q-45 0 -73 27l22 34q22 -22 50 -22
q22 0 35 13t13 33q0 19 -12.5 30.5t-34.5 11.5q-21 0 -42 -13l-14 20l35 74q-90 8 -141.5 76t-51.5 181q0 117 60 184.5t163 67.5q143 0 175 -139z" />
    <glyph glyph-name="egrave" unicode="&#xe8;" horiz-adv-x="509" 
d="M413 145l54 -18q-19 -65 -70.5 -102t-124.5 -37q-112 0 -171.5 70t-59.5 193q0 115 61 181.5t162 66.5q200 0 205 -260h-367q0 -97 46.5 -148t124.5 -51q113 0 140 105zM406 289q-5 77 -41.5 119t-102.5 42q-67 0 -109 -41t-50 -120h303zM303 565h-44l-100 146h78z" />
    <glyph glyph-name="eacute" unicode="&#xe9;" horiz-adv-x="509" 
d="M413 145l54 -18q-19 -65 -70.5 -102t-124.5 -37q-112 0 -171.5 70t-59.5 193q0 115 61 181.5t162 66.5q200 0 205 -260h-367q0 -97 46.5 -148t124.5 -51q113 0 140 105zM406 289q-5 77 -41.5 119t-102.5 42q-67 0 -109 -41t-50 -120h303zM267 565h-45l71 146h77z" />
    <glyph glyph-name="ecircumflex" unicode="&#xea;" horiz-adv-x="509" 
d="M413 145l54 -18q-19 -65 -70.5 -102t-124.5 -37q-112 0 -171.5 70t-59.5 193q0 115 61 181.5t162 66.5q200 0 205 -260h-367q0 -97 46.5 -148t124.5 -51q113 0 140 105zM406 289q-5 77 -41.5 119t-102.5 42q-67 0 -109 -41t-50 -120h303zM382 564h-52l-67 101l-70 -101
h-50l91 147h57z" />
    <glyph glyph-name="edieresis" unicode="&#xeb;" horiz-adv-x="509" 
d="M413 145l54 -18q-19 -65 -70.5 -102t-124.5 -37q-112 0 -171.5 70t-59.5 193q0 115 61 181.5t162 66.5q200 0 205 -260h-367q0 -97 46.5 -148t124.5 -51q113 0 140 105zM406 289q-5 77 -41.5 119t-102.5 42q-67 0 -109 -41t-50 -120h303zM191 596h-57v83h57v-83zM388 596
h-56v83h56v-83z" />
    <glyph glyph-name="igrave" unicode="&#xec;" 
d="M131 0h-60v488h60v-488zM143 565h-44l-100 146h78z" />
    <glyph glyph-name="iacute" unicode="&#xed;" 
d="M131 0h-60v488h60v-488zM103 565h-45l71 146h77z" />
    <glyph glyph-name="icircumflex" unicode="&#xee;" 
d="M131 0h-60v488h60v-488zM220 564h-52l-67 101l-70 -101h-50l91 147h57z" />
    <glyph glyph-name="idieresis" unicode="&#xef;" 
d="M131 0h-60v488h60v-488zM31 596h-57v83h57v-83zM228 596h-56v83h56v-83z" />
    <glyph glyph-name="eth" unicode="&#xf0;" horiz-adv-x="524" 
d="M435 625l-95 -32q144 -170 144 -355q0 -115 -60.5 -182.5t-162.5 -67.5q-103 0 -161.5 70t-58.5 188q0 114 61.5 181.5t161.5 67.5q54 0 97 -29q-30 53 -78 108l-150 -49l-16 42l135 43q-29 36 -81 78l42 32q47 -38 95 -91l111 37zM423 239q0 95 -42.5 150.5t-113.5 55.5
q-74 0 -119 -52t-45 -142q0 -98 43.5 -154.5t115.5 -56.5q74 0 117.5 52.5t43.5 146.5z" />
    <glyph glyph-name="ntilde" unicode="&#xf1;" horiz-adv-x="515" 
d="M449 0h-59v298q0 65 -16 97q-23 46 -94 46q-67 0 -110 -55q-39 -49 -39 -142v-244h-60v488h60v-87q25 45 69 69.5t97 24.5q95 0 132 -70q20 -39 20 -120v-305zM405 654q-37 -67 -86 -67q-25 0 -51 15l-20 12q-22 13 -38 13q-33 0 -50 -44l-37 24q31 70 87 70q22 0 50 -15
l20 -11q24 -13 38 -13q29 0 52 40z" />
    <glyph glyph-name="ograve" unicode="&#xf2;" horiz-adv-x="526" 
d="M264 -12q-106 0 -164.5 69.5t-58.5 189.5q0 117 61.5 184.5t167.5 67.5q100 0 157 -68.5t57 -189.5q0 -116 -59.5 -184.5t-160.5 -68.5zM423 240q0 97 -42 152t-114 55q-75 0 -119.5 -52t-44.5 -141q0 -99 43.5 -156.5t116.5 -57.5t116.5 53t43.5 147zM309 565h-44
l-100 146h78z" />
    <glyph glyph-name="oacute" unicode="&#xf3;" horiz-adv-x="526" 
d="M264 -12q-106 0 -164.5 69.5t-58.5 189.5q0 117 61.5 184.5t167.5 67.5q100 0 157 -68.5t57 -189.5q0 -116 -59.5 -184.5t-160.5 -68.5zM423 240q0 97 -42 152t-114 55q-75 0 -119.5 -52t-44.5 -141q0 -99 43.5 -156.5t116.5 -57.5t116.5 53t43.5 147zM266 565h-45
l71 146h77z" />
    <glyph glyph-name="ocircumflex" unicode="&#xf4;" horiz-adv-x="526" 
d="M264 -12q-106 0 -164.5 69.5t-58.5 189.5q0 117 61.5 184.5t167.5 67.5q100 0 157 -68.5t57 -189.5q0 -116 -59.5 -184.5t-160.5 -68.5zM423 240q0 97 -42 152t-114 55q-75 0 -119.5 -52t-44.5 -141q0 -99 43.5 -156.5t116.5 -57.5t116.5 53t43.5 147zM383 564h-52
l-67 101l-70 -101h-50l91 147h57z" />
    <glyph glyph-name="otilde" unicode="&#xf5;" horiz-adv-x="526" 
d="M264 -12q-106 0 -164.5 69.5t-58.5 189.5q0 117 61.5 184.5t167.5 67.5q100 0 157 -68.5t57 -189.5q0 -116 -59.5 -184.5t-160.5 -68.5zM423 240q0 97 -42 152t-114 55q-75 0 -119.5 -52t-44.5 -141q0 -99 43.5 -156.5t116.5 -57.5t116.5 53t43.5 147zM405 654
q-37 -67 -86 -67q-25 0 -51 15l-20 12q-22 13 -38 13q-33 0 -50 -44l-37 24q31 70 87 70q22 0 50 -15l20 -11q24 -13 38 -13q29 0 52 40z" />
    <glyph glyph-name="odieresis" unicode="&#xf6;" horiz-adv-x="526" 
d="M264 -12q-106 0 -164.5 69.5t-58.5 189.5q0 117 61.5 184.5t167.5 67.5q100 0 157 -68.5t57 -189.5q0 -116 -59.5 -184.5t-160.5 -68.5zM423 240q0 97 -42 152t-114 55q-75 0 -119.5 -52t-44.5 -141q0 -99 43.5 -156.5t116.5 -57.5t116.5 53t43.5 147zM196 596h-57v83h57
v-83zM393 596h-56v83h56v-83z" />
    <glyph glyph-name="divide" unicode="&#xf7;" horiz-adv-x="732" 
d="M638 274h-544v58h544v-58zM398 511v-89h-65v89h65zM398 184v-89h-65v89h65z" />
    <glyph glyph-name="oslash" unicode="&#xf8;" horiz-adv-x="526" 
d="M489 483l-54 -64q49 -67 49 -178q0 -116 -59.5 -184.5t-160.5 -68.5q-88 0 -146 50l-49 -60l-32 27l53 64q-49 65 -49 178q0 117 61.5 184.5t167.5 67.5q81 0 137 -48l49 59zM423 240q0 77 -28 130l-238 -286q41 -44 106 -44q73 0 116.5 53t43.5 147zM103 254
q0 -81 29 -134l237 285q-40 42 -102 42q-75 0 -119.5 -52t-44.5 -141z" />
    <glyph glyph-name="ugrave" unicode="&#xf9;" horiz-adv-x="517" 
d="M68 488h59v-293q0 -78 25 -111q29 -38 91 -38t101 47q42 51 42 139v256h60v-488h-60v84q-54 -92 -163 -92q-82 0 -122 52q-33 43 -33 133v311zM295 565h-44l-100 146h78z" />
    <glyph glyph-name="uacute" unicode="&#xfa;" horiz-adv-x="517" 
d="M68 488h59v-293q0 -78 25 -111q29 -38 91 -38t101 47q42 51 42 139v256h60v-488h-60v84q-54 -92 -163 -92q-82 0 -122 52q-33 43 -33 133v311zM262 565h-45l71 146h77z" />
    <glyph glyph-name="ucircumflex" unicode="&#xfb;" horiz-adv-x="517" 
d="M68 488h59v-293q0 -78 25 -111q29 -38 91 -38t101 47q42 51 42 139v256h60v-488h-60v84q-54 -92 -163 -92q-82 0 -122 52q-33 43 -33 133v311zM383 564h-52l-67 101l-70 -101h-50l91 147h57z" />
    <glyph glyph-name="udieresis" unicode="&#xfc;" horiz-adv-x="517" 
d="M68 488h59v-293q0 -78 25 -111q29 -38 91 -38t101 47q42 51 42 139v256h60v-488h-60v84q-54 -92 -163 -92q-82 0 -122 52q-33 43 -33 133v311zM189 596h-57v83h57v-83zM386 596h-56v83h56v-83z" />
    <glyph glyph-name="yacute" unicode="&#xfd;" horiz-adv-x="438" 
d="M191 -13l-186 501h66q110 -307 153 -436q68 203 149 436h65l-200 -543q-33 -87 -58 -118q-34 -42 -98 -42q-26 0 -50 8v53q23 -9 48 -9t38 7t31 40t42 103zM235 565h-45l71 146h77z" />
    <glyph glyph-name="thorn" unicode="&#xfe;" horiz-adv-x="522" 
d="M71 706h60v-304q55 94 163 94q86 0 136.5 -68.5t50.5 -186.5q0 -117 -54 -183t-143 -66q-111 0 -154 89v-287h-59v912zM130 253q0 -100 39 -155t109 -55q68 0 104.5 52t36.5 149q0 94 -37 147.5t-101 53.5q-67 0 -109 -53t-42 -139z" />
    <glyph glyph-name="ydieresis" unicode="&#xff;" horiz-adv-x="438" 
d="M191 -13l-186 501h66q110 -307 153 -436q68 203 149 436h65l-200 -543q-33 -87 -58 -118q-34 -42 -98 -42q-26 0 -50 8v53q23 -9 48 -9t38 7t31 40t42 103zM152 596h-57v83h57v-83zM349 596h-56v83h56v-83z" />
    <glyph glyph-name="Amacron" unicode="&#x100;" horiz-adv-x="608" 
d="M608 0h-70l-74 206h-319l-75 -206h-70l275 706h66zM166 261h278q-124 335 -138 376q-24 -69 -140 -376zM425 785h-238v49h238v-49z" />
    <glyph glyph-name="amacron" unicode="&#x101;" horiz-adv-x="473" 
d="M347 297v35q0 66 -28 91q-28 26 -82 26q-116 0 -127 -113l-59 8q9 77 59 116t129 39q102 0 139 -56q26 -40 26 -128v-201q0 -36 8.5 -52t38.5 -16q9 0 21 2v-48q-22 -2 -35 -2q-43 0 -64 18t-24 59q-52 -82 -169 -82q-66 0 -107 37.5t-41 96.5q0 92 92 130q66 27 223 40z
M347 251q-139 -10 -197 -37q-59 -27 -59 -84q0 -43 27.5 -66t74.5 -23q77 0 118 50q36 45 36 127v33zM352 597h-232v49h232v-49z" />
    <glyph glyph-name="Abreve" unicode="&#x102;" horiz-adv-x="608" 
d="M608 0h-70l-74 206h-319l-75 -206h-70l275 706h66zM166 261h278q-124 335 -138 376q-24 -69 -140 -376zM184 877h47q14 -63 75 -63t75 63h48q-8 -51 -40.5 -80.5t-82.5 -29.5t-82.5 29.5t-39.5 80.5z" />
    <glyph glyph-name="abreve" unicode="&#x103;" horiz-adv-x="473" 
d="M347 297v35q0 66 -28 91q-28 26 -82 26q-116 0 -127 -113l-59 8q9 77 59 116t129 39q102 0 139 -56q26 -40 26 -128v-201q0 -36 8.5 -52t38.5 -16q9 0 21 2v-48q-22 -2 -35 -2q-43 0 -64 18t-24 59q-52 -82 -169 -82q-66 0 -107 37.5t-41 96.5q0 92 92 130q66 27 223 40z
M347 251q-139 -10 -197 -37q-59 -27 -59 -84q0 -43 27.5 -66t74.5 -23q77 0 118 50q36 45 36 127v33zM117 690h46q12 -63 73 -63q59 0 73 63h47q-8 -51 -40 -80.5t-80 -29.5q-49 0 -80.5 29t-38.5 81z" />
    <glyph glyph-name="Aogonek" unicode="&#x104;" horiz-adv-x="608" 
d="M608 0h-9q-24 -17 -39.5 -30.5t-29.5 -36t-14 -46.5q0 -23 13.5 -37t36.5 -14q22 0 40 14l19 -31q-28 -21 -67 -21q-40 0 -65.5 23t-25.5 61q0 60 84 118h-13l-74 206h-319l-75 -206h-70l275 706h66zM166 261h278q-124 335 -138 376q-24 -69 -140 -376z" />
    <glyph glyph-name="aogonek" unicode="&#x105;" horiz-adv-x="473" 
d="M347 297v35q0 66 -28 91q-28 26 -82 26q-116 0 -127 -113l-59 8q9 77 59 116t129 39q102 0 139 -56q26 -40 26 -128v-201q0 -36 8.5 -52t38.5 -16q9 0 21 2v-48q-6 -1 -13 -1q-37 -26 -59 -52t-22 -60q0 -23 13.5 -37t36.5 -14q22 0 40 14l19 -31q-28 -21 -67 -21
q-40 0 -65.5 23t-25.5 61q0 60 84 118q-60 7 -64 75q-52 -82 -169 -82q-66 0 -107 37.5t-41 96.5q0 92 92 130q66 27 223 40zM347 251q-139 -10 -197 -37q-59 -27 -59 -84q0 -43 27.5 -66t74.5 -23q77 0 118 50q36 45 36 127v33z" />
    <glyph glyph-name="Cacute" unicode="&#x106;" horiz-adv-x="639" 
d="M605 528l-63 -23q-35 157 -185 157q-113 0 -177.5 -78.5t-64.5 -218.5q0 -148 65.5 -233.5t176.5 -85.5q75 0 126.5 42t67.5 123l65 -23q-28 -97 -96.5 -149t-168.5 -52q-140 0 -221.5 99.5t-81.5 271.5q0 170 84.5 265.5t225.5 95.5q99 0 162.5 -51t84.5 -140zM349 768
h-52l85 117h87z" />
    <glyph glyph-name="cacute" unicode="&#x107;" horiz-adv-x="457" 
d="M439 360l-58 -19q-20 106 -119 106q-75 0 -117.5 -52.5t-42.5 -149.5q0 -95 44 -150t120 -55q100 0 121 104l57 -18q-19 -62 -64.5 -100t-120.5 -38q-100 0 -159 69t-59 190q0 117 60 184.5t163 67.5q143 0 175 -139zM260 565h-45l71 146h77z" />
    <glyph glyph-name="Ccircumflex" unicode="&#x108;" horiz-adv-x="639" 
d="M605 528l-63 -23q-35 157 -185 157q-113 0 -177.5 -78.5t-64.5 -218.5q0 -148 65.5 -233.5t176.5 -85.5q75 0 126.5 42t67.5 123l65 -23q-28 -97 -96.5 -149t-168.5 -52q-140 0 -221.5 99.5t-81.5 271.5q0 170 84.5 265.5t225.5 95.5q99 0 162.5 -51t84.5 -140zM473 771
h-55l-71 71l-72 -71h-53l95 114h60z" />
    <glyph glyph-name="ccircumflex" unicode="&#x109;" horiz-adv-x="457" 
d="M439 360l-58 -19q-20 106 -119 106q-75 0 -117.5 -52.5t-42.5 -149.5q0 -95 44 -150t120 -55q100 0 121 104l57 -18q-19 -62 -64.5 -100t-120.5 -38q-100 0 -159 69t-59 190q0 117 60 184.5t163 67.5q143 0 175 -139zM367 564h-52l-67 101l-70 -101h-50l91 147h57z" />
    <glyph glyph-name="Cdotaccent" unicode="&#x10a;" horiz-adv-x="639" 
d="M605 528l-63 -23q-35 157 -185 157q-113 0 -177.5 -78.5t-64.5 -218.5q0 -148 65.5 -233.5t176.5 -85.5q75 0 126.5 42t67.5 123l65 -23q-28 -97 -96.5 -149t-168.5 -52q-140 0 -221.5 99.5t-81.5 271.5q0 170 84.5 265.5t225.5 95.5q99 0 162.5 -51t84.5 -140zM375 771
h-60v82h60v-82z" />
    <glyph glyph-name="cdotaccent" unicode="&#x10b;" horiz-adv-x="457" 
d="M439 360l-58 -19q-20 106 -119 106q-75 0 -117.5 -52.5t-42.5 -149.5q0 -95 44 -150t120 -55q100 0 121 104l57 -18q-19 -62 -64.5 -100t-120.5 -38q-100 0 -159 69t-59 190q0 117 60 184.5t163 67.5q143 0 175 -139zM281 596h-60v83h60v-83z" />
    <glyph glyph-name="Ccaron" unicode="&#x10c;" horiz-adv-x="639" 
d="M605 528l-63 -23q-35 157 -185 157q-113 0 -177.5 -78.5t-64.5 -218.5q0 -148 65.5 -233.5t176.5 -85.5q75 0 126.5 42t67.5 123l65 -23q-28 -97 -96.5 -149t-168.5 -52q-140 0 -221.5 99.5t-81.5 271.5q0 170 84.5 265.5t225.5 95.5q99 0 162.5 -51t84.5 -140zM218 885
h54l71 -71l73 71h52l-95 -114h-60z" />
    <glyph glyph-name="ccaron" unicode="&#x10d;" horiz-adv-x="457" 
d="M439 360l-58 -19q-20 106 -119 106q-75 0 -117.5 -52.5t-42.5 -149.5q0 -95 44 -150t120 -55q100 0 121 104l57 -18q-19 -62 -64.5 -100t-120.5 -38q-100 0 -159 69t-59 190q0 117 60 184.5t163 67.5q143 0 175 -139zM129 711h52l67 -101l70 101h50l-91 -147h-57z" />
    <glyph glyph-name="Dcaron" unicode="&#x10e;" horiz-adv-x="678" 
d="M80 0v706h179q180 0 262 -59q108 -77 108 -285q0 -93 -19.5 -157t-63.5 -112q-87 -93 -289 -93h-177zM143 57h101q104 0 164 20.5t99 67.5q55 66 55 214q0 180 -83 238q-74 52 -224 52h-112v-592zM182 885h54l71 -71l73 71h52l-95 -114h-60z" />
    <glyph glyph-name="dcaron" unicode="&#x10f;" horiz-adv-x="522" 
d="M451 0h-59v81q-54 -90 -160 -90q-89 0 -140 68t-51 188q0 115 56 182t144 67q106 0 151 -78v288h59v-706zM391 243q0 97 -37 149t-106 52q-68 0 -106.5 -51.5t-38.5 -144.5q0 -96 37.5 -150t102.5 -54q67 0 107.5 50t40.5 149zM559 706v-77q0 -70 -43 -122l-31 22
q35 36 35 96h-29v81h68z" />
    <glyph glyph-name="Dcroat" unicode="&#x110;" horiz-adv-x="678" 
d="M80 0v345h-74v57h74v304h179q180 0 262 -59q108 -77 108 -285q0 -93 -19.5 -157t-63.5 -112q-87 -93 -289 -93h-177zM143 57h101q104 0 164 20.5t99 67.5q55 66 55 214q0 180 -83 238q-74 52 -224 52h-112v-247h253v-57h-253v-288z" />
    <glyph glyph-name="dcroat" unicode="&#x111;" horiz-adv-x="522" 
d="M226 615h166v91h59v-91h71v-52h-71v-563h-59v81q-54 -90 -160 -90q-89 0 -140 68t-51 188q0 115 56 182t144 67q106 0 151 -78v145h-166v52zM391 243q0 97 -37 149t-106 52q-68 0 -106.5 -51.5t-38.5 -144.5q0 -96 37.5 -150t102.5 -54q67 0 107.5 50t40.5 149z" />
    <glyph glyph-name="Emacron" unicode="&#x112;" horiz-adv-x="586" 
d="M553 0h-473v706h449v-58h-385v-255h350v-58h-350v-277h409v-58zM422 785h-238v49h238v-49z" />
    <glyph glyph-name="emacron" unicode="&#x113;" horiz-adv-x="509" 
d="M413 145l54 -18q-19 -65 -70.5 -102t-124.5 -37q-112 0 -171.5 70t-59.5 193q0 115 61 181.5t162 66.5q200 0 205 -260h-367q0 -97 46.5 -148t124.5 -51q113 0 140 105zM406 289q-5 77 -41.5 119t-102.5 42q-67 0 -109 -41t-50 -120h303zM380 597h-232v49h232v-49z" />
    <glyph glyph-name="Ebreve" unicode="&#x114;" horiz-adv-x="586" 
d="M553 0h-473v706h449v-58h-385v-255h350v-58h-350v-277h409v-58zM191 877h47q14 -63 75 -63t75 63h48q-8 -51 -40.5 -80.5t-82.5 -29.5t-82.5 29.5t-39.5 80.5z" />
    <glyph glyph-name="ebreve" unicode="&#x115;" horiz-adv-x="509" 
d="M413 145l54 -18q-19 -65 -70.5 -102t-124.5 -37q-112 0 -171.5 70t-59.5 193q0 115 61 181.5t162 66.5q200 0 205 -260h-367q0 -97 46.5 -148t124.5 -51q113 0 140 105zM406 289q-5 77 -41.5 119t-102.5 42q-67 0 -109 -41t-50 -120h303zM144 690h46q12 -63 73 -63
q59 0 73 63h47q-8 -51 -40 -80.5t-80 -29.5q-49 0 -80.5 29t-38.5 81z" />
    <glyph glyph-name="Edotaccent" unicode="&#x116;" horiz-adv-x="586" 
d="M553 0h-473v706h449v-58h-385v-255h350v-58h-350v-277h409v-58zM337 771h-60v82h60v-82z" />
    <glyph glyph-name="edotaccent" unicode="&#x117;" horiz-adv-x="509" 
d="M413 145l54 -18q-19 -65 -70.5 -102t-124.5 -37q-112 0 -171.5 70t-59.5 193q0 115 61 181.5t162 66.5q200 0 205 -260h-367q0 -97 46.5 -148t124.5 -51q113 0 140 105zM406 289q-5 77 -41.5 119t-102.5 42q-67 0 -109 -41t-50 -120h303zM291 596h-60v83h60v-83z" />
    <glyph glyph-name="Eogonek" unicode="&#x118;" horiz-adv-x="586" 
d="M553 0h-16q-24 -17 -39.5 -30.5t-29.5 -36t-14 -46.5q0 -23 13.5 -37t36.5 -14q22 0 40 14l19 -31q-28 -21 -67 -21q-40 0 -65.5 23t-25.5 61q0 60 84 118h-409v706h449v-58h-385v-255h350v-58h-350v-277h409v-58z" />
    <glyph glyph-name="eogonek" unicode="&#x119;" horiz-adv-x="509" 
d="M413 145l54 -18q-16 -56 -57 -91.5t-100 -44.5q-70 -54 -70 -104q0 -23 13.5 -37t36.5 -14q22 0 40 14l19 -31q-28 -21 -67 -21q-40 0 -65.5 23t-25.5 61q0 55 68 106q-106 4 -162 73.5t-56 189.5q0 115 61 181.5t162 66.5q200 0 205 -260h-367q0 -97 46.5 -148
t124.5 -51q113 0 140 105zM406 289q-5 77 -41.5 119t-102.5 42q-67 0 -109 -41t-50 -120h303z" />
    <glyph glyph-name="Ecaron" unicode="&#x11a;" horiz-adv-x="586" 
d="M553 0h-473v706h449v-58h-385v-255h350v-58h-350v-277h409v-58zM178 885h54l71 -71l73 71h52l-95 -114h-60z" />
    <glyph glyph-name="ecaron" unicode="&#x11b;" horiz-adv-x="509" 
d="M413 145l54 -18q-19 -65 -70.5 -102t-124.5 -37q-112 0 -171.5 70t-59.5 193q0 115 61 181.5t162 66.5q200 0 205 -260h-367q0 -97 46.5 -148t124.5 -51q113 0 140 105zM406 289q-5 77 -41.5 119t-102.5 42q-67 0 -109 -41t-50 -120h303zM135 711h52l67 -101l70 101h50
l-91 -147h-57z" />
    <glyph glyph-name="Gcircumflex" unicode="&#x11c;" horiz-adv-x="696" 
d="M622 0h-62v101q-68 -114 -217 -114q-133 0 -214 98t-81 260q0 164 85.5 269t231.5 105q207 0 256 -189l-66 -23q-35 155 -184 155q-116 0 -185.5 -85t-69.5 -229q0 -139 65.5 -220.5t174.5 -81.5q146 0 190 134q14 45 14 127h-242v58h304v-365zM483 771h-55l-71 71
l-72 -71h-53l95 114h60z" />
    <glyph glyph-name="gcircumflex" unicode="&#x11d;" horiz-adv-x="523" 
d="M391 13v70q-51 -87 -157 -87q-90 0 -141.5 66.5t-51.5 182.5q0 117 55 183.5t148 66.5q106 0 148 -79v71h59v-487q0 -118 -53.5 -166.5t-150.5 -48.5q-157 0 -191 141l63 17q21 -106 132 -106q77 0 108.5 39t31.5 137zM251 443q-69 0 -109 -50.5t-40 -139.5
q0 -96 39 -152t107 -56q65 0 103.5 50.5t38.5 143.5q0 97 -35.5 150.5t-103.5 53.5zM374 564h-52l-67 101l-70 -101h-50l91 147h57z" />
    <glyph glyph-name="Gbreve" unicode="&#x11e;" horiz-adv-x="696" 
d="M622 0h-62v101q-68 -114 -217 -114q-133 0 -214 98t-81 260q0 164 85.5 269t231.5 105q207 0 256 -189l-66 -23q-35 155 -184 155q-116 0 -185.5 -85t-69.5 -229q0 -139 65.5 -220.5t174.5 -81.5q146 0 190 134q14 45 14 127h-242v58h304v-365zM232 877h47q14 -63 75 -63
t75 63h48q-8 -51 -40.5 -80.5t-82.5 -29.5t-82.5 29.5t-39.5 80.5z" />
    <glyph glyph-name="gbreve" unicode="&#x11f;" horiz-adv-x="523" 
d="M391 13v70q-51 -87 -157 -87q-90 0 -141.5 66.5t-51.5 182.5q0 117 55 183.5t148 66.5q106 0 148 -79v71h59v-487q0 -118 -53.5 -166.5t-150.5 -48.5q-157 0 -191 141l63 17q21 -106 132 -106q77 0 108.5 39t31.5 137zM251 443q-69 0 -109 -50.5t-40 -139.5
q0 -96 39 -152t107 -56q65 0 103.5 50.5t38.5 143.5q0 97 -35.5 150.5t-103.5 53.5zM136 690h46q12 -63 73 -63q59 0 73 63h47q-8 -51 -40 -80.5t-80 -29.5q-49 0 -80.5 29t-38.5 81z" />
    <glyph glyph-name="Gdotaccent" unicode="&#x120;" horiz-adv-x="696" 
d="M622 0h-62v101q-68 -114 -217 -114q-133 0 -214 98t-81 260q0 164 85.5 269t231.5 105q207 0 256 -189l-66 -23q-35 155 -184 155q-116 0 -185.5 -85t-69.5 -229q0 -139 65.5 -220.5t174.5 -81.5q146 0 190 134q14 45 14 127h-242v58h304v-365zM398 771h-60v82h60v-82z
" />
    <glyph glyph-name="gdotaccent" unicode="&#x121;" horiz-adv-x="523" 
d="M391 13v70q-51 -87 -157 -87q-90 0 -141.5 66.5t-51.5 182.5q0 117 55 183.5t148 66.5q106 0 148 -79v71h59v-487q0 -118 -53.5 -166.5t-150.5 -48.5q-157 0 -191 141l63 17q21 -106 132 -106q77 0 108.5 39t31.5 137zM251 443q-69 0 -109 -50.5t-40 -139.5
q0 -96 39 -152t107 -56q65 0 103.5 50.5t38.5 143.5q0 97 -35.5 150.5t-103.5 53.5zM281 596h-60v83h60v-83z" />
    <glyph glyph-name="Gcommaaccent" unicode="&#x122;" horiz-adv-x="696" 
d="M622 0h-62v101q-68 -114 -217 -114q-133 0 -214 98t-81 260q0 164 85.5 269t231.5 105q207 0 256 -189l-66 -23q-35 155 -184 155q-116 0 -185.5 -85t-69.5 -229q0 -139 65.5 -220.5t174.5 -81.5q146 0 190 134q14 45 14 127h-242v58h304v-365zM390 -33v-77
q0 -70 -43 -122l-31 22q35 36 35 96h-29v81h68z" />
    <glyph glyph-name="gcommaaccent" unicode="&#x123;" horiz-adv-x="523" 
d="M391 13v70q-51 -87 -157 -87q-90 0 -141.5 66.5t-51.5 182.5q0 117 55 183.5t148 66.5q106 0 148 -79v71h59v-487q0 -118 -53.5 -166.5t-150.5 -48.5q-157 0 -191 141l63 17q21 -106 132 -106q77 0 108.5 39t31.5 137zM251 443q-69 0 -109 -50.5t-40 -139.5
q0 -96 39 -152t107 -56q65 0 103.5 50.5t38.5 143.5q0 97 -35.5 150.5t-103.5 53.5zM214 564v77q0 70 43 122l31 -22q-35 -36 -35 -96h29v-81h-68z" />
    <glyph glyph-name="Hcircumflex" unicode="&#x124;" horiz-adv-x="689" 
d="M609 0h-64v338h-402v-338h-63v706h63v-311h402v311h64v-706zM473 771h-55l-71 71l-72 -71h-53l95 114h60z" />
    <glyph glyph-name="hcircumflex" unicode="&#x125;" horiz-adv-x="515" 
d="M449 0h-59v298q0 74 -22 106q-26 37 -88 37q-28 0 -58.5 -14t-51.5 -41q-39 -48 -39 -142v-244h-60v706h60v-305q25 45 69 69.5t97 24.5q77 0 117 -46q35 -41 35 -133v-316zM226 771h-55l-71 71l-72 -71h-53l95 114h60z" />
    <glyph glyph-name="Hbar" unicode="&#x126;" horiz-adv-x="689" 
d="M609 0h-64v338h-402v-338h-63v532h-70v57h70v117h63v-117h402v117h64v-117h70v-57h-70v-532zM143 395h402v137h-402v-137z" />
    <glyph glyph-name="hbar" unicode="&#x127;" horiz-adv-x="515" 
d="M0 615h71v91h60v-91h165v-52h-165v-162q25 45 69 69.5t97 24.5q77 0 117 -46q35 -41 35 -133v-316h-59v298q0 74 -22 106q-26 37 -88 37q-28 0 -58.5 -14t-51.5 -41q-39 -48 -39 -142v-244h-60v563h-71v52z" />
    <glyph glyph-name="Itilde" unicode="&#x128;" horiz-adv-x="223" 
d="M143 0h-63v706h63v-706zM258 844q-37 -68 -89 -68q-28 0 -54 16l-25 15q-17 11 -35 11q-34 0 -53 -44l-38 24q32 71 90 71q25 0 51 -14l23 -13q28 -14 39 -14q17 0 28.5 8.5t24.5 31.5z" />
    <glyph glyph-name="itilde" unicode="&#x129;" 
d="M131 0h-60v488h60v-488zM242 654q-37 -67 -86 -67q-26 0 -51 15l-20 12q-22 13 -38 13q-33 0 -50 -44l-37 24q31 70 87 70q23 0 50 -15l20 -11q24 -13 38 -13q29 0 52 40z" />
    <glyph glyph-name="uni012A" unicode="&#x12a;" horiz-adv-x="223" 
d="M226 785h-230v49h230v-49zM143 0h-63v706h63v-706z" />
    <glyph glyph-name="imacron" unicode="&#x12b;" 
d="M207 597h-212v49h212v-49zM131 0h-60v488h60v-488z" />
    <glyph glyph-name="Ibreve" unicode="&#x12c;" horiz-adv-x="223" 
d="M143 0h-63v706h63v-706zM-11 877h47q14 -63 75 -63t75 63h48q-8 -51 -40.5 -80.5t-82.5 -29.5t-82.5 29.5t-39.5 80.5z" />
    <glyph glyph-name="uni012D" unicode="&#x12d;" 
d="M131 0h-60v488h60v-488zM-18 690h46q12 -63 73 -63q59 0 73 63h47q-8 -51 -40 -80.5t-80 -29.5q-49 0 -80.5 29t-38.5 81z" />
    <glyph glyph-name="Iogonek" unicode="&#x12e;" horiz-adv-x="223" 
d="M143 0h-5q-24 -17 -39.5 -30.5t-29.5 -36t-14 -46.5q0 -23 13.5 -37t36.5 -14q22 0 40 14l19 -31q-28 -21 -67 -21q-40 0 -65.5 23t-25.5 61q0 60 84 118h-10v706h63v-706z" />
    <glyph glyph-name="iogonek" unicode="&#x12f;" 
d="M131 0h-4q-24 -17 -39.5 -30.5t-29.5 -36t-14 -46.5q0 -23 13.5 -37t36.5 -14q22 0 40 14l19 -31q-28 -21 -67 -21q-40 0 -65.5 23t-25.5 61q0 60 84 118h-8v488h60v-488zM132 624h-62v82h62v-82z" />
    <glyph glyph-name="Idotaccent" unicode="&#x130;" horiz-adv-x="223" 
d="M143 0h-63v706h63v-706zM141 771h-60v82h60v-82z" />
    <glyph glyph-name="dotlessi" unicode="&#x131;" 
d="M131 0h-60v488h60v-488z" />
    <glyph glyph-name="IJ" unicode="&#x132;" horiz-adv-x="619" 
d="M143 0h-63v706h63v-706zM539 706v-504q0 -103 -31 -150q-43 -65 -152 -65q-73 0 -133 35l25 64q49 -41 106 -41q69 0 98 42q23 34 23 126v493h64z" />
    <glyph glyph-name="ij" unicode="&#x133;" horiz-adv-x="418" 
d="M131 0h-60v488h60v-488zM132 624h-62v82h62v-82zM288 487h58v-531q0 -94 -23 -126q-32 -45 -107 -45q-26 0 -45 6v53q21 -7 37 -7q51 0 68 28q12 20 12 96v526zM347 623h-60v83h60v-83z" />
    <glyph glyph-name="Jcircumflex" unicode="&#x134;" horiz-adv-x="396" 
d="M316 706v-504q0 -103 -31 -150q-43 -65 -152 -65q-73 0 -133 35l25 64q49 -41 106 -41q69 0 98 42q23 34 23 126v493h64zM409 771h-55l-71 71l-72 -71h-53l95 114h60z" />
    <glyph glyph-name="jcircumflex" unicode="&#x135;" horiz-adv-x="216" 
d="M86 487h58v-531q0 -94 -23 -126q-32 -45 -107 -45q-25 0 -45 6v53q21 -7 37 -7q51 0 68 28q12 20 12 96v526zM232 564h-52l-67 101l-70 -101h-50l91 147h57z" />
    <glyph glyph-name="Kcommaaccent" unicode="&#x136;" horiz-adv-x="630" 
d="M630 0h-75l-259 387l-153 -163v-224h-63v706h63v-403l376 403h80l-260 -274zM352 -33v-77q0 -70 -43 -122l-31 22q35 36 35 96h-29v81h68z" />
    <glyph glyph-name="kcommaaccent" unicode="&#x137;" horiz-adv-x="468" 
d="M468 0h-72l-168 257l-98 -103v-154h-59v706h59v-481l239 263h74l-174 -189zM271 -33v-77q0 -70 -43 -122l-31 22q35 36 35 96h-29v81h68z" />
    <glyph glyph-name="kgreenlandic" unicode="&#x138;" horiz-adv-x="468" 
d="M468 0h-72l-168 257l-98 -103v-154h-59v488h59v-263l239 263h74l-174 -189z" />
    <glyph glyph-name="Lacute" unicode="&#x139;" horiz-adv-x="547" 
d="M519 0h-439v706h63v-648h376v-58zM133 768h-52l85 117h87z" />
    <glyph glyph-name="lacute" unicode="&#x13a;" 
d="M131 0h-60v706h60v-706zM113 768h-52l85 117h87z" />
    <glyph glyph-name="Lcommaaccent" unicode="&#x13b;" horiz-adv-x="547" 
d="M519 0h-439v706h63v-648h376v-58zM340 -33v-77q0 -70 -43 -122l-31 22q35 36 35 96h-29v81h68z" />
    <glyph glyph-name="lcommaaccent" unicode="&#x13c;" 
d="M131 0h-60v706h60v-706zM136 -33v-77q0 -70 -43 -122l-31 22q35 36 35 96h-29v81h68z" />
    <glyph glyph-name="Lcaron" unicode="&#x13d;" horiz-adv-x="547" 
d="M519 0h-439v706h63v-648h376v-58zM260 706v-77q0 -70 -43 -122l-31 22q35 36 35 96h-29v81h68z" />
    <glyph glyph-name="lcaron" unicode="&#x13e;" 
d="M131 0h-60v706h60v-706zM242 706v-77q0 -70 -43 -122l-31 22q35 36 35 96h-29v81h68z" />
    <glyph glyph-name="Ldot" unicode="&#x13f;" horiz-adv-x="547" 
d="M519 0h-439v706h63v-648h376v-58zM405 335h-72v88h72v-88z" />
    <glyph glyph-name="ldot" unicode="&#x140;" horiz-adv-x="208" 
d="M131 0h-60v706h60v-706zM237 330h-65v83h65v-83z" />
    <glyph glyph-name="Lslash" unicode="&#x141;" horiz-adv-x="547" 
d="M398 420l-255 -131v-231h376v-58h-439v261l-79 -40v61l79 40v384h63v-356l255 131v-61z" />
    <glyph glyph-name="lslash" unicode="&#x142;" 
d="M199 408l-69 -46v-362h-59v328l-71 -46v52l71 46v326h59v-290l69 45v-53z" />
    <glyph glyph-name="Nacute" unicode="&#x143;" horiz-adv-x="698" 
d="M618 0h-71q-368 555 -408 622q2 -122 2 -622h-61v706h73q351 -532 406 -621q-3 118 -3 621h62v-706zM360 768h-52l85 117h87z" />
    <glyph glyph-name="nacute" unicode="&#x144;" horiz-adv-x="515" 
d="M449 0h-59v298q0 65 -16 97q-23 46 -94 46q-67 0 -110 -55q-39 -49 -39 -142v-244h-60v488h60v-87q25 45 69 69.5t97 24.5q95 0 132 -70q20 -39 20 -120v-305zM265 565h-45l71 146h77z" />
    <glyph glyph-name="Ncommaaccent" unicode="&#x145;" horiz-adv-x="698" 
d="M618 0h-71q-368 555 -408 622q2 -122 2 -622h-61v706h73q351 -532 406 -621q-3 118 -3 621h62v-706zM386 -33v-77q0 -70 -43 -122l-31 22q35 36 35 96h-29v81h68z" />
    <glyph glyph-name="ncommaaccent" unicode="&#x146;" horiz-adv-x="515" 
d="M449 0h-59v298q0 65 -16 97q-23 46 -94 46q-67 0 -110 -55q-39 -49 -39 -142v-244h-60v488h60v-87q25 45 69 69.5t97 24.5q95 0 132 -70q20 -39 20 -120v-305zM301 -33v-77q0 -70 -43 -122l-31 22q35 36 35 96h-29v81h68z" />
    <glyph glyph-name="Ncaron" unicode="&#x147;" horiz-adv-x="698" 
d="M618 0h-71q-368 555 -408 622q2 -122 2 -622h-61v706h73q351 -532 406 -621q-3 118 -3 621h62v-706zM231 885h54l71 -71l73 71h52l-95 -114h-60z" />
    <glyph glyph-name="ncaron" unicode="&#x148;" horiz-adv-x="515" 
d="M449 0h-59v298q0 65 -16 97q-23 46 -94 46q-67 0 -110 -55q-39 -49 -39 -142v-244h-60v488h60v-87q25 45 69 69.5t97 24.5q95 0 132 -70q20 -39 20 -120v-305zM138 711h52l67 -101l70 101h50l-91 -147h-57z" />
    <glyph glyph-name="napostrophe" unicode="&#x149;" horiz-adv-x="515" 
d="M449 0h-59v298q0 65 -16 97q-23 46 -94 46q-67 0 -110 -55q-39 -49 -39 -142v-244h-60v488h60v-87q25 45 69 69.5t97 24.5q95 0 132 -70q20 -39 20 -120v-305zM80 706v-77q0 -70 -43 -122l-31 22q35 36 35 96h-29v81h68z" />
    <glyph glyph-name="Eng" unicode="&#x14a;" horiz-adv-x="698" 
d="M618 706v-750q0 -96 -23 -128q-32 -44 -108 -44q-27 0 -46 6v56q21 -7 38 -7q49 0 65 27q12 20 12 95v26q-377 568 -417 635q2 -122 2 -622h-61v706h73q351 -532 406 -621q-3 118 -3 621h62z" />
    <glyph glyph-name="eng" unicode="&#x14b;" horiz-adv-x="515" 
d="M390 298q0 65 -16 97q-23 46 -94 46q-67 0 -110 -55q-39 -49 -39 -142v-244h-60v488h60v-87q25 45 69 69.5t97 24.5q95 0 132 -70q20 -39 20 -120v-349q0 -94 -23 -126q-32 -45 -107 -45q-27 0 -46 6v53q21 -7 37 -7q51 0 68 28q12 20 12 96v337z" />
    <glyph glyph-name="Omacron" unicode="&#x14c;" horiz-adv-x="698" 
d="M650 349q0 -167 -79 -264.5t-214 -97.5q-146 0 -227.5 103t-81.5 269t82 263t223 97q98 0 166.5 -51.5t99.5 -133t31 -185.5zM583 349q0 147 -62 230t-170 83q-109 0 -173 -81t-64 -219q0 -146 65.5 -231.5t176.5 -85.5q104 0 165.5 81t61.5 223zM474 785h-238v49h238
v-49z" />
    <glyph glyph-name="omacron" unicode="&#x14d;" horiz-adv-x="526" 
d="M264 -12q-106 0 -164.5 69.5t-58.5 189.5q0 117 61.5 184.5t167.5 67.5q100 0 157 -68.5t57 -189.5q0 -116 -59.5 -184.5t-160.5 -68.5zM423 240q0 97 -42 152t-114 55q-75 0 -119.5 -52t-44.5 -141q0 -99 43.5 -156.5t116.5 -57.5t116.5 53t43.5 147zM381 597h-232v49
h232v-49z" />
    <glyph glyph-name="Obreve" unicode="&#x14e;" horiz-adv-x="698" 
d="M650 349q0 -167 -79 -264.5t-214 -97.5q-146 0 -227.5 103t-81.5 269t82 263t223 97q98 0 166.5 -51.5t99.5 -133t31 -185.5zM583 349q0 147 -62 230t-170 83q-109 0 -173 -81t-64 -219q0 -146 65.5 -231.5t176.5 -85.5q104 0 165.5 81t61.5 223zM226 877h47
q14 -63 75 -63t75 63h48q-8 -51 -40.5 -80.5t-82.5 -29.5t-82.5 29.5t-39.5 80.5z" />
    <glyph glyph-name="obreve" unicode="&#x14f;" horiz-adv-x="526" 
d="M264 -12q-106 0 -164.5 69.5t-58.5 189.5q0 117 61.5 184.5t167.5 67.5q100 0 157 -68.5t57 -189.5q0 -116 -59.5 -184.5t-160.5 -68.5zM423 240q0 97 -42 152t-114 55q-75 0 -119.5 -52t-44.5 -141q0 -99 43.5 -156.5t116.5 -57.5t116.5 53t43.5 147zM143 690h46
q12 -63 73 -63q59 0 73 63h47q-8 -51 -40 -80.5t-80 -29.5q-49 0 -80.5 29t-38.5 81z" />
    <glyph glyph-name="Ohungarumlaut" unicode="&#x150;" horiz-adv-x="698" 
d="M650 349q0 -167 -79 -264.5t-214 -97.5q-146 0 -227.5 103t-81.5 269t82 263t223 97q98 0 166.5 -51.5t99.5 -133t31 -185.5zM583 349q0 147 -62 230t-170 83q-109 0 -173 -81t-64 -219q0 -146 65.5 -231.5t176.5 -85.5q104 0 165.5 81t61.5 223zM292 768h-44l75 117h80z
M418 768h-43l75 117h80z" />
    <glyph glyph-name="ohungarumlaut" unicode="&#x151;" horiz-adv-x="526" 
d="M264 -12q-106 0 -164.5 69.5t-58.5 189.5q0 117 61.5 184.5t167.5 67.5q100 0 157 -68.5t57 -189.5q0 -116 -59.5 -184.5t-160.5 -68.5zM423 240q0 97 -42 152t-114 55q-75 0 -119.5 -52t-44.5 -141q0 -99 43.5 -156.5t116.5 -57.5t116.5 53t43.5 147zM214 565h-40
l62 146h72zM339 565h-39l62 146h72z" />
    <glyph glyph-name="OE" unicode="&#x152;" horiz-adv-x="1089" 
d="M1055 0h-472v133q-24 -49 -58 -82q-66 -64 -177 -64q-139 0 -219.5 101t-80.5 269q0 167 81.5 264.5t217.5 97.5q112 0 180 -65q35 -34 56 -82v134h448v-59h-386v-255h351v-58h-351v-276h410v-58zM355 45q105 0 166.5 80.5t61.5 229.5q0 144 -62.5 225.5t-169.5 81.5
q-109 0 -173 -81.5t-64 -221.5q0 -145 65 -229.5t176 -84.5z" />
    <glyph glyph-name="oe" unicode="&#x153;" horiz-adv-x="890" 
d="M794 142l54 -17q-19 -63 -71 -100t-124 -37q-147 0 -199 125q-25 -60 -74 -92.5t-116 -32.5q-106 0 -164.5 69.5t-58.5 189.5q0 117 61.5 184.5t167.5 67.5q133 0 184 -123q25 59 74.5 91t116.5 32q200 0 205 -260h-367q2 -97 46 -148t125 -51q112 0 140 102zM423 240
q0 97 -42 152t-114 55q-75 0 -119.5 -52t-44.5 -141q0 -99 43.5 -156.5t116.5 -57.5t116.5 53t43.5 147zM787 289q-5 77 -41.5 119t-103.5 42q-66 0 -108 -41t-50 -120h303z" />
    <glyph glyph-name="Racute" unicode="&#x154;" horiz-adv-x="624" 
d="M601 0h-78l-211 310h-169v-310h-63v706h217q127 0 181 -23q44 -19 72 -64.5t28 -107.5q0 -83 -51.5 -133.5t-148.5 -60.5zM143 367h164q118 0 163 41q41 37 41 105q0 75 -53 110q-23 16 -57 21t-94 5h-164v-282zM278 768h-52l85 117h87z" />
    <glyph glyph-name="racute" unicode="&#x155;" horiz-adv-x="320" 
d="M131 0h-60v488h58v-83q45 89 138 89q24 0 48 -7v-66q-22 13 -53 13q-63 0 -95 -48q-36 -42 -36 -142v-244zM183 565h-45l71 146h77z" />
    <glyph glyph-name="Rcommaaccent" unicode="&#x156;" horiz-adv-x="624" 
d="M601 0h-78l-211 310h-169v-310h-63v706h217q127 0 181 -23q44 -19 72 -64.5t28 -107.5q0 -83 -51.5 -133.5t-148.5 -60.5zM143 367h164q118 0 163 41q41 37 41 105q0 75 -53 110q-23 16 -57 21t-94 5h-164v-282zM342 -33v-77q0 -70 -43 -122l-31 22q35 36 35 96h-29v81
h68z" />
    <glyph glyph-name="rcommaaccent" unicode="&#x157;" horiz-adv-x="320" 
d="M131 0h-60v488h58v-83q45 89 138 89q24 0 48 -7v-66q-22 13 -53 13q-63 0 -95 -48q-36 -42 -36 -142v-244zM136 -33v-77q0 -70 -43 -122l-31 22q35 36 35 96h-29v81h68z" />
    <glyph glyph-name="Rcaron" unicode="&#x158;" horiz-adv-x="624" 
d="M601 0h-78l-211 310h-169v-310h-63v706h217q127 0 181 -23q44 -19 72 -64.5t28 -107.5q0 -83 -51.5 -133.5t-148.5 -60.5zM143 367h164q118 0 163 41q41 37 41 105q0 75 -53 110q-23 16 -57 21t-94 5h-164v-282zM161 885h54l71 -71l73 71h52l-95 -114h-60z" />
    <glyph glyph-name="rcaron" unicode="&#x159;" horiz-adv-x="320" 
d="M131 0h-60v488h58v-83q45 89 138 89q24 0 48 -7v-66q-22 13 -53 13q-63 0 -95 -48q-36 -42 -36 -142v-244zM55 711h52l67 -101l70 101h50l-91 -147h-57z" />
    <glyph glyph-name="Sacute" unicode="&#x15a;" horiz-adv-x="586" 
d="M28 181l61 29q52 -166 207 -166q78 0 127 36.5t49 100.5q0 52 -34 82t-124 60l-59 20q-101 34 -146 77t-45 117q0 81 64.5 132t161.5 51q181 0 247 -163l-59 -30q-45 137 -186 137q-76 0 -119.5 -34t-43.5 -90q0 -49 35 -78t124 -59l62 -21q104 -34 146.5 -78.5
t42.5 -119.5q0 -90 -68 -144t-178 -54q-97 0 -164.5 50.5t-100.5 144.5zM312 768h-52l85 117h87z" />
    <glyph glyph-name="sacute" unicode="&#x15b;" horiz-adv-x="426" 
d="M23 122l56 25q15 -50 50.5 -79t88.5 -29q52 0 84 22.5t32 61.5q0 36 -23 55.5t-86 39.5l-54 18q-123 39 -123 134q0 57 46.5 93t122.5 36q129 0 172 -118l-55 -24q-25 92 -120 92q-51 0 -79 -20t-28 -55q0 -32 21 -51.5t75 -35.5l48 -14q74 -22 108.5 -54t34.5 -88
q0 -65 -48.5 -104t-129.5 -39q-74 0 -122.5 37t-70.5 97zM221 565h-45l71 146h77z" />
    <glyph glyph-name="Scircumflex" unicode="&#x15c;" horiz-adv-x="586" 
d="M28 181l61 29q52 -166 207 -166q78 0 127 36.5t49 100.5q0 52 -34 82t-124 60l-59 20q-101 34 -146 77t-45 117q0 81 64.5 132t161.5 51q181 0 247 -163l-59 -30q-45 137 -186 137q-76 0 -119.5 -34t-43.5 -90q0 -49 35 -78t124 -59l62 -21q104 -34 146.5 -78.5
t42.5 -119.5q0 -90 -68 -144t-178 -54q-97 0 -164.5 50.5t-100.5 144.5zM426 771h-55l-71 71l-72 -71h-53l95 114h60z" />
    <glyph glyph-name="scircumflex" unicode="&#x15d;" horiz-adv-x="426" 
d="M23 122l56 25q15 -50 50.5 -79t88.5 -29q52 0 84 22.5t32 61.5q0 36 -23 55.5t-86 39.5l-54 18q-123 39 -123 134q0 57 46.5 93t122.5 36q129 0 172 -118l-55 -24q-25 92 -120 92q-51 0 -79 -20t-28 -55q0 -32 21 -51.5t75 -35.5l48 -14q74 -22 108.5 -54t34.5 -88
q0 -65 -48.5 -104t-129.5 -39q-74 0 -122.5 37t-70.5 97zM342 564h-52l-67 101l-70 -101h-50l91 147h57z" />
    <glyph glyph-name="Scedilla" unicode="&#x15e;" horiz-adv-x="586" 
d="M28 181l61 29q52 -166 207 -166q78 0 127 36.5t49 100.5q0 52 -34 82t-124 60l-59 20q-101 34 -146 77t-45 117q0 81 64.5 132t161.5 51q181 0 247 -163l-59 -30q-45 137 -186 137q-76 0 -119.5 -34t-43.5 -90q0 -49 35 -78t124 -59l62 -21q104 -34 146.5 -78.5
t42.5 -119.5q0 -89 -66.5 -142.5t-174.5 -55.5l-20 -46q14 3 23 3q35 0 56 -20t21 -55q0 -39 -26.5 -63.5t-69.5 -24.5q-44 0 -74 27l22 34q22 -22 51 -22q22 0 35 13t13 33q0 19 -12.5 30.5t-34.5 11.5t-42 -13l-14 19l34 75q-172 17 -232 193z" />
    <glyph glyph-name="scedilla" unicode="&#x15f;" horiz-adv-x="426" 
d="M23 122l56 25q15 -50 50.5 -79t88.5 -29q52 0 84 22.5t32 61.5q0 36 -23 55.5t-86 39.5l-54 18q-123 39 -123 134q0 57 46.5 93t122.5 36q129 0 172 -118l-55 -24q-25 92 -120 92q-51 0 -79 -20t-28 -55q0 -32 21 -51.5t75 -35.5l48 -14q74 -22 108.5 -54t34.5 -88
q0 -62 -45.5 -101t-121.5 -42l-20 -46q13 3 23 3q35 0 56 -20.5t21 -54.5q0 -39 -26.5 -63.5t-69.5 -24.5q-45 0 -73 27l22 34q22 -22 50 -22q22 0 35 13t13 33q0 19 -12.5 30.5t-34.5 11.5q-23 0 -42 -13l-14 20l34 74q-63 6 -105 41.5t-61 90.5z" />
    <glyph glyph-name="Scaron" unicode="&#x160;" horiz-adv-x="586" 
d="M28 181l61 29q52 -166 207 -166q78 0 127 36.5t49 100.5q0 52 -34 82t-124 60l-59 20q-101 34 -146 77t-45 117q0 81 64.5 132t161.5 51q181 0 247 -163l-59 -30q-45 137 -186 137q-76 0 -119.5 -34t-43.5 -90q0 -49 35 -78t124 -59l62 -21q104 -34 146.5 -78.5
t42.5 -119.5q0 -90 -68 -144t-178 -54q-97 0 -164.5 50.5t-100.5 144.5zM168 885h54l71 -71l73 71h52l-95 -114h-60z" />
    <glyph glyph-name="scaron" unicode="&#x161;" horiz-adv-x="426" 
d="M23 122l56 25q15 -50 50.5 -79t88.5 -29q52 0 84 22.5t32 61.5q0 36 -23 55.5t-86 39.5l-54 18q-123 39 -123 134q0 57 46.5 93t122.5 36q129 0 172 -118l-55 -24q-25 92 -120 92q-51 0 -79 -20t-28 -55q0 -32 21 -51.5t75 -35.5l48 -14q74 -22 108.5 -54t34.5 -88
q0 -65 -48.5 -104t-129.5 -39q-74 0 -122.5 37t-70.5 97zM92 711h52l67 -101l70 101h50l-91 -147h-57z" />
    <glyph glyph-name="Tcommaaccent" unicode="&#x162;" horiz-adv-x="551" 
d="M307 0h-65v648h-216v58h498v-58h-217v-648zM308 -33v-77q0 -70 -43 -122l-31 22q35 36 35 96h-29v81h68z" />
    <glyph glyph-name="tcommaaccent" unicode="&#x163;" horiz-adv-x="275" 
d="M262 54v-52q-30 -9 -60 -9q-61 0 -86 37q-18 26 -18 84v322h-91v52h92v171h59v-171h102v-52h-102v-316q0 -43 14 -60q12 -16 43 -16q20 0 47 10zM207 -33v-77q0 -70 -43 -122l-31 22q35 36 35 96h-29v81h68z" />
    <glyph glyph-name="Tcaron" unicode="&#x164;" horiz-adv-x="551" 
d="M307 0h-65v648h-216v58h498v-58h-217v-648zM150 885h54l71 -71l73 71h52l-95 -114h-60z" />
    <glyph glyph-name="tcaron" unicode="&#x165;" horiz-adv-x="275" 
d="M262 54v-52q-30 -9 -60 -9q-61 0 -86 37q-18 26 -18 84v322h-91v52h92v171h59v-171h102v-52h-102v-316q0 -43 14 -60q12 -16 43 -16q20 0 47 10zM273 706v-77q0 -70 -43 -122l-31 22q35 36 35 96h-29v81h68z" />
    <glyph glyph-name="Tbar" unicode="&#x166;" horiz-adv-x="551" 
d="M307 0h-65v418h-163v57h163v173h-216v58h498v-58h-217v-173h162v-57h-162v-418z" />
    <glyph glyph-name="tbar" unicode="&#x167;" horiz-adv-x="275" 
d="M250 287h-92v-167q0 -43 14 -60q12 -16 43 -16q20 0 47 10v-52q-30 -9 -60 -9q-61 0 -86 37q-18 26 -18 84v173h-86v52h86v97h-91v52h92v171h59v-171h102v-52h-102v-97h92v-52z" />
    <glyph glyph-name="Utilde" unicode="&#x168;" horiz-adv-x="677" 
d="M597 706v-393q0 -94 -9 -144.5t-34 -87.5q-64 -94 -218 -94q-151 0 -215 97q-26 39 -33.5 89t-7.5 137v396h63v-434q0 -98 33 -152q47 -76 162 -76q111 0 163 71q33 46 33 160v431h63zM485 844q-37 -68 -89 -68q-28 0 -54 16l-25 15q-17 11 -35 11q-34 0 -53 -44l-38 24
q32 71 90 71q25 0 51 -14l23 -13q28 -14 39 -14q17 0 28.5 8.5t24.5 31.5z" />
    <glyph glyph-name="utilde" unicode="&#x169;" horiz-adv-x="517" 
d="M68 488h59v-293q0 -78 25 -111q29 -38 91 -38t101 47q42 51 42 139v256h60v-488h-60v84q-54 -92 -163 -92q-82 0 -122 52q-33 43 -33 133v311zM399 654q-37 -67 -86 -67q-25 0 -51 15l-20 12q-22 13 -38 13q-33 0 -50 -44l-37 24q31 70 87 70q22 0 50 -15l20 -11
q24 -13 38 -13q29 0 52 40z" />
    <glyph glyph-name="Umacron" unicode="&#x16a;" horiz-adv-x="677" 
d="M597 706v-393q0 -94 -9 -144.5t-34 -87.5q-64 -94 -218 -94q-151 0 -215 97q-26 39 -33.5 89t-7.5 137v396h63v-434q0 -98 33 -152q47 -76 162 -76q111 0 163 71q33 46 33 160v431h63zM457 785h-238v49h238v-49z" />
    <glyph glyph-name="umacron" unicode="&#x16b;" horiz-adv-x="517" 
d="M68 488h59v-293q0 -78 25 -111q29 -38 91 -38t101 47q42 51 42 139v256h60v-488h-60v84q-54 -92 -163 -92q-82 0 -122 52q-33 43 -33 133v311zM374 597h-232v49h232v-49z" />
    <glyph glyph-name="Ubreve" unicode="&#x16c;" horiz-adv-x="677" 
d="M597 706v-393q0 -94 -9 -144.5t-34 -87.5q-64 -94 -218 -94q-151 0 -215 97q-26 39 -33.5 89t-7.5 137v396h63v-434q0 -98 33 -152q47 -76 162 -76q111 0 163 71q33 46 33 160v431h63zM216 877h47q14 -63 75 -63t75 63h48q-8 -51 -40.5 -80.5t-82.5 -29.5t-82.5 29.5
t-39.5 80.5z" />
    <glyph glyph-name="ubreve" unicode="&#x16d;" horiz-adv-x="517" 
d="M68 488h59v-293q0 -78 25 -111q29 -38 91 -38t101 47q42 51 42 139v256h60v-488h-60v84q-54 -92 -163 -92q-82 0 -122 52q-33 43 -33 133v311zM136 690h46q12 -63 73 -63q59 0 73 63h47q-8 -51 -40 -80.5t-80 -29.5q-49 0 -80.5 29t-38.5 81z" />
    <glyph glyph-name="Uring" unicode="&#x16e;" horiz-adv-x="677" 
d="M597 706v-393q0 -94 -9 -144.5t-34 -87.5q-64 -94 -218 -94q-151 0 -215 97q-26 39 -33.5 89t-7.5 137v396h63v-434q0 -98 33 -152q47 -76 162 -76q111 0 163 71q33 46 33 160v431h63zM343 896q39 0 62.5 -22t23.5 -61q0 -36 -23.5 -59t-60.5 -23q-38 0 -62 23t-24 60
q0 36 23.5 59t60.5 23zM345 862q-23 0 -36 -13t-13 -36q0 -21 13.5 -35t34.5 -14t34.5 14t13.5 35q0 22 -13.5 35.5t-33.5 13.5z" />
    <glyph glyph-name="uring" unicode="&#x16f;" horiz-adv-x="517" 
d="M68 488h59v-293q0 -78 25 -111q29 -38 91 -38t101 47q42 51 42 139v256h60v-488h-60v84q-54 -92 -163 -92q-82 0 -122 52q-33 43 -33 133v311zM254 713q38 0 62 -23t24 -60q0 -36 -24 -59.5t-61 -23.5q-38 0 -62.5 23.5t-24.5 60.5q0 36 24 59t62 23zM255 683
q-23 0 -37.5 -14.5t-14.5 -37.5t14.5 -38t37.5 -15q22 0 36.5 15t14.5 37q0 23 -14.5 38t-36.5 15z" />
    <glyph glyph-name="Uhungarumlaut" unicode="&#x170;" horiz-adv-x="677" 
d="M597 706v-393q0 -94 -9 -144.5t-34 -87.5q-64 -94 -218 -94q-151 0 -215 97q-26 39 -33.5 89t-7.5 137v396h63v-434q0 -98 33 -152q47 -76 162 -76q111 0 163 71q33 46 33 160v431h63zM284 768h-44l75 117h80zM410 768h-43l75 117h80z" />
    <glyph glyph-name="uhungarumlaut" unicode="&#x171;" horiz-adv-x="517" 
d="M68 488h59v-293q0 -78 25 -111q29 -38 91 -38t101 47q42 51 42 139v256h60v-488h-60v84q-54 -92 -163 -92q-82 0 -122 52q-33 43 -33 133v311zM205 565h-40l62 146h72zM330 565h-39l62 146h72z" />
    <glyph glyph-name="Uogonek" unicode="&#x172;" horiz-adv-x="677" 
d="M597 706v-393q0 -94 -9 -144.5t-34 -87.5q-56 -81 -179 -92q-67 -53 -67 -102q0 -23 13.5 -37t36.5 -14q22 0 40 14l19 -31q-28 -21 -67 -21q-40 0 -65.5 23t-25.5 61q0 55 67 105q-145 5 -205 97q-26 39 -33.5 89t-7.5 137v396h63v-434q0 -98 33 -152q47 -76 162 -76
q111 0 163 71q33 46 33 160v431h63z" />
    <glyph glyph-name="uogonek" unicode="&#x173;" horiz-adv-x="517" 
d="M446 488v-488h-5q-24 -17 -39.5 -30.5t-29.5 -36t-14 -46.5q0 -23 13.5 -37t36.5 -14q22 0 40 14l19 -31q-28 -21 -67 -21q-40 0 -65.5 23t-25.5 61q0 60 84 118h-7v84q-54 -92 -163 -92q-82 0 -122 52q-33 43 -33 133v311h59v-293q0 -78 25 -111q29 -38 91 -38t101 47
q42 51 42 139v256h60z" />
    <glyph glyph-name="Wcircumflex" unicode="&#x174;" horiz-adv-x="842" 
d="M654 0h-63q-144 513 -167 616q-25 -115 -165 -616h-64l-195 706h66q147 -548 165 -627q20 86 163 627h59q136 -493 169 -626q27 132 156 626h64zM550 771h-55l-71 71l-72 -71h-53l95 114h60z" />
    <glyph glyph-name="wcircumflex" unicode="&#x175;" horiz-adv-x="667" 
d="M516 0h-58q-93 307 -122 413q-22 -88 -122 -413h-59l-155 488h64q53 -170 125 -412q26 101 118 412h59q94 -311 121 -412q30 110 118 412h62zM456 564h-52l-67 101l-70 -101h-50l91 147h57z" />
    <glyph glyph-name="Ycircumflex" unicode="&#x176;" horiz-adv-x="577" 
d="M317 0h-63v294l-254 412h74q172 -286 213 -363q44 79 220 363h70l-260 -412v-294zM412 771h-55l-71 71l-72 -71h-53l95 114h60z" />
    <glyph glyph-name="ycircumflex" unicode="&#x177;" horiz-adv-x="438" 
d="M191 -13l-186 501h66q110 -307 153 -436q68 203 149 436h65l-200 -543q-33 -87 -58 -118q-34 -42 -98 -42q-26 0 -50 8v53q23 -9 48 -9t38 7t31 40t42 103zM344 564h-52l-67 101l-70 -101h-50l91 147h57z" />
    <glyph glyph-name="Ydieresis" unicode="&#x178;" horiz-adv-x="577" 
d="M317 0h-63v294l-254 412h74q172 -286 213 -363q44 79 220 363h70l-260 -412v-294zM203 771h-59v82h59v-82zM438 771h-58v82h58v-82z" />
    <glyph glyph-name="Zacute" unicode="&#x179;" horiz-adv-x="569" 
d="M536 0h-507v48l430 600h-407v58h488v-50l-427 -598h423v-58zM297 768h-52l85 117h87z" />
    <glyph glyph-name="zacute" unicode="&#x17a;" horiz-adv-x="413" 
d="M384 0h-358v37l275 399h-261v52h338v-37l-273 -399h279v-52zM224 565h-45l71 146h77z" />
    <glyph glyph-name="Zdotaccent" unicode="&#x17b;" horiz-adv-x="569" 
d="M536 0h-507v48l430 600h-407v58h488v-50l-427 -598h423v-58zM326 771h-60v82h60v-82z" />
    <glyph glyph-name="zdotaccent" unicode="&#x17c;" horiz-adv-x="413" 
d="M384 0h-358v37l275 399h-261v52h338v-37l-273 -399h279v-52zM242 596h-60v83h60v-83z" />
    <glyph glyph-name="Zcaron" unicode="&#x17d;" horiz-adv-x="569" 
d="M536 0h-507v48l430 600h-407v58h488v-50l-427 -598h423v-58zM174 885h54l71 -71l73 71h52l-95 -114h-60z" />
    <glyph glyph-name="zcaron" unicode="&#x17e;" horiz-adv-x="413" 
d="M384 0h-358v37l275 399h-261v52h338v-37l-273 -399h279v-52zM89 711h52l67 -101l70 101h50l-91 -147h-57z" />
    <glyph glyph-name="longs" unicode="&#x17f;" horiz-adv-x="208" 
d="M131 576v-576h-60v571q0 75 25 107q28 35 90 35q30 0 55 -9v-54q-23 11 -49 11q-37 0 -51 -25q-10 -17 -10 -60z" />
    <glyph glyph-name="florin" unicode="&#x192;" horiz-adv-x="409" 
d="M89 382v46h96l10 102q8 80 25 112q32 59 102 59q34 0 62 -12l-9 -56q-22 13 -49 13q-36 0 -52 -25q-15 -23 -31 -193h103v-46h-106l-34 -348q-11 -101 -39 -132q-32 -36 -88 -36q-33 0 -61 11l11 57q22 -14 44 -14q35 0 50 19q17 20 24 92l35 351h-93z" />
    <glyph glyph-name="Aringacute" unicode="&#x1fa;" horiz-adv-x="608" 
d="M608 0h-70l-74 206h-319l-75 -206h-70l275 706h66zM166 261h278q-124 335 -138 376q-24 -69 -140 -376zM307 868q31 0 51 -18.5t20 -47.5q0 -30 -19.5 -48.5t-50.5 -18.5q-32 0 -52 18.5t-20 48.5q0 29 20 47.5t51 18.5zM308 841q-18 0 -29 -11t-11 -28t11 -28.5
t28 -11.5t28.5 11t11.5 28t-11 28.5t-28 11.5zM318 892h-41l68 106h80z" />
    <glyph glyph-name="aringacute" unicode="&#x1fb;" horiz-adv-x="473" 
d="M347 297v35q0 66 -28 91q-28 26 -82 26q-116 0 -127 -113l-59 8q9 77 59 116t129 39q102 0 139 -56q26 -40 26 -128v-201q0 -36 8.5 -52t38.5 -16q9 0 21 2v-48q-22 -2 -35 -2q-43 0 -64 18t-24 59q-52 -82 -169 -82q-66 0 -107 37.5t-41 96.5q0 92 92 130q66 27 223 40z
M347 251q-139 -10 -197 -37q-59 -27 -59 -84q0 -43 27.5 -66t74.5 -23q77 0 118 50q36 45 36 127v33zM236 713q38 0 62 -23t24 -60q0 -36 -24 -59.5t-61 -23.5q-38 0 -62.5 23.5t-24.5 60.5q0 36 24 59t62 23zM237 683q-23 0 -37.5 -14.5t-14.5 -37.5t14.5 -38t37.5 -15
q22 0 36.5 15t14.5 37q0 23 -14.5 38t-36.5 15zM243 743h-45l71 136h77z" />
    <glyph glyph-name="AEacute" unicode="&#x1fc;" horiz-adv-x="969" 
d="M0 0l429 706h482v-58h-385v-255h350v-58h-350v-277h409v-58h-473v200h-270l-120 -200h-72zM462 255v399q-51 -92 -237 -399h237zM646 768h-52l85 117h87z" />
    <glyph glyph-name="aeacute" unicode="&#x1fd;" horiz-adv-x="810" 
d="M714 141l54 -16q-19 -63 -70.5 -100t-124.5 -37q-146 0 -200 125q-52 -122 -193 -122q-66 0 -107 38t-41 97q0 83 73 120t242 51v41q0 111 -110 111q-116 0 -127 -113l-59 8q9 77 59 116t129 39q123 0 152 -93q53 92 174 92q201 0 205 -259h-367q0 -89 45 -144t126 -55
q113 0 140 101zM347 251q-144 -12 -200 -39.5t-56 -82.5q0 -43 27.5 -66.5t74.5 -23.5q60 0 103 38q51 45 51 141v33zM707 288q-5 78 -41 120t-103 42t-109.5 -41t-49.5 -121h303zM409 565h-45l71 146h77z" />
    <glyph glyph-name="Oslashacute" unicode="&#x1fe;" horiz-adv-x="698" 
d="M653 693l-72 -89q69 -100 69 -255q0 -167 -79 -264.5t-214 -97.5q-129 0 -209 82l-69 -86l-35 30l74 92q-70 99 -70 254q0 166 82 263t223 97q121 0 198 -79l66 82zM583 349q0 123 -45 202l-349 -432q63 -74 167 -74t165.5 81t61.5 223zM114 362q0 -125 47 -204l350 433
q-62 71 -160 71q-109 0 -173 -81t-64 -219zM357 768h-52l85 117h87z" />
    <glyph glyph-name="oslashacute" unicode="&#x1ff;" horiz-adv-x="526" 
d="M489 483l-54 -64q49 -67 49 -178q0 -116 -59.5 -184.5t-160.5 -68.5q-88 0 -146 50l-49 -60l-32 27l53 64q-49 65 -49 178q0 117 61.5 184.5t167.5 67.5q81 0 137 -48l49 59zM423 240q0 77 -28 130l-238 -286q41 -44 106 -44q73 0 116.5 53t43.5 147zM103 254
q0 -81 29 -134l237 285q-40 42 -102 42q-75 0 -119.5 -52t-44.5 -141zM270 565h-45l71 146h77z" />
    <glyph glyph-name="Scommaaccent" unicode="&#x218;" horiz-adv-x="586" 
d="M28 181l61 29q52 -166 207 -166q78 0 127 36.5t49 100.5q0 52 -34 82t-124 60l-59 20q-101 34 -146 77t-45 117q0 81 64.5 132t161.5 51q181 0 247 -163l-59 -30q-45 137 -186 137q-76 0 -119.5 -34t-43.5 -90q0 -49 35 -78t124 -59l62 -21q104 -34 146.5 -78.5
t42.5 -119.5q0 -90 -68 -144t-178 -54q-97 0 -164.5 50.5t-100.5 144.5zM330 -33v-77q0 -70 -43 -122l-31 22q35 36 35 96h-29v81h68z" />
    <glyph glyph-name="scommaaccent" unicode="&#x219;" horiz-adv-x="426" 
d="M23 122l56 25q15 -50 50.5 -79t88.5 -29q52 0 84 22.5t32 61.5q0 36 -23 55.5t-86 39.5l-54 18q-123 39 -123 134q0 57 46.5 93t122.5 36q129 0 172 -118l-55 -24q-25 92 -120 92q-51 0 -79 -20t-28 -55q0 -32 21 -51.5t75 -35.5l48 -14q74 -22 108.5 -54t34.5 -88
q0 -65 -48.5 -104t-129.5 -39q-74 0 -122.5 37t-70.5 97zM250 -33v-77q0 -70 -43 -122l-31 22q35 36 35 96h-29v81h68z" />
    <glyph glyph-name="uni021A" unicode="&#x21a;" horiz-adv-x="551" 
d="M307 0h-65v648h-216v58h498v-58h-217v-648zM308 -33v-77q0 -70 -43 -122l-31 22q35 36 35 96h-29v81h68z" />
    <glyph glyph-name="uni021B" unicode="&#x21b;" horiz-adv-x="275" 
d="M262 54v-52q-30 -9 -60 -9q-61 0 -86 37q-18 26 -18 84v322h-91v52h92v171h59v-171h102v-52h-102v-316q0 -43 14 -60q12 -16 43 -16q20 0 47 10zM207 -33v-77q0 -70 -43 -122l-31 22q35 36 35 96h-29v81h68z" />
    <glyph glyph-name="circumflex" unicode="&#x2c6;" 
d="M221 564h-52l-67 101l-70 -101h-50l91 147h57z" />
    <glyph glyph-name="caron" unicode="&#x2c7;" 
d="M-18 711h52l67 -101l70 101h50l-91 -147h-57z" />
    <glyph glyph-name="uni02C9" unicode="&#x2c9;" 
d="M217 597h-232v49h232v-49z" />
    <glyph glyph-name="breve" unicode="&#x2d8;" 
d="M-18 690h46q12 -63 73 -63q59 0 73 63h47q-8 -51 -40 -80.5t-80 -29.5q-49 0 -80.5 29t-38.5 81z" />
    <glyph glyph-name="dotaccent" unicode="&#x2d9;" 
d="M131 596h-60v83h60v-83z" />
    <glyph glyph-name="ring" unicode="&#x2da;" 
d="M101 713q38 0 62 -23t24 -60q0 -36 -24 -59.5t-61 -23.5q-38 0 -62.5 23.5t-24.5 60.5q0 36 24 59t62 23zM102 683q-23 0 -37.5 -14.5t-14.5 -37.5t14.5 -38t37.5 -15q22 0 36.5 15t14.5 37q0 23 -14.5 38t-36.5 15z" />
    <glyph glyph-name="ogonek" unicode="&#x2db;" 
d="M161 5q-28 -20 -42.5 -32t-31 -36.5t-16.5 -49.5q0 -23 13.5 -37t36.5 -14q22 0 40 14l19 -31q-28 -21 -67 -21q-40 0 -65.5 23t-25.5 61q0 62 92 123h47z" />
    <glyph glyph-name="tilde" unicode="&#x2dc;" 
d="M242 654q-37 -67 -86 -67q-26 0 -51 15l-20 12q-22 13 -38 13q-33 0 -50 -44l-37 24q31 70 87 70q23 0 50 -15l20 -11q24 -13 38 -13q29 0 52 40z" />
    <glyph glyph-name="hungarumlaut" unicode="&#x2dd;" 
d="M11 565h-40l62 146h72zM136 565h-39l62 146h72z" />
    <glyph glyph-name="uni037E" unicode="&#x37e;" horiz-adv-x="236" 
d="M174 110v-112q0 -38 -5 -61q-8 -34 -38 -69l-31 22q16 16 25 36q10 23 10 74h-29v110h68zM175 488v-112h-66v112h66z" />
    <glyph glyph-name="uni0394" unicode="&#x394;" horiz-adv-x="648" 
d="M633 0h-622l276 706h79zM544 57l-219 592l-225 -592h444z" />
    <glyph glyph-name="uni03A9" unicode="&#x3a9;" horiz-adv-x="701" 
d="M447 88v-36h200v-52h-251v121q178 69 178 279q0 124 -62 198t-159 74q-103 0 -166 -74.5t-63 -202.5q0 -214 180 -274v-121h-251v52h200v36q-96 37 -144 116.5t-48 191.5q0 150 81 239t212 89q126 0 204.5 -88t78.5 -229q0 -109 -48.5 -194.5t-141.5 -124.5z" />
    <glyph glyph-name="uni03BC" unicode="&#x3bc;" horiz-adv-x="516" 
d="M128 488v-246q0 -102 17 -139q12 -26 39 -42t60 -16q46 0 81 27t49 72q11 38 11 130v214h59v-488h-56v83q-49 -91 -150 -91q-83 0 -114 64v-233h-55v665h59z" />
    <glyph glyph-name="pi" unicode="&#x3c0;" horiz-adv-x="539" 
d="M488 434h-55v-319q0 -43 10 -56.5t42 -13.5q11 0 18 1v-46q-12 -1 -27 -1q-60 0 -82 34q-15 23 -15 78v323h-217v-434h-57v434h-54v54h437v-54z" />
    <glyph glyph-name="Wgrave" unicode="&#x1e80;" horiz-adv-x="842" 
d="M654 0h-63q-144 513 -167 616q-25 -115 -165 -616h-64l-195 706h66q147 -548 165 -627q20 86 163 627h59q136 -493 169 -626q27 132 156 626h64zM460 768h-51l-113 117h86z" />
    <glyph glyph-name="wgrave" unicode="&#x1e81;" horiz-adv-x="667" 
d="M516 0h-58q-93 307 -122 413q-22 -88 -122 -413h-59l-155 488h64q53 -170 125 -412q26 101 118 412h59q94 -311 121 -412q30 110 118 412h62zM368 565h-44l-100 146h78z" />
    <glyph glyph-name="Wacute" unicode="&#x1e82;" horiz-adv-x="842" 
d="M654 0h-63q-144 513 -167 616q-25 -115 -165 -616h-64l-195 706h66q147 -548 165 -627q20 86 163 627h59q136 -493 169 -626q27 132 156 626h64zM442 768h-52l85 117h87z" />
    <glyph glyph-name="wacute" unicode="&#x1e83;" horiz-adv-x="667" 
d="M516 0h-58q-93 307 -122 413q-22 -88 -122 -413h-59l-155 488h64q53 -170 125 -412q26 101 118 412h59q94 -311 121 -412q30 110 118 412h62zM351 565h-45l71 146h77z" />
    <glyph glyph-name="Wdieresis" unicode="&#x1e84;" horiz-adv-x="842" 
d="M654 0h-63q-144 513 -167 616q-25 -115 -165 -616h-64l-195 706h66q147 -548 165 -627q20 86 163 627h59q136 -493 169 -626q27 132 156 626h64zM336 771h-59v82h59v-82zM571 771h-58v82h58v-82z" />
    <glyph glyph-name="wdieresis" unicode="&#x1e85;" horiz-adv-x="667" 
d="M516 0h-58q-93 307 -122 413q-22 -88 -122 -413h-59l-155 488h64q53 -170 125 -412q26 101 118 412h59q94 -311 121 -412q30 110 118 412h62zM266 596h-57v83h57v-83zM463 596h-56v83h56v-83z" />
    <glyph glyph-name="Ygrave" unicode="&#x1ef2;" horiz-adv-x="577" 
d="M317 0h-63v294l-254 412h74q172 -286 213 -363q44 79 220 363h70l-260 -412v-294zM334 768h-51l-113 117h86z" />
    <glyph glyph-name="ygrave" unicode="&#x1ef3;" horiz-adv-x="438" 
d="M191 -13l-186 501h66q110 -307 153 -436q68 203 149 436h65l-200 -543q-33 -87 -58 -118q-34 -42 -98 -42q-26 0 -50 8v53q23 -9 48 -9t38 7t31 40t42 103zM257 565h-44l-100 146h78z" />
    <glyph glyph-name="endash" unicode="&#x2013;" horiz-adv-x="543" 
d="M495 263h-447v56h447v-56z" />
    <glyph glyph-name="emdash" unicode="&#x2014;" horiz-adv-x="730" 
d="M682 263h-634v56h634v-56z" />
    <glyph glyph-name="quoteleft" unicode="&#x2018;" horiz-adv-x="188" 
d="M61 475v112q0 50 9 76t34 55l31 -23q-35 -29 -35 -110h29v-110h-68z" />
    <glyph glyph-name="quoteright" unicode="&#x2019;" horiz-adv-x="188" 
d="M126 706v-112q0 -50 -9 -76t-34 -55l-31 23q35 29 35 110h-29v110h68z" />
    <glyph glyph-name="quotesinglbase" unicode="&#x201a;" horiz-adv-x="188" 
d="M126 110v-112q0 -50 -9 -76t-34 -55l-31 23q35 29 35 110h-29v110h68z" />
    <glyph glyph-name="quotedblleft" unicode="&#x201c;" horiz-adv-x="332" 
d="M61 475v112q0 50 9 76t34 55l31 -23q-35 -29 -35 -110h29v-110h-68zM205 475v112q0 50 9 76t34 55l31 -23q-35 -29 -35 -110h29v-110h-68z" />
    <glyph glyph-name="quotedblright" unicode="&#x201d;" horiz-adv-x="332" 
d="M270 706v-112q0 -50 -9 -76t-34 -55l-31 23q35 29 35 110h-29v110h68zM126 706v-112q0 -50 -9 -76t-34 -55l-31 23q35 29 35 110h-29v110h68z" />
    <glyph glyph-name="quotedblbase" unicode="&#x201e;" horiz-adv-x="332" 
d="M270 110v-112q0 -50 -9 -76t-34 -55l-31 23q35 29 35 110h-29v110h68zM126 110v-112q0 -50 -9 -76t-34 -55l-31 23q35 29 35 110h-29v110h68z" />
    <glyph glyph-name="dagger" unicode="&#x2020;" horiz-adv-x="448" 
d="M253 -109h-59v555h-161v55h161v227h59v-227h162v-55h-162v-555z" />
    <glyph glyph-name="daggerdbl" unicode="&#x2021;" horiz-adv-x="448" 
d="M194 -109v296h-161v54h161v222h-161v54h161v211h59v-211h162v-54h-162v-222h162v-54h-162v-296h-59z" />
    <glyph glyph-name="bullet" unicode="&#x2022;" horiz-adv-x="193" 
d="M162 356v-133h-131v133h131z" />
    <glyph glyph-name="ellipsis" unicode="&#x2026;" horiz-adv-x="1059" 
d="M209 105v-105h-65v105h65zM562 105v-105h-65v105h65zM914 105v-105h-64v105h64z" />
    <glyph glyph-name="perthousand" unicode="&#x2030;" horiz-adv-x="1273" 
d="M365 472q0 -104 -43.5 -162t-120.5 -58t-120 58t-43 164q0 104 44.5 163.5t121.5 59.5t119 -61t42 -164zM309 471q0 84 -28.5 131t-78.5 47q-49 0 -78 -46t-29 -127q0 -86 28 -131.5t78 -45.5q51 0 79.5 44.5t28.5 127.5zM845 212q0 -104 -43.5 -162t-120.5 -58t-120 58
t-43 164q0 104 44.5 163.5t121.5 59.5t119 -61t42 -164zM789 211q0 84 -28.5 131t-78.5 47q-49 0 -78 -46t-29 -127q0 -86 28 -131.5t78 -45.5q51 0 79.5 44.5t28.5 127.5zM1235 212q0 -104 -43.5 -162t-120.5 -58t-120 58t-43 164q0 104 44.5 163.5t121.5 59.5t119 -61
t42 -164zM1179 211q0 84 -28.5 131t-78.5 47q-49 0 -78 -46t-29 -127q0 -86 28 -131.5t78 -45.5q51 0 79.5 44.5t28.5 127.5zM338 0h-54l262 689h54z" />
    <glyph glyph-name="guilsinglleft" unicode="&#x2039;" horiz-adv-x="270" 
d="M184 459l38 -29l-112 -163l112 -161l-38 -30l-141 191z" />
    <glyph glyph-name="guilsinglright" unicode="&#x203a;" horiz-adv-x="270" 
d="M86 76l-38 30l112 162l-112 162l38 29l141 -191z" />
    <glyph glyph-name="fraction" unicode="&#x2044;" horiz-adv-x="84" 
d="M-62 0h-54l262 689h54z" />
    <glyph glyph-name="zero.superior" unicode="&#x2070;" horiz-adv-x="403" 
d="M365 652q0 -104 -43.5 -162t-120.5 -58t-120 58t-43 164q0 104 44.5 163.5t121.5 59.5t119 -61t42 -164zM309 651q0 84 -28.5 131t-78.5 47q-49 0 -78 -46t-29 -127q0 -86 28 -131.5t78 -45.5q51 0 79.5 44.5t28.5 127.5z" />
    <glyph glyph-name="four.superior" unicode="&#x2074;" horiz-adv-x="403" 
d="M295 440h-53v99h-208v42l199 288h62v-283h78v-47h-78v-99zM92 586h150q0 124 1 224q-8 -13 -151 -224z" />
    <glyph glyph-name="five.superior" unicode="&#x2075;" horiz-adv-x="403" 
d="M133 822l-11 -125q39 36 98 36q64 0 101 -39.5t37 -107.5q0 -71 -42.5 -112.5t-118.5 -41.5q-58 0 -96 28.5t-50 82.5l53 21q12 -86 94 -86q48 0 74.5 28.5t26.5 77.5q0 48 -25 75t-69 27q-66 0 -87 -53l-49 7l17 229h244v-47h-197z" />
    <glyph glyph-name="six.superior" unicode="&#x2076;" horiz-adv-x="403" 
d="M357 781l-51 -21q-18 70 -84 70q-113 0 -120 -164q43 59 126 59q63 0 100 -40t37 -106q0 -67 -41.5 -107t-113.5 -40q-163 0 -163 212q0 113 44.5 173t131.5 60q52 0 84 -23.5t50 -72.5zM309 578q0 48 -25.5 75t-70.5 27t-74 -27t-29 -68q0 -49 28 -78.5t74 -29.5
q44 0 70.5 27.5t26.5 73.5z" />
    <glyph glyph-name="seven.superior" unicode="&#x2077;" horiz-adv-x="403" 
d="M37 821v48h314v-39q-74 -97 -110 -186t-47 -204h-61q18 215 156 381h-252z" />
    <glyph glyph-name="eight.superior" unicode="&#x2078;" horiz-adv-x="403" 
d="M127 665q-71 24 -71 99q0 51 41 82t108 31q65 0 103 -31.5t38 -83.5q0 -71 -74 -96q43 -10 66 -39.5t23 -71.5q0 -56 -44 -89.5t-117 -33.5q-72 0 -114.5 34t-42.5 91q0 82 84 108zM303 557q0 38 -27.5 62t-73.5 24q-45 0 -73.5 -23.5t-28.5 -60.5q0 -38 28 -60t75 -22
q45 0 72.5 21.5t27.5 58.5zM291 761q0 33 -24.5 53t-64.5 20q-42 0 -67 -19t-25 -52q0 -35 24.5 -55.5t66.5 -20.5q40 0 65 21t25 53z" />
    <glyph glyph-name="nine.superior" unicode="&#x2079;" horiz-adv-x="403" 
d="M44 527l52 21q17 -69 86 -69q56 0 86 39t34 123q-42 -57 -126 -57q-64 0 -101 39.5t-37 106.5q0 66 42.5 106.5t112.5 40.5q163 0 163 -212q0 -233 -175 -233q-55 0 -87 23t-50 72zM94 731q0 -48 26 -75t70 -27q45 0 74 27t29 68q0 49 -28 78t-74 29q-44 0 -70.5 -27
t-26.5 -73z" />
    <glyph glyph-name="parenleft.superior" unicode="&#x207d;" horiz-adv-x="271" 
d="M240 346l-21 -23q-77 44 -116.5 128.5t-39.5 171.5q0 191 158 292l19 -25q-121 -105 -121 -266q0 -83 31 -156t90 -122z" />
    <glyph glyph-name="parenright.superior" unicode="&#x207e;" horiz-adv-x="271" 
d="M31 892l21 23q77 -44 117 -128.5t40 -171.5q0 -191 -159 -292l-19 25q121 104 121 266q0 83 -31 156t-90 122z" />
    <glyph glyph-name="zero.inferior" unicode="&#x2080;" horiz-adv-x="403" 
d="M365 49q0 -104 -43.5 -162t-120.5 -58t-120 58t-43 164q0 104 44.5 163.5t121.5 59.5t119 -61t42 -164zM309 48q0 84 -28.5 131t-78.5 47q-49 0 -78 -46t-29 -127q0 -86 28 -131.5t78 -45.5q51 0 79.5 44.5t28.5 127.5z" />
    <glyph glyph-name="one.inferior" unicode="&#x2081;" horiz-adv-x="403" 
d="M98 158v49q84 4 93 65h49v-435h-56v344q-28 -20 -86 -23z" />
    <glyph glyph-name="two.inferior" unicode="&#x2082;" horiz-adv-x="403" 
d="M131 -115q22 1 220 1v-49h-299v46q24 15 108 75q76 54 104.5 93t28.5 88q0 41 -25.5 64t-70.5 23q-43 0 -68 -22.5t-25 -61.5q0 -27 9 -55l-55 8q-8 23 -8 49q0 60 40.5 95t111.5 35t110.5 -36.5t39.5 -99.5q0 -43 -22.5 -81t-78.5 -86q-59 -49 -120 -86z" />
    <glyph glyph-name="three.inferior" unicode="&#x2083;" horiz-adv-x="403" 
d="M141 35v45q14 -1 23 -1q56 0 88.5 20t32.5 59q0 33 -22.5 51t-61.5 18q-81 0 -94 -83l-51 16q28 114 149 114q63 0 99.5 -30.5t36.5 -83.5q0 -40 -25 -65.5t-71 -33.5q50 -4 80 -32t30 -76q0 -55 -43 -89.5t-112 -34.5q-124 0 -153 116l51 21q15 -90 101 -90
q44 0 71.5 21.5t27.5 59.5q0 41 -31 60t-97 19q-17 0 -29 -1z" />
    <glyph glyph-name="four.inferior" unicode="&#x2084;" horiz-adv-x="403" 
d="M295 -163h-53v99h-208v42l199 288h62v-283h78v-47h-78v-99zM92 -17h150q0 124 1 224q-8 -13 -151 -224z" />
    <glyph glyph-name="five.inferior" unicode="&#x2085;" horiz-adv-x="403" 
d="M133 219l-11 -125q39 36 98 36q64 0 101 -39.5t37 -107.5q0 -71 -42.5 -112.5t-118.5 -41.5q-58 0 -96 28.5t-50 82.5l53 21q12 -86 94 -86q48 0 74.5 28.5t26.5 77.5q0 48 -25 75t-69 27q-66 0 -87 -53l-49 7l17 229h244v-47h-197z" />
    <glyph glyph-name="six.inferior" unicode="&#x2086;" horiz-adv-x="403" 
d="M357 178l-51 -21q-18 70 -84 70q-113 0 -120 -164q43 59 126 59q63 0 100 -40t37 -106q0 -67 -41.5 -107t-113.5 -40q-163 0 -163 212q0 113 44.5 173t131.5 60q52 0 84 -23.5t50 -72.5zM309 -25q0 48 -25.5 75t-70.5 27t-74 -27t-29 -68q0 -49 28 -78.5t74 -29.5
q44 0 70.5 27.5t26.5 73.5z" />
    <glyph glyph-name="seven.inferior" unicode="&#x2087;" horiz-adv-x="403" 
d="M37 218v48h314v-39q-74 -97 -110 -186t-47 -204h-61q18 215 156 381h-252z" />
    <glyph glyph-name="eight.inferior" unicode="&#x2088;" horiz-adv-x="403" 
d="M127 62q-71 24 -71 99q0 51 41 82t108 31q65 0 103 -31.5t38 -83.5q0 -71 -74 -96q43 -10 66 -39.5t23 -71.5q0 -56 -44 -89.5t-117 -33.5q-72 0 -114.5 34t-42.5 91q0 82 84 108zM303 -46q0 38 -27.5 62t-73.5 24q-45 0 -73.5 -23.5t-28.5 -60.5q0 -38 28 -60t75 -22
q45 0 72.5 21.5t27.5 58.5zM291 158q0 33 -24.5 53t-64.5 20q-42 0 -67 -19t-25 -52q0 -35 24.5 -55.5t66.5 -20.5q40 0 65 21t25 53z" />
    <glyph glyph-name="nine.inferior" unicode="&#x2089;" horiz-adv-x="403" 
d="M44 -76l52 21q16 -69 86 -69q56 0 86 39t34 123q-42 -57 -126 -57q-64 0 -101 39.5t-37 106.5q0 66 42.5 106.5t112.5 40.5q163 0 163 -212q0 -233 -175 -233q-55 0 -87 23t-50 72zM94 128q0 -48 26 -75t70 -27q45 0 74 27t29 68q0 49 -28 78t-74 29q-44 0 -70.5 -27
t-26.5 -73z" />
    <glyph glyph-name="parenleft.inferior" unicode="&#x208d;" horiz-adv-x="271" 
d="M240 -257l-21 -23q-77 44 -116.5 128.5t-39.5 171.5q0 191 158 292l19 -25q-121 -105 -121 -266q0 -83 31 -156t90 -122z" />
    <glyph glyph-name="parenright.inferior" unicode="&#x208e;" horiz-adv-x="271" 
d="M31 289l21 23q77 -44 117 -128.5t40 -171.5q0 -191 -159 -292l-19 25q121 104 121 266q0 83 -31 156t-90 122z" />
    <glyph glyph-name="Euro" unicode="&#x20ac;" horiz-adv-x="652" 
d="M609 609l-35 -52q-56 89 -166 89q-184 0 -226 -211h344l-13 -45h-336q-2 -20 -2 -42l2 -40h328l-11 -45h-311q16 -106 74 -162.5t148 -56.5q110 0 171 105l41 -42q-79 -119 -215 -119q-116 0 -190.5 72t-94.5 203h-75l10 45h61q-1 19 -1 36l2 46h-67l10 45h62
q22 126 96.5 196t190.5 70q134 0 203 -92z" />
    <glyph glyph-name="afii61289" unicode="&#x2113;" horiz-adv-x="437" 
d="M389 132l42 -33q-66 -111 -174 -111q-145 0 -158 186q-10 -8 -56 -44l-24 44q35 24 76 56q-3 86 -3 133q0 134 21 210q17 60 55.5 93.5t90.5 33.5q54 0 86.5 -36.5t32.5 -96.5q0 -87 -67 -184q-50 -73 -157 -172q2 -88 28 -128.5t82 -40.5q75 0 125 90zM151 270
q85 83 127 154q44 74 44 139q0 41 -17.5 62.5t-48.5 21.5q-67 0 -91 -100q-16 -67 -16 -193q0 -9 1 -37t1 -47z" />
    <glyph glyph-name="trademark" unicode="&#x2122;" horiz-adv-x="765" 
d="M691 340h-44q0 262 2 314q-11 -33 -113 -314h-39q-97 261 -114 309q2 -45 2 -309h-44v366h64q87 -228 113 -303q27 78 108 303h65v-366zM188 340h-45v324h-109v42h264v-42h-110v-324z" />
    <glyph glyph-name="Omega" unicode="&#x2126;" horiz-adv-x="701" 
d="M447 88v-36h200v-52h-251v121q178 69 178 279q0 124 -62 198t-159 74q-103 0 -166 -74.5t-63 -202.5q0 -214 180 -274v-121h-251v52h200v36q-96 37 -144 116.5t-48 191.5q0 150 81 239t212 89q126 0 204.5 -88t78.5 -229q0 -109 -48.5 -194.5t-141.5 -124.5z" />
    <glyph glyph-name="estimated" unicode="&#x212e;" horiz-adv-x="810" 
d="M768 328h-660q6 -131 89.5 -208t219.5 -77q97 0 172 46.5t121 135.5l51 -37q-33 -52 -64 -84q-110 -115 -284 -115q-167 0 -267.5 98t-100.5 263q0 158 99.5 254.5t262.5 96.5t261 -101.5t100 -271.5zM108 382h594q-16 128 -93.5 196t-202.5 68q-127 0 -207 -69t-91 -195
z" />
    <glyph glyph-name="onethird" unicode="&#x2153;" horiz-adv-x="883" 
d="M307 0h-54l262 689h54zM88 581v49q84 4 93 65h49v-435h-56v344q-28 -20 -86 -23zM614 198v45q14 -1 23 -1q56 0 88.5 20t32.5 59q0 33 -22.5 51t-61.5 18q-81 0 -94 -83l-51 16q28 114 149 114q63 0 99.5 -30.5t36.5 -83.5q0 -40 -25 -65.5t-71 -33.5q50 -4 80 -32
t30 -76q0 -55 -43 -89.5t-112 -34.5q-124 0 -153 116l51 21q15 -90 101 -90q44 0 71.5 21.5t27.5 59.5q0 41 -31 60t-97 19q-17 0 -29 -1z" />
    <glyph glyph-name="twothirds" unicode="&#x2154;" horiz-adv-x="883" 
d="M347 0h-54l262 689h54zM121 308q22 1 220 1v-49h-299v46q24 15 108 75q76 54 104.5 93t28.5 88q0 41 -25.5 64t-70.5 23q-43 0 -68 -22.5t-25 -61.5q0 -27 9 -55l-55 8q-8 23 -8 49q0 60 40.5 95t111.5 35t110.5 -36.5t39.5 -99.5q0 -43 -22.5 -81t-78.5 -86
q-59 -49 -120 -86zM641 198v45q14 -1 23 -1q56 0 88.5 20t32.5 59q0 33 -22.5 51t-61.5 18q-81 0 -94 -83l-51 16q28 114 149 114q63 0 99.5 -30.5t36.5 -83.5q0 -40 -25 -65.5t-71 -33.5q50 -4 80 -32t30 -76q0 -55 -43 -89.5t-112 -34.5q-124 0 -153 116l51 21
q15 -90 101 -90q44 0 71.5 21.5t27.5 59.5q0 41 -31 60t-97 19q-17 0 -29 -1z" />
    <glyph glyph-name="oneeighth" unicode="&#x215b;" horiz-adv-x="883" 
d="M308 0h-54l262 689h54zM87 581v49q84 4 93 65h49v-435h-56v344q-28 -20 -86 -23zM604 225q-71 24 -71 99q0 51 41 82t108 31q65 0 103 -31.5t38 -83.5q0 -71 -74 -96q43 -10 66 -39.5t23 -71.5q0 -56 -44 -89.5t-117 -33.5q-72 0 -114.5 34t-42.5 91q0 82 84 108z
M780 117q0 38 -27.5 62t-73.5 24q-45 0 -73.5 -23.5t-28.5 -60.5q0 -38 28 -60t75 -22q45 0 72.5 21.5t27.5 58.5zM768 321q0 33 -24.5 53t-64.5 20q-42 0 -67 -19t-25 -52q0 -35 24.5 -55.5t66.5 -20.5q40 0 65 21t25 53z" />
    <glyph glyph-name="threeeighths" unicode="&#x215c;" horiz-adv-x="883" 
d="M332 0h-54l262 689h54zM120 458v45q14 -1 23 -1q56 0 88.5 20t32.5 59q0 33 -22.5 51t-61.5 18q-81 0 -94 -83l-51 16q28 114 149 114q63 0 99.5 -30.5t36.5 -83.5q0 -40 -25 -65.5t-71 -33.5q50 -4 80 -32t30 -76q0 -55 -43 -89.5t-112 -34.5q-124 0 -153 116l51 21
q15 -90 101 -90q44 0 71.5 21.5t27.5 59.5q0 41 -31 60t-97 19q-17 0 -29 -1zM615 225q-71 24 -71 99q0 51 41 82t108 31q65 0 103 -31.5t38 -83.5q0 -71 -74 -96q43 -10 66 -39.5t23 -71.5q0 -56 -44 -89.5t-117 -33.5q-72 0 -114.5 34t-42.5 91q0 82 84 108zM791 117
q0 38 -27.5 62t-73.5 24q-45 0 -73.5 -23.5t-28.5 -60.5q0 -38 28 -60t75 -22q45 0 72.5 21.5t27.5 58.5zM779 321q0 33 -24.5 53t-64.5 20q-42 0 -67 -19t-25 -52q0 -35 24.5 -55.5t66.5 -20.5q40 0 65 21t25 53z" />
    <glyph glyph-name="fiveeighths" unicode="&#x215d;" horiz-adv-x="883" 
d="M347 0h-54l262 689h54zM133 642l-11 -125q39 36 98 36q64 0 101 -39.5t37 -107.5q0 -71 -42.5 -112.5t-118.5 -41.5q-58 0 -96 28.5t-50 82.5l53 21q12 -86 94 -86q48 0 74.5 28.5t26.5 77.5q0 48 -25 75t-69 27q-66 0 -87 -53l-49 7l17 229h244v-47h-197zM617 225
q-71 24 -71 99q0 51 41 82t108 31q65 0 103 -31.5t38 -83.5q0 -71 -74 -96q43 -10 66 -39.5t23 -71.5q0 -56 -44 -89.5t-117 -33.5q-72 0 -114.5 34t-42.5 91q0 82 84 108zM793 117q0 38 -27.5 62t-73.5 24q-45 0 -73.5 -23.5t-28.5 -60.5q0 -38 28 -60t75 -22
q45 0 72.5 21.5t27.5 58.5zM781 321q0 33 -24.5 53t-64.5 20q-42 0 -67 -19t-25 -52q0 -35 24.5 -55.5t66.5 -20.5q40 0 65 21t25 53z" />
    <glyph glyph-name="seveneighths" unicode="&#x215e;" horiz-adv-x="883" 
d="M301 0h-54l262 689h54zM37 641v48h314v-39q-74 -97 -110 -186t-47 -204h-61q18 215 156 381h-252zM607 225q-71 24 -71 99q0 51 41 82t108 31q65 0 103 -31.5t38 -83.5q0 -71 -74 -96q43 -10 66 -39.5t23 -71.5q0 -56 -44 -89.5t-117 -33.5q-72 0 -114.5 34t-42.5 91
q0 82 84 108zM783 117q0 38 -27.5 62t-73.5 24q-45 0 -73.5 -23.5t-28.5 -60.5q0 -38 28 -60t75 -22q45 0 72.5 21.5t27.5 58.5zM771 321q0 33 -24.5 53t-64.5 20q-42 0 -67 -19t-25 -52q0 -35 24.5 -55.5t66.5 -20.5q40 0 65 21t25 53z" />
    <glyph glyph-name="partialdiff" unicode="&#x2202;" horiz-adv-x="549" 
d="M414 374q-2 287 -140 287q-51 0 -94 -25l-15 53q58 26 109 26q100 0 148.5 -79t48.5 -245q0 -216 -55 -309t-165 -93q-75 0 -127 52.5t-52 149.5q0 105 57.5 174.5t151.5 69.5q85 0 133 -61zM409 297q-43 88 -123 88q-74 0 -114 -52.5t-40 -137.5q0 -69 31 -112t90 -43
q146 0 156 257z" />
    <glyph glyph-name="Delta" unicode="&#x2206;" horiz-adv-x="648" 
d="M633 0h-622l276 706h79zM544 57l-219 592l-225 -592h444z" />
    <glyph glyph-name="product" unicode="&#x220f;" horiz-adv-x="655" 
d="M579 -122h-61v773h-382v-773h-60v828h503v-828z" />
    <glyph glyph-name="summation" unicode="&#x2211;" horiz-adv-x="547" 
d="M523 -122h-486v49l263 384l-260 344v51h482v-54h-408l260 -337l-265 -382h414v-55z" />
    <glyph glyph-name="minus" unicode="&#x2212;" horiz-adv-x="732" 
d="M638 276h-544v59h544v-59z" />
    <glyph glyph-name="uni2215" unicode="&#x2215;" horiz-adv-x="84" 
d="M-62 0h-54l262 689h54z" />
    <glyph glyph-name="uni2219" unicode="&#x2219;" horiz-adv-x="188" 
d="M127 345v-111h-66v111h66z" />
    <glyph glyph-name="radical" unicode="&#x221a;" horiz-adv-x="732" 
d="M204 202l139 -309l243 813h66l-282 -893h-57l-144 312l-75 -36l-23 50z" />
    <glyph glyph-name="infinity" unicode="&#x221e;" horiz-adv-x="774" 
d="M222 462q50 0 85.5 -27.5t80.5 -92.5q49 65 88 92t84 27q66 0 107.5 -45t41.5 -119q0 -70 -43 -119.5t-111 -49.5q-47 0 -85 26t-84 94q-46 -63 -83.5 -91t-86.5 -28q-70 0 -110 48t-40 115q0 74 43.5 122t112.5 48zM214 181q41 0 72 27.5t69 86.5q-43 66 -70 90.5
t-67 24.5q-44 0 -70.5 -32.5t-26.5 -80.5q0 -49 25.5 -82.5t67.5 -33.5zM563 408q-40 0 -73 -26.5t-72 -85.5q45 -65 74 -91t67 -26q42 0 68.5 34t26.5 82t-25 80.5t-66 32.5z" />
    <glyph glyph-name="integral" unicode="&#x222b;" horiz-adv-x="336" 
d="M200 571v-631q0 -54 -17 -83q-25 -43 -86 -43q-32 0 -67 16v63q32 -26 61 -26q23 0 35 15q15 17 15 81v625q0 64 19 93q26 39 85 39q31 0 66 -16v-62q-33 25 -61 25q-21 0 -35 -14q-15 -17 -15 -82z" />
    <glyph glyph-name="approxequal" unicode="&#x2248;" horiz-adv-x="703" 
d="M113 318l-43 40q69 105 163 105q28 0 54 -9.5t83 -42.5q67 -38 101 -38q62 0 119 88l43 -41q-71 -105 -164 -105q-47 0 -119 41q-53 31 -74.5 40t-44.5 9q-35 0 -62.5 -20t-55.5 -67zM113 136l-43 40q69 105 163 105q28 0 54 -9.5t83 -42.5q67 -38 101 -38q62 0 119 88
l43 -41q-71 -105 -164 -105q-47 0 -119 41q-53 31 -74.5 40t-44.5 9q-35 0 -62.5 -20t-55.5 -67z" />
    <glyph glyph-name="notequal" unicode="&#x2260;" horiz-adv-x="732" 
d="M538 593l-84 -169h184v-57h-212l-64 -130h276v-59h-304l-87 -177h-55l87 177h-185v59h214l63 130h-277v57h306l83 169h55z" />
    <glyph glyph-name="lessequal" unicode="&#x2264;" horiz-adv-x="732" 
d="M599 0h-470v57h470v-57zM598 134l-470 224v63l470 230v-67l-409 -194l409 -188v-68z" />
    <glyph glyph-name="greaterequal" unicode="&#x2265;" horiz-adv-x="732" 
d="M609 0h-471v57h471v-57zM138 651l470 -223v-64l-470 -230v67l409 194l-409 189v67z" />
    <glyph glyph-name="lozenge" unicode="&#x25ca;" horiz-adv-x="732" 
d="M338 706h63l171 -353l-175 -353h-63l-174 353zM227 354l139 -294l140 292l-137 294z" />
    <glyph glyph-name="uniF6C1" unicode="&#xf6c1;" horiz-adv-x="586" 
d="M28 181l61 29q52 -166 207 -166q78 0 127 36.5t49 100.5q0 52 -34 82t-124 60l-59 20q-101 34 -146 77t-45 117q0 81 64.5 132t161.5 51q181 0 247 -163l-59 -30q-45 137 -186 137q-76 0 -119.5 -34t-43.5 -90q0 -49 35 -78t124 -59l62 -21q104 -34 146.5 -78.5
t42.5 -119.5q0 -89 -66.5 -142.5t-174.5 -55.5l-20 -46q14 3 23 3q35 0 56 -20t21 -55q0 -39 -26.5 -63.5t-69.5 -24.5q-44 0 -74 27l22 34q22 -22 51 -22q22 0 35 13t13 33q0 19 -12.5 30.5t-34.5 11.5t-42 -13l-14 19l34 75q-172 17 -232 193z" />
    <glyph glyph-name="uniF6C2" unicode="&#xf6c2;" horiz-adv-x="426" 
d="M23 122l56 25q15 -50 50.5 -79t88.5 -29q52 0 84 22.5t32 61.5q0 36 -23 55.5t-86 39.5l-54 18q-123 39 -123 134q0 57 46.5 93t122.5 36q129 0 172 -118l-55 -24q-25 92 -120 92q-51 0 -79 -20t-28 -55q0 -32 21 -51.5t75 -35.5l48 -14q74 -22 108.5 -54t34.5 -88
q0 -62 -45.5 -101t-121.5 -42l-20 -46q13 3 23 3q35 0 56 -20.5t21 -54.5q0 -39 -26.5 -63.5t-69.5 -24.5q-45 0 -73 27l22 34q22 -22 50 -22q22 0 35 13t13 33q0 19 -12.5 30.5t-34.5 11.5q-23 0 -42 -13l-14 20l34 74q-63 6 -105 41.5t-61 90.5z" />
    <glyph glyph-name="acute.cap" 
d="M67 768h-52l85 117h87z" />
    <glyph glyph-name="breve.cap" 
d="M-21 877h47q14 -63 75 -63t75 63h48q-8 -51 -40.5 -80.5t-82.5 -29.5t-82.5 29.5t-39.5 80.5z" />
    <glyph glyph-name="caron.cap" 
d="M-24 885h54l71 -71l73 71h52l-95 -114h-60z" />
    <glyph glyph-name="cedilla.cap" 
d="M77 7h38l-29 -67q14 3 23 3q35 0 56 -20t21 -55q0 -39 -26.5 -63.5t-69.5 -24.5q-44 0 -74 27l22 34q22 -22 51 -22q22 0 35 13t13 33q0 19 -12.5 30.5t-34.5 11.5t-42 -13l-14 19z" />
    <glyph glyph-name="circumflex.cap" 
d="M227 771h-55l-71 71l-72 -71h-53l95 114h60z" />
    <glyph glyph-name="commaaccent" 
d="M138 -33v-77q0 -70 -43 -122l-31 22q35 36 35 96h-29v81h68z" />
    <glyph glyph-name="dieresis.cap" 
d="M13 771h-59v82h59v-82zM248 771h-58v82h58v-82z" />
    <glyph glyph-name="dotaccent.cap" 
d="M131 771h-60v82h60v-82z" />
    <glyph glyph-name="grave.cap" 
d="M183 768h-51l-113 117h86z" />
    <glyph glyph-name="hungarumlaut.cap" 
d="M4 768h-44l75 117h80zM130 768h-43l75 117h80z" />
    <glyph glyph-name="macron.cap" 
d="M220 785h-238v49h238v-49z" />
    <glyph glyph-name="ring.cap" 
d="M100 896q39 0 62.5 -22t23.5 -61q0 -36 -23.5 -59t-60.5 -23q-38 0 -62 23t-24 60q0 36 23.5 59t60.5 23zM102 862q-22 0 -35.5 -13t-13.5 -36q0 -21 13.5 -35t34.5 -14t34.5 14t13.5 35q0 22 -13.5 35.5t-33.5 13.5z" />
    <glyph glyph-name="tilde.cap" 
d="M248 844q-37 -68 -89 -68q-28 0 -54 16l-25 15q-17 11 -35 11q-34 0 -53 -44l-38 24q32 71 90 71q25 0 51 -14l23 -13q28 -14 39 -14q17 0 28.5 8.5t24.5 31.5z" />
    <glyph glyph-name="caron.alt" 
d="M138 706v-77q0 -70 -43 -122l-31 22q35 36 35 96h-29v81h68z" />
    <glyph glyph-name="zero.tab" horiz-adv-x="542" 
d="M502 340q0 -168 -61 -260t-172 -92t-170 92t-59 263q0 169 61 263.5t172 94.5q109 0 169 -95.5t60 -265.5zM441 337q0 148 -44 228.5t-124 80.5t-125.5 -79t-45.5 -221q0 -147 43 -224.5t125 -77.5t126.5 76t44.5 217z" />
    <glyph glyph-name="one.tab" horiz-adv-x="542" 
d="M124 535v55q58 3 94.5 32t41.5 73h51v-695h-62v580q-43 -39 -125 -45z" />
    <glyph glyph-name="two.tab" horiz-adv-x="542" 
d="M146 53q111 2 340 2v-55h-426v47q20 16 59 46.5t57 45t45.5 37.5t49.5 42t44 40q113 106 113 231q0 75 -43 116t-116 41q-72 0 -115 -42.5t-43 -114.5q0 -29 15 -77l-63 10q-10 35 -10 69q0 93 61 151.5t162 58.5q100 0 157.5 -57.5t57.5 -156.5q0 -83 -39 -151
t-122 -139q-47 -40 -184 -144z" />
    <glyph glyph-name="three.tab" horiz-adv-x="542" 
d="M181 327v58q15 -1 31 -1q90 0 139 35.5t49 102.5q0 60 -36 92t-97 32q-56 0 -94.5 -33.5t-51.5 -95.5l-57 21q23 80 78 121.5t130 41.5q89 0 139 -47.5t50 -129.5q0 -129 -143 -166q76 -5 120.5 -50.5t44.5 -122.5q0 -88 -60.5 -142.5t-157.5 -54.5q-85 0 -141.5 44.5
t-75.5 124.5l57 27q30 -140 158 -140q70 0 112.5 38.5t42.5 103.5q0 76 -48.5 109t-144.5 33q-26 0 -44 -1z" />
    <glyph glyph-name="four.tab" horiz-adv-x="542" 
d="M403 0h-59v163h-312v52l297 474h74v-473h118v-53h-118v-163zM96 216h248q0 274 3 413q-90 -155 -251 -413z" />
    <glyph glyph-name="five.tab" horiz-adv-x="542" 
d="M160 635l-18 -240q56 70 153 70q88 0 140.5 -64t52.5 -170q0 -112 -60.5 -177.5t-163.5 -65.5q-80 0 -133 44t-70 125l60 28q19 -141 143 -141q74 0 117 48t43 135t-39.5 136t-108.5 49q-49 0 -84.5 -24.5t-51.5 -70.5l-55 8l24 364h338v-54h-287z" />
    <glyph glyph-name="six.tab" horiz-adv-x="542" 
d="M485 561l-56 -28q-27 113 -128 113q-181 0 -188 -305q25 55 75.5 85.5t116.5 30.5q88 0 141.5 -65.5t53.5 -170.5q0 -107 -59.5 -170t-156.5 -63q-108 0 -168 85t-60 252q0 182 64 279.5t184 97.5q70 0 113.5 -34.5t67.5 -106.5zM439 219q0 86 -40 135.5t-110 49.5
q-69 0 -116 -48.5t-47 -119.5q0 -83 43 -137.5t117 -54.5q70 0 111.5 47t41.5 128z" />
    <glyph glyph-name="seven.tab" horiz-adv-x="542" 
d="M46 635v54h441v-48q-101 -153 -158.5 -301t-72.5 -340h-66q24 342 230 635h-374z" />
    <glyph glyph-name="eight.tab" horiz-adv-x="542" 
d="M349 361q69 -12 106.5 -58.5t37.5 -119.5q0 -87 -61 -141t-163 -54q-99 0 -159 54t-60 143q0 65 35.5 111.5t104.5 64.5q-123 36 -123 163q0 80 57 128.5t150 48.5q89 0 143 -49.5t54 -131.5q0 -117 -122 -159zM112 187q0 -67 44.5 -105.5t117.5 -38.5q69 0 113 38
t44 102q0 67 -44 108t-115 41t-115.5 -40t-44.5 -105zM411 521q0 58 -39 93t-100 35q-65 0 -105.5 -34t-40.5 -94q0 -59 39.5 -96t104.5 -37q62 0 101.5 38t39.5 95z" />
    <glyph glyph-name="nine.tab" horiz-adv-x="542" 
d="M53 129l56 28q27 -113 134 -113q91 0 136 74t49 231q-25 -55 -74.5 -85t-115.5 -30q-89 0 -142.5 65t-53.5 170q0 106 61 169.5t156 63.5q108 0 167.5 -84.5t59.5 -252.5q0 -377 -246 -377q-140 0 -187 141zM102 471q0 -87 40 -135.5t111 -48.5q70 0 116.5 48t46.5 119
q0 83 -43 137.5t-117 54.5q-69 0 -111.5 -47.5t-42.5 -127.5z" />
    <glyph glyph-name="i.dot" 
d="M131 0h-60v488h60v-488zM132 624h-62v82h62v-82z" />
    <glyph glyph-name="Imacron" horiz-adv-x="223" 
d="M226 785h-230v49h230v-49zM143 0h-63v706h63v-706z" />
    <glyph glyph-name="ibreve" 
d="M131 0h-60v488h60v-488zM-18 690h46q12 -63 73 -63q59 0 73 63h47q-8 -51 -40 -80.5t-80 -29.5q-49 0 -80.5 29t-38.5 81z" />
    <glyph glyph-name="zero.numerator" horiz-adv-x="403" 
d="M365 472q0 -104 -43.5 -162t-120.5 -58t-120 58t-43 164q0 104 44.5 163.5t121.5 59.5t119 -61t42 -164zM309 471q0 84 -28.5 131t-78.5 47q-49 0 -78 -46t-29 -127q0 -86 28 -131.5t78 -45.5q51 0 79.5 44.5t28.5 127.5z" />
    <glyph glyph-name="one.numerator" horiz-adv-x="403" 
d="M98 581v49q84 4 93 65h49v-435h-56v344q-28 -20 -86 -23z" />
    <glyph glyph-name="two.numerator" horiz-adv-x="403" 
d="M131 308q22 1 220 1v-49h-299v46q24 15 108 75q76 54 104.5 93t28.5 88q0 41 -25.5 64t-70.5 23q-43 0 -68 -22.5t-25 -61.5q0 -27 9 -55l-55 8q-8 23 -8 49q0 60 40.5 95t111.5 35t110.5 -36.5t39.5 -99.5q0 -43 -22.5 -81t-78.5 -86q-59 -49 -120 -86z" />
    <glyph glyph-name="three.numerator" horiz-adv-x="403" 
d="M141 458v45q14 -1 23 -1q56 0 88.5 20t32.5 59q0 33 -22.5 51t-61.5 18q-81 0 -94 -83l-51 16q28 114 149 114q63 0 99.5 -30.5t36.5 -83.5q0 -40 -25 -65.5t-71 -33.5q50 -4 80 -32t30 -76q0 -55 -43 -89.5t-112 -34.5q-124 0 -153 116l51 21q15 -90 101 -90
q44 0 71.5 21.5t27.5 59.5q0 41 -31 60t-97 19q-17 0 -29 -1z" />
    <glyph glyph-name="four.numerator" horiz-adv-x="403" 
d="M295 260h-53v99h-208v42l199 288h62v-283h78v-47h-78v-99zM92 406h150q0 124 1 224q-8 -13 -151 -224z" />
    <glyph glyph-name="five.numerator" horiz-adv-x="403" 
d="M133 642l-11 -125q39 36 98 36q64 0 101 -39.5t37 -107.5q0 -71 -42.5 -112.5t-118.5 -41.5q-58 0 -96 28.5t-50 82.5l53 21q12 -86 94 -86q48 0 74.5 28.5t26.5 77.5q0 48 -25 75t-69 27q-66 0 -87 -53l-49 7l17 229h244v-47h-197z" />
    <glyph glyph-name="six.numerator" horiz-adv-x="403" 
d="M357 601l-51 -21q-18 70 -84 70q-113 0 -120 -164q43 59 126 59q63 0 100 -40t37 -106q0 -67 -41.5 -107t-113.5 -40q-163 0 -163 212q0 113 44.5 173t131.5 60q52 0 84 -23.5t50 -72.5zM309 398q0 48 -25.5 75t-70.5 27t-74 -27t-29 -68q0 -49 28 -78.5t74 -29.5
q44 0 70.5 27.5t26.5 73.5z" />
    <glyph glyph-name="seven.numerator" horiz-adv-x="403" 
d="M37 641v48h314v-39q-74 -97 -110 -186t-47 -204h-61q18 215 156 381h-252z" />
    <glyph glyph-name="eight.numerator" horiz-adv-x="403" 
d="M127 485q-71 24 -71 99q0 51 41 82t108 31q65 0 103 -31.5t38 -83.5q0 -71 -74 -96q43 -10 66 -39.5t23 -71.5q0 -56 -44 -89.5t-117 -33.5q-72 0 -114.5 34t-42.5 91q0 82 84 108zM303 377q0 38 -27.5 62t-73.5 24q-45 0 -73.5 -23.5t-28.5 -60.5q0 -38 28 -60t75 -22
q45 0 72.5 21.5t27.5 58.5zM291 581q0 33 -24.5 53t-64.5 20q-42 0 -67 -19t-25 -52q0 -35 24.5 -55.5t66.5 -20.5q40 0 65 21t25 53z" />
    <glyph glyph-name="nine.numerator" horiz-adv-x="403" 
d="M44 347l52 21q17 -69 86 -69q56 0 86 39t34 123q-42 -57 -126 -57q-64 0 -101 39.5t-37 106.5q0 66 42.5 106.5t112.5 40.5q163 0 163 -212q0 -233 -175 -233q-55 0 -87 23t-50 72zM94 551q0 -48 26 -75t70 -27q45 0 74 27t29 68q0 49 -28 78t-74 29q-44 0 -70.5 -27
t-26.5 -73z" />
    <glyph glyph-name="period.numerator" horiz-adv-x="144" 
d="M101 342v-82h-59v82h59z" />
    <glyph glyph-name="comma.numerator" horiz-adv-x="144" 
d="M101 342v-79q0 -32 -8 -51.5t-28 -39.5l-31 23q27 23 27 60v5h-20v82h60z" />
    <glyph glyph-name="hyphen.numerator" horiz-adv-x="264" 
d="M228 415h-191v48h191v-48z" />
    <glyph glyph-name="parenleft.numerator" horiz-adv-x="271" 
d="M240 166l-21 -23q-77 44 -116.5 128.5t-39.5 171.5q0 191 158 292l19 -25q-121 -105 -121 -266q0 -83 31 -156t90 -122z" />
    <glyph glyph-name="parenright.numerator" horiz-adv-x="271" 
d="M31 712l21 23q77 -44 117 -128.5t40 -171.5q0 -191 -159 -292l-19 25q121 104 121 266q0 83 -31 156t-90 122z" />
    <glyph glyph-name="dollar.numerator" horiz-adv-x="419" 
d="M229 744v-54q96 -7 139 -83l-43 -31q-30 62 -97 68v-138l17 -4q67 -16 98.5 -42.5t31.5 -75.5q0 -52 -39.5 -85t-106.5 -38v-62h-38v60q-122 7 -154 100l46 33q23 -78 108 -84v154l-18 5q-117 30 -117 113q0 46 37 76t98 34v54h38zM320 379q0 29 -19 45t-73 29v-147
q44 4 68 23.5t24 49.5zM110 583q0 -27 18.5 -42.5t62.5 -26.5v131q-36 -1 -58.5 -19t-22.5 -43z" />
    <glyph glyph-name="cent.numerator" horiz-adv-x="382" 
d="M227 621v-53q87 -5 114 -86l-50 -16q-11 55 -65 58v-221q57 3 70 55l49 -14q-12 -35 -41.5 -59.5t-76.5 -27.5v-59h-38v60q-62 7 -96 47.5t-34 108.5q0 65 35 105.5t95 47.5v54h38zM189 304v219q-78 -16 -78 -110q0 -96 78 -109z" />
    <glyph glyph-name="sterling.numerator" horiz-adv-x="446" 
d="M196 484h137v-38h-123l6 -19q11 -33 11 -58q0 -22 -9 -39l23 -12q36 -18 64 -18q49 0 58 67l50 -16q-18 -99 -102 -99q-50 0 -97 26l-20 11q-34 -37 -89 -37q-30 0 -50 15t-20 41q0 27 18.5 43t50.5 16q33 0 69 -18q3 7 3 17q0 24 -20 80h-85v38h70q-22 64 -22 105
q0 50 37.5 79t99.5 29q100 0 136 -85l-48 -24q-12 33 -32 48.5t-54 15.5q-39 0 -61.5 -18.5t-22.5 -51.5q0 -25 16 -80zM104 329q-27 0 -27 -21t33 -21q32 0 51 23q-35 19 -57 19z" />
    <glyph glyph-name="yen.numerator" horiz-adv-x="465" 
d="M396 473h-112l-25 -35v-8h137v-35h-137v-135h-57v135h-138v35h138v7l-24 36h-114v36h90l-124 180h65q99 -147 136 -206q60 89 141 206h62l-125 -180h87v-36z" />
    <glyph glyph-name="florin.numerator" horiz-adv-x="309" 
d="M61 493v37h67l6 54q6 52 18 75q21 38 78 38q30 0 53 -9l-9 -50q-22 11 -40 11q-21 0 -31 -12.5t-14 -48.5l-6 -58h70v-37h-73l-25 -220q-6 -51 -29 -72.5t-64 -21.5q-26 0 -51 9l10 49q20 -10 35 -10q22 0 32.5 13.5t14.5 49.5l21 203h-63z" />
    <glyph glyph-name="Euro.numerator" horiz-adv-x="495" 
d="M458 641l-30 -47q-35 56 -115 56q-119 0 -145 -117h217v-35h-222q-1 -24 -1 -43h223v-35h-217q10 -59 48.5 -90t96.5 -31q77 0 118 62l34 -36q-59 -73 -155 -73q-83 0 -135.5 43.5t-64.5 124.5h-50v35h46q0 27 1 43h-47v35h51q15 78 68 121t134 43q98 0 145 -56z" />
    <glyph glyph-name="zero.denominator" horiz-adv-x="403" 
d="M365 212q0 -104 -43.5 -162t-120.5 -58t-120 58t-43 164q0 104 44.5 163.5t121.5 59.5t119 -61t42 -164zM309 211q0 84 -28.5 131t-78.5 47q-49 0 -78 -46t-29 -127q0 -86 28 -131.5t78 -45.5q51 0 79.5 44.5t28.5 127.5z" />
    <glyph glyph-name="one.denominator" horiz-adv-x="403" 
d="M98 321v49q84 4 93 65h49v-435h-56v344q-28 -20 -86 -23z" />
    <glyph glyph-name="two.denominator" horiz-adv-x="403" 
d="M131 48q22 1 220 1v-49h-299v46q24 15 108 75q76 54 104.5 93t28.5 88q0 41 -25.5 64t-70.5 23q-43 0 -68 -22.5t-25 -61.5q0 -27 9 -55l-55 8q-8 23 -8 49q0 60 40.5 95t111.5 35t110.5 -36.5t39.5 -99.5q0 -43 -22.5 -81t-78.5 -86q-59 -49 -120 -86z" />
    <glyph glyph-name="three.denominator" horiz-adv-x="403" 
d="M141 198v45q14 -1 23 -1q56 0 88.5 20t32.5 59q0 33 -22.5 51t-61.5 18q-81 0 -94 -83l-51 16q28 114 149 114q63 0 99.5 -30.5t36.5 -83.5q0 -40 -25 -65.5t-71 -33.5q50 -4 80 -32t30 -76q0 -55 -43 -89.5t-112 -34.5q-124 0 -153 116l51 21q15 -90 101 -90
q44 0 71.5 21.5t27.5 59.5q0 41 -31 60t-97 19q-17 0 -29 -1z" />
    <glyph glyph-name="four.denominator" horiz-adv-x="403" 
d="M295 0h-53v99h-208v42l199 288h62v-283h78v-47h-78v-99zM92 146h150q0 124 1 224q-8 -13 -151 -224z" />
    <glyph glyph-name="five.denominator" horiz-adv-x="403" 
d="M133 382l-11 -125q39 36 98 36q64 0 101 -39.5t37 -107.5q0 -71 -42.5 -112.5t-118.5 -41.5q-58 0 -96 28.5t-50 82.5l53 21q12 -86 94 -86q48 0 74.5 28.5t26.5 77.5q0 48 -25 75t-69 27q-66 0 -87 -53l-49 7l17 229h244v-47h-197z" />
    <glyph glyph-name="six.denominator" horiz-adv-x="403" 
d="M357 341l-51 -21q-18 70 -84 70q-113 0 -120 -164q43 59 126 59q63 0 100 -40t37 -106q0 -67 -41.5 -107t-113.5 -40q-163 0 -163 212q0 113 44.5 173t131.5 60q52 0 84 -23.5t50 -72.5zM309 138q0 48 -25.5 75t-70.5 27t-74 -27t-29 -68q0 -49 28 -78.5t74 -29.5
q44 0 70.5 27.5t26.5 73.5z" />
    <glyph glyph-name="seven.denominator" horiz-adv-x="403" 
d="M37 381v48h314v-39q-74 -97 -110 -186t-47 -204h-61q18 215 156 381h-252z" />
    <glyph glyph-name="eight.denominator" horiz-adv-x="403" 
d="M127 225q-71 24 -71 99q0 51 41 82t108 31q65 0 103 -31.5t38 -83.5q0 -71 -74 -96q43 -10 66 -39.5t23 -71.5q0 -56 -44 -89.5t-117 -33.5q-72 0 -114.5 34t-42.5 91q0 82 84 108zM303 117q0 38 -27.5 62t-73.5 24q-45 0 -73.5 -23.5t-28.5 -60.5q0 -38 28 -60t75 -22
q45 0 72.5 21.5t27.5 58.5zM291 321q0 33 -24.5 53t-64.5 20q-42 0 -67 -19t-25 -52q0 -35 24.5 -55.5t66.5 -20.5q40 0 65 21t25 53z" />
    <glyph glyph-name="nine.denominator" horiz-adv-x="403" 
d="M44 87l52 21q16 -69 86 -69q56 0 86 39t34 123q-42 -57 -126 -57q-64 0 -101 39.5t-37 106.5q0 66 42.5 106.5t112.5 40.5q163 0 163 -212q0 -233 -175 -233q-55 0 -87 23t-50 72zM94 291q0 -48 26 -75t70 -27q45 0 74 27t29 68q0 49 -28 78t-74 29q-44 0 -70.5 -27
t-26.5 -73z" />
    <glyph glyph-name="period.denominator" horiz-adv-x="144" 
d="M101 82v-82h-59v82h59z" />
    <glyph glyph-name="comma.denominator" horiz-adv-x="144" 
d="M101 82v-79q0 -32 -8 -51.5t-28 -39.5l-31 23q27 23 27 60v5h-20v82h60z" />
    <glyph glyph-name="hyphen.denominator" horiz-adv-x="264" 
d="M228 155h-191v48h191v-48z" />
    <glyph glyph-name="parenleft.denominator" horiz-adv-x="271" 
d="M240 -94l-21 -23q-77 44 -116.5 128.5t-39.5 171.5q0 191 158 292l19 -25q-121 -105 -121 -266q0 -83 31 -156t90 -122z" />
    <glyph glyph-name="parenright.denominator" horiz-adv-x="271" 
d="M31 452l21 23q77 -44 117 -128.5t40 -171.5q0 -191 -159 -292l-19 25q121 104 121 266q0 83 -31 156t-90 122z" />
    <glyph glyph-name="dollar.denominator" horiz-adv-x="419" 
d="M229 484v-54q96 -7 139 -83l-43 -31q-30 62 -97 68v-138l17 -4q67 -16 98.5 -42.5t31.5 -75.5q0 -52 -39.5 -85t-106.5 -38v-62h-38v60q-122 7 -154 100l46 33q23 -78 108 -84v154l-18 5q-117 30 -117 113q0 46 37 76t98 34v54h38zM320 119q0 29 -19 45t-73 29v-147
q44 4 68 23.5t24 49.5zM110 323q0 -27 18.5 -42.5t62.5 -26.5v131q-36 -1 -58.5 -19t-22.5 -43z" />
    <glyph glyph-name="cent.denominator" horiz-adv-x="382" 
d="M227 361v-53q87 -5 114 -86l-50 -16q-11 55 -65 58v-221q57 3 70 55l49 -14q-12 -35 -41.5 -59.5t-76.5 -27.5v-59h-38v60q-62 7 -96 47.5t-34 108.5q0 65 35 105.5t95 47.5v54h38zM189 44v219q-78 -16 -78 -110q0 -96 78 -109z" />
    <glyph glyph-name="sterling.denominator" horiz-adv-x="446" 
d="M196 224h137v-38h-123l6 -19q11 -33 11 -58q0 -22 -9 -39l23 -12q36 -18 64 -18q49 0 58 67l50 -16q-18 -99 -102 -99q-50 0 -97 26l-20 11q-34 -37 -89 -37q-30 0 -50 15t-20 41q0 27 18.5 43t50.5 16q33 0 69 -18q3 7 3 17q0 24 -20 80h-85v38h70q-22 64 -22 105
q0 50 37.5 79t99.5 29q100 0 136 -85l-48 -24q-12 33 -32 48.5t-54 15.5q-39 0 -61.5 -18.5t-22.5 -51.5q0 -25 16 -80zM104 69q-27 0 -27 -21t33 -21q32 0 51 23q-35 19 -57 19z" />
    <glyph glyph-name="yen.denominator" horiz-adv-x="465" 
d="M396 213h-112l-25 -35v-8h137v-35h-137v-135h-57v135h-138v35h138v7l-24 36h-114v36h90l-124 180h65q99 -147 136 -206q60 89 141 206h62l-125 -180h87v-36z" />
    <glyph glyph-name="florin.denominator" horiz-adv-x="309" 
d="M61 233v37h67l6 54q6 52 18 75q21 38 78 38q30 0 53 -9l-9 -50q-22 11 -40 11q-21 0 -31 -12.5t-14 -48.5l-6 -58h70v-37h-73l-25 -220q-6 -51 -29 -72.5t-64 -21.5q-26 0 -51 9l10 49q20 -10 35 -10q22 0 32.5 13.5t14.5 49.5l21 203h-63z" />
    <glyph glyph-name="Euro.denominator" horiz-adv-x="495" 
d="M458 381l-30 -47q-35 56 -115 56q-119 0 -145 -117h217v-35h-222q-1 -24 -1 -43h223v-35h-217q10 -59 48.5 -90t96.5 -31q77 0 118 62l34 -36q-59 -73 -155 -73q-83 0 -135.5 43.5t-64.5 124.5h-50v35h46q0 27 1 43h-47v35h51q15 78 68 121t134 43q98 0 145 -56z" />
    <glyph glyph-name="one.superior" horiz-adv-x="403" 
d="M98 761v49q84 4 93 65h49v-435h-56v344q-28 -20 -86 -23z" />
    <glyph glyph-name="two.superior" horiz-adv-x="403" 
d="M131 488q22 1 220 1v-49h-299v46q24 15 108 75q76 54 104.5 93t28.5 88q0 41 -25.5 64t-70.5 23q-43 0 -68 -22.5t-25 -61.5q0 -27 9 -55l-55 8q-8 23 -8 49q0 60 40.5 95t111.5 35t110.5 -36.5t39.5 -99.5q0 -43 -22.5 -81t-78.5 -86q-59 -49 -120 -86z" />
    <glyph glyph-name="three.superior" horiz-adv-x="403" 
d="M141 638v45q14 -1 23 -1q56 0 88.5 20t32.5 59q0 33 -22.5 51t-61.5 18q-81 0 -94 -83l-51 16q28 114 149 114q63 0 99.5 -30.5t36.5 -83.5q0 -40 -25 -65.5t-71 -33.5q50 -4 80 -32t30 -76q0 -55 -43 -89.5t-112 -34.5q-124 0 -153 116l51 21q15 -90 101 -90
q44 0 71.5 21.5t27.5 59.5q0 41 -31 60t-97 19q-17 0 -29 -1z" />
    <glyph glyph-name="period.superior" horiz-adv-x="144" 
d="M101 522v-82h-59v82h59z" />
    <glyph glyph-name="comma.superior" horiz-adv-x="144" 
d="M101 522v-79q0 -32 -8 -51.5t-28 -39.5l-31 23q27 23 27 60v5h-20v82h60z" />
    <glyph glyph-name="hyphen.superior" horiz-adv-x="264" 
d="M228 595h-191v48h191v-48z" />
    <glyph glyph-name="dollar.superior" horiz-adv-x="419" 
d="M229 924v-54q96 -7 139 -83l-43 -31q-30 62 -97 68v-138l17 -4q67 -16 98.5 -42.5t31.5 -75.5q0 -52 -39.5 -85t-106.5 -38v-62h-38v60q-122 7 -154 100l46 33q23 -78 108 -84v154l-18 5q-117 30 -117 113q0 46 37 76t98 34v54h38zM320 559q0 29 -19 45t-73 29v-147
q44 4 68 23.5t24 49.5zM110 763q0 -27 18.5 -42.5t62.5 -26.5v131q-36 -1 -58.5 -19t-22.5 -43z" />
    <glyph glyph-name="cent.superior" horiz-adv-x="382" 
d="M227 801v-53q87 -5 114 -86l-50 -16q-11 55 -65 58v-221q57 3 70 55l49 -14q-12 -35 -41.5 -59.5t-76.5 -27.5v-59h-38v60q-62 7 -96 47.5t-34 108.5q0 65 35 105.5t95 47.5v54h38zM189 484v219q-78 -16 -78 -110q0 -96 78 -109z" />
    <glyph glyph-name="sterling.superior" horiz-adv-x="446" 
d="M196 664h137v-38h-123l6 -19q11 -33 11 -58q0 -22 -9 -39l23 -12q36 -18 64 -18q49 0 58 67l50 -16q-18 -99 -102 -99q-50 0 -97 26l-20 11q-34 -37 -89 -37q-30 0 -50 15t-20 41q0 27 18.5 43t50.5 16q33 0 69 -18q3 7 3 17q0 24 -20 80h-85v38h70q-22 64 -22 105
q0 50 37.5 79t99.5 29q100 0 136 -85l-48 -24q-12 33 -32 48.5t-54 15.5q-39 0 -61.5 -18.5t-22.5 -51.5q0 -25 16 -80zM104 509q-27 0 -27 -21t33 -21q32 0 51 23q-35 19 -57 19z" />
    <glyph glyph-name="yen.superior" horiz-adv-x="465" 
d="M396 653h-112l-25 -35v-8h137v-35h-137v-135h-57v135h-138v35h138v7l-24 36h-114v36h90l-124 180h65q99 -147 136 -206q60 89 141 206h62l-125 -180h87v-36z" />
    <glyph glyph-name="florin.superior" horiz-adv-x="309" 
d="M61 673v37h67l6 54q6 52 18 75q21 38 78 38q30 0 53 -9l-9 -50q-22 11 -40 11q-21 0 -31 -12.5t-14 -48.5l-6 -58h70v-37h-73l-25 -220q-6 -51 -29 -72.5t-64 -21.5q-26 0 -51 9l10 49q20 -10 35 -10q22 0 32.5 13.5t14.5 49.5l21 203h-63z" />
    <glyph glyph-name="Euro.superior" horiz-adv-x="495" 
d="M458 821l-30 -47q-35 56 -115 56q-119 0 -145 -117h217v-35h-222q-1 -24 -1 -43h223v-35h-217q10 -59 48.5 -90t96.5 -31q77 0 118 62l34 -36q-59 -73 -155 -73q-83 0 -135.5 43.5t-64.5 124.5h-50v35h46q0 27 1 43h-47v35h51q15 78 68 121t134 43q98 0 145 -56z" />
    <glyph glyph-name="period.inferior" horiz-adv-x="144" 
d="M101 -81v-82h-59v82h59z" />
    <glyph glyph-name="comma.inferior" horiz-adv-x="144" 
d="M101 -81v-79q0 -32 -8 -51.5t-28 -39.5l-31 23q27 23 27 60v5h-20v82h60z" />
    <glyph glyph-name="hyphen.inferior" horiz-adv-x="264" 
d="M228 -8h-191v48h191v-48z" />
    <glyph glyph-name="dollar.inferior" horiz-adv-x="419" 
d="M229 321v-54q96 -7 139 -83l-43 -31q-30 62 -97 68v-138l17 -4q67 -16 98.5 -42.5t31.5 -75.5q0 -52 -39.5 -85t-106.5 -38v-62h-38v60q-122 7 -154 100l46 33q23 -78 108 -84v154l-18 5q-117 30 -117 113q0 46 37 76t98 34v54h38zM320 -44q0 29 -19 45t-73 29v-147
q44 4 68 23.5t24 49.5zM110 160q0 -27 18.5 -42.5t62.5 -26.5v131q-36 -1 -58.5 -19t-22.5 -43z" />
    <glyph glyph-name="cent.inferior" horiz-adv-x="382" 
d="M227 198v-53q87 -5 114 -86l-50 -16q-11 55 -65 58v-221q57 3 70 55l49 -14q-12 -35 -41.5 -59.5t-76.5 -27.5v-59h-38v60q-62 7 -96 47.5t-34 108.5q0 65 35 105.5t95 47.5v54h38zM189 -119v219q-78 -16 -78 -110q0 -96 78 -109z" />
    <glyph glyph-name="sterling.inferior" horiz-adv-x="446" 
d="M196 61h137v-38h-123l6 -19q11 -33 11 -58q0 -22 -9 -39l23 -12q36 -18 64 -18q49 0 58 67l50 -16q-18 -99 -102 -99q-50 0 -97 26l-20 11q-34 -37 -89 -37q-30 0 -50 15t-20 41q0 27 18.5 43t50.5 16q33 0 69 -18q3 8 3 17q0 24 -20 80h-85v38h70q-22 64 -22 105
q0 50 37.5 79t99.5 29q100 0 136 -85l-48 -24q-12 33 -32 48.5t-54 15.5q-39 0 -61.5 -18.5t-22.5 -51.5q0 -25 16 -80zM104 -94q-27 0 -27 -21t33 -21q32 0 51 23q-35 19 -57 19z" />
    <glyph glyph-name="yen.inferior" horiz-adv-x="465" 
d="M396 50h-112l-25 -35v-8h137v-35h-137v-135h-57v135h-138v35h138v7l-24 36h-114v36h90l-124 180h65q99 -147 136 -206q60 89 141 206h62l-125 -180h87v-36z" />
    <glyph glyph-name="florin.inferior" horiz-adv-x="309" 
d="M61 70v37h67l6 54q6 52 18 75q21 38 78 38q30 0 53 -9l-9 -50q-22 11 -40 11q-21 0 -31 -12.5t-14 -48.5l-6 -58h70v-37h-73l-25 -220q-6 -51 -29 -72.5t-64 -21.5q-26 0 -51 9l10 49q20 -10 35 -10q22 0 32.5 13.5t14.5 49.5l21 203h-63z" />
    <glyph glyph-name="Euro.inferior" horiz-adv-x="495" 
d="M458 218l-30 -47q-35 56 -115 56q-119 0 -145 -117h217v-35h-222q-1 -24 -1 -43h223v-35h-217q10 -59 48.5 -90t96.5 -31q77 0 118 62l34 -36q-59 -73 -155 -73q-83 0 -135.5 43.5t-64.5 124.5h-50v35h46q0 27 1 43h-47v35h51q15 78 68 121t134 43q98 0 145 -56z" />
    <glyph glyph-name="zero.fitted" horiz-adv-x="548" 
d="M508 340q0 -169 -61 -260.5t-174 -91.5t-173 92t-60 263q0 170 62 264t175 94q111 0 171 -95.5t60 -265.5zM447 337q0 149 -43.5 229t-126.5 80t-129 -79t-46 -221q0 -147 44 -224.5t128 -77.5t128.5 75.5t44.5 217.5z" />
    <glyph glyph-name="one.fitted" horiz-adv-x="379" 
d="M60 535v55q51 3 86 32.5t40 72.5h51v-695h-62v580q-43 -39 -115 -45z" />
    <glyph glyph-name="two.fitted" horiz-adv-x="534" 
d="M144 53q111 2 333 2v-55h-419v47q169 134 250 211q108 102 108 231q0 75 -40.5 116t-112.5 41q-70 0 -112 -43t-42 -114q0 -37 15 -77l-63 10q-10 35 -10 69q0 92 60 151t159 59t154 -57t55 -157q0 -85 -37 -152.5t-119 -137.5q-79 -69 -179 -144z" />
    <glyph glyph-name="three.fitted" horiz-adv-x="542" 
d="M181 327v58q15 -1 31 -1q90 0 139 35.5t49 102.5q0 60 -36 92t-97 32q-56 0 -94.5 -33.5t-51.5 -95.5l-57 21q23 80 78 121.5t130 41.5q89 0 139 -47.5t50 -129.5q0 -129 -143 -166q76 -5 120.5 -50.5t44.5 -122.5q0 -88 -60.5 -142.5t-157.5 -54.5q-85 0 -141.5 44.5
t-75.5 124.5l57 27q30 -140 158 -140q70 0 112.5 38.5t42.5 103.5q0 76 -48.5 109t-144.5 33q-26 0 -44 -1z" />
    <glyph glyph-name="four.fitted" horiz-adv-x="546" 
d="M414 0h-59v163h-320v52l305 474h74v-473h118v-53h-118v-163zM99 216h256q0 274 3 413q-41 -71 -259 -413z" />
    <glyph glyph-name="five.fitted" horiz-adv-x="542" 
d="M160 635l-18 -240q56 70 153 70q88 0 140.5 -64t52.5 -170q0 -112 -60.5 -177.5t-163.5 -65.5q-80 0 -133 44t-70 125l60 28q19 -141 143 -141q74 0 117 48t43 135t-39.5 136t-108.5 49q-49 0 -84.5 -24.5t-51.5 -70.5l-55 8l24 364h338v-54h-287z" />
    <glyph glyph-name="six.fitted" horiz-adv-x="542" 
d="M485 561l-56 -28q-27 113 -128 113q-181 0 -188 -305q25 55 75.5 85.5t116.5 30.5q88 0 141.5 -65.5t53.5 -170.5q0 -107 -59.5 -170t-156.5 -63q-108 0 -168 85t-60 252q0 182 64 279.5t184 97.5q70 0 113.5 -34.5t67.5 -106.5zM439 219q0 86 -40 135.5t-110 49.5
q-69 0 -116 -48.5t-47 -119.5q0 -83 43 -137.5t117 -54.5q70 0 111.5 47t41.5 128z" />
    <glyph glyph-name="seven.fitted" horiz-adv-x="467" 
d="M9 635v54h420v-48q-97 -152 -152.5 -300t-70.5 -341h-66q24 344 222 635h-353z" />
    <glyph glyph-name="eight.fitted" horiz-adv-x="542" 
d="M349 361q69 -12 106.5 -58.5t37.5 -119.5q0 -87 -61 -141t-163 -54q-99 0 -159 54t-60 143q0 65 35.5 111.5t104.5 64.5q-123 36 -123 163q0 80 57 128.5t150 48.5q89 0 143 -49.5t54 -131.5q0 -117 -122 -159zM112 187q0 -67 44.5 -105.5t117.5 -38.5q69 0 113 38
t44 102q0 67 -44 108t-115 41t-115.5 -40t-44.5 -105zM411 521q0 58 -39 93t-100 35q-65 0 -105.5 -34t-40.5 -94q0 -59 39.5 -96t104.5 -37q62 0 101.5 38t39.5 95z" />
    <glyph glyph-name="nine.fitted" horiz-adv-x="542" 
d="M53 129l56 28q27 -113 134 -113q91 0 136 74t49 231q-25 -55 -74.5 -85t-115.5 -30q-89 0 -142.5 65t-53.5 170q0 106 61 169.5t156 63.5q108 0 167.5 -84.5t59.5 -252.5q0 -377 -246 -377q-140 0 -187 141zM102 471q0 -87 40 -135.5t111 -48.5q70 0 116.5 48t46.5 119
q0 83 -43 137.5t-117 54.5q-69 0 -111.5 -47.5t-42.5 -127.5z" />
    <glyph glyph-name="onefifth" horiz-adv-x="883" 
d="M306 0h-54l262 689h54zM84 581v49q84 4 93 65h49v-435h-56v344q-28 -20 -86 -23zM613 382l-11 -125q39 36 98 36q64 0 101 -39.5t37 -107.5q0 -71 -42.5 -112.5t-118.5 -41.5q-58 0 -96 28.5t-50 82.5l53 21q12 -86 94 -86q48 0 74.5 28.5t26.5 77.5q0 48 -25 75t-69 27
q-66 0 -87 -53l-49 7l17 229h244v-47h-197z" />
    <glyph glyph-name="twofifths" horiz-adv-x="883" 
d="M342 0h-54l262 689h54zM122 308q22 1 220 1v-49h-299v46q24 15 108 75q76 54 104.5 93t28.5 88q0 41 -25.5 64t-70.5 23q-43 0 -68 -22.5t-25 -61.5q0 -27 9 -55l-55 8q-8 23 -8 49q0 60 40.5 95t111.5 35t110.5 -36.5t39.5 -99.5q0 -43 -22.5 -81t-78.5 -86
q-59 -49 -120 -86zM640 382l-11 -125q39 36 98 36q64 0 101 -39.5t37 -107.5q0 -71 -42.5 -112.5t-118.5 -41.5q-58 0 -96 28.5t-50 82.5l53 21q12 -86 94 -86q48 0 74.5 28.5t26.5 77.5q0 48 -25 75t-69 27q-66 0 -87 -53l-49 7l17 229h244v-47h-197z" />
    <glyph glyph-name="threefifths" horiz-adv-x="883" 
d="M340 0h-54l262 689h54zM127 458v45q14 -1 23 -1q56 0 88.5 20t32.5 59q0 33 -22.5 51t-61.5 18q-81 0 -94 -83l-51 16q28 114 149 114q63 0 99.5 -30.5t36.5 -83.5q0 -40 -25 -65.5t-71 -33.5q50 -4 80 -32t30 -76q0 -55 -43 -89.5t-112 -34.5q-124 0 -153 116l51 21
q15 -90 101 -90q44 0 71.5 21.5t27.5 59.5q0 41 -31 60t-97 19q-17 0 -29 -1zM635 382l-11 -125q39 36 98 36q64 0 101 -39.5t37 -107.5q0 -71 -42.5 -112.5t-118.5 -41.5q-58 0 -96 28.5t-50 82.5l53 21q12 -86 94 -86q48 0 74.5 28.5t26.5 77.5q0 48 -25 75t-69 27
q-66 0 -87 -53l-49 7l17 229h244v-47h-197z" />
    <glyph glyph-name="fourfifths" horiz-adv-x="883" 
d="M347 0h-54l262 689h54zM281 260h-53v99h-208v42l199 288h62v-283h78v-47h-78v-99zM78 406h150q0 124 1 224q-8 -13 -151 -224zM633 382l-11 -125q39 36 98 36q64 0 101 -39.5t37 -107.5q0 -71 -42.5 -112.5t-118.5 -41.5q-58 0 -96 28.5t-50 82.5l53 21q12 -86 94 -86
q48 0 74.5 28.5t26.5 77.5q0 48 -25 75t-69 27q-66 0 -87 -53l-49 7l17 229h244v-47h-197z" />
    <glyph glyph-name="braceleft.cap" horiz-adv-x="334" 
d="M52 327v30q47 21 60 48q15 29 15 122v88q0 71 16 111t51 63q34 23 96 31v-36q-33 -9 -51 -21q-29 -19 -41 -53t-12 -102v-76q0 -100 -17 -137q-15 -33 -61 -52q44 -21 60 -51q18 -35 18 -139v-77q0 -80 19 -118q23 -44 85 -56v-37q-69 8 -104 33q-31 24 -45 62.5
t-14 108.5v89q0 78 -9 108q-7 25 -22.5 38.5t-43.5 22.5z" />
    <glyph glyph-name="braceright.cap" horiz-adv-x="334" 
d="M281 357v-30q-47 -21 -60 -48q-15 -29 -15 -121v-88q0 -71 -16 -111t-51 -63q-34 -23 -96 -31v36q33 9 51 21q29 19 41 53t12 102v76q0 99 17 136q15 33 61 52q-44 21 -60 51q-18 34 -18 140v77q0 80 -19 118q-23 44 -85 56v37q69 -8 104 -33q31 -24 45 -62.5t14 -108.5
v-89q0 -78 9 -108q13 -46 66 -62z" />
    <glyph glyph-name="bracketleft.cap" horiz-adv-x="307" 
d="M262 -124h-172v933h172v-44h-112v-846h112v-43z" />
    <glyph glyph-name="bracketright.cap" horiz-adv-x="307" 
d="M45 809h172v-933h-172v43h112v846h-112v44z" />
    <glyph glyph-name="emdash.cap" horiz-adv-x="730" 
d="M682 315h-634v56h634v-56z" />
    <glyph glyph-name="endash.cap" horiz-adv-x="543" 
d="M495 315h-447v56h447v-56z" />
    <glyph glyph-name="guillemotleft.cap" horiz-adv-x="442" 
d="M184 535l38 -29l-112 -163l112 -161l-38 -30l-141 191zM355 535l38 -29l-112 -163l112 -161l-38 -30l-140 191z" />
    <glyph glyph-name="guillemotright.cap" horiz-adv-x="442" 
d="M258 152l-38 30l112 162l-112 162l38 29l140 -191zM86 152l-38 30l112 162l-112 162l38 29l141 -191z" />
    <glyph glyph-name="guilsinglleft.cap" horiz-adv-x="270" 
d="M184 535l38 -29l-112 -163l112 -161l-38 -30l-141 191z" />
    <glyph glyph-name="guilsinglright.cap" horiz-adv-x="270" 
d="M86 152l-38 30l112 162l-112 162l38 29l141 -191z" />
    <glyph glyph-name="hyphen.cap" horiz-adv-x="362" 
d="M314 315h-266v56h266v-56z" />
    <glyph glyph-name="parenleft.cap" horiz-adv-x="356" 
d="M328 -110l-23 -25q-109 76 -164.5 209t-55.5 278t55 268.5t166 205.5l21 -24q-175 -172 -175 -448q0 -292 176 -464z" />
    <glyph glyph-name="parenright.cap" horiz-adv-x="356" 
d="M28 801l23 25q109 -76 164.5 -209t55.5 -278t-55 -268.5t-166 -205.5l-21 24q175 172 175 448q0 292 -176 464z" />
    <glyph glyph-name="periodcentered.cap" horiz-adv-x="188" 
d="M127 397v-111h-66v111h66z" />
    </font>
</defs>
</svg>
