<?xml version="1.0" standalone="no"?>
<!DOCTYPE svg PUBLIC "-//W3C//DTD SVG 1.1//EN" "http://www.w3.org/Graphics/SVG/1.1/DTD/svg11.dtd" >
<svg xmlns="http://www.w3.org/2000/svg" xmlns:xlink="http://www.w3.org/1999/xlink" version="1.1">
<metadata>
Created by FontForge 20170731 at Thu Apr  5 21:40:45 2007
 By Aleksey,,,
(c) Copyright 2006 Berthold LLC. All Rights Reserved. This font software computer program is the property of Berthold. You may not reproduce, modify, adapt, translate, alter nor create derivative works of the font software. You may not reverse engineer, decompile, decrypt, disassemble, nor seek to discover the source code of the font software.
</metadata>
<defs>
<font id="AkzidGrtskNext-Regular" horiz-adv-x="217" >
  <font-face 
    font-family="Akzidenz-Grotesk Next Regular"
    font-weight="400"
    font-stretch="normal"
    units-per-em="1000"
    panose-1="2 0 5 3 0 0 0 2 0 3"
    ascent="750"
    descent="-250"
    x-height="494"
    cap-height="706"
    bbox="-122 -283 1255 998"
    underline-thickness="0"
    underline-position="0"
    unicode-range="U+0020-FB05"
  />
<missing-glyph horiz-adv-x="500" 
d="M0 0v706h500v-706h-500zM250 401l170 255h-340zM280 353l170 -258v516zM80 50h340l-170 258zM50 611v-516l170 258z" />
    <glyph glyph-name="fi" unicode="fi" horiz-adv-x="508" 
d="M281 428h-105v-428h-79v428h-90v66h90v74q0 80 31.5 112.5t93.5 32.5q35 0 61 -9v-69q-23 11 -48 11q-33 0 -46 -20.5t-13 -66.5v-65h105v-66zM439 0h-78v494h78v-494zM440 617h-80v89h80v-89z" />
    <glyph glyph-name="fl" unicode="fl" horiz-adv-x="508" 
d="M281 428h-105v-428h-79v428h-90v66h90v74q0 80 31.5 112.5t93.5 32.5q35 0 61 -9v-69q-23 11 -48 11q-33 0 -46 -20.5t-13 -66.5v-65h105v-66zM439 0h-79v706h79v-706z" />
    <glyph glyph-name="longs_t" unicode="&#x17f;t" horiz-adv-x="540" 
d="M148 559v-559h-79v560q0 80 25 112q31 41 100 41q35 0 61 -9v-69q-23 11 -48 11q-34 0 -48 -20q-11 -15 -11 -67zM528 69v-66q-29 -10 -68 -10q-55 0 -83.5 27t-28.5 97v311h-88v66h89v160h78v-160h99v-66h-99v-291q0 -41 13 -59.5t43 -18.5q19 0 45 10z" />
    <glyph glyph-name="longs_i" unicode="&#x17f;i" horiz-adv-x="470" 
d="M148 559v-559h-79v560q0 80 25 112q31 41 100 41q30 0 53 -6v-69q-19 8 -40 8q-34 0 -48 -20q-11 -15 -11 -67zM401 0h-79v494h79v-494zM402 617h-81v89h81v-89z" />
    <glyph glyph-name="longs_longs_i" unicode="&#x17f;&#x17f;i" horiz-adv-x="723" 
d="M148 559v-559h-79v560q0 80 25 112q31 41 100 41q35 0 61 -9v-69q-23 11 -48 11q-34 0 -48 -20q-11 -15 -11 -67zM654 0h-79v494h79v-494zM655 617h-81v89h81v-89zM401 559v-559h-79v560q0 80 25 112q31 41 100 41q31 0 53 -6v-69q-19 8 -40 8q-34 0 -48 -20
q-11 -15 -11 -67z" />
    <glyph glyph-name="longs_l" unicode="&#x17f;l" horiz-adv-x="470" 
d="M401 0h-79v706h79v-706zM148 559v-559h-79v560q0 80 25 112q31 41 100 41q30 0 53 -6v-69q-19 8 -40 8q-34 0 -48 -20q-11 -15 -11 -67z" />
    <glyph glyph-name="longs_longs_l" unicode="&#x17f;&#x17f;l" horiz-adv-x="723" 
d="M148 559v-559h-79v560q0 80 25 112q31 41 100 41q35 0 61 -9v-69q-23 11 -48 11q-34 0 -48 -20q-11 -15 -11 -67zM654 0h-79v706h79v-706zM401 559v-559h-79v560q0 80 25 112q31 41 100 41q31 0 53 -6v-69q-19 8 -40 8q-34 0 -48 -20q-11 -15 -11 -67z" />
    <glyph glyph-name="longs_b" unicode="&#x17f;b" horiz-adv-x="788" 
d="M322 706h79v-287q65 83 163 83q86 0 136 -68.5t50 -187.5t-54.5 -187t-145.5 -68q-98 0 -153 77v-68h-75v706zM399 253q0 -94 36 -144t101 -50q63 0 97.5 48.5t34.5 139.5q0 88 -34.5 137.5t-93.5 49.5q-63 0 -102 -49.5t-39 -131.5zM148 559v-559h-79v560q0 80 25 112
q31 41 100 41q30 0 53 -6v-69q-19 8 -40 8q-34 0 -48 -20q-11 -15 -11 -67z" />
    <glyph glyph-name="longs_longs_b" unicode="&#x17f;&#x17f;b" horiz-adv-x="1041" 
d="M148 559v-559h-79v560q0 80 25 112q31 41 100 41q35 0 61 -9v-69q-23 11 -48 11q-34 0 -48 -20q-11 -15 -11 -67zM575 706h79v-287q65 83 163 83q86 0 136 -68.5t50 -187.5t-54.5 -187t-145.5 -68q-98 0 -153 77v-68h-75v706zM652 253q0 -94 36 -144t101 -50
q63 0 97.5 48.5t34.5 139.5q0 88 -34.5 137.5t-93.5 49.5q-63 0 -102 -49.5t-39 -131.5zM401 559v-559h-79v560q0 80 25 112q31 41 100 41q31 0 53 -6v-69q-19 8 -40 8q-34 0 -48 -20q-11 -15 -11 -67z" />
    <glyph glyph-name="longs_h" unicode="&#x17f;h" horiz-adv-x="781" 
d="M718 0h-78v298q0 75 -26 105q-26 29 -76 29q-58 0 -100 -51q-37 -44 -37 -144v-237h-79v706h79v-289q25 40 69.5 62.5t96.5 22.5q89 0 126 -61q25 -41 25 -146v-295zM148 559v-559h-79v560q0 80 25 112q31 41 100 41q30 0 53 -6v-69q-19 8 -40 8q-34 0 -48 -20
q-11 -15 -11 -67z" />
    <glyph glyph-name="longs_longs_h" unicode="&#x17f;&#x17f;h" horiz-adv-x="1034" 
d="M148 559v-559h-79v560q0 80 25 112q31 41 100 41q35 0 61 -9v-69q-23 11 -48 11q-34 0 -48 -20q-11 -15 -11 -67zM971 0h-78v298q0 75 -26 105q-26 29 -76 29q-58 0 -100 -51q-37 -44 -37 -144v-237h-79v706h79v-289q25 40 69.5 62.5t96.5 22.5q89 0 126 -61
q25 -41 25 -146v-295zM401 559v-559h-79v560q0 80 25 112q31 41 100 41q31 0 53 -6v-69q-19 8 -40 8q-34 0 -48 -20q-11 -15 -11 -67z" />
    <glyph glyph-name="longs_k" unicode="&#x17f;k" horiz-adv-x="741" 
d="M741 0h-93l-159 250l-89 -94v-156h-78v706h78v-459l222 247h97l-174 -189zM148 559v-559h-79v560q0 80 25 112q31 41 100 41q30 0 53 -6v-69q-19 8 -40 8q-34 0 -48 -20q-11 -15 -11 -67z" />
    <glyph glyph-name="longs_longs_k" unicode="&#x17f;&#x17f;k" horiz-adv-x="994" 
d="M148 559v-559h-79v560q0 80 25 112q31 41 100 41q35 0 61 -9v-69q-23 11 -48 11q-34 0 -48 -20q-11 -15 -11 -67zM994 0h-93l-159 250l-89 -94v-156h-78v706h78v-459l222 247h97l-174 -189zM401 559v-559h-79v560q0 80 25 112q31 41 100 41q31 0 53 -6v-69q-19 8 -40 8
q-34 0 -48 -20q-11 -15 -11 -67z" />
    <glyph glyph-name="longs_longs" unicode="&#x17f;&#x17f;" horiz-adv-x="506" 
d="M148 559v-559h-79v560q0 80 25 112q31 41 100 41q35 0 61 -9v-69q-23 11 -48 11q-34 0 -48 -20q-11 -15 -11 -67zM401 559v-559h-79v560q0 80 25 112q31 41 100 41q35 0 61 -9v-69q-23 11 -48 11q-34 0 -48 -20q-11 -15 -11 -67z" />
    <glyph glyph-name="longs_longs_t" unicode="&#x17f;&#x17f;t" horiz-adv-x="793" 
d="M148 559v-559h-79v560q0 80 25 112q31 41 100 41q35 0 61 -9v-69q-23 11 -48 11q-34 0 -48 -20q-11 -15 -11 -67zM401 559v-559h-79v560q0 80 25 112q31 41 100 41q35 0 61 -9v-69q-23 11 -48 11q-34 0 -48 -20q-11 -15 -11 -67zM781 69v-66q-29 -10 -68 -10
q-55 0 -83.5 27t-28.5 97v311h-88v66h89v160h78v-160h99v-66h-99v-291q0 -41 13 -59.5t43 -18.5q19 0 45 10z" />
    <glyph glyph-name=".notdef" horiz-adv-x="500" 
d="M0 0v706h500v-706h-500zM250 401l170 255h-340zM280 353l170 -258v516zM80 50h340l-170 258zM50 611v-516l170 258z" />
    <glyph glyph-name=".null" horiz-adv-x="0" 
 />
    <glyph glyph-name="nonmarkingreturn" horiz-adv-x="333" 
 />
    <glyph glyph-name="space" unicode=" " 
 />
    <glyph glyph-name="exclam" unicode="!" horiz-adv-x="247" 
d="M173 208h-55q-13 206 -14 239q-5 92 -8 259h99l-8 -258q-1 -34 -14 -240zM187 122v-122h-84v122h84z" />
    <glyph glyph-name="quotedbl" unicode="&#x22;" horiz-adv-x="364" 
d="M113 416h-39l-29 290h97zM290 416h-39l-29 290h97z" />
    <glyph glyph-name="numbersign" unicode="#" horiz-adv-x="669" 
d="M404 0h-57l36 249h-118l-36 -249h-56l36 249h-145v55h153l16 115h-144v55h153l34 232h55l-32 -232h116l33 232h57l-33 -232h133v-55h-142l-16 -115h134v-55h-141zM391 304l16 115h-117l-17 -115h118z" />
    <glyph glyph-name="dollar" unicode="$" horiz-adv-x="574" 
d="M310 690q140 -7 203 -133l-65 -39q-21 51 -54 75.5t-84 27.5v-232l20 -6q109 -33 152 -73t43 -118q0 -83 -58.5 -134.5t-156.5 -57.5v-101h-52v99q-173 11 -228 172l73 39q13 -60 46.5 -93.5t108.5 -44.5v248l-20 5q-179 45 -179 191q0 74 54.5 122t144.5 53v97h52v-97z
M258 620q-57 -2 -90 -29t-33 -69q0 -46 28.5 -75t94.5 -47v220zM310 306v-236q139 14 139 119q0 48 -30.5 72.5t-108.5 44.5z" />
    <glyph glyph-name="percent" unicode="%" horiz-adv-x="899" 
d="M347 0h-63l267 689h63zM371 472q0 -104 -44 -162t-123 -58q-80 0 -124 58t-44 165q0 105 45.5 163.5t125.5 58.5q79 0 121.5 -61.5t42.5 -163.5zM305 471q0 80 -26.5 123.5t-73.5 43.5t-74 -42t-27 -120q0 -82 26 -124t74 -42q49 0 75 41t26 120zM863 212
q0 -104 -44 -162t-123 -58q-80 0 -124 58t-44 165q0 105 45.5 163.5t125.5 58.5q79 0 121.5 -61.5t42.5 -163.5zM797 211q0 80 -26.5 123.5t-73.5 43.5t-74 -42t-27 -120q0 -82 26 -124t74 -42q49 0 75 41t26 120z" />
    <glyph glyph-name="ampersand" unicode="&#x26;" horiz-adv-x="631" 
d="M534 323l70 -36q-31 -87 -84 -156l25 -28q29 -33 69 -33q10 0 16 2v-71q-10 -2 -28 -2q-37 0 -63 11t-52 41l-18 21q-81 -81 -200 -81q-100 0 -163.5 56t-63.5 138q0 69 34 119t137 107q-58 79 -58 153q0 65 44 104t118 39q67 0 107 -34.5t40 -90.5q0 -55 -29.5 -95
t-114.5 -95l154 -206q45 65 60 137zM423 125l-170 230q-76 -43 -104.5 -77.5t-28.5 -85.5q0 -60 45.5 -95t115.5 -35q81 0 142 63zM283 444q58 35 82.5 65.5t24.5 66.5q0 28 -20.5 47t-54.5 19q-38 0 -60.5 -20.5t-22.5 -52.5q0 -50 51 -125z" />
    <glyph glyph-name="quotesingle" unicode="'" horiz-adv-x="187" 
d="M113 416h-39l-29 290h97z" />
    <glyph glyph-name="parenleft" unicode="(" horiz-adv-x="342" 
d="M336 -165l-34 -33q-112 85 -170 213t-58 285q0 148 58 274.5t170 209.5l31 -33q-84 -84 -127 -202.5t-43 -246.5q0 -138 43.5 -260.5t129.5 -206.5z" />
    <glyph glyph-name="parenright" unicode=")" horiz-adv-x="342" 
d="M6 751l34 33q112 -85 170 -213t58 -285q0 -148 -58 -274.5t-170 -209.5l-31 33q84 84 127 202.5t43 246.5q0 138 -43.5 260.5t-129.5 206.5z" />
    <glyph glyph-name="asterisk" unicode="*" horiz-adv-x="326" 
d="M269 472l-44 -33l-61 94l-63 -94l-45 33l71 89l-106 32l18 50l101 -37l-4 112h56l-4 -112l99 37l18 -50l-105 -32z" />
    <glyph glyph-name="plus" unicode="+" horiz-adv-x="740" 
d="M412 29h-83v237h-237v80h237v239h83v-239h237v-80h-237v-237z" />
    <glyph glyph-name="comma" unicode="," horiz-adv-x="200" 
d="M143 122v-120q0 -57 -10.5 -84.5t-40.5 -58.5l-41 30q22 22 29.5 44.5t7.5 66.5h-34v122h89z" />
    <glyph glyph-name="hyphen" unicode="-" horiz-adv-x="365" 
d="M319 259h-273v72h273v-72z" />
    <glyph glyph-name="period" unicode="." horiz-adv-x="201" 
d="M144 122v-122h-87v122h87z" />
    <glyph glyph-name="slash" unicode="/" horiz-adv-x="429" 
d="M82 -176h-70l320 933h69z" />
    <glyph glyph-name="zero" unicode="0" horiz-adv-x="554" 
d="M518 340q0 -169 -63 -260.5t-180 -91.5q-115 0 -177.5 92.5t-62.5 263.5q0 170 64 264t179 94q113 0 176.5 -96t63.5 -266zM438 337q0 139 -42.5 215.5t-116.5 76.5q-76 0 -119 -74.5t-43 -209.5q0 -139 41.5 -211.5t117.5 -72.5q77 0 119.5 70.5t42.5 205.5z" />
    <glyph glyph-name="one" unicode="1" horiz-adv-x="554" 
d="M120 518v72q60 2 98.5 32.5t41.5 71.5h69v-694h-82v560q-42 -35 -127 -42z" />
    <glyph glyph-name="two" unicode="2" horiz-adv-x="554" 
d="M500 74v-74h-443v59l193 158q89 73 130 138t41 133t-39.5 104.5t-107.5 36.5q-67 0 -107 -42t-40 -110q0 -30 13 -74l-80 12q-9 30 -9 63q0 98 63 161t168 63q103 0 163 -58t60 -158q0 -79 -36.5 -143t-118.5 -135q-60 -53 -177 -136q78 2 327 2z" />
    <glyph glyph-name="three" unicode="3" horiz-adv-x="554" 
d="M188 316v77q11 -1 32 -1q177 0 177 125q0 55 -32 83.5t-91 28.5q-52 0 -88.5 -32.5t-48.5 -89.5l-75 29q27 82 85.5 124t132.5 42q93 0 145 -48.5t52 -131.5q0 -127 -139 -164q78 -8 119.5 -52t41.5 -119q0 -89 -62.5 -144t-163.5 -55q-87 0 -146.5 43t-82.5 124l76 37
q32 -131 147 -131q67 0 107 33t40 94q0 71 -46.5 100t-142.5 29q-23 0 -37 -1z" />
    <glyph glyph-name="four" unicode="4" horiz-adv-x="554" 
d="M423 0h-79v157h-313v67l298 465h94v-461h113v-71h-113v-157zM344 228v211q0 112 3 168q-58 -106 -100 -172l-134 -207h231z" />
    <glyph glyph-name="five" unicode="5" horiz-adv-x="554" 
d="M173 618l-18 -217q61 67 154 67q88 0 141 -64.5t53 -169.5q0 -114 -63 -180t-170 -66q-82 0 -138 44t-77 126l79 37q10 -68 46.5 -101t87.5 -33q70 0 110.5 43t40.5 124t-37 126t-101 45q-46 0 -79 -23.5t-49 -66.5l-71 10l25 370h354v-71h-288z" />
    <glyph glyph-name="six" unicode="6" horiz-adv-x="554" 
d="M497 563l-72 -34q-30 100 -120 100q-168 0 -177 -275q24 50 73 79t115 29q88 0 143 -68t55 -172q0 -107 -62.5 -170.5t-161.5 -63.5q-109 0 -173.5 84t-64.5 254q0 181 67 278.5t191 97.5q73 0 117.5 -34t69.5 -105zM435 220q0 80 -38 126.5t-103 46.5q-64 0 -109 -44.5
t-45 -109.5q0 -72 40 -125t111 -53q65 0 104.5 42.5t39.5 116.5z" />
    <glyph glyph-name="seven" unicode="7" horiz-adv-x="554" 
d="M46 618v71h455v-62q-45 -69 -75.5 -122.5t-67.5 -134t-59 -173.5t-28 -197h-87q13 170 76 330t151 288h-365z" />
    <glyph glyph-name="eight" unicode="8" horiz-adv-x="554" 
d="M369 362q67 -15 103.5 -61t36.5 -117q0 -88 -64 -142t-170 -54q-104 0 -166 54.5t-62 143.5q0 64 34 110t104 65q-122 39 -122 162q0 81 59 130t156 49q94 0 150 -49.5t56 -132.5q0 -112 -115 -158zM128 190q0 -62 43 -96.5t109 -34.5q64 0 105.5 34t41.5 93
q0 63 -41 100t-108 37t-108.5 -36t-41.5 -97zM407 521q0 51 -37 82.5t-94 31.5q-59 0 -98 -31t-39 -86q0 -54 38 -87.5t99 -33.5q58 0 94.5 35t36.5 89z" />
    <glyph glyph-name="nine" unicode="9" horiz-adv-x="554" 
d="M53 127l72 34q30 -100 128 -100q83 0 126 67t47 208q-24 -50 -72.5 -78t-114.5 -28q-89 0 -144 67t-55 171q0 105 64.5 169.5t160.5 64.5q109 0 173 -84t64 -254q0 -376 -256 -376q-144 0 -193 139zM119 470q0 -80 37 -125.5t104 -45.5q65 0 109.5 44t44.5 108
q0 73 -39.5 125.5t-110.5 52.5q-65 0 -105 -43t-40 -116z" />
    <glyph glyph-name="colon" unicode=":" horiz-adv-x="247" 
d="M190 122v-122h-87v122h87zM190 491v-123h-87v123h87z" />
    <glyph glyph-name="semicolon" unicode=";" horiz-adv-x="246" 
d="M189 491v-123h-87v123h87zM189 122v-120q0 -42 -5 -65q-9 -39 -47 -78l-40 30q18 17 26 34q11 26 12 77h-35v122h89z" />
    <glyph glyph-name="less" unicode="&#x3c;" horiz-adv-x="740" 
d="M596 19l-482 235v87l482 238v-96l-393 -185l393 -182v-97z" />
    <glyph glyph-name="equal" unicode="=" horiz-adv-x="740" 
d="M648 366h-556v80h556v-80zM648 164h-556v80h556v-80z" />
    <glyph glyph-name="greater" unicode="&#x3e;" horiz-adv-x="740" 
d="M144 579l482 -235v-87l-482 -238v96l393 185l-393 182v97z" />
    <glyph glyph-name="question" unicode="?" horiz-adv-x="533" 
d="M296 208h-72v25q0 43 11.5 71t49.5 63q65 61 88.5 97.5t23.5 71.5q0 107 -113 107q-59 0 -92.5 -32.5t-33.5 -97.5q0 -19 3 -37l-85 13q-1 11 -1 32q0 90 57.5 144t156.5 54q90 0 143.5 -48t53.5 -128q0 -48 -25 -91t-107 -120q-41 -39 -49.5 -58t-8.5 -66zM301 122v-122
h-83v122h83z" />
    <glyph glyph-name="at" unicode="@" horiz-adv-x="913" 
d="M785 67l39 -54q-137 -122 -350 -122q-188 0 -298.5 108t-110.5 289q0 196 128 326t309 130q165 0 263.5 -94.5t98.5 -258.5q0 -123 -64 -207.5t-146 -84.5q-36 0 -63.5 21.5t-36.5 61.5q-21 -37 -59 -60t-77 -23q-71 0 -111.5 46.5t-40.5 127.5q0 110 66.5 188t157.5 78
q62 0 90 -46l6 39h71q-41 -246 -41 -292q0 -78 41 -78q54 0 97.5 67.5t43.5 163.5q0 137 -78.5 213t-214.5 76q-162 0 -265.5 -114t-103.5 -279q0 -155 91 -244t254 -89q181 0 304 111zM562 379q0 98 -76 98q-60 0 -104 -61t-44 -142q0 -53 22.5 -82t63.5 -29q42 0 74.5 34
t48 82.5t15.5 99.5z" />
    <glyph glyph-name="A" unicode="A" horiz-adv-x="628" 
d="M628 0h-93l-68 190h-307l-68 -190h-92l273 706h91zM187 263h255q-93 256 -127 353q-14 -41 -128 -353z" />
    <glyph glyph-name="B" unicode="B" horiz-adv-x="642" 
d="M75 706h279q104 0 149 -27q73 -43 73 -143q0 -59 -30.5 -100.5t-90.5 -57.5q72 -12 109.5 -60.5t37.5 -120.5q0 -119 -90 -168q-55 -29 -191 -29h-246v706zM161 631v-220h160q78 0 112 17q57 28 57 99q0 43 -27 73q-18 19 -45.5 25t-87.5 6h-169zM161 336v-260h145
q100 0 137 15q70 28 70 109q0 65 -43 100.5t-120 35.5h-189z" />
    <glyph glyph-name="C" unicode="C" horiz-adv-x="649" 
d="M620 535l-83 -31q-38 140 -173 140q-106 0 -167 -73.5t-61 -205.5q0 -139 62 -220t166 -81q69 0 119 36t67 111l84 -30q-33 -97 -105.5 -146t-172.5 -49q-144 0 -227 99.5t-83 271.5q0 173 87.5 268t230.5 95q96 0 163.5 -47.5t92.5 -137.5z" />
    <glyph glyph-name="D" unicode="D" horiz-adv-x="685" 
d="M75 0v706h198q91 0 137.5 -6.5t83.5 -24.5q67 -33 106 -117.5t39 -196.5q0 -180 -92 -275q-42 -45 -98 -63q-68 -23 -186 -23h-188zM160 76h106q92 0 139.5 14t79.5 53q64 79 64 216q0 64 -12.5 116t-49.5 95.5t-95 53.5q-35 7 -110 7h-122v-555z" />
    <glyph glyph-name="E" unicode="E" horiz-adv-x="585" 
d="M561 0h-486v706h463v-78h-376v-226h343v-77h-343v-247h399v-78z" />
    <glyph glyph-name="F" unicode="F" horiz-adv-x="568" 
d="M161 0h-86v706h461v-78h-375v-220h338v-78h-338v-330z" />
    <glyph glyph-name="G" unicode="G" horiz-adv-x="711" 
d="M638 0h-81v86q-68 -99 -215 -99q-133 0 -214.5 98.5t-81.5 259.5q0 159 86.5 267t239.5 108q210 0 268 -181l-85 -32q-41 137 -177 137q-110 0 -175.5 -79t-65.5 -216q0 -132 61.5 -208.5t165.5 -76.5q140 0 181 125q12 37 12 107h-227v77h308v-373z" />
    <glyph glyph-name="H" unicode="H" horiz-adv-x="695" 
d="M620 0h-85v329h-376v-329h-84v706h84v-301h376v301h85v-706z" />
    <glyph glyph-name="I" unicode="I" horiz-adv-x="235" 
d="M160 0h-85v706h85v-706z" />
    <glyph glyph-name="J" unicode="J" horiz-adv-x="403" 
d="M328 706v-488q0 -52 -7.5 -90t-27 -72t-59.5 -52t-100 -18q-73 0 -134 33l30 83q51 -39 101 -39q58 0 85 36t27 135v472h85z" />
    <glyph glyph-name="K" unicode="K" horiz-adv-x="644" 
d="M644 0h-99l-243 370l-143 -154v-216h-84v706h84v-382l351 382h106l-257 -274z" />
    <glyph glyph-name="L" unicode="L" horiz-adv-x="548" 
d="M521 0h-446v706h85v-628h361v-78z" />
    <glyph glyph-name="M" unicode="M" horiz-adv-x="820" 
d="M745 0h-81q2 520 5 622q-33 -95 -224 -622h-69q-25 67 -72.5 195t-85 230.5t-67.5 193.5q5 -206 5 -619h-81v706h122q177 -474 215 -585q27 83 53 155.5t70.5 193.5t85.5 236h124v-706z" />
    <glyph glyph-name="N" unicode="N" horiz-adv-x="706" 
d="M631 0h-97q-367 570 -380 590q3 -72 3 -590h-82v706h99q320 -498 377 -592q-3 207 -3 592h83v-706z" />
    <glyph glyph-name="O" unicode="O" horiz-adv-x="712" 
d="M364 -14q-122 0 -201 70q-56 49 -86.5 128.5t-30.5 175.5q0 165 85 262.5t229 97.5q140 0 219 -96q87 -107 87 -276q0 -167 -81 -264.5t-221 -97.5zM575 348q0 137 -58.5 216.5t-158.5 79.5q-102 0 -162 -75t-60 -206q0 -138 61.5 -218.5t164.5 -80.5q97 0 155 76t58 208
z" />
    <glyph glyph-name="P" unicode="P" horiz-adv-x="652" 
d="M159 0h-84v706h278q117 0 171 -25q42 -20 66.5 -66.5t24.5 -105.5q0 -142 -129 -187q-63 -22 -170 -22h-157v-300zM159 376h145q124 0 173 29.5t49 104.5q0 64 -42 95q-23 18 -55 22t-112 4h-158v-255z" />
    <glyph glyph-name="Q" unicode="Q" horiz-adv-x="718" 
d="M576 80l148 -121l-52 -54l-151 127q-62 -46 -166 -46q-140 0 -224.5 102.5t-84.5 272.5q0 165 84.5 262t228.5 97q147 0 227 -104t80 -269q0 -84 -20.5 -147t-69.5 -120zM575 348q0 137 -58.5 216.5t-158.5 79.5q-102 0 -162 -75t-60 -206q0 -138 61.5 -218.5
t164.5 -80.5q97 0 155 76t58 208z" />
    <glyph glyph-name="R" unicode="R" horiz-adv-x="634" 
d="M613 0h-101l-200 299h-153v-299h-84v706h217q136 0 189 -21q50 -20 79.5 -67.5t29.5 -110.5q0 -82 -49.5 -133t-142.5 -64zM159 374h156q95 0 140.5 32t45.5 102q0 63 -43 96q-20 16 -51.5 21.5t-93.5 5.5h-154v-257z" />
    <glyph glyph-name="S" unicode="S" horiz-adv-x="594" 
d="M22 175l80 37q52 -152 194 -152q73 0 118 33t45 91q0 48 -30.5 73.5t-118.5 54.5l-58 19q-101 33 -147 78.5t-46 119.5q0 84 67 137.5t166 53.5q90 0 157 -39.5t99 -117.5l-77 -38q-44 123 -175 123q-71 0 -110 -31.5t-39 -81.5q0 -45 31.5 -69t120.5 -54l60 -20
q102 -34 146.5 -79.5t44.5 -123.5q0 -93 -71.5 -148.5t-182.5 -55.5q-203 0 -274 190z" />
    <glyph glyph-name="T" unicode="T" horiz-adv-x="558" 
d="M322 0h-87v628h-210v78h508v-78h-211v-628z" />
    <glyph glyph-name="U" unicode="U" horiz-adv-x="683" 
d="M608 706v-390q0 -93 -10.5 -145.5t-36.5 -89.5q-66 -95 -222 -95t-218 93q-29 44 -37.5 93t-8.5 137v397h85v-429q0 -92 30 -143q43 -72 151 -72q109 0 152 69q30 48 30 151v424h85z" />
    <glyph glyph-name="V" unicode="V" horiz-adv-x="587" 
d="M335 0h-85l-250 706h93q31 -93 78.5 -231t75 -221t49.5 -160q50 176 201 612h90z" />
    <glyph glyph-name="W" unicode="W" horiz-adv-x="865" 
d="M395 706h80q145 -540 158 -595q30 139 148 595h84l-188 -706h-83q-132 468 -158 587q-35 -152 -158 -587h-84l-194 706h88q111 -423 154 -596q51 212 153 596z" />
    <glyph glyph-name="X" unicode="X" horiz-adv-x="608" 
d="M608 0h-96q-32 49 -75 113t-74.5 112t-62.5 95q-104 -166 -202 -320h-98l249 373l-222 333h102q19 -30 57.5 -90.5t67.5 -107t51 -83.5q73 120 179 281h95l-222 -329z" />
    <glyph glyph-name="Y" unicode="Y" horiz-adv-x="598" 
d="M339 0h-85v294l-254 412h100q156 -267 199 -347q38 72 206 347h93l-259 -412v-294z" />
    <glyph glyph-name="Z" unicode="Z" horiz-adv-x="582" 
d="M550 0h-521v66l414 562h-393v78h502v-68l-411 -560h409v-78z" />
    <glyph glyph-name="bracketleft" unicode="[" horiz-adv-x="325" 
d="M284 -177h-193v935h193v-52h-115v-831h115v-52z" />
    <glyph glyph-name="backslash" unicode="\" horiz-adv-x="452" 
d="M356 -174l-329 929h69l329 -929h-69z" />
    <glyph glyph-name="bracketright" unicode="]" horiz-adv-x="325" 
d="M41 758h193v-935h-193v52h115v831h-115v52z" />
    <glyph glyph-name="asciicircum" unicode="^" horiz-adv-x="740" 
d="M605 286h-90l-143 332l-145 -333h-93l196 421h87z" />
    <glyph glyph-name="underscore" unicode="_" horiz-adv-x="675" 
d="M675 -203h-675v54h675v-54z" />
    <glyph glyph-name="grave" unicode="`" 
d="M191 568h-60l-105 148h96z" />
    <glyph glyph-name="a" unicode="a" horiz-adv-x="485" 
d="M345 303v41q0 96 -102 96q-57 0 -84 -24.5t-32 -77.5l-79 9q6 76 60 118t139 42q93 0 137 -49q37 -38 37 -145v-159q0 -45 3 -66q4 -29 42 -29q7 0 19 2v-60q-20 -3 -41 -3q-48 0 -70 18.5t-26 57.5q-53 -82 -164 -82q-66 0 -110 39t-44 100q0 92 92 132q69 30 223 40z
M345 219v26q-117 -5 -179 -32q-58 -25 -58 -78q0 -39 25 -59t68 -20q50 0 88 29.5t50 78.5q6 25 6 55z" />
    <glyph glyph-name="b" unicode="b" horiz-adv-x="535" 
d="M69 706h79v-287q65 83 163 83q86 0 136 -68.5t50 -187.5t-54.5 -187t-145.5 -68q-98 0 -153 77v-68h-75v706zM146 253q0 -94 36 -144t101 -50q63 0 97.5 48.5t34.5 139.5q0 88 -34.5 137.5t-93.5 49.5q-63 0 -102 -49.5t-39 -131.5z" />
    <glyph glyph-name="c" unicode="c" horiz-adv-x="469" 
d="M453 364l-74 -24q-22 99 -114 99q-67 0 -106 -50.5t-39 -141.5q0 -90 40 -141t111 -51q92 0 112 94l73 -24q-49 -137 -193 -137q-102 0 -163 69.5t-61 190.5q0 119 61.5 188.5t168.5 69.5q71 0 119.5 -35.5t64.5 -106.5z" />
    <glyph glyph-name="d" unicode="d" horiz-adv-x="536" 
d="M468 0h-79v74q-59 -83 -160 -83q-87 0 -138.5 68.5t-51.5 187.5q0 117 58 186t144 69q101 0 148 -72v276h79v-706zM390 239q0 94 -36 144.5t-101 50.5q-63 0 -97.5 -48.5t-34.5 -139.5q0 -88 34.5 -137.5t93.5 -49.5q63 0 102 49t39 131z" />
    <glyph glyph-name="e" unicode="e" horiz-adv-x="516" 
d="M408 151l70 -23q-21 -66 -76.5 -103t-128.5 -37q-113 0 -173.5 71t-60.5 194q0 116 63 185t166 69q102 0 156 -69.5t55 -202.5h-360q0 -83 41 -131.5t115 -48.5q107 0 133 96zM398 297q-10 145 -132 145q-59 0 -98.5 -36.5t-47.5 -108.5h278z" />
    <glyph glyph-name="f" unicode="f" horiz-adv-x="292" 
d="M281 428h-105v-428h-79v428h-90v66h90v66q0 80 25 112q31 41 100 41q35 0 61 -9v-69q-23 11 -48 11q-34 0 -48 -20q-11 -15 -11 -67v-65h105v-66z" />
    <glyph glyph-name="g" unicode="g" horiz-adv-x="538" 
d="M388 24v54q-53 -79 -154 -79q-91 0 -143 67t-52 183t56.5 184.5t147.5 68.5q101 0 147 -71v63h79v-479q0 -136 -69 -188q-55 -41 -148 -41q-83 0 -133.5 39t-67.5 111l83 21q7 -50 39.5 -77t83.5 -27q73 0 104 39q27 34 27 132zM388 238q0 92 -32.5 144t-96.5 52
t-101.5 -48.5t-37.5 -132.5q0 -89 36.5 -140t99.5 -51q60 0 96 47t36 129z" />
    <glyph glyph-name="h" unicode="h" horiz-adv-x="528" 
d="M465 0h-78v298q0 75 -26 105q-26 29 -76 29q-58 0 -100 -51q-37 -44 -37 -144v-237h-79v706h79v-289q25 40 69.5 62.5t96.5 22.5q89 0 126 -61q25 -41 25 -146v-295z" />
    <glyph glyph-name="i" unicode="i" 
d="M148 0h-79v494h79v-494zM149 617h-81v89h81v-89z" />
    <glyph glyph-name="j" unicode="j" horiz-adv-x="235" 
d="M88 494h78v-534q0 -51 -4 -78t-19 -47q-35 -49 -122 -49q-25 0 -47 5v68q21 -6 36 -6q51 0 64.5 23t13.5 92v526zM87 706h80v-91h-80v91z" />
    <glyph glyph-name="k" unicode="k" horiz-adv-x="488" 
d="M488 0h-93l-159 250l-89 -94v-156h-78v706h78v-459l222 247h97l-174 -189z" />
    <glyph glyph-name="l" unicode="l" 
d="M148 0h-79v706h79v-706z" />
    <glyph glyph-name="m" unicode="m" horiz-adv-x="819" 
d="M756 0h-79v265q0 104 -15 130q-20 37 -73 37t-88 -37q-49 -52 -49 -161v-234h-79v270q0 92 -13 120q-17 42 -77 42q-59 0 -100 -53q-35 -45 -35 -143v-236h-79v494h79v-77q27 41 70.5 63t92.5 22q102 0 133 -93q26 44 71.5 68t101.5 24q53 0 89 -27.5t45 -80.5
q5 -31 5 -139v-254z" />
    <glyph glyph-name="n" unicode="n" horiz-adv-x="528" 
d="M465 0h-78v298q0 68 -20 98q-23 36 -82 36q-58 0 -100 -51q-37 -44 -37 -144v-237h-79v494h79v-77q25 40 69.5 62.5t96.5 22.5q88 0 128 -66q23 -38 23 -134v-302z" />
    <glyph glyph-name="o" unicode="o" horiz-adv-x="536" 
d="M269 -12q-111 0 -170.5 70t-59.5 192q0 119 63 188t173 69q104 0 163 -70t59 -193q0 -118 -61.5 -187t-166.5 -69zM415 244q0 91 -38 143.5t-105 52.5q-69 0 -110 -50t-41 -134q0 -93 40 -147t107 -54q68 0 107.5 50.5t39.5 138.5z" />
    <glyph glyph-name="p" unicode="p" horiz-adv-x="535" 
d="M69 494h79v-74q65 83 160 83q87 0 138 -69.5t51 -188.5q0 -117 -57 -185t-143 -68q-105 0 -149 72v-266h-79v696zM147 255q0 -94 36 -144.5t101 -50.5q63 0 97 47.5t34 138.5q0 89 -34 139t-93 50q-63 0 -102 -49t-39 -131z" />
    <glyph glyph-name="q" unicode="q" horiz-adv-x="536" 
d="M467 -202h-79v277q-65 -83 -163 -83q-86 0 -136 68.5t-50 187.5t54.5 187t145.5 68q98 0 153 -77v68h75v-696zM390 238q0 94 -36 145.5t-101 51.5q-63 0 -97.5 -48.5t-34.5 -139.5q0 -88 34.5 -137.5t93.5 -49.5q63 0 102 48t39 130z" />
    <glyph glyph-name="r" unicode="r" horiz-adv-x="333" 
d="M148 0h-79v494h75v-80q44 86 140 86q20 0 45 -6v-84q-23 13 -54 13q-74 0 -108 -63q-19 -35 -19 -113v-247z" />
    <glyph glyph-name="s" unicode="s" horiz-adv-x="436" 
d="M20 118l73 34q14 -47 47.5 -73t80.5 -26t76 18.5t29 51.5t-20.5 50.5t-83.5 38.5l-53 18q-123 41 -123 141q0 57 49.5 97t127.5 40q132 0 182 -118l-72 -32q-26 87 -111 87q-48 0 -73.5 -19.5t-25.5 -49.5t20 -47t73 -34l48 -15q68 -21 104.5 -54t36.5 -91
q0 -66 -50.5 -106.5t-133.5 -40.5q-79 0 -128.5 36.5t-72.5 93.5z" />
    <glyph glyph-name="t" unicode="t" horiz-adv-x="287" 
d="M275 69v-66q-29 -10 -68 -10q-55 0 -83.5 27t-28.5 97v311h-88v66h89v160h78v-160h99v-66h-99v-291q0 -41 13 -59.5t43 -18.5q19 0 45 10z" />
    <glyph glyph-name="u" unicode="u" horiz-adv-x="528" 
d="M63 494h78v-296q0 -63 20 -95q26 -41 87 -41q52 0 89 40q43 48 43 120v272h79v-494h-79v73q-61 -81 -158 -81q-86 0 -129 59q-30 42 -30 129v314z" />
    <glyph glyph-name="v" unicode="v" horiz-adv-x="458" 
d="M271 0h-82l-189 494h88q58 -161 144 -410q85 256 141 410h85z" />
    <glyph glyph-name="w" unicode="w" horiz-adv-x="700" 
d="M547 0h-82q-97 327 -114 397q-25 -104 -117 -397h-82l-152 494h85q10 -36 54 -190.5t61 -216.5q38 153 112 407h80q94 -332 112 -406q50 187 115 406h81z" />
    <glyph glyph-name="x" unicode="x" horiz-adv-x="452" 
d="M442 0h-89q-69 111 -128 210q-109 -180 -128 -210h-87l165 256l-152 238h91q38 -63 112 -189q19 31 55 91.5t59 97.5h87l-151 -235z" />
    <glyph glyph-name="y" unicode="y" horiz-adv-x="458" 
d="M187 -19l-187 513h88q36 -103 143 -427q71 225 142 427h85l-205 -559q-31 -86 -67.5 -117.5t-104.5 -31.5q-28 0 -52 6v69q22 -8 46 -8q38 0 56.5 12.5t37.5 65.5z" />
    <glyph glyph-name="z" unicode="z" horiz-adv-x="428" 
d="M400 0h-374v48l265 380h-252v66h354v-48l-261 -378h268v-68z" />
    <glyph glyph-name="braceleft" unicode="{" horiz-adv-x="334" 
d="M39 271v39q36 15 51.5 27.5t26 46t10.5 96.5v88q0 104 47 149t148 57v-43q-60 -15 -88.5 -51.5t-28.5 -121.5v-74q0 -99 -17.5 -133.5t-75.5 -59.5q40 -15 57.5 -31t26.5 -53t9 -109v-75q0 -86 28 -123.5t89 -47.5v-46q-102 11 -148.5 54t-46.5 152v91q0 92 -19.5 124
t-68.5 44z" />
    <glyph glyph-name="bar" unicode="|" horiz-adv-x="260" 
d="M169 -177h-78v935h78v-935z" />
    <glyph glyph-name="braceright" unicode="}" horiz-adv-x="334" 
d="M295 309v-39q-36 -15 -51.5 -27.5t-26 -46t-10.5 -96.5v-88q0 -104 -47 -149t-148 -57v43q60 15 88.5 51.5t28.5 121.5v74q0 99 17.5 133.5t75.5 59.5q-40 15 -57.5 31t-26.5 53t-9 109v75q0 86 -28 123.5t-89 47.5v46q102 -11 148.5 -54t46.5 -152v-91q0 -92 19.5 -124
t68.5 -44z" />
    <glyph glyph-name="asciitilde" unicode="~" horiz-adv-x="715" 
d="M120 221l-59 60q79 108 177 108q30 0 58 -9.5t89 -44.5q63 -35 93 -35q31 0 58.5 19.5t59.5 67.5l58 -60q-78 -109 -175 -109q-47 0 -117 38q-59 33 -80.5 41.5t-42.5 8.5q-65 0 -119 -85z" />
    <glyph glyph-name="uni00A0" unicode="&#xa0;" 
 />
    <glyph glyph-name="exclamdown" unicode="&#xa1;" horiz-adv-x="247" 
d="M74 498h55q13 -206 14 -239q5 -92 8 -259h-99l8 258q1 34 14 240zM60 584v122h84v-122h-84z" />
    <glyph glyph-name="cent" unicode="&#xa2;" horiz-adv-x="513" 
d="M252 -96v96q-89 10 -141 76.5t-52 176.5q0 106 51 171t142 76v97h53v-95q126 -8 168 -128l-74 -24q-24 75 -94 85v-370q39 3 61.5 22.5t36.5 59.5l73 -24q-24 -56 -64.5 -87.5t-106.5 -36.5v-95h-53zM138 252q0 -76 30 -124t84 -59v364q-53 -11 -83.5 -57.5t-30.5 -123.5
z" />
    <glyph glyph-name="sterling" unicode="&#xa3;" horiz-adv-x="612" 
d="M261 363h201v-59h-178q23 -75 23 -112q0 -33 -16 -69q8 -5 21 -12t19.5 -11t17 -10t16.5 -9l14 -7t13 -5.5t11.5 -3.5t11 -3t9.5 -1q40 0 62 25.5t29 80.5l69 -23q-29 -158 -149 -158q-38 0 -76.5 16t-102.5 59q-48 -63 -129 -63q-51 0 -79 25.5t-28 66.5t27.5 67
t72.5 26q54 0 113 -29q4 11 4 29q0 41 -33 121h-127v59h104q-34 96 -34 155q0 86 57.5 135t148.5 49q68 0 119 -37.5t78 -104.5l-74 -35q-14 48 -46 76t-78 28q-60 0 -92.5 -28t-32.5 -79q0 -57 34 -159zM204 90q-42 30 -78 30q-19 0 -29.5 -9t-10.5 -24q0 -33 46 -33
q39 0 72 36z" />
    <glyph glyph-name="currency" unicode="&#xa4;" horiz-adv-x="672" 
d="M175 549q67 55 161 55q90 0 159 -54l72 72l46 -45l-72 -74q56 -67 56 -158q0 -89 -56 -158l73 -73l-46 -45l-73 72q-65 -55 -159 -55q-92 0 -160 54l-72 -72l-46 46l72 73q-56 69 -56 158q0 90 55 158l-71 73l46 46zM139 347q0 -86 56 -143t141 -57q84 0 140 56.5
t56 141.5t-56.5 141.5t-139.5 56.5t-140 -56.5t-57 -139.5z" />
    <glyph glyph-name="yen" unicode="&#xa5;" horiz-adv-x="626" 
d="M554 347h-163l-38 -60v-18h201v-56h-201v-213h-84v213h-202v56h202v18l-36 60h-166v56h131l-177 286h94q135 -226 199 -339q96 170 201 339h90l-180 -286h129v-56z" />
    <glyph glyph-name="brokenbar" unicode="&#xa6;" horiz-adv-x="260" 
d="M169 363h-78v395h78v-395zM169 -177h-78v395h78v-395z" />
    <glyph glyph-name="section" unicode="&#xa7;" horiz-adv-x="560" 
d="M70 1l64 51q48 -106 147 -106q58 0 87.5 23.5t29.5 53.5q0 20 -5.5 33t-33.5 34.5t-83 46.5l-97 44q-65 30 -96 67t-31 87q0 95 121 142q-69 46 -69 123q0 62 51 104.5t131 42.5q126 0 192 -98l-61 -52q-41 79 -136 79q-46 0 -72.5 -21t-26.5 -50q0 -33 24 -56t96 -56
l82 -37q69 -31 98.5 -68t29.5 -85q0 -49 -25.5 -83t-82.5 -64q45 -31 60.5 -60.5t15.5 -69.5q0 -66 -57.5 -109t-145.5 -43q-66 0 -121 34t-86 93zM222 244l125 -57q49 25 70 49t21 57q0 34 -22 55t-78 46l-108 49q-52 -16 -77.5 -38.5t-25.5 -59.5q0 -33 22 -55.5t73 -45.5
z" />
    <glyph glyph-name="dieresis" unicode="&#xa8;" 
d="M45 595h-72v91h72v-91zM244 595h-72v91h72v-91z" />
    <glyph glyph-name="copyright" unicode="&#xa9;" horiz-adv-x="825" 
d="M784 360q0 -159 -104 -267t-258 -108q-160 0 -269.5 107.5t-109.5 262.5q0 154 108 260.5t265 106.5q153 0 260.5 -105.5t107.5 -256.5zM737 350q0 142 -91 236.5t-229 94.5t-232.5 -94.5t-94.5 -232.5q0 -136 96 -232t233 -96q133 0 225.5 94.5t92.5 229.5zM592 493
l-53 -43q-44 74 -117 74q-70 0 -109.5 -45.5t-39.5 -126.5q0 -77 40.5 -124.5t108.5 -47.5q81 0 123 75l55 -43q-63 -93 -181 -93q-98 0 -157.5 65t-59.5 169q0 102 61.5 166.5t159.5 64.5q114 0 169 -91z" />
    <glyph glyph-name="ordfeminine" unicode="&#xaa;" horiz-adv-x="411" 
d="M288 557v24q0 86 -84 86q-42 0 -62.5 -20t-25.5 -64l-65 10q19 127 158 127q69 0 106 -29t37 -113v-154q0 -33 7.5 -44.5t25.5 -11.5q5 0 19 2v-54q-14 -2 -29 -2q-39 0 -60 13.5t-25 48.5q-49 -68 -140 -68q-52 0 -85.5 30.5t-33.5 79.5q0 67 66 99q58 28 191 40z
M288 507q-107 -10 -149.5 -28t-42.5 -56q0 -27 19 -43.5t53 -16.5q50 0 85 30t35 90v24z" />
    <glyph glyph-name="guillemotleft" unicode="&#xab;" horiz-adv-x="460" 
d="M185 467l48 -36l-110 -162l110 -162l-48 -36l-145 198zM365 467l48 -36l-110 -162l110 -162l-48 -36l-145 198z" />
    <glyph glyph-name="logicalnot" unicode="&#xac;" horiz-adv-x="740" 
d="M627 29h-83v237h-474v80h557v-317z" />
    <glyph glyph-name="uni00AD" unicode="&#xad;" horiz-adv-x="365" 
d="M319 259h-273v72h273v-72z" />
    <glyph glyph-name="registered" unicode="&#xae;" horiz-adv-x="825" 
d="M784 360q0 -159 -104 -267t-258 -108q-160 0 -269.5 107.5t-109.5 262.5q0 154 108 260.5t265 106.5q153 0 260.5 -105.5t107.5 -256.5zM737 350q0 142 -91 236.5t-229 94.5t-232.5 -94.5t-94.5 -232.5q0 -136 96 -232t233 -96q133 0 225.5 94.5t92.5 229.5zM605 142h-79
l-119 177h-72v-177h-67v438h135q81 0 115 -13q32 -12 50.5 -42t18.5 -71q0 -104 -110 -129zM335 380h84q54 0 77.5 18t23.5 56q0 34 -22.5 51t-79.5 17h-83v-142z" />
    <glyph glyph-name="macron" unicode="&#xaf;" 
d="M233 596h-249v65h249v-65z" />
    <glyph glyph-name="degree" unicode="&#xb0;" horiz-adv-x="364" 
d="M180 719q65 0 109 -43t44 -107q0 -63 -43.5 -106.5t-107.5 -43.5q-63 0 -107 44t-44 106t43.5 106t105.5 44zM183 668q-42 0 -70 -28.5t-28 -70.5t27.5 -71t69.5 -29q41 0 68.5 29t27.5 71q0 41 -27.5 70t-67.5 29z" />
    <glyph glyph-name="plusminus" unicode="&#xb1;" horiz-adv-x="740" 
d="M412 157h-83v231h-237v80h237v232h83v-232h237v-80h-237v-231zM648 0h-556v80h556v-80z" />
    <glyph glyph-name="twosuperior" unicode="&#xb2;" horiz-adv-x="407" 
d="M145 499q43 1 212 1v-60h-307v55q9 7 56 39t59 41q69 48 95.5 85t26.5 81q0 36 -23.5 56.5t-65.5 20.5q-40 0 -62.5 -21t-22.5 -57q0 -28 7 -51l-65 10q-6 21 -6 44q0 62 42 98t113 36q73 0 113.5 -35t40.5 -97q0 -77 -82 -151q-50 -45 -131 -95z" />
    <glyph glyph-name="threesuperior" unicode="&#xb3;" horiz-adv-x="407" 
d="M144 633v54q12 -1 24 -1q113 0 113 72q0 30 -21.5 46.5t-57.5 16.5q-77 0 -89 -81l-61 20q28 117 155 117q67 0 104.5 -31t37.5 -85q0 -38 -24 -63.5t-69 -33.5q49 -5 77.5 -33t28.5 -75q0 -56 -43.5 -90t-115.5 -34q-130 0 -160 118l61 24q15 -85 96 -85q41 0 67.5 19
t26.5 54q0 72 -121 72q-17 0 -29 -1z" />
    <glyph glyph-name="acute" unicode="&#xb4;" 
d="M82 568h-60l76 148h96z" />
    <glyph glyph-name="mu" unicode="&#xb5;" horiz-adv-x="527" 
d="M143 494v-248q0 -96 15 -129q11 -25 36.5 -40.5t55.5 -15.5q66 0 102 53q12 18 18 39q10 33 10 123v218h79v-494h-76v78q-48 -86 -140 -86q-75 0 -105 59v-229h-74v672h79z" />
    <glyph glyph-name="paragraph" unicode="&#xb6;" horiz-adv-x="578" 
d="M539 706v-52h-65v-796h-54v796h-155v-796h-54v455q-81 10 -126.5 61.5t-45.5 130.5q0 93 62 147t172 54h266z" />
    <glyph glyph-name="periodcentered" unicode="&#xb7;" horiz-adv-x="201" 
d="M144 351v-123h-87v123h87z" />
    <glyph glyph-name="cedilla" unicode="&#xb8;" 
d="M78 0h43l-24 -53q12 2 20 2q38 0 60.5 -21t22.5 -56q0 -43 -28.5 -68.5t-74.5 -25.5q-50 0 -81 28l26 42q23 -22 52 -22q20 0 31.5 12t11.5 30q0 37 -45 37q-19 0 -41 -11l-17 22z" />
    <glyph glyph-name="onesuperior" unicode="&#xb9;" horiz-adv-x="407" 
d="M95 750v61q86 3 95 64h59v-435h-67v332q-30 -19 -87 -22z" />
    <glyph glyph-name="ordmasculine" unicode="&#xba;" horiz-adv-x="441" 
d="M220 306q-89 0 -138 54t-49 152q0 97 51 152.5t140 55.5q85 0 134.5 -57t49.5 -154q0 -93 -51 -148t-137 -55zM339 509q0 72 -31 112t-84 40q-56 0 -89 -37.5t-33 -105.5q0 -75 32 -114t88 -39q53 0 85 38t32 106z" />
    <glyph glyph-name="guillemotright" unicode="&#xbb;" horiz-adv-x="460" 
d="M275 72l-48 36l110 162l-110 162l48 36l145 -198zM95 72l-48 36l110 162l-110 162l48 36l145 -198z" />
    <glyph glyph-name="onequarter" unicode="&#xbc;" horiz-adv-x="899" 
d="M311 0h-63l267 689h63zM68 570v61q86 3 95 64h59v-435h-67v332q-30 -19 -87 -22zM751 0h-64v95h-206v53l197 281h73v-277h75v-57h-75v-95zM547 152h140q0 116 1 205q-20 -32 -141 -205z" />
    <glyph glyph-name="onehalf" unicode="&#xbd;" horiz-adv-x="899" 
d="M305 0h-63l267 689h63zM65 570v61q86 3 95 64h59v-435h-67v332q-30 -19 -87 -22zM625 59q43 1 212 1v-60h-307v55q9 7 56 39t59 41q69 48 95.5 85t26.5 81q0 36 -23.5 56.5t-65.5 20.5q-40 0 -62.5 -21t-22.5 -57q0 -28 7 -51l-65 10q-6 21 -6 44q0 62 42 98t113 36
q73 0 113.5 -35t40.5 -97q0 -77 -82 -151q-50 -45 -131 -95z" />
    <glyph glyph-name="threequarters" unicode="&#xbe;" horiz-adv-x="899" 
d="M360 0h-63l267 689h63zM137 453v54q12 -1 24 -1q113 0 113 72q0 30 -21.5 46.5t-57.5 16.5q-77 0 -89 -81l-61 20q28 117 155 117q67 0 104.5 -31t37.5 -85q0 -38 -24 -63.5t-69 -33.5q49 -5 77.5 -33t28.5 -75q0 -56 -43.5 -90t-115.5 -34q-130 0 -160 118l61 24
q15 -85 96 -85q41 0 67.5 19t26.5 54q0 72 -121 72q-17 0 -29 -1zM787 0h-64v95h-206v53l197 281h73v-277h75v-57h-75v-95zM583 152h140q0 116 1 205q-20 -32 -141 -205z" />
    <glyph glyph-name="questiondown" unicode="&#xbf;" horiz-adv-x="533" 
d="M237 498h72v-25q0 -43 -11.5 -71t-49.5 -63q-65 -61 -88.5 -97.5t-23.5 -71.5q0 -107 113 -107q59 0 92.5 32.5t33.5 97.5q0 19 -3 37l85 -13q1 -11 1 -32q0 -90 -57.5 -144t-156.5 -54q-90 0 -143.5 48t-53.5 128q0 50 25 93.5t107 117.5q30 27 44 49t14 53v22zM232 584
v122h83v-122h-83z" />
    <glyph glyph-name="Agrave" unicode="&#xc0;" horiz-adv-x="628" 
d="M628 0h-93l-68 190h-307l-68 -190h-92l273 706h91zM187 263h255q-93 256 -127 353q-14 -41 -128 -353zM389 770h-72l-128 118h106z" />
    <glyph glyph-name="Aacute" unicode="&#xc1;" horiz-adv-x="628" 
d="M628 0h-93l-68 190h-307l-68 -190h-92l273 706h91zM187 263h255q-93 256 -127 353q-14 -41 -128 -353zM321 770h-72l96 118h107z" />
    <glyph glyph-name="Acircumflex" unicode="&#xc2;" horiz-adv-x="628" 
d="M628 0h-93l-68 190h-307l-68 -190h-92l273 706h91zM187 263h255q-93 256 -127 353q-14 -41 -128 -353zM455 769h-69l-71 67l-76 -67h-67l104 119h78z" />
    <glyph glyph-name="Atilde" unicode="&#xc3;" horiz-adv-x="628" 
d="M628 0h-93l-68 190h-307l-68 -190h-92l273 706h91zM187 263h255q-93 256 -127 353q-14 -41 -128 -353zM474 841q-38 -70 -94 -70q-27 0 -54 15l-24 13q-19 11 -36 11q-33 0 -50 -40l-49 33q19 39 41 56t53 17q25 0 51 -13l23 -12q30 -14 40 -14q17 0 27.5 7.5t22.5 29.5z
" />
    <glyph glyph-name="Adieresis" unicode="&#xc4;" horiz-adv-x="628" 
d="M628 0h-93l-68 190h-307l-68 -190h-92l273 706h91zM187 263h255q-93 256 -127 353q-14 -41 -128 -353zM234 770h-74v90h74v-90zM473 770h-74v90h74v-90z" />
    <glyph glyph-name="Aring" unicode="&#xc5;" horiz-adv-x="628" 
d="M628 0h-93l-68 190h-307l-68 -190h-92l273 706h91zM187 263h255q-93 256 -127 353q-14 -41 -128 -353zM316 900q43 0 68.5 -23t25.5 -65q0 -38 -25.5 -62.5t-65.5 -24.5q-41 0 -66.5 24.5t-25.5 63.5q0 38 25 62.5t64 24.5zM319 862q-23 0 -36 -13t-13 -36
q0 -22 13.5 -36.5t35.5 -14.5q21 0 34.5 14.5t13.5 35.5q0 23 -13 36.5t-35 13.5z" />
    <glyph glyph-name="AE" unicode="&#xc6;" horiz-adv-x="975" 
d="M0 0l422 706h506v-78h-376v-226h343v-77h-343v-247h399v-78h-485v191h-259l-113 -191h-94zM466 261v375q-62 -113 -216 -375h216z" />
    <glyph glyph-name="Ccedilla" unicode="&#xc7;" horiz-adv-x="649" 
d="M620 535l-83 -31q-38 140 -173 140q-106 0 -167 -73.5t-61 -205.5q0 -139 62 -220t166 -81q69 0 119 36t67 111l84 -30q-64 -188 -268 -195l-20 -43q12 2 20 2q37 0 60 -20t23 -57q0 -43 -28.5 -68.5t-74.5 -25.5q-51 0 -82 28l26 42q23 -22 53 -22q20 0 31.5 12t11.5 30
q0 37 -45 37q-19 0 -41 -11l-17 22l39 76q-129 11 -202.5 109t-73.5 260q0 173 87.5 268t230.5 95q96 0 163.5 -47.5t92.5 -137.5z" />
    <glyph glyph-name="Egrave" unicode="&#xc8;" horiz-adv-x="585" 
d="M561 0h-486v706h463v-78h-376v-226h343v-77h-343v-247h399v-78zM359 770h-72l-128 118h106z" />
    <glyph glyph-name="Eacute" unicode="&#xc9;" horiz-adv-x="585" 
d="M561 0h-486v706h463v-78h-376v-226h343v-77h-343v-247h399v-78zM312 770h-72l96 118h107z" />
    <glyph glyph-name="Ecircumflex" unicode="&#xca;" horiz-adv-x="585" 
d="M561 0h-486v706h463v-78h-376v-226h343v-77h-343v-247h399v-78zM445 769h-69l-71 67l-76 -67h-67l104 119h78z" />
    <glyph glyph-name="Edieresis" unicode="&#xcb;" horiz-adv-x="585" 
d="M561 0h-486v706h463v-78h-376v-226h343v-77h-343v-247h399v-78zM228 770h-74v90h74v-90zM467 770h-74v90h74v-90z" />
    <glyph glyph-name="Igrave" unicode="&#xcc;" horiz-adv-x="235" 
d="M160 0h-85v706h85v-706zM187 770h-72l-128 118h106z" />
    <glyph glyph-name="Iacute" unicode="&#xcd;" horiz-adv-x="235" 
d="M160 0h-85v706h85v-706zM122 770h-72l96 118h107z" />
    <glyph glyph-name="Icircumflex" unicode="&#xce;" horiz-adv-x="235" 
d="M160 0h-85v706h85v-706zM259 769h-69l-71 67l-76 -67h-67l104 119h78z" />
    <glyph glyph-name="Idieresis" unicode="&#xcf;" horiz-adv-x="235" 
d="M160 0h-85v706h85v-706zM35 770h-74v90h74v-90zM274 770h-74v90h74v-90z" />
    <glyph glyph-name="Eth" unicode="&#xd0;" horiz-adv-x="685" 
d="M75 0v335h-69v75h69v296h198q91 0 137.5 -6.5t83.5 -24.5q67 -33 106 -117.5t39 -196.5q0 -180 -92 -275q-42 -45 -98 -63q-68 -23 -186 -23h-188zM160 76h106q92 0 139.5 14t79.5 53q64 79 64 216q0 64 -12.5 116t-49.5 95.5t-95 53.5q-35 7 -110 7h-122v-221h236v-75
h-236v-259z" />
    <glyph glyph-name="Ntilde" unicode="&#xd1;" horiz-adv-x="706" 
d="M631 0h-97q-367 570 -380 590q3 -72 3 -590h-82v706h99q320 -498 377 -592q-3 207 -3 592h83v-706zM513 841q-38 -70 -94 -70q-27 0 -54 15l-24 13q-19 11 -36 11q-33 0 -50 -40l-49 33q19 39 41 56t53 17q25 0 51 -13l23 -12q30 -14 40 -14q17 0 27.5 7.5t22.5 29.5z
" />
    <glyph glyph-name="Ograve" unicode="&#xd2;" horiz-adv-x="712" 
d="M364 -14q-122 0 -201 70q-56 49 -86.5 128.5t-30.5 175.5q0 165 85 262.5t229 97.5q140 0 219 -96q87 -107 87 -276q0 -167 -81 -264.5t-221 -97.5zM575 348q0 137 -58.5 216.5t-158.5 79.5q-102 0 -162 -75t-60 -206q0 -138 61.5 -218.5t164.5 -80.5q97 0 155 76t58 208
zM426 770h-72l-128 118h106z" />
    <glyph glyph-name="Oacute" unicode="&#xd3;" horiz-adv-x="712" 
d="M364 -14q-122 0 -201 70q-56 49 -86.5 128.5t-30.5 175.5q0 165 85 262.5t229 97.5q140 0 219 -96q87 -107 87 -276q0 -167 -81 -264.5t-221 -97.5zM575 348q0 137 -58.5 216.5t-158.5 79.5q-102 0 -162 -75t-60 -206q0 -138 61.5 -218.5t164.5 -80.5q97 0 155 76t58 208
zM363 770h-72l96 118h107z" />
    <glyph glyph-name="Ocircumflex" unicode="&#xd4;" horiz-adv-x="712" 
d="M364 -14q-122 0 -201 70q-56 49 -86.5 128.5t-30.5 175.5q0 165 85 262.5t229 97.5q140 0 219 -96q87 -107 87 -276q0 -167 -81 -264.5t-221 -97.5zM575 348q0 137 -58.5 216.5t-158.5 79.5q-102 0 -162 -75t-60 -206q0 -138 61.5 -218.5t164.5 -80.5q97 0 155 76t58 208
zM499 769h-69l-71 67l-76 -67h-67l104 119h78z" />
    <glyph glyph-name="Otilde" unicode="&#xd5;" horiz-adv-x="712" 
d="M364 -14q-122 0 -201 70q-56 49 -86.5 128.5t-30.5 175.5q0 165 85 262.5t229 97.5q140 0 219 -96q87 -107 87 -276q0 -167 -81 -264.5t-221 -97.5zM575 348q0 137 -58.5 216.5t-158.5 79.5q-102 0 -162 -75t-60 -206q0 -138 61.5 -218.5t164.5 -80.5q97 0 155 76t58 208
zM513 841q-38 -70 -94 -70q-27 0 -54 15l-24 13q-19 11 -36 11q-33 0 -50 -40l-49 33q19 39 41 56t53 17q25 0 51 -13l23 -12q30 -14 40 -14q17 0 27.5 7.5t22.5 29.5z" />
    <glyph glyph-name="Odieresis" unicode="&#xd6;" horiz-adv-x="712" 
d="M364 -14q-122 0 -201 70q-56 49 -86.5 128.5t-30.5 175.5q0 165 85 262.5t229 97.5q140 0 219 -96q87 -107 87 -276q0 -167 -81 -264.5t-221 -97.5zM575 348q0 137 -58.5 216.5t-158.5 79.5q-102 0 -162 -75t-60 -206q0 -138 61.5 -218.5t164.5 -80.5q97 0 155 76t58 208
zM277 770h-74v90h74v-90zM516 770h-74v90h74v-90z" />
    <glyph glyph-name="multiply" unicode="&#xd7;" horiz-adv-x="740" 
d="M596 138l-56 -56l-170 169l-171 -169l-54 54l170 169l-171 170l57 57l170 -170l170 170l54 -55l-169 -170z" />
    <glyph glyph-name="Oslash" unicode="&#xd8;" horiz-adv-x="712" 
d="M679 676l-74 -88q61 -97 61 -240q0 -167 -81 -264.5t-221 -97.5q-129 0 -206 74l-70 -82l-41 38l73 86q-74 100 -74 258q0 165 85 262.5t229 97.5q133 0 210 -86l67 80zM136 363q0 -118 44 -192l334 396q-58 77 -156 77q-102 0 -162 -75t-60 -206zM575 348q0 96 -32 170
l-331 -391q58 -63 150 -63q97 0 155 76t58 208z" />
    <glyph glyph-name="Ugrave" unicode="&#xd9;" horiz-adv-x="683" 
d="M608 706v-390q0 -93 -10.5 -145.5t-36.5 -89.5q-66 -95 -222 -95t-218 93q-29 44 -37.5 93t-8.5 137v397h85v-429q0 -92 30 -143q43 -72 151 -72q109 0 152 69q30 48 30 151v424h85zM405 770h-72l-128 118h106z" />
    <glyph glyph-name="Uacute" unicode="&#xda;" horiz-adv-x="683" 
d="M608 706v-390q0 -93 -10.5 -145.5t-36.5 -89.5q-66 -95 -222 -95t-218 93q-29 44 -37.5 93t-8.5 137v397h85v-429q0 -92 30 -143q43 -72 151 -72q109 0 152 69q30 48 30 151v424h85zM355 770h-72l96 118h107z" />
    <glyph glyph-name="Ucircumflex" unicode="&#xdb;" horiz-adv-x="683" 
d="M608 706v-390q0 -93 -10.5 -145.5t-36.5 -89.5q-66 -95 -222 -95t-218 93q-29 44 -37.5 93t-8.5 137v397h85v-429q0 -92 30 -143q43 -72 151 -72q109 0 152 69q30 48 30 151v424h85zM484 769h-69l-71 67l-76 -67h-67l104 119h78z" />
    <glyph glyph-name="Udieresis" unicode="&#xdc;" horiz-adv-x="683" 
d="M608 706v-390q0 -93 -10.5 -145.5t-36.5 -89.5q-66 -95 -222 -95t-218 93q-29 44 -37.5 93t-8.5 137v397h85v-429q0 -92 30 -143q43 -72 151 -72q109 0 152 69q30 48 30 151v424h85zM260 770h-74v90h74v-90zM499 770h-74v90h74v-90z" />
    <glyph glyph-name="Yacute" unicode="&#xdd;" horiz-adv-x="598" 
d="M339 0h-85v294l-254 412h100q156 -267 199 -347q38 72 206 347h93l-259 -412v-294zM312 770h-72l96 118h107z" />
    <glyph glyph-name="Thorn" unicode="&#xde;" horiz-adv-x="641" 
d="M159 586h151q152 0 203 -24q41 -20 66 -66.5t25 -104.5q0 -56 -24 -101.5t-68 -70.5q-70 -39 -207 -39h-146v-180h-84v706h84v-120zM159 256h134q106 0 146 15q77 29 77 118q0 65 -43 97q-21 16 -51.5 20t-115.5 4h-147v-254z" />
    <glyph glyph-name="germandbls" unicode="&#xdf;" horiz-adv-x="521" 
d="M69 0v489q0 109 48 169t145 60q83 0 132.5 -43.5t49.5 -120.5q0 -129 -122 -161q74 -5 119.5 -56t45.5 -139q0 -92 -54.5 -148t-143.5 -56q-41 0 -85 11v73q37 -17 71 -17q60 0 95 35t35 102q0 76 -41.5 116t-114.5 40q-24 0 -42 -2v67q15 -1 38 -1q48 0 84 31.5t36 95.5
q0 52 -28 79.5t-78 27.5q-112 0 -112 -169v-483h-78z" />
    <glyph glyph-name="agrave" unicode="&#xe0;" horiz-adv-x="485" 
d="M345 303v41q0 96 -102 96q-57 0 -84 -24.5t-32 -77.5l-79 9q6 76 60 118t139 42q93 0 137 -49q37 -38 37 -145v-159q0 -45 3 -66q4 -29 42 -29q7 0 19 2v-60q-20 -3 -41 -3q-48 0 -70 18.5t-26 57.5q-53 -82 -164 -82q-66 0 -110 39t-44 100q0 92 92 132q69 30 223 40z
M345 219v26q-117 -5 -179 -32q-58 -25 -58 -78q0 -39 25 -59t68 -20q50 0 88 29.5t50 78.5q6 25 6 55zM282 568h-60l-105 148h96z" />
    <glyph glyph-name="aacute" unicode="&#xe1;" horiz-adv-x="485" 
d="M345 303v41q0 96 -102 96q-57 0 -84 -24.5t-32 -77.5l-79 9q6 76 60 118t139 42q93 0 137 -49q37 -38 37 -145v-159q0 -45 3 -66q4 -29 42 -29q7 0 19 2v-60q-20 -3 -41 -3q-48 0 -70 18.5t-26 57.5q-53 -82 -164 -82q-66 0 -110 39t-44 100q0 92 92 132q69 30 223 40z
M345 219v26q-117 -5 -179 -32q-58 -25 -58 -78q0 -39 25 -59t68 -20q50 0 88 29.5t50 78.5q6 25 6 55zM254 568h-60l76 148h96z" />
    <glyph glyph-name="acircumflex" unicode="&#xe2;" horiz-adv-x="485" 
d="M345 303v41q0 96 -102 96q-57 0 -84 -24.5t-32 -77.5l-79 9q6 76 60 118t139 42q93 0 137 -49q37 -38 37 -145v-159q0 -45 3 -66q4 -29 42 -29q7 0 19 2v-60q-20 -3 -41 -3q-48 0 -70 18.5t-26 57.5q-53 -82 -164 -82q-66 0 -110 39t-44 100q0 92 92 132q69 30 223 40z
M345 219v26q-117 -5 -179 -32q-58 -25 -58 -78q0 -39 25 -59t68 -20q50 0 88 29.5t50 78.5q6 25 6 55zM365 568h-65l-62 91l-65 -91h-64l90 148h78z" />
    <glyph glyph-name="atilde" unicode="&#xe3;" horiz-adv-x="485" 
d="M345 303v41q0 96 -102 96q-57 0 -84 -24.5t-32 -77.5l-79 9q6 76 60 118t139 42q93 0 137 -49q37 -38 37 -145v-159q0 -45 3 -66q4 -29 42 -29q7 0 19 2v-60q-20 -3 -41 -3q-48 0 -70 18.5t-26 57.5q-53 -82 -164 -82q-66 0 -110 39t-44 100q0 92 92 132q69 30 223 40z
M345 219v26q-117 -5 -179 -32q-58 -25 -58 -78q0 -39 25 -59t68 -20q50 0 88 29.5t50 78.5q6 25 6 55zM391 653q-36 -70 -90 -70q-26 0 -54 15l-24 13q-22 11 -35 11q-32 0 -49 -41l-47 34q18 39 39 56t52 17q26 0 50 -13l23 -12q28 -14 39 -14q16 0 25.5 7.5t23.5 30.5z
" />
    <glyph glyph-name="adieresis" unicode="&#xe4;" horiz-adv-x="485" 
d="M345 303v41q0 96 -102 96q-57 0 -84 -24.5t-32 -77.5l-79 9q6 76 60 118t139 42q93 0 137 -49q37 -38 37 -145v-159q0 -45 3 -66q4 -29 42 -29q7 0 19 2v-60q-20 -3 -41 -3q-48 0 -70 18.5t-26 57.5q-53 -82 -164 -82q-66 0 -110 39t-44 100q0 92 92 132q69 30 223 40z
M345 219v26q-117 -5 -179 -32q-58 -25 -58 -78q0 -39 25 -59t68 -20q50 0 88 29.5t50 78.5q6 25 6 55zM177 595h-72v91h72v-91zM376 595h-72v91h72v-91z" />
    <glyph glyph-name="aring" unicode="&#xe5;" horiz-adv-x="485" 
d="M345 303v41q0 96 -102 96q-57 0 -84 -24.5t-32 -77.5l-79 9q6 76 60 118t139 42q93 0 137 -49q37 -38 37 -145v-159q0 -45 3 -66q4 -29 42 -29q7 0 19 2v-60q-20 -3 -41 -3q-48 0 -70 18.5t-26 57.5q-53 -82 -164 -82q-66 0 -110 39t-44 100q0 92 92 132q69 30 223 40z
M345 219v26q-117 -5 -179 -32q-58 -25 -58 -78q0 -39 25 -59t68 -20q50 0 88 29.5t50 78.5q6 25 6 55zM247 720q41 0 67.5 -25t26.5 -63t-25.5 -62.5t-65.5 -24.5q-41 0 -66.5 24.5t-25.5 63.5q0 38 25 62.5t64 24.5zM250 683q-23 0 -37 -13.5t-14 -36.5q0 -22 14.5 -37
t36.5 -15q21 0 35.5 15t14.5 36q0 23 -14 37t-36 14z" />
    <glyph glyph-name="ae" unicode="&#xe6;" horiz-adv-x="818" 
d="M710 150l70 -23q-21 -66 -76.5 -103t-128.5 -37t-123 32.5t-75 85.5q-27 -51 -71 -84t-122 -33q-65 0 -109.5 39.5t-44.5 101.5q0 89 77.5 126.5t237.5 48.5v40q0 96 -102 96q-57 0 -84 -24.5t-32 -77.5l-79 9q6 76 59.5 117.5t139.5 41.5q93 0 136 -48q8 -9 19 -31
q57 79 168 79q102 0 156 -69t55 -202h-360v-8q2 -79 42.5 -125.5t113.5 -46.5q107 0 133 95zM345 246q-134 -10 -185.5 -36.5t-51.5 -76.5q0 -39 25 -60t68 -21q69 0 112 56q32 40 32 112v26zM700 297q-10 146 -132 146q-59 0 -98.5 -37t-47.5 -109h278z" />
    <glyph glyph-name="ccedilla" unicode="&#xe7;" horiz-adv-x="469" 
d="M453 364l-74 -24q-22 99 -114 99q-68 0 -106.5 -50t-38.5 -141t40 -142t111 -51q92 0 112 94l73 -24q-46 -131 -178 -136l-19 -42q12 2 20 2q38 0 60.5 -21t22.5 -56q0 -43 -28.5 -68.5t-74.5 -25.5q-50 0 -81 28l26 42q23 -22 52 -22q20 0 31.5 12t11.5 30q0 37 -45 37
q-19 0 -41 -11l-17 22l38 74q-89 9 -142 78t-53 181q0 119 61.5 188t168.5 69q71 0 119.5 -35.5t64.5 -106.5z" />
    <glyph glyph-name="egrave" unicode="&#xe8;" horiz-adv-x="516" 
d="M408 151l70 -23q-21 -66 -76.5 -103t-128.5 -37q-113 0 -173.5 71t-60.5 194q0 116 63 185t166 69q102 0 156 -69.5t55 -202.5h-360q0 -83 41 -131.5t115 -48.5q107 0 133 96zM398 297q-10 145 -132 145q-59 0 -98.5 -36.5t-47.5 -108.5h278zM311 568h-60l-105 148h96z
" />
    <glyph glyph-name="eacute" unicode="&#xe9;" horiz-adv-x="516" 
d="M408 151l70 -23q-21 -66 -76.5 -103t-128.5 -37q-113 0 -173.5 71t-60.5 194q0 116 63 185t166 69q102 0 156 -69.5t55 -202.5h-360q0 -83 41 -131.5t115 -48.5q107 0 133 96zM398 297q-10 145 -132 145q-59 0 -98.5 -36.5t-47.5 -108.5h278zM270 568h-60l76 148h96z" />
    <glyph glyph-name="ecircumflex" unicode="&#xea;" horiz-adv-x="516" 
d="M408 151l70 -23q-21 -66 -76.5 -103t-128.5 -37q-113 0 -173.5 71t-60.5 194q0 116 63 185t166 69q102 0 156 -69.5t55 -202.5h-360q0 -83 41 -131.5t115 -48.5q107 0 133 96zM398 297q-10 145 -132 145q-59 0 -98.5 -36.5t-47.5 -108.5h278zM395 568h-65l-62 91l-65 -91
h-64l90 148h78z" />
    <glyph glyph-name="edieresis" unicode="&#xeb;" horiz-adv-x="516" 
d="M408 151l70 -23q-21 -66 -76.5 -103t-128.5 -37q-113 0 -173.5 71t-60.5 194q0 116 63 185t166 69q102 0 156 -69.5t55 -202.5h-360q0 -83 41 -131.5t115 -48.5q107 0 133 96zM398 297q-10 145 -132 145q-59 0 -98.5 -36.5t-47.5 -108.5h278zM202 595h-72v91h72v-91z
M401 595h-72v91h72v-91z" />
    <glyph glyph-name="igrave" unicode="&#xec;" 
d="M148 0h-79v494h79v-494zM160 568h-60l-105 148h96z" />
    <glyph glyph-name="iacute" unicode="&#xed;" 
d="M148 0h-79v494h79v-494zM114 568h-60l76 148h96z" />
    <glyph glyph-name="icircumflex" unicode="&#xee;" 
d="M148 0h-79v494h79v-494zM236 568h-65l-62 91l-65 -91h-64l90 148h78z" />
    <glyph glyph-name="idieresis" unicode="&#xef;" 
d="M148 0h-79v494h79v-494zM55 595h-72v91h72v-91zM234 595h-72v91h72v-91z" />
    <glyph glyph-name="eth" unicode="&#xf0;" horiz-adv-x="535" 
d="M450 624l-94 -31q141 -165 141 -354q0 -116 -63 -183.5t-168 -67.5q-107 0 -167 69.5t-60 188.5q0 113 62.5 181t159.5 68q50 0 90 -22q-31 52 -69 94l-152 -49l-20 55l131 41q-26 33 -76 74l57 40q44 -33 94 -89l114 38zM415 239q0 89 -38.5 140.5t-104.5 51.5
q-69 0 -110 -48.5t-41 -132.5q0 -91 40.5 -143t105.5 -52q68 0 108 49t40 135z" />
    <glyph glyph-name="ntilde" unicode="&#xf1;" horiz-adv-x="528" 
d="M465 0h-78v298q0 68 -20 98q-23 36 -82 36q-58 0 -100 -51q-37 -44 -37 -144v-237h-79v494h79v-77q25 40 69.5 62.5t96.5 22.5q88 0 128 -66q23 -38 23 -134v-302zM420 653q-36 -70 -90 -70q-26 0 -54 15l-24 13q-22 11 -35 11q-32 0 -49 -41l-47 34q18 39 39 56t52 17
q26 0 50 -13l23 -12q28 -14 39 -14q16 0 25.5 7.5t23.5 30.5z" />
    <glyph glyph-name="ograve" unicode="&#xf2;" horiz-adv-x="536" 
d="M269 -12q-111 0 -170.5 70t-59.5 192q0 119 63 188t173 69q104 0 163 -70t59 -193q0 -118 -61.5 -187t-166.5 -69zM415 244q0 91 -38 143.5t-105 52.5q-69 0 -110 -50t-41 -134q0 -93 40 -147t107 -54q68 0 107.5 50.5t39.5 138.5zM321 568h-60l-105 148h96z" />
    <glyph glyph-name="oacute" unicode="&#xf3;" horiz-adv-x="536" 
d="M269 -12q-111 0 -170.5 70t-59.5 192q0 119 63 188t173 69q104 0 163 -70t59 -193q0 -118 -61.5 -187t-166.5 -69zM415 244q0 91 -38 143.5t-105 52.5q-69 0 -110 -50t-41 -134q0 -93 40 -147t107 -54q68 0 107.5 50.5t39.5 138.5zM278 568h-60l76 148h96z" />
    <glyph glyph-name="ocircumflex" unicode="&#xf4;" horiz-adv-x="536" 
d="M269 -12q-111 0 -170.5 70t-59.5 192q0 119 63 188t173 69q104 0 163 -70t59 -193q0 -118 -61.5 -187t-166.5 -69zM415 244q0 91 -38 143.5t-105 52.5q-69 0 -110 -50t-41 -134q0 -93 40 -147t107 -54q68 0 107.5 50.5t39.5 138.5zM398 568h-65l-62 91l-65 -91h-64
l90 148h78z" />
    <glyph glyph-name="otilde" unicode="&#xf5;" horiz-adv-x="536" 
d="M269 -12q-111 0 -170.5 70t-59.5 192q0 119 63 188t173 69q104 0 163 -70t59 -193q0 -118 -61.5 -187t-166.5 -69zM415 244q0 91 -38 143.5t-105 52.5q-69 0 -110 -50t-41 -134q0 -93 40 -147t107 -54q68 0 107.5 50.5t39.5 138.5zM420 653q-36 -70 -90 -70q-26 0 -54 15
l-24 13q-22 11 -35 11q-32 0 -49 -41l-47 34q18 39 39 56t52 17q26 0 50 -13l23 -12q28 -14 39 -14q16 0 25.5 7.5t23.5 30.5z" />
    <glyph glyph-name="odieresis" unicode="&#xf6;" horiz-adv-x="536" 
d="M269 -12q-111 0 -170.5 70t-59.5 192q0 119 63 188t173 69q104 0 163 -70t59 -193q0 -118 -61.5 -187t-166.5 -69zM415 244q0 91 -38 143.5t-105 52.5q-69 0 -110 -50t-41 -134q0 -93 40 -147t107 -54q68 0 107.5 50.5t39.5 138.5zM210 595h-72v91h72v-91zM409 595h-72
v91h72v-91z" />
    <glyph glyph-name="divide" unicode="&#xf7;" horiz-adv-x="740" 
d="M648 266h-556v80h556v-80zM412 529v-107h-85v107h85zM412 188v-107h-85v107h85z" />
    <glyph glyph-name="oslash" unicode="&#xf8;" horiz-adv-x="536" 
d="M508 486l-58 -66q47 -69 47 -176q0 -118 -61.5 -187t-166.5 -69q-92 0 -148 47l-52 -61l-39 35l55 64q-46 65 -46 177q0 119 63 187.5t173 68.5q82 0 139 -46l53 62zM415 244q0 65 -20 111l-223 -261q39 -39 96 -39q68 0 107.5 50.5t39.5 138.5zM121 256q0 -71 21 -116
l222 262q-35 37 -92 37q-69 0 -110 -49.5t-41 -133.5z" />
    <glyph glyph-name="ugrave" unicode="&#xf9;" horiz-adv-x="528" 
d="M63 494h78v-296q0 -63 20 -95q26 -41 87 -41q52 0 89 40q43 48 43 120v272h79v-494h-79v73q-61 -81 -158 -81q-86 0 -129 59q-30 42 -30 129v314zM309 568h-60l-105 148h96z" />
    <glyph glyph-name="uacute" unicode="&#xfa;" horiz-adv-x="528" 
d="M63 494h78v-296q0 -63 20 -95q26 -41 87 -41q52 0 89 40q43 48 43 120v272h79v-494h-79v73q-61 -81 -158 -81q-86 0 -129 59q-30 42 -30 129v314zM272 568h-60l76 148h96z" />
    <glyph glyph-name="ucircumflex" unicode="&#xfb;" horiz-adv-x="528" 
d="M63 494h78v-296q0 -63 20 -95q26 -41 87 -41q52 0 89 40q43 48 43 120v272h79v-494h-79v73q-61 -81 -158 -81q-86 0 -129 59q-30 42 -30 129v314zM391 568h-65l-62 91l-65 -91h-64l90 148h78z" />
    <glyph glyph-name="udieresis" unicode="&#xfc;" horiz-adv-x="528" 
d="M63 494h78v-296q0 -63 20 -95q26 -41 87 -41q52 0 89 40q43 48 43 120v272h79v-494h-79v73q-61 -81 -158 -81q-86 0 -129 59q-30 42 -30 129v314zM199 595h-72v91h72v-91zM398 595h-72v91h72v-91z" />
    <glyph glyph-name="yacute" unicode="&#xfd;" horiz-adv-x="458" 
d="M187 -19l-187 513h88q36 -103 143 -427q71 225 142 427h85l-205 -559q-31 -86 -67.5 -117.5t-104.5 -31.5q-28 0 -52 6v69q22 -8 46 -8q38 0 56.5 12.5t37.5 65.5zM246 568h-60l76 148h96z" />
    <glyph glyph-name="thorn" unicode="&#xfe;" horiz-adv-x="535" 
d="M69 706h79v-286q65 83 159 83q87 0 138.5 -68.5t51.5 -187.5q0 -117 -57.5 -186t-143.5 -69q-104 0 -148 72v-266h-79v908zM146 257q0 -94 36 -145.5t101 -51.5q63 0 97.5 48.5t34.5 139.5q0 88 -34.5 137.5t-93.5 49.5q-63 0 -102 -48t-39 -130z" />
    <glyph glyph-name="ydieresis" unicode="&#xff;" horiz-adv-x="458" 
d="M187 -19l-187 513h88q36 -103 143 -427q71 225 142 427h85l-205 -559q-31 -86 -67.5 -117.5t-104.5 -31.5q-28 0 -52 6v69q22 -8 46 -8q38 0 56.5 12.5t37.5 65.5zM168 595h-72v91h72v-91zM367 595h-72v91h72v-91z" />
    <glyph glyph-name="Amacron" unicode="&#x100;" horiz-adv-x="628" 
d="M628 0h-93l-68 190h-307l-68 -190h-92l273 706h91zM187 263h255q-93 256 -127 353q-14 -41 -128 -353zM444 786h-261v65h261v-65z" />
    <glyph glyph-name="amacron" unicode="&#x101;" horiz-adv-x="485" 
d="M345 303v41q0 96 -102 96q-57 0 -84 -24.5t-32 -77.5l-79 9q6 76 60 118t139 42q93 0 137 -49q37 -38 37 -145v-159q0 -45 3 -66q4 -29 42 -29q7 0 19 2v-60q-20 -3 -41 -3q-48 0 -70 18.5t-26 57.5q-53 -82 -164 -82q-66 0 -110 39t-44 100q0 92 92 132q69 30 223 40z
M345 219v26q-117 -5 -179 -32q-58 -25 -58 -78q0 -39 25 -59t68 -20q50 0 88 29.5t50 78.5q6 25 6 55zM372 596h-249v65h249v-65z" />
    <glyph glyph-name="Abreve" unicode="&#x102;" horiz-adv-x="628" 
d="M628 0h-93l-68 190h-307l-68 -190h-92l273 706h91zM187 263h255q-93 256 -127 353q-14 -41 -128 -353zM177 885h62q12 -61 74 -61t74 61h63q-8 -55 -44.5 -87t-92.5 -32q-57 0 -92.5 31.5t-43.5 87.5z" />
    <glyph glyph-name="abreve" unicode="&#x103;" horiz-adv-x="485" 
d="M345 303v41q0 96 -102 96q-57 0 -84 -24.5t-32 -77.5l-79 9q6 76 60 118t139 42q93 0 137 -49q37 -38 37 -145v-159q0 -45 3 -66q4 -29 42 -29q7 0 19 2v-60q-20 -3 -41 -3q-48 0 -70 18.5t-26 57.5q-53 -82 -164 -82q-66 0 -110 39t-44 100q0 92 92 132q69 30 223 40z
M345 219v26q-117 -5 -179 -32q-58 -25 -58 -78q0 -39 25 -59t68 -20q50 0 88 29.5t50 78.5q6 25 6 55zM112 695h59q12 -61 71 -61t71 61h60q-8 -55 -42.5 -87t-88.5 -32t-88 31.5t-42 87.5z" />
    <glyph glyph-name="Aogonek" unicode="&#x104;" horiz-adv-x="628" 
d="M628 0h-9l-21 -16q-67 -50 -67 -107q0 -23 13 -35.5t35 -12.5q29 0 46 16l23 -42q-32 -25 -78 -25q-44 0 -73.5 25t-29.5 67q0 67 94 130h-26l-68 190h-307l-68 -190h-92l273 706h91zM187 263h255q-93 256 -127 353q-14 -41 -128 -353z" />
    <glyph glyph-name="aogonek" unicode="&#x105;" horiz-adv-x="485" 
d="M345 303v41q0 96 -102 96q-57 0 -84 -24.5t-32 -77.5l-79 9q6 76 60 118t139 42q93 0 137 -49q37 -38 37 -145v-159q0 -45 3 -66q4 -29 42 -29q7 0 19 2v-60l-16 -2l-20 -15q-67 -50 -67 -107q0 -23 13 -35.5t35 -12.5q29 0 46 16l23 -42q-32 -25 -78 -25q-44 0 -73.5 25
t-29.5 67q0 68 95 130q-59 11 -65 74q-53 -82 -164 -82q-66 0 -110 39t-44 100q0 92 92 132q69 30 223 40zM345 219v26q-117 -5 -179 -32q-58 -25 -58 -78q0 -39 25 -59t68 -20q50 0 88 29.5t50 78.5q6 25 6 55z" />
    <glyph glyph-name="Cacute" unicode="&#x106;" horiz-adv-x="649" 
d="M620 535l-83 -31q-38 140 -173 140q-106 0 -167 -73.5t-61 -205.5q0 -139 62 -220t166 -81q69 0 119 36t67 111l84 -30q-33 -97 -105.5 -146t-172.5 -49q-144 0 -227 99.5t-83 271.5q0 173 87.5 268t230.5 95q96 0 163.5 -47.5t92.5 -137.5zM361 770h-72l96 118h107z" />
    <glyph glyph-name="cacute" unicode="&#x107;" horiz-adv-x="469" 
d="M453 364l-74 -24q-22 99 -114 99q-67 0 -106 -50.5t-39 -141.5q0 -90 40 -141t111 -51q92 0 112 94l73 -24q-49 -137 -193 -137q-102 0 -163 69.5t-61 190.5q0 119 61.5 188.5t168.5 69.5q71 0 119.5 -35.5t64.5 -106.5zM272 568h-60l76 148h96z" />
    <glyph glyph-name="Ccircumflex" unicode="&#x108;" horiz-adv-x="649" 
d="M620 535l-83 -31q-38 140 -173 140q-106 0 -167 -73.5t-61 -205.5q0 -139 62 -220t166 -81q69 0 119 36t67 111l84 -30q-33 -97 -105.5 -146t-172.5 -49q-144 0 -227 99.5t-83 271.5q0 173 87.5 268t230.5 95q96 0 163.5 -47.5t92.5 -137.5zM497 769h-69l-71 67l-76 -67
h-67l104 119h78z" />
    <glyph glyph-name="ccircumflex" unicode="&#x109;" horiz-adv-x="469" 
d="M453 364l-74 -24q-22 99 -114 99q-67 0 -106 -50.5t-39 -141.5q0 -90 40 -141t111 -51q92 0 112 94l73 -24q-49 -137 -193 -137q-102 0 -163 69.5t-61 190.5q0 119 61.5 188.5t168.5 69.5q71 0 119.5 -35.5t64.5 -106.5zM389 568h-65l-62 91l-65 -91h-64l90 148h78z" />
    <glyph glyph-name="Cdotaccent" unicode="&#x10a;" horiz-adv-x="649" 
d="M620 535l-83 -31q-38 140 -173 140q-106 0 -167 -73.5t-61 -205.5q0 -139 62 -220t166 -81q69 0 119 36t67 111l84 -30q-33 -97 -105.5 -146t-172.5 -49q-144 0 -227 99.5t-83 271.5q0 173 87.5 268t230.5 95q96 0 163.5 -47.5t92.5 -137.5zM401 770h-75v90h75v-90z" />
    <glyph glyph-name="cdotaccent" unicode="&#x10b;" horiz-adv-x="469" 
d="M453 364l-74 -24q-22 99 -114 99q-67 0 -106 -50.5t-39 -141.5q0 -90 40 -141t111 -51q92 0 112 94l73 -24q-49 -137 -193 -137q-102 0 -163 69.5t-61 190.5q0 119 61.5 188.5t168.5 69.5q71 0 119.5 -35.5t64.5 -106.5zM303 595h-73v91h73v-91z" />
    <glyph glyph-name="Ccaron" unicode="&#x10c;" horiz-adv-x="649" 
d="M620 535l-83 -31q-38 140 -173 140q-106 0 -167 -73.5t-61 -205.5q0 -139 62 -220t166 -81q69 0 119 36t67 111l84 -30q-33 -97 -105.5 -146t-172.5 -49q-144 0 -227 99.5t-83 271.5q0 173 87.5 268t230.5 95q96 0 163.5 -47.5t92.5 -137.5zM215 888h69l71 -67l76 67h67
l-104 -119h-78z" />
    <glyph glyph-name="ccaron" unicode="&#x10d;" horiz-adv-x="469" 
d="M453 364l-74 -24q-22 99 -114 99q-67 0 -106 -50.5t-39 -141.5q0 -90 40 -141t111 -51q92 0 112 94l73 -24q-49 -137 -193 -137q-102 0 -163 69.5t-61 190.5q0 119 61.5 188.5t168.5 69.5q71 0 119.5 -35.5t64.5 -106.5zM136 716h65l62 -91l65 91h64l-90 -148h-78z" />
    <glyph glyph-name="Dcaron" unicode="&#x10e;" horiz-adv-x="685" 
d="M75 0v706h198q91 0 137.5 -6.5t83.5 -24.5q67 -33 106 -117.5t39 -196.5q0 -180 -92 -275q-42 -45 -98 -63q-68 -23 -186 -23h-188zM160 76h106q92 0 139.5 14t79.5 53q64 79 64 216q0 64 -12.5 116t-49.5 95.5t-95 53.5q-35 7 -110 7h-122v-555zM146 888h69l71 -67
l76 67h67l-104 -119h-78z" />
    <glyph glyph-name="dcaron" unicode="&#x10f;" horiz-adv-x="536" 
d="M468 0h-79v74q-59 -83 -160 -83q-87 0 -138.5 68.5t-51.5 187.5q0 117 58 186t144 69q101 0 148 -72v276h79v-706zM390 239q0 94 -36 144.5t-101 50.5q-63 0 -97.5 -48.5t-34.5 -139.5q0 -88 34.5 -137.5t93.5 -49.5q63 0 102 49t39 131zM599 706v-85q0 -80 -51 -134
l-39 30q37 38 37 96h-32v93h85z" />
    <glyph glyph-name="Dcroat" unicode="&#x110;" horiz-adv-x="685" 
d="M75 0v335h-69v75h69v296h198q91 0 137.5 -6.5t83.5 -24.5q67 -33 106 -117.5t39 -196.5q0 -180 -92 -275q-42 -45 -98 -63q-68 -23 -186 -23h-188zM160 76h106q92 0 139.5 14t79.5 53q64 79 64 216q0 64 -12.5 116t-49.5 95.5t-95 53.5q-35 7 -110 7h-122v-221h236v-75
h-236v-259z" />
    <glyph glyph-name="dcroat" unicode="&#x111;" horiz-adv-x="536" 
d="M468 0h-79v74q-59 -83 -160 -83q-87 0 -138.5 68.5t-51.5 187.5q0 117 58 186t144 69q101 0 148 -72v127h-158v66h158v83h79v-83h68v-66h-68v-557zM390 239q0 94 -36 144.5t-101 50.5q-63 0 -97.5 -48.5t-34.5 -139.5q0 -88 34.5 -137.5t93.5 -49.5q63 0 102 49t39 131z
" />
    <glyph glyph-name="Emacron" unicode="&#x112;" horiz-adv-x="585" 
d="M561 0h-486v706h463v-78h-376v-226h343v-77h-343v-247h399v-78zM438 786h-261v65h261v-65z" />
    <glyph glyph-name="emacron" unicode="&#x113;" horiz-adv-x="516" 
d="M408 151l70 -23q-21 -66 -76.5 -103t-128.5 -37q-113 0 -173.5 71t-60.5 194q0 116 63 185t166 69q102 0 156 -69.5t55 -202.5h-360q0 -83 41 -131.5t115 -48.5q107 0 133 96zM398 297q-10 145 -132 145q-59 0 -98.5 -36.5t-47.5 -108.5h278zM388 596h-249v65h249v-65z
" />
    <glyph glyph-name="Ebreve" unicode="&#x114;" horiz-adv-x="585" 
d="M561 0h-486v706h463v-78h-376v-226h343v-77h-343v-247h399v-78zM176 885h62q12 -61 74 -61t74 61h63q-8 -55 -44.5 -87t-92.5 -32q-57 0 -92.5 31.5t-43.5 87.5z" />
    <glyph glyph-name="ebreve" unicode="&#x115;" horiz-adv-x="516" 
d="M408 151l70 -23q-21 -66 -76.5 -103t-128.5 -37q-113 0 -173.5 71t-60.5 194q0 116 63 185t166 69q102 0 156 -69.5t55 -202.5h-360q0 -83 41 -131.5t115 -48.5q107 0 133 96zM398 297q-10 145 -132 145q-59 0 -98.5 -36.5t-47.5 -108.5h278zM133 695h59q12 -61 71 -61
t71 61h60q-8 -55 -42.5 -87t-88.5 -32t-88 31.5t-42 87.5z" />
    <glyph glyph-name="Edotaccent" unicode="&#x116;" horiz-adv-x="585" 
d="M561 0h-486v706h463v-78h-376v-226h343v-77h-343v-247h399v-78zM349 770h-75v90h75v-90z" />
    <glyph glyph-name="edotaccent" unicode="&#x117;" horiz-adv-x="516" 
d="M408 151l70 -23q-21 -66 -76.5 -103t-128.5 -37q-113 0 -173.5 71t-60.5 194q0 116 63 185t166 69q102 0 156 -69.5t55 -202.5h-360q0 -83 41 -131.5t115 -48.5q107 0 133 96zM398 297q-10 145 -132 145q-59 0 -98.5 -36.5t-47.5 -108.5h278zM296 595h-73v91h73v-91z" />
    <glyph glyph-name="Eogonek" unicode="&#x118;" horiz-adv-x="585" 
d="M561 0h-16l-21 -16q-67 -50 -67 -107q0 -23 13 -35.5t35 -12.5q29 0 46 16l23 -42q-32 -25 -78 -25q-44 0 -73.5 25t-29.5 67q0 67 94 130h-412v706h463v-78h-376v-226h343v-77h-343v-247h399v-78z" />
    <glyph glyph-name="eogonek" unicode="&#x119;" horiz-adv-x="516" 
d="M408 151l70 -23q-18 -57 -61.5 -92t-102.5 -44l-10 -8q-67 -50 -67 -107q0 -23 13 -35.5t35 -12.5q29 0 46 16l23 -42q-32 -25 -78 -25q-44 0 -73.5 25t-29.5 67q0 62 78 119q-103 7 -157.5 77t-54.5 187q0 116 63 185t166 69q102 0 156 -69.5t55 -202.5h-360
q0 -83 41 -131.5t115 -48.5q107 0 133 96zM398 297q-10 145 -132 145q-59 0 -98.5 -36.5t-47.5 -108.5h278z" />
    <glyph glyph-name="Ecaron" unicode="&#x11a;" horiz-adv-x="585" 
d="M561 0h-486v706h463v-78h-376v-226h343v-77h-343v-247h399v-78zM166 888h69l71 -67l76 67h67l-104 -119h-78z" />
    <glyph glyph-name="ecaron" unicode="&#x11b;" horiz-adv-x="516" 
d="M408 151l70 -23q-21 -66 -76.5 -103t-128.5 -37q-113 0 -173.5 71t-60.5 194q0 116 63 185t166 69q102 0 156 -69.5t55 -202.5h-360q0 -83 41 -131.5t115 -48.5q107 0 133 96zM398 297q-10 145 -132 145q-59 0 -98.5 -36.5t-47.5 -108.5h278zM138 716h65l62 -91l65 91h64
l-90 -148h-78z" />
    <glyph glyph-name="Gcircumflex" unicode="&#x11c;" horiz-adv-x="711" 
d="M638 0h-81v86q-68 -99 -215 -99q-133 0 -214.5 98.5t-81.5 259.5q0 159 86.5 267t239.5 108q210 0 268 -181l-85 -32q-41 137 -177 137q-110 0 -175.5 -79t-65.5 -216q0 -132 61.5 -208.5t165.5 -76.5q140 0 181 125q12 37 12 107h-227v77h308v-373zM507 769h-69l-71 67
l-76 -67h-67l104 119h78z" />
    <glyph glyph-name="gcircumflex" unicode="&#x11d;" horiz-adv-x="538" 
d="M388 24v54q-53 -79 -154 -79q-91 0 -143 67t-52 183t56.5 184.5t147.5 68.5q101 0 147 -71v63h79v-479q0 -136 -69 -188q-55 -41 -148 -41q-83 0 -133.5 39t-67.5 111l83 21q7 -50 39.5 -77t83.5 -27q73 0 104 39q27 34 27 132zM388 238q0 92 -32.5 144t-96.5 52
t-101.5 -48.5t-37.5 -132.5q0 -89 36.5 -140t99.5 -51q60 0 96 47t36 129zM377 568h-65l-62 91l-65 -91h-64l90 148h78z" />
    <glyph glyph-name="Gbreve" unicode="&#x11e;" horiz-adv-x="711" 
d="M638 0h-81v86q-68 -99 -215 -99q-133 0 -214.5 98.5t-81.5 259.5q0 159 86.5 267t239.5 108q210 0 268 -181l-85 -32q-41 137 -177 137q-110 0 -175.5 -79t-65.5 -216q0 -132 61.5 -208.5t165.5 -76.5q140 0 181 125q12 37 12 107h-227v77h308v-373zM229 885h62
q12 -61 74 -61t74 61h63q-8 -55 -44.5 -87t-92.5 -32q-57 0 -92.5 31.5t-43.5 87.5z" />
    <glyph glyph-name="gbreve" unicode="&#x11f;" horiz-adv-x="538" 
d="M388 24v54q-53 -79 -154 -79q-91 0 -143 67t-52 183t56.5 184.5t147.5 68.5q101 0 147 -71v63h79v-479q0 -136 -69 -188q-55 -41 -148 -41q-83 0 -133.5 39t-67.5 111l83 21q7 -50 39.5 -77t83.5 -27q73 0 104 39q27 34 27 132zM388 238q0 92 -32.5 144t-96.5 52
t-101.5 -48.5t-37.5 -132.5q0 -89 36.5 -140t99.5 -51q60 0 96 47t36 129zM122 695h59q12 -61 71 -61t71 61h60q-8 -55 -42.5 -87t-88.5 -32t-88 31.5t-42 87.5z" />
    <glyph glyph-name="Gdotaccent" unicode="&#x120;" horiz-adv-x="711" 
d="M638 0h-81v86q-68 -99 -215 -99q-133 0 -214.5 98.5t-81.5 259.5q0 159 86.5 267t239.5 108q210 0 268 -181l-85 -32q-41 137 -177 137q-110 0 -175.5 -79t-65.5 -216q0 -132 61.5 -208.5t165.5 -76.5q140 0 181 125q12 37 12 107h-227v77h308v-373zM405 770h-75v90h75
v-90z" />
    <glyph glyph-name="gdotaccent" unicode="&#x121;" horiz-adv-x="538" 
d="M388 24v54q-53 -79 -154 -79q-91 0 -143 67t-52 183t56.5 184.5t147.5 68.5q101 0 147 -71v63h79v-479q0 -136 -69 -188q-55 -41 -148 -41q-83 0 -133.5 39t-67.5 111l83 21q7 -50 39.5 -77t83.5 -27q73 0 104 39q27 34 27 132zM388 238q0 92 -32.5 144t-96.5 52
t-101.5 -48.5t-37.5 -132.5q0 -89 36.5 -140t99.5 -51q60 0 96 47t36 129zM288 595h-73v91h73v-91z" />
    <glyph glyph-name="Gcommaaccent" unicode="&#x122;" horiz-adv-x="711" 
d="M638 0h-81v86q-68 -99 -215 -99q-133 0 -214.5 98.5t-81.5 259.5q0 159 86.5 267t239.5 108q210 0 268 -181l-85 -32q-41 137 -177 137q-110 0 -175.5 -79t-65.5 -216q0 -132 61.5 -208.5t165.5 -76.5q140 0 181 125q12 37 12 107h-227v77h308v-373zM396 -33v-77
q0 -73 -48 -121l-37 27q35 35 35 87h-31v84h81z" />
    <glyph glyph-name="gcommaaccent" unicode="&#x123;" horiz-adv-x="538" 
d="M388 24v54q-53 -79 -154 -79q-91 0 -143 67t-52 183t56.5 184.5t147.5 68.5q101 0 147 -71v63h79v-479q0 -136 -69 -188q-55 -41 -148 -41q-83 0 -133.5 39t-67.5 111l83 21q7 -50 39.5 -77t83.5 -27q73 0 104 39q27 34 27 132zM388 238q0 92 -32.5 144t-96.5 52
t-101.5 -48.5t-37.5 -132.5q0 -89 36.5 -140t99.5 -51q60 0 96 47t36 129zM216 568v77q0 73 48 121l37 -27q-35 -35 -35 -87h31v-84h-81z" />
    <glyph glyph-name="Hcircumflex" unicode="&#x124;" horiz-adv-x="695" 
d="M620 0h-85v329h-376v-329h-84v706h84v-301h376v301h85v-706zM487 769h-69l-71 67l-76 -67h-67l104 119h78z" />
    <glyph glyph-name="hcircumflex" unicode="&#x125;" horiz-adv-x="528" 
d="M465 0h-78v298q0 75 -26 105q-26 29 -76 29q-58 0 -100 -51q-37 -44 -37 -144v-237h-79v706h79v-289q25 40 69.5 62.5t96.5 22.5q89 0 126 -61q25 -41 25 -146v-295zM250 769h-69l-71 67l-76 -67h-67l104 119h78z" />
    <glyph glyph-name="Hbar" unicode="&#x126;" horiz-adv-x="695" 
d="M620 0h-85v329h-376v-329h-84v526h-69v75h69v105h84v-105h376v105h85v-105h69v-75h-69v-526zM159 405h376v121h-376v-121z" />
    <glyph glyph-name="hbar" unicode="&#x127;" horiz-adv-x="528" 
d="M314 557h-166v-140q25 40 69.5 62.5t96.5 22.5q89 0 126 -61q25 -41 25 -146v-295h-78v298q0 75 -26 105q-26 29 -76 29q-58 0 -100 -51q-37 -44 -37 -144v-237h-79v557h-69v66h69v83h79v-83h166v-66z" />
    <glyph glyph-name="Itilde" unicode="&#x128;" horiz-adv-x="235" 
d="M160 0h-85v706h85v-706zM271 841q-38 -70 -94 -70q-27 0 -54 15l-24 13q-19 11 -36 11q-33 0 -50 -40l-49 33q19 39 41 56t53 17q25 0 51 -13l23 -12q30 -14 40 -14q17 0 27.5 7.5t22.5 29.5z" />
    <glyph glyph-name="itilde" unicode="&#x129;" 
d="M148 0h-79v494h79v-494zM258 653q-36 -70 -90 -70q-26 0 -54 15l-24 13q-22 11 -35 11q-32 0 -49 -41l-47 34q18 39 39 56t52 17q26 0 50 -13l23 -12q28 -14 39 -14q16 0 25.5 7.5t23.5 30.5z" />
    <glyph glyph-name="uni012A" unicode="&#x12a;" horiz-adv-x="235" 
d="M240 786h-245v65h245v-65zM160 0h-85v706h85v-706z" />
    <glyph glyph-name="imacron" unicode="&#x12b;" 
d="M221 596h-225v65h225v-65zM148 0h-79v494h79v-494z" />
    <glyph glyph-name="Ibreve" unicode="&#x12c;" horiz-adv-x="235" 
d="M160 0h-85v706h85v-706zM-19 885h62q12 -61 74 -61t74 61h63q-8 -55 -44.5 -87t-92.5 -32q-57 0 -92.5 31.5t-43.5 87.5z" />
    <glyph glyph-name="uni012D" unicode="&#x12d;" 
d="M148 0h-79v494h79v-494zM-22 695h59q12 -61 71 -61t71 61h60q-8 -55 -42.5 -87t-88.5 -32t-88 31.5t-42 87.5z" />
    <glyph glyph-name="Iogonek" unicode="&#x12e;" horiz-adv-x="235" 
d="M160 0h-7l-21 -16q-67 -50 -67 -107q0 -23 13 -35.5t35 -12.5q29 0 46 16l23 -42q-32 -25 -78 -25q-44 0 -73.5 25t-29.5 67q0 67 94 130h-20v706h85v-706z" />
    <glyph glyph-name="iogonek" unicode="&#x12f;" 
d="M148 0h-7l-21 -16q-67 -50 -67 -107q0 -23 13 -35.5t35 -12.5q29 0 46 16l23 -42q-32 -25 -78 -25q-44 0 -73.5 25t-29.5 67q0 67 94 130h-14v494h79v-494zM149 617h-81v89h81v-89z" />
    <glyph glyph-name="Idotaccent" unicode="&#x130;" horiz-adv-x="235" 
d="M160 0h-85v706h85v-706zM155 770h-75v90h75v-90z" />
    <glyph glyph-name="dotlessi" unicode="&#x131;" 
d="M148 0h-79v494h79v-494z" />
    <glyph glyph-name="IJ" unicode="&#x132;" horiz-adv-x="638" 
d="M160 0h-85v706h85v-706zM563 706v-488q0 -52 -7.5 -90t-27 -72t-59.5 -52t-100 -18q-73 0 -134 33l30 83q51 -39 101 -39q58 0 85 36t27 135v472h85z" />
    <glyph glyph-name="ij" unicode="&#x133;" horiz-adv-x="452" 
d="M148 0h-79v494h79v-494zM149 617h-81v89h81v-89zM305 494h78v-534q0 -51 -4 -78t-19 -47q-35 -49 -122 -49q-25 0 -47 5v68q21 -6 36 -6q51 0 64.5 23t13.5 92v526zM304 706h80v-91h-80v91z" />
    <glyph glyph-name="Jcircumflex" unicode="&#x134;" horiz-adv-x="403" 
d="M328 706v-488q0 -52 -7.5 -90t-27 -72t-59.5 -52t-100 -18q-73 0 -134 33l30 83q51 -39 101 -39q58 0 85 36t27 135v472h85zM426 769h-69l-71 67l-76 -67h-67l104 119h78z" />
    <glyph glyph-name="jcircumflex" unicode="&#x135;" horiz-adv-x="235" 
d="M88 494h78v-534q0 -51 -4 -78t-19 -47q-35 -49 -122 -49q-25 0 -47 5v68q21 -6 36 -6q51 0 64.5 23t13.5 92v526zM255 568h-65l-62 91l-65 -91h-64l90 148h78z" />
    <glyph glyph-name="Kcommaaccent" unicode="&#x136;" horiz-adv-x="644" 
d="M644 0h-99l-243 370l-143 -154v-216h-84v706h84v-382l351 382h106l-257 -274zM351 -33v-77q0 -73 -48 -121l-37 27q35 35 35 87h-31v84h81z" />
    <glyph glyph-name="kcommaaccent" unicode="&#x137;" horiz-adv-x="488" 
d="M488 0h-93l-159 250l-89 -94v-156h-78v706h78v-459l222 247h97l-174 -189zM311 -33v-77q0 -73 -48 -121l-37 27q35 35 35 87h-31v84h81z" />
    <glyph glyph-name="kgreenlandic" unicode="&#x138;" horiz-adv-x="488" 
d="M488 0h-93l-159 250l-89 -94v-156h-78v494h78v-247l222 247h97l-174 -189z" />
    <glyph glyph-name="Lacute" unicode="&#x139;" horiz-adv-x="548" 
d="M521 0h-446v706h85v-628h361v-78zM143 770h-72l96 118h107z" />
    <glyph glyph-name="lacute" unicode="&#x13a;" 
d="M148 0h-79v706h79v-706zM130 770h-72l96 118h107z" />
    <glyph glyph-name="Lcommaaccent" unicode="&#x13b;" horiz-adv-x="548" 
d="M521 0h-446v706h85v-628h361v-78zM351 -33v-77q0 -73 -48 -121l-37 27q35 35 35 87h-31v84h81z" />
    <glyph glyph-name="lcommaaccent" unicode="&#x13c;" 
d="M148 0h-79v706h79v-706zM150 -33v-77q0 -73 -48 -121l-37 27q35 35 35 87h-31v84h81z" />
    <glyph glyph-name="Lcaron" unicode="&#x13d;" horiz-adv-x="548" 
d="M521 0h-446v706h85v-628h361v-78zM319 706v-85q0 -80 -51 -134l-39 30q37 38 37 96h-32v93h85z" />
    <glyph glyph-name="lcaron" unicode="&#x13e;" 
d="M148 0h-79v706h79v-706zM273 706v-85q0 -80 -51 -134l-39 30q37 38 37 96h-32v93h85z" />
    <glyph glyph-name="Ldot" unicode="&#x13f;" horiz-adv-x="548" 
d="M521 0h-446v706h85v-628h361v-78zM413 330h-89v103h89v-103z" />
    <glyph glyph-name="ldot" unicode="&#x140;" horiz-adv-x="236" 
d="M148 0h-79v706h79v-706zM265 324h-79v95h79v-95z" />
    <glyph glyph-name="Lslash" unicode="&#x141;" horiz-adv-x="548" 
d="M399 411l-239 -121v-212h361v-78h-446v253l-74 -37v81l74 37v372h85v-335l239 120v-80z" />
    <glyph glyph-name="lslash" unicode="&#x142;" 
d="M148 0h-79v315l-69 -43v68l69 44v322h79v-276l64 41v-70l-64 -41v-360z" />
    <glyph glyph-name="Nacute" unicode="&#x143;" horiz-adv-x="706" 
d="M631 0h-97q-367 570 -380 590q3 -72 3 -590h-82v706h99q320 -498 377 -592q-3 207 -3 592h83v-706zM356 770h-72l96 118h107z" />
    <glyph glyph-name="nacute" unicode="&#x144;" horiz-adv-x="528" 
d="M465 0h-78v298q0 68 -20 98q-23 36 -82 36q-58 0 -100 -51q-37 -44 -37 -144v-237h-79v494h79v-77q25 40 69.5 62.5t96.5 22.5q88 0 128 -66q23 -38 23 -134v-302zM279 568h-60l76 148h96z" />
    <glyph glyph-name="Ncommaaccent" unicode="&#x145;" horiz-adv-x="706" 
d="M631 0h-97q-367 570 -380 590q3 -72 3 -590h-82v706h99q320 -498 377 -592q-3 207 -3 592h83v-706zM399 -33v-77q0 -73 -48 -121l-37 27q35 35 35 87h-31v84h81z" />
    <glyph glyph-name="ncommaaccent" unicode="&#x146;" horiz-adv-x="528" 
d="M465 0h-78v298q0 68 -20 98q-23 36 -82 36q-58 0 -100 -51q-37 -44 -37 -144v-237h-79v494h79v-77q25 40 69.5 62.5t96.5 22.5q88 0 128 -66q23 -38 23 -134v-302zM315 -33v-77q0 -73 -48 -121l-37 27q35 35 35 87h-31v84h81z" />
    <glyph glyph-name="Ncaron" unicode="&#x147;" horiz-adv-x="706" 
d="M631 0h-97q-367 570 -380 590q3 -72 3 -590h-82v706h99q320 -498 377 -592q-3 207 -3 592h83v-706zM218 888h69l71 -67l76 67h67l-104 -119h-78z" />
    <glyph glyph-name="ncaron" unicode="&#x148;" horiz-adv-x="528" 
d="M465 0h-78v298q0 68 -20 98q-23 36 -82 36q-58 0 -100 -51q-37 -44 -37 -144v-237h-79v494h79v-77q25 40 69.5 62.5t96.5 22.5q88 0 128 -66q23 -38 23 -134v-302zM136 716h65l62 -91l65 91h64l-90 -148h-78z" />
    <glyph glyph-name="napostrophe" unicode="&#x149;" horiz-adv-x="528" 
d="M465 0h-78v298q0 68 -20 98q-23 36 -82 36q-58 0 -100 -51q-37 -44 -37 -144v-237h-79v494h79v-77q25 40 69.5 62.5t96.5 22.5q88 0 128 -66q23 -38 23 -134v-302zM85 706v-85q0 -80 -51 -134l-39 30q37 38 37 96h-32v93h85z" />
    <glyph glyph-name="Eng" unicode="&#x14a;" horiz-adv-x="706" 
d="M631 -40q0 -52 -4 -79t-19 -47q-35 -49 -126 -49q-28 0 -50 5v72q21 -7 41 -7q49 0 62 22.5t13 90.5v20q-69 106 -207 316.5t-187 285.5q3 -72 3 -590h-82v706h99q318 -484 377 -581q-3 207 -3 581h83v-746z" />
    <glyph glyph-name="eng" unicode="&#x14b;" horiz-adv-x="528" 
d="M465 302v-342q0 -51 -4 -78t-19 -47q-35 -49 -122 -49q-25 0 -47 5v68q21 -6 36 -6q51 0 64.5 23t13.5 92v330q0 68 -20 98q-23 36 -82 36q-58 0 -100 -51q-37 -44 -37 -144v-237h-79v494h79v-77q25 40 69.5 62.5t96.5 22.5q88 0 128 -66q23 -38 23 -134z" />
    <glyph glyph-name="Omacron" unicode="&#x14c;" horiz-adv-x="712" 
d="M364 -14q-122 0 -201 70q-56 49 -86.5 128.5t-30.5 175.5q0 165 85 262.5t229 97.5q140 0 219 -96q87 -107 87 -276q0 -167 -81 -264.5t-221 -97.5zM575 348q0 137 -58.5 216.5t-158.5 79.5q-102 0 -162 -75t-60 -206q0 -138 61.5 -218.5t164.5 -80.5q97 0 155 76t58 208
zM486 786h-261v65h261v-65z" />
    <glyph glyph-name="omacron" unicode="&#x14d;" horiz-adv-x="536" 
d="M269 -12q-111 0 -170.5 70t-59.5 192q0 119 63 188t173 69q104 0 163 -70t59 -193q0 -118 -61.5 -187t-166.5 -69zM415 244q0 91 -38 143.5t-105 52.5q-69 0 -110 -50t-41 -134q0 -93 40 -147t107 -54q68 0 107.5 50.5t39.5 138.5zM392 596h-249v65h249v-65z" />
    <glyph glyph-name="Obreve" unicode="&#x14e;" horiz-adv-x="712" 
d="M364 -14q-122 0 -201 70q-56 49 -86.5 128.5t-30.5 175.5q0 165 85 262.5t229 97.5q140 0 219 -96q87 -107 87 -276q0 -167 -81 -264.5t-221 -97.5zM575 348q0 137 -58.5 216.5t-158.5 79.5q-102 0 -162 -75t-60 -206q0 -138 61.5 -218.5t164.5 -80.5q97 0 155 76t58 208
zM219 885h62q12 -61 74 -61t74 61h63q-8 -55 -44.5 -87t-92.5 -32q-57 0 -92.5 31.5t-43.5 87.5z" />
    <glyph glyph-name="obreve" unicode="&#x14f;" horiz-adv-x="536" 
d="M269 -12q-111 0 -170.5 70t-59.5 192q0 119 63 188t173 69q104 0 163 -70t59 -193q0 -118 -61.5 -187t-166.5 -69zM415 244q0 91 -38 143.5t-105 52.5q-69 0 -110 -50t-41 -134q0 -93 40 -147t107 -54q68 0 107.5 50.5t39.5 138.5zM137 695h59q12 -61 71 -61t71 61h60
q-8 -55 -42.5 -87t-88.5 -32t-88 31.5t-42 87.5z" />
    <glyph glyph-name="Ohungarumlaut" unicode="&#x150;" horiz-adv-x="712" 
d="M364 -14q-122 0 -201 70q-56 49 -86.5 128.5t-30.5 175.5q0 165 85 262.5t229 97.5q140 0 219 -96q87 -107 87 -276q0 -167 -81 -264.5t-221 -97.5zM575 348q0 137 -58.5 216.5t-158.5 79.5q-102 0 -162 -75t-60 -206q0 -138 61.5 -218.5t164.5 -80.5q97 0 155 76t58 208
zM299 770h-56l76 118h93zM440 770h-56l76 118h94z" />
    <glyph glyph-name="ohungarumlaut" unicode="&#x151;" horiz-adv-x="536" 
d="M269 -12q-111 0 -170.5 70t-59.5 192q0 119 63 188t173 69q104 0 163 -70t59 -193q0 -118 -61.5 -187t-166.5 -69zM415 244q0 91 -38 143.5t-105 52.5q-69 0 -110 -50t-41 -134q0 -93 40 -147t107 -54q68 0 107.5 50.5t39.5 138.5zM219 568h-49l66 148h86zM357 568h-49
l66 148h87z" />
    <glyph glyph-name="OE" unicode="&#x152;" horiz-adv-x="1086" 
d="M573 595v111h462v-79h-377v-225h344v-78h-344v-246h400v-78h-485v110q-22 -39 -59 -72q-59 -52 -167 -52q-131 0 -216 99.5t-85 269.5q0 168 83.5 266.5t218.5 98.5q105 0 168 -51q38 -31 57 -74zM575 348q0 137 -58.5 216.5t-158.5 79.5q-102 0 -162 -76.5t-60 -210.5
q0 -136 61 -214.5t164 -78.5q98 0 156 76t58 208z" />
    <glyph glyph-name="oe" unicode="&#x153;" horiz-adv-x="891" 
d="M783 150l70 -23q-21 -66 -76.5 -103t-128.5 -37q-136 0 -192 107q-53 -106 -187 -106q-111 0 -170.5 69.5t-59.5 191.5q0 119 63 188t173 69q125 0 181 -105q60 105 187 105q102 0 156 -69t55 -202h-360q0 -83 41 -131.5t115 -48.5q107 0 133 95zM415 243q0 91 -38 143.5
t-105 52.5q-69 0 -110 -50t-41 -134q0 -93 40 -146.5t107 -53.5q68 0 107.5 50t39.5 138zM773 297q-10 146 -132 146q-59 0 -98.5 -37t-47.5 -109h278z" />
    <glyph glyph-name="Racute" unicode="&#x154;" horiz-adv-x="634" 
d="M613 0h-101l-200 299h-153v-299h-84v706h217q136 0 189 -21q50 -20 79.5 -67.5t29.5 -110.5q0 -82 -49.5 -133t-142.5 -64zM159 374h156q95 0 140.5 32t45.5 102q0 63 -43 96q-20 16 -51.5 21.5t-93.5 5.5h-154v-257zM291 770h-72l96 118h107z" />
    <glyph glyph-name="racute" unicode="&#x155;" horiz-adv-x="333" 
d="M148 0h-79v494h75v-80q44 86 140 86q20 0 45 -6v-84q-23 13 -54 13q-74 0 -108 -63q-19 -35 -19 -113v-247zM190 568h-60l76 148h96z" />
    <glyph glyph-name="Rcommaaccent" unicode="&#x156;" horiz-adv-x="634" 
d="M613 0h-101l-200 299h-153v-299h-84v706h217q136 0 189 -21q50 -20 79.5 -67.5t29.5 -110.5q0 -82 -49.5 -133t-142.5 -64zM159 374h156q95 0 140.5 32t45.5 102q0 63 -43 96q-20 16 -51.5 21.5t-93.5 5.5h-154v-257zM350 -33v-77q0 -73 -48 -121l-37 27q35 35 35 87h-31
v84h81z" />
    <glyph glyph-name="rcommaaccent" unicode="&#x157;" horiz-adv-x="333" 
d="M148 0h-79v494h75v-80q44 86 140 86q20 0 45 -6v-84q-23 13 -54 13q-74 0 -108 -63q-19 -35 -19 -113v-247zM149 -33v-77q0 -73 -48 -121l-37 27q35 35 35 87h-31v84h81z" />
    <glyph glyph-name="Rcaron" unicode="&#x158;" horiz-adv-x="634" 
d="M613 0h-101l-200 299h-153v-299h-84v706h217q136 0 189 -21q50 -20 79.5 -67.5t29.5 -110.5q0 -82 -49.5 -133t-142.5 -64zM159 374h156q95 0 140.5 32t45.5 102q0 63 -43 96q-20 16 -51.5 21.5t-93.5 5.5h-154v-257zM158 888h69l71 -67l76 67h67l-104 -119h-78z" />
    <glyph glyph-name="rcaron" unicode="&#x159;" horiz-adv-x="333" 
d="M148 0h-79v494h75v-80q44 86 140 86q20 0 45 -6v-84q-23 13 -54 13q-74 0 -108 -63q-19 -35 -19 -113v-247zM50 716h65l62 -91l65 91h64l-90 -148h-78z" />
    <glyph glyph-name="Sacute" unicode="&#x15a;" horiz-adv-x="594" 
d="M22 175l80 37q52 -152 194 -152q73 0 118 33t45 91q0 48 -30.5 73.5t-118.5 54.5l-58 19q-101 33 -147 78.5t-46 119.5q0 84 67 137.5t166 53.5q90 0 157 -39.5t99 -117.5l-77 -38q-44 123 -175 123q-71 0 -110 -31.5t-39 -81.5q0 -45 31.5 -69t120.5 -54l60 -20
q102 -34 146.5 -79.5t44.5 -123.5q0 -93 -71.5 -148.5t-182.5 -55.5q-203 0 -274 190zM329 770h-72l96 118h107z" />
    <glyph glyph-name="sacute" unicode="&#x15b;" horiz-adv-x="436" 
d="M20 118l73 34q14 -47 47.5 -73t80.5 -26t76 18.5t29 51.5t-20.5 50.5t-83.5 38.5l-53 18q-123 41 -123 141q0 57 49.5 97t127.5 40q132 0 182 -118l-72 -32q-26 87 -111 87q-48 0 -73.5 -19.5t-25.5 -49.5t20 -47t73 -34l48 -15q68 -21 104.5 -54t36.5 -91
q0 -66 -50.5 -106.5t-133.5 -40.5q-79 0 -128.5 36.5t-72.5 93.5zM241 568h-60l76 148h96z" />
    <glyph glyph-name="Scircumflex" unicode="&#x15c;" horiz-adv-x="594" 
d="M22 175l80 37q52 -152 194 -152q73 0 118 33t45 91q0 48 -30.5 73.5t-118.5 54.5l-58 19q-101 33 -147 78.5t-46 119.5q0 84 67 137.5t166 53.5q90 0 157 -39.5t99 -117.5l-77 -38q-44 123 -175 123q-71 0 -110 -31.5t-39 -81.5q0 -45 31.5 -69t120.5 -54l60 -20
q102 -34 146.5 -79.5t44.5 -123.5q0 -93 -71.5 -148.5t-182.5 -55.5q-203 0 -274 190zM440 769h-69l-71 67l-76 -67h-67l104 119h78z" />
    <glyph glyph-name="scircumflex" unicode="&#x15d;" horiz-adv-x="436" 
d="M20 118l73 34q14 -47 47.5 -73t80.5 -26t76 18.5t29 51.5t-20.5 50.5t-83.5 38.5l-53 18q-123 41 -123 141q0 57 49.5 97t127.5 40q132 0 182 -118l-72 -32q-26 87 -111 87q-48 0 -73.5 -19.5t-25.5 -49.5t20 -47t73 -34l48 -15q68 -21 104.5 -54t36.5 -91
q0 -66 -50.5 -106.5t-133.5 -40.5q-79 0 -128.5 36.5t-72.5 93.5zM351 568h-65l-62 91l-65 -91h-64l90 148h78z" />
    <glyph glyph-name="Scedilla" unicode="&#x15e;" horiz-adv-x="594" 
d="M22 175l80 37q52 -152 194 -152q73 0 118 33t45 91q0 48 -30.5 73.5t-118.5 54.5l-58 19q-101 33 -147 78.5t-46 119.5q0 84 67 137.5t166 53.5q90 0 157 -39.5t99 -117.5l-77 -38q-44 123 -175 123q-71 0 -110 -31.5t-39 -81.5q0 -45 31.5 -69t120.5 -54l60 -20
q102 -34 146.5 -79.5t44.5 -123.5q0 -87 -64 -141.5t-166 -61.5l-20 -43q12 2 20 2q37 0 60 -20t23 -57q0 -43 -28.5 -68.5t-74.5 -25.5q-51 0 -82 28l26 42q23 -22 53 -22q20 0 31.5 12t11.5 30q0 37 -45 37q-19 0 -41 -11l-17 22l37 74q-186 10 -252 189z" />
    <glyph glyph-name="scedilla" unicode="&#x15f;" horiz-adv-x="436" 
d="M20 118l73 34q14 -47 47.5 -73t80.5 -26t76 18.5t29 51.5t-20.5 50.5t-83.5 38.5l-53 18q-123 41 -123 141q0 57 49.5 97t127.5 40q132 0 182 -118l-72 -32q-26 87 -111 87q-48 0 -73.5 -19.5t-25.5 -49.5t20 -47t73 -34l48 -15q68 -21 104.5 -54t36.5 -91
q0 -63 -46.5 -102.5t-123.5 -43.5l-18 -42q12 2 20 2q38 0 60.5 -21t22.5 -56q0 -43 -28.5 -68.5t-74.5 -25.5q-50 0 -81 28l26 42q23 -22 52 -22q20 0 31.5 12t11.5 30q0 37 -45 37q-19 0 -41 -11l-17 22l38 74q-127 12 -172 128z" />
    <glyph glyph-name="Scaron" unicode="&#x160;" horiz-adv-x="594" 
d="M22 175l80 37q52 -152 194 -152q73 0 118 33t45 91q0 48 -30.5 73.5t-118.5 54.5l-58 19q-101 33 -147 78.5t-46 119.5q0 84 67 137.5t166 53.5q90 0 157 -39.5t99 -117.5l-77 -38q-44 123 -175 123q-71 0 -110 -31.5t-39 -81.5q0 -45 31.5 -69t120.5 -54l60 -20
q102 -34 146.5 -79.5t44.5 -123.5q0 -93 -71.5 -148.5t-182.5 -55.5q-203 0 -274 190zM151 888h69l71 -67l76 67h67l-104 -119h-78z" />
    <glyph glyph-name="scaron" unicode="&#x161;" horiz-adv-x="436" 
d="M20 118l73 34q14 -47 47.5 -73t80.5 -26t76 18.5t29 51.5t-20.5 50.5t-83.5 38.5l-53 18q-123 41 -123 141q0 57 49.5 97t127.5 40q132 0 182 -118l-72 -32q-26 87 -111 87q-48 0 -73.5 -19.5t-25.5 -49.5t20 -47t73 -34l48 -15q68 -21 104.5 -54t36.5 -91
q0 -66 -50.5 -106.5t-133.5 -40.5q-79 0 -128.5 36.5t-72.5 93.5zM89 716h65l62 -91l65 91h64l-90 -148h-78z" />
    <glyph glyph-name="Tcommaaccent" unicode="&#x162;" horiz-adv-x="558" 
d="M322 0h-87v628h-210v78h508v-78h-211v-628zM318 -33v-77q0 -73 -48 -121l-37 27q35 35 35 87h-31v84h81z" />
    <glyph glyph-name="tcommaaccent" unicode="&#x163;" horiz-adv-x="287" 
d="M275 69v-66q-29 -10 -68 -10q-55 0 -83.5 27t-28.5 97v311h-88v66h89v160h78v-160h99v-66h-99v-291q0 -41 13 -59.5t43 -18.5q19 0 45 10zM222 -33v-77q0 -73 -48 -121l-37 27q35 35 35 87h-31v84h81z" />
    <glyph glyph-name="Tcaron" unicode="&#x164;" horiz-adv-x="558" 
d="M322 0h-87v628h-210v78h508v-78h-211v-628zM137 888h69l71 -67l76 67h67l-104 -119h-78z" />
    <glyph glyph-name="tcaron" unicode="&#x165;" horiz-adv-x="287" 
d="M275 69v-66q-29 -10 -68 -10q-55 0 -83.5 27t-28.5 97v311h-88v66h89v160h78v-160h99v-66h-99v-291q0 -41 13 -59.5t43 -18.5q19 0 45 10zM300 726v-85q0 -80 -51 -134l-39 30q37 38 37 96h-32v93h85z" />
    <glyph glyph-name="Tbar" unicode="&#x166;" horiz-adv-x="558" 
d="M322 0h-87v409h-160v75h160v144h-210v78h508v-78h-211v-144h161v-75h-161v-409z" />
    <glyph glyph-name="tbar" unicode="&#x167;" horiz-adv-x="287" 
d="M262 280h-88v-143q0 -41 13 -59.5t43 -18.5q19 0 45 10v-66q-29 -10 -68 -10q-55 0 -83.5 27t-28.5 97v163h-78v66h78v82h-88v66h89v160h78v-160h99v-66h-99v-82h88v-66z" />
    <glyph glyph-name="Utilde" unicode="&#x168;" horiz-adv-x="683" 
d="M608 706v-390q0 -93 -10.5 -145.5t-36.5 -89.5q-66 -95 -222 -95t-218 93q-29 44 -37.5 93t-8.5 137v397h85v-429q0 -92 30 -143q43 -72 151 -72q109 0 152 69q30 48 30 151v424h85zM495 841q-38 -70 -94 -70q-27 0 -54 15l-24 13q-19 11 -36 11q-33 0 -50 -40l-49 33
q19 39 41 56t53 17q25 0 51 -13l23 -12q30 -14 40 -14q17 0 27.5 7.5t22.5 29.5z" />
    <glyph glyph-name="utilde" unicode="&#x169;" horiz-adv-x="528" 
d="M63 494h78v-296q0 -63 20 -95q26 -41 87 -41q52 0 89 40q43 48 43 120v272h79v-494h-79v73q-61 -81 -158 -81q-86 0 -129 59q-30 42 -30 129v314zM413 653q-36 -70 -90 -70q-26 0 -54 15l-24 13q-22 11 -35 11q-32 0 -49 -41l-47 34q18 39 39 56t52 17q26 0 50 -13
l23 -12q28 -14 39 -14q16 0 25.5 7.5t23.5 30.5z" />
    <glyph glyph-name="Umacron" unicode="&#x16a;" horiz-adv-x="683" 
d="M608 706v-390q0 -93 -10.5 -145.5t-36.5 -89.5q-66 -95 -222 -95t-218 93q-29 44 -37.5 93t-8.5 137v397h85v-429q0 -92 30 -143q43 -72 151 -72q109 0 152 69q30 48 30 151v424h85zM472 786h-261v65h261v-65z" />
    <glyph glyph-name="umacron" unicode="&#x16b;" horiz-adv-x="528" 
d="M63 494h78v-296q0 -63 20 -95q26 -41 87 -41q52 0 89 40q43 48 43 120v272h79v-494h-79v73q-61 -81 -158 -81q-86 0 -129 59q-30 42 -30 129v314zM388 596h-249v65h249v-65z" />
    <glyph glyph-name="Ubreve" unicode="&#x16c;" horiz-adv-x="683" 
d="M608 706v-390q0 -93 -10.5 -145.5t-36.5 -89.5q-66 -95 -222 -95t-218 93q-29 44 -37.5 93t-8.5 137v397h85v-429q0 -92 30 -143q43 -72 151 -72q109 0 152 69q30 48 30 151v424h85zM205 885h62q12 -61 74 -61t74 61h63q-8 -55 -44.5 -87t-92.5 -32q-57 0 -92.5 31.5
t-43.5 87.5z" />
    <glyph glyph-name="ubreve" unicode="&#x16d;" horiz-adv-x="528" 
d="M63 494h78v-296q0 -63 20 -95q26 -41 87 -41q52 0 89 40q43 48 43 120v272h79v-494h-79v73q-61 -81 -158 -81q-86 0 -129 59q-30 42 -30 129v314zM133 695h59q12 -61 71 -61t71 61h60q-8 -55 -42.5 -87t-88.5 -32t-88 31.5t-42 87.5z" />
    <glyph glyph-name="Uring" unicode="&#x16e;" horiz-adv-x="683" 
d="M608 706v-390q0 -93 -10.5 -145.5t-36.5 -89.5q-66 -95 -222 -95t-218 93q-29 44 -37.5 93t-8.5 137v397h85v-429q0 -92 30 -143q43 -72 151 -72q109 0 152 69q30 48 30 151v424h85zM339 900q43 0 68.5 -23t25.5 -65q0 -38 -25.5 -62.5t-65.5 -24.5q-41 0 -66.5 24.5
t-25.5 63.5q0 38 25 62.5t64 24.5zM342 862q-22 0 -35.5 -13t-13.5 -36q0 -22 13.5 -36.5t35.5 -14.5q21 0 34.5 14.5t13.5 35.5q0 23 -13 36.5t-35 13.5z" />
    <glyph glyph-name="uring" unicode="&#x16f;" horiz-adv-x="528" 
d="M63 494h78v-296q0 -63 20 -95q26 -41 87 -41q52 0 89 40q43 48 43 120v272h79v-494h-79v73q-61 -81 -158 -81q-86 0 -129 59q-30 42 -30 129v314zM261 720q41 0 67.5 -25t26.5 -63t-25.5 -62.5t-65.5 -24.5q-41 0 -66.5 24.5t-25.5 63.5q0 38 25 62.5t64 24.5zM264 683
q-23 0 -37 -13.5t-14 -36.5q0 -22 14.5 -37t36.5 -15q21 0 35.5 15t14.5 36q0 23 -14 37t-36 14z" />
    <glyph glyph-name="Uhungarumlaut" unicode="&#x170;" horiz-adv-x="683" 
d="M608 706v-390q0 -93 -10.5 -145.5t-36.5 -89.5q-66 -95 -222 -95t-218 93q-29 44 -37.5 93t-8.5 137v397h85v-429q0 -92 30 -143q43 -72 151 -72q109 0 152 69q30 48 30 151v424h85zM287 770h-56l76 118h93zM428 770h-56l76 118h94z" />
    <glyph glyph-name="uhungarumlaut" unicode="&#x171;" horiz-adv-x="528" 
d="M63 494h78v-296q0 -63 20 -95q26 -41 87 -41q52 0 89 40q43 48 43 120v272h79v-494h-79v73q-61 -81 -158 -81q-86 0 -129 59q-30 42 -30 129v314zM210 568h-49l66 148h86zM348 568h-49l66 148h87z" />
    <glyph glyph-name="Uogonek" unicode="&#x172;" horiz-adv-x="683" 
d="M608 706v-390q0 -93 -10.5 -145.5t-36.5 -89.5q-54 -76 -164 -91l-8 -6q-67 -50 -67 -107q0 -23 13 -35.5t35 -12.5q29 0 46 16l23 -42q-32 -25 -78 -25q-44 0 -73.5 25t-29.5 67q0 60 74 116q-152 3 -211 93q-29 44 -37.5 93t-8.5 137v397h85v-429q0 -92 30 -143
q43 -72 151 -72q109 0 152 69q30 48 30 151v424h85z" />
    <glyph glyph-name="uogonek" unicode="&#x173;" horiz-adv-x="528" 
d="M63 494h78v-296q0 -63 20 -95q26 -41 87 -41q52 0 89 40q43 48 43 120v272h79v-494h-7l-21 -16q-67 -50 -67 -107q0 -23 13 -35.5t35 -12.5q29 0 46 16l23 -42q-32 -25 -78 -25q-44 0 -73.5 25t-29.5 67q0 67 94 130h-14v73q-61 -81 -158 -81q-86 0 -129 59
q-30 42 -30 129v314z" />
    <glyph glyph-name="Wcircumflex" unicode="&#x174;" horiz-adv-x="865" 
d="M395 706h80q145 -540 158 -595q30 139 148 595h84l-188 -706h-83q-132 468 -158 587q-35 -152 -158 -587h-84l-194 706h88q111 -423 154 -596q51 212 153 596zM578 769h-69l-71 67l-76 -67h-67l104 119h78z" />
    <glyph glyph-name="wcircumflex" unicode="&#x175;" horiz-adv-x="700" 
d="M547 0h-82q-97 327 -114 397q-25 -104 -117 -397h-82l-152 494h85q10 -36 54 -190.5t61 -216.5q38 153 112 407h80q94 -332 112 -406q50 187 115 406h81zM479 568h-65l-62 91l-65 -91h-64l90 148h78z" />
    <glyph glyph-name="Ycircumflex" unicode="&#x176;" horiz-adv-x="598" 
d="M339 0h-85v294l-254 412h100q156 -267 199 -347q38 72 206 347h93l-259 -412v-294zM439 769h-69l-71 67l-76 -67h-67l104 119h78z" />
    <glyph glyph-name="ycircumflex" unicode="&#x177;" horiz-adv-x="458" 
d="M187 -19l-187 513h88q36 -103 143 -427q71 225 142 427h85l-205 -559q-31 -86 -67.5 -117.5t-104.5 -31.5q-28 0 -52 6v69q22 -8 46 -8q38 0 56.5 12.5t37.5 65.5zM357 568h-65l-62 91l-65 -91h-64l90 148h78z" />
    <glyph glyph-name="Ydieresis" unicode="&#x178;" horiz-adv-x="598" 
d="M339 0h-85v294l-254 412h100q156 -267 199 -347q38 72 206 347h93l-259 -412v-294zM221 770h-74v90h74v-90zM460 770h-74v90h74v-90z" />
    <glyph glyph-name="Zacute" unicode="&#x179;" horiz-adv-x="582" 
d="M550 0h-521v66l414 562h-393v78h502v-68l-411 -560h409v-78zM315 770h-72l96 118h107z" />
    <glyph glyph-name="zacute" unicode="&#x17a;" horiz-adv-x="428" 
d="M400 0h-374v48l265 380h-252v66h354v-48l-261 -378h268v-68zM239 568h-60l76 148h96z" />
    <glyph glyph-name="Zdotaccent" unicode="&#x17b;" horiz-adv-x="582" 
d="M550 0h-521v66l414 562h-393v78h502v-68l-411 -560h409v-78zM344 770h-75v90h75v-90z" />
    <glyph glyph-name="zdotaccent" unicode="&#x17c;" horiz-adv-x="428" 
d="M400 0h-374v48l265 380h-252v66h354v-48l-261 -378h268v-68zM250 595h-73v91h73v-91z" />
    <glyph glyph-name="Zcaron" unicode="&#x17d;" horiz-adv-x="582" 
d="M550 0h-521v66l414 562h-393v78h502v-68l-411 -560h409v-78zM161 888h69l71 -67l76 67h67l-104 -119h-78z" />
    <glyph glyph-name="zcaron" unicode="&#x17e;" horiz-adv-x="428" 
d="M400 0h-374v48l265 380h-252v66h354v-48l-261 -378h268v-68zM89 716h65l62 -91l65 91h64l-90 -148h-78z" />
    <glyph glyph-name="longs" unicode="&#x17f;" horiz-adv-x="253" 
d="M148 559v-559h-79v560q0 80 25 112q31 41 100 41q35 0 61 -9v-69q-23 11 -48 11q-34 0 -48 -20q-11 -15 -11 -67z" />
    <glyph glyph-name="florin" unicode="&#x192;" horiz-adv-x="424" 
d="M89 374v59h95l11 93q10 86 30 119q36 57 105 57q35 0 64 -10l-11 -73q-19 10 -41 10q-34 0 -49.5 -24t-22.5 -92l-9 -80h101v-59h-104l-31 -328q-9 -89 -29 -122q-35 -58 -108 -58q-32 0 -65 11l11 73q21 -12 41 -12q35 0 50.5 20t21.5 84l32 332h-92z" />
    <glyph glyph-name="Aringacute" unicode="&#x1fa;" horiz-adv-x="628" 
d="M628 0h-93l-68 190h-307l-68 -190h-92l273 706h91zM187 263h255q-93 256 -127 353q-14 -41 -128 -353zM315 869q32 0 52.5 -19t20.5 -48q0 -31 -20 -50t-51 -19q-32 0 -53 19t-21 50q0 29 20.5 48t51.5 19zM317 839q-18 0 -28.5 -10.5t-10.5 -26.5q0 -17 10.5 -28
t27.5 -11t28 11t11 27t-11 27t-27 11zM329 892h-48l66 106h90z" />
    <glyph glyph-name="aringacute" unicode="&#x1fb;" horiz-adv-x="485" 
d="M247 720q41 0 67.5 -25t26.5 -63t-25.5 -62.5t-65.5 -24.5q-41 0 -66.5 24.5t-25.5 63.5q0 38 25 62.5t64 24.5zM250 683q-23 0 -37 -13.5t-14 -36.5q0 -22 14.5 -37t36.5 -15q21 0 35.5 15t14.5 36q0 23 -14 37t-36 14zM345 303v41q0 96 -102 96q-57 0 -84 -24.5
t-32 -77.5l-79 9q6 76 60 118t139 42q93 0 137 -49q37 -38 37 -145v-159q0 -45 3 -66q4 -29 42 -29q7 0 19 2v-60q-20 -3 -41 -3q-48 0 -70 18.5t-26 57.5q-53 -82 -164 -82q-66 0 -110 39t-44 100q0 92 92 132q69 30 223 40zM345 219v26q-117 -5 -179 -32q-58 -25 -58 -78
q0 -39 25 -59t68 -20q50 0 88 29.5t50 78.5q6 25 6 55zM258 754h-56l76 144h92z" />
    <glyph glyph-name="AEacute" unicode="&#x1fc;" horiz-adv-x="975" 
d="M0 0l422 706h506v-78h-376v-226h343v-77h-343v-247h399v-78h-485v191h-259l-113 -191h-94zM466 261v375q-62 -113 -216 -375h216zM664 770h-72l96 118h107z" />
    <glyph glyph-name="aeacute" unicode="&#x1fd;" horiz-adv-x="818" 
d="M710 150l70 -23q-21 -66 -76.5 -103t-128.5 -37t-123 32.5t-75 85.5q-27 -51 -71 -84t-122 -33q-65 0 -109.5 39.5t-44.5 101.5q0 89 77.5 126.5t237.5 48.5v40q0 96 -102 96q-57 0 -84 -24.5t-32 -77.5l-79 9q6 76 59.5 117.5t139.5 41.5q93 0 136 -48q8 -9 19 -31
q57 79 168 79q102 0 156 -69t55 -202h-360v-8q2 -79 42.5 -125.5t113.5 -46.5q107 0 133 95zM345 246q-134 -10 -185.5 -36.5t-51.5 -76.5q0 -39 25 -60t68 -21q69 0 112 56q32 40 32 112v26zM700 297q-10 146 -132 146q-59 0 -98.5 -37t-47.5 -109h278zM424 568h-60l76 148
h96z" />
    <glyph glyph-name="Oslashacute" unicode="&#x1fe;" horiz-adv-x="712" 
d="M679 676l-74 -88q61 -97 61 -240q0 -167 -81 -264.5t-221 -97.5q-129 0 -206 74l-70 -82l-41 38l73 86q-74 100 -74 258q0 165 85 262.5t229 97.5q133 0 210 -86l67 80zM136 363q0 -118 44 -192l334 396q-58 77 -156 77q-102 0 -162 -75t-60 -206zM575 348q0 96 -32 170
l-331 -391q58 -63 150 -63q97 0 155 76t58 208zM383 770h-72l96 118h107z" />
    <glyph glyph-name="oslashacute" unicode="&#x1ff;" horiz-adv-x="536" 
d="M508 486l-58 -66q47 -69 47 -176q0 -118 -61.5 -187t-166.5 -69q-92 0 -148 47l-52 -61l-39 35l55 64q-46 65 -46 177q0 119 63 187.5t173 68.5q82 0 139 -46l53 62zM415 244q0 65 -20 111l-223 -261q39 -39 96 -39q68 0 107.5 50.5t39.5 138.5zM121 256q0 -71 21 -116
l222 262q-35 37 -92 37q-69 0 -110 -49.5t-41 -133.5zM283 568h-60l76 148h96z" />
    <glyph glyph-name="Scommaaccent" unicode="&#x218;" horiz-adv-x="594" 
d="M22 175l80 37q52 -152 194 -152q73 0 118 33t45 91q0 48 -30.5 73.5t-118.5 54.5l-58 19q-101 33 -147 78.5t-46 119.5q0 84 67 137.5t166 53.5q90 0 157 -39.5t99 -117.5l-77 -38q-44 123 -175 123q-71 0 -110 -31.5t-39 -81.5q0 -45 31.5 -69t120.5 -54l60 -20
q102 -34 146.5 -79.5t44.5 -123.5q0 -93 -71.5 -148.5t-182.5 -55.5q-203 0 -274 190zM341 -33v-77q0 -73 -48 -121l-37 27q35 35 35 87h-31v84h81z" />
    <glyph glyph-name="scommaaccent" unicode="&#x219;" horiz-adv-x="436" 
d="M20 118l73 34q14 -47 47.5 -73t80.5 -26t76 18.5t29 51.5t-20.5 50.5t-83.5 38.5l-53 18q-123 41 -123 141q0 57 49.5 97t127.5 40q132 0 182 -118l-72 -32q-26 87 -111 87q-48 0 -73.5 -19.5t-25.5 -49.5t20 -47t73 -34l48 -15q68 -21 104.5 -54t36.5 -91
q0 -66 -50.5 -106.5t-133.5 -40.5q-79 0 -128.5 36.5t-72.5 93.5zM264 -33v-77q0 -73 -48 -121l-37 27q35 35 35 87h-31v84h81z" />
    <glyph glyph-name="uni021A" unicode="&#x21a;" horiz-adv-x="558" 
d="M322 0h-87v628h-210v78h508v-78h-211v-628zM318 -33v-77q0 -73 -48 -121l-37 27q35 35 35 87h-31v84h81z" />
    <glyph glyph-name="uni021B" unicode="&#x21b;" horiz-adv-x="287" 
d="M275 69v-66q-29 -10 -68 -10q-55 0 -83.5 27t-28.5 97v311h-88v66h89v160h78v-160h99v-66h-99v-291q0 -41 13 -59.5t43 -18.5q19 0 45 10zM222 -33v-77q0 -73 -48 -121l-37 27q35 35 35 87h-31v84h81z" />
    <glyph glyph-name="circumflex" unicode="&#x2c6;" 
d="M237 568h-65l-62 91l-65 -91h-64l90 148h78z" />
    <glyph glyph-name="caron" unicode="&#x2c7;" 
d="M-19 716h65l62 -91l65 91h64l-90 -148h-78z" />
    <glyph glyph-name="uni02C9" unicode="&#x2c9;" 
d="M233 596h-249v65h249v-65z" />
    <glyph glyph-name="breve" unicode="&#x2d8;" 
d="M-22 695h59q12 -61 71 -61t71 61h60q-8 -55 -42.5 -87t-88.5 -32t-88 31.5t-42 87.5z" />
    <glyph glyph-name="dotaccent" unicode="&#x2d9;" 
d="M145 595h-73v91h73v-91z" />
    <glyph glyph-name="ring" unicode="&#x2da;" 
d="M106 720q41 0 67.5 -25t26.5 -63t-25.5 -62.5t-65.5 -24.5q-41 0 -66.5 24.5t-25.5 63.5q0 38 25 62.5t64 24.5zM109 683q-23 0 -37 -13.5t-14 -36.5q0 -22 14.5 -37t36.5 -15q21 0 35.5 15t14.5 36q0 23 -14 37t-36 14z" />
    <glyph glyph-name="ogonek" unicode="&#x2db;" 
d="M177 5l-28 -21q-67 -50 -67 -107q0 -23 13 -35.5t35 -12.5q29 0 46 16l23 -42q-32 -25 -78 -25q-44 0 -73.5 25t-29.5 67q0 69 102 135h57z" />
    <glyph glyph-name="tilde" unicode="&#x2dc;" 
d="M258 653q-36 -70 -90 -70q-26 0 -54 15l-24 13q-22 11 -35 11q-32 0 -49 -41l-47 34q18 39 39 56t52 17q26 0 50 -13l23 -12q28 -14 39 -14q16 0 25.5 7.5t23.5 30.5z" />
    <glyph glyph-name="hungarumlaut" unicode="&#x2dd;" 
d="M12 568h-49l66 148h86zM150 568h-49l66 148h87z" />
    <glyph glyph-name="uni037E" unicode="&#x37e;" horiz-adv-x="246" 
d="M189 491v-123h-87v123h87zM189 122v-120q0 -42 -5 -65q-9 -39 -47 -78l-40 30q18 17 26 34q11 26 12 77h-35v122h89z" />
    <glyph glyph-name="uni0394" unicode="&#x394;" horiz-adv-x="679" 
d="M655 0h-636l269 706h107zM535 77l-195 548l-201 -548h396z" />
    <glyph glyph-name="uni03A9" unicode="&#x3a9;" horiz-adv-x="710" 
d="M468 101v-30h188v-71h-258v144q165 69 165 258q0 115 -58 181.5t-147 66.5q-95 0 -154 -67t-59 -186q0 -96 40 -158.5t127 -94.5v-144h-258v71h187v30q-88 36 -134 113t-46 185q0 151 83.5 238t215.5 87q127 0 206.5 -86.5t79.5 -226.5q0 -226 -178 -310z" />
    <glyph glyph-name="uni03BC" unicode="&#x3bc;" horiz-adv-x="527" 
d="M143 494v-248q0 -96 15 -129q11 -25 36.5 -40.5t55.5 -15.5q66 0 102 53q12 18 18 39q10 33 10 123v218h79v-494h-76v78q-48 -86 -140 -86q-75 0 -105 59v-229h-74v672h79z" />
    <glyph glyph-name="pi" unicode="&#x3c0;" horiz-adv-x="552" 
d="M501 421h-54v-294q0 -42 10 -55.5t41 -13.5q11 0 18 1v-59q-10 0 -20.5 -0.5t-12.5 -0.5q-49 0 -73 17q-20 14 -28 37.5t-8 71.5v296h-195v-421h-75v421h-54v73h451v-73z" />
    <glyph glyph-name="Wgrave" unicode="&#x1e80;" horiz-adv-x="865" 
d="M395 706h80q145 -540 158 -595q30 139 148 595h84l-188 -706h-83q-132 468 -158 587q-35 -152 -158 -587h-84l-194 706h88q111 -423 154 -596q51 212 153 596zM481 770h-72l-128 118h106z" />
    <glyph glyph-name="wgrave" unicode="&#x1e81;" horiz-adv-x="700" 
d="M547 0h-82q-97 327 -114 397q-25 -104 -117 -397h-82l-152 494h85q10 -36 54 -190.5t61 -216.5q38 153 112 407h80q94 -332 112 -406q50 187 115 406h81zM394 568h-60l-105 148h96z" />
    <glyph glyph-name="Wacute" unicode="&#x1e82;" horiz-adv-x="865" 
d="M395 706h80q145 -540 158 -595q30 139 148 595h84l-188 -706h-83q-132 468 -158 587q-35 -152 -158 -587h-84l-194 706h88q111 -423 154 -596q51 212 153 596zM458 770h-72l96 118h107z" />
    <glyph glyph-name="wacute" unicode="&#x1e83;" horiz-adv-x="700" 
d="M547 0h-82q-97 327 -114 397q-25 -104 -117 -397h-82l-152 494h85q10 -36 54 -190.5t61 -216.5q38 153 112 407h80q94 -332 112 -406q50 187 115 406h81zM366 568h-60l76 148h96z" />
    <glyph glyph-name="Wdieresis" unicode="&#x1e84;" horiz-adv-x="865" 
d="M395 706h80q145 -540 158 -595q30 139 148 595h84l-188 -706h-83q-132 468 -158 587q-35 -152 -158 -587h-84l-194 706h88q111 -423 154 -596q51 212 153 596zM354 770h-74v90h74v-90zM593 770h-74v90h74v-90z" />
    <glyph glyph-name="wdieresis" unicode="&#x1e85;" horiz-adv-x="700" 
d="M547 0h-82q-97 327 -114 397q-25 -104 -117 -397h-82l-152 494h85q10 -36 54 -190.5t61 -216.5q38 153 112 407h80q94 -332 112 -406q50 187 115 406h81zM288 595h-72v91h72v-91zM487 595h-72v91h72v-91z" />
    <glyph glyph-name="Ygrave" unicode="&#x1ef2;" horiz-adv-x="598" 
d="M339 0h-85v294l-254 412h100q156 -267 199 -347q38 72 206 347h93l-259 -412v-294zM366 770h-72l-128 118h106z" />
    <glyph glyph-name="ygrave" unicode="&#x1ef3;" horiz-adv-x="458" 
d="M187 -19l-187 513h88q36 -103 143 -427q71 225 142 427h85l-205 -559q-31 -86 -67.5 -117.5t-104.5 -31.5q-28 0 -52 6v69q22 -8 46 -8q38 0 56.5 12.5t37.5 65.5zM281 568h-60l-105 148h96z" />
    <glyph glyph-name="endash" unicode="&#x2013;" horiz-adv-x="554" 
d="M508 259h-462v72h462v-72z" />
    <glyph glyph-name="emdash" unicode="&#x2014;" horiz-adv-x="731" 
d="M685 259h-639v72h639v-72z" />
    <glyph glyph-name="quoteleft" unicode="&#x2018;" horiz-adv-x="199" 
d="M59 456v120q0 55 10.5 84t39.5 59l40 -30q-22 -21 -29.5 -41.5t-8.5 -69.5h33v-122h-85z" />
    <glyph glyph-name="quoteright" unicode="&#x2019;" horiz-adv-x="199" 
d="M140 706v-120q0 -54 -10.5 -83t-40.5 -60l-39 29q23 23 30 44t8 67h-33v123h85z" />
    <glyph glyph-name="quotesinglbase" unicode="&#x201a;" horiz-adv-x="199" 
d="M140 123v-120q0 -54 -10.5 -83t-40.5 -60l-39 29q23 23 30 44t8 67h-33v123h85z" />
    <glyph glyph-name="quotedblleft" unicode="&#x201c;" horiz-adv-x="358" 
d="M217 456v120q0 54 11 84t40 59l40 -30q-22 -22 -29.5 -42t-8.5 -69h33v-122h-86zM59 456v120q0 55 10.5 84t39.5 59l40 -30q-22 -21 -29.5 -41.5t-8.5 -69.5h33v-122h-85z" />
    <glyph glyph-name="quotedblright" unicode="&#x201d;" horiz-adv-x="358" 
d="M140 706v-120q0 -54 -10.5 -83t-40.5 -60l-39 29q23 23 30 44t8 67h-33v123h85zM299 706v-120q0 -54 -11 -83.5t-40 -59.5l-40 29q23 23 30 44t8 67h-33v123h86z" />
    <glyph glyph-name="quotedblbase" unicode="&#x201e;" horiz-adv-x="358" 
d="M140 123v-120q0 -54 -10.5 -83t-40.5 -60l-39 29q23 23 30 44t8 67h-33v123h85zM299 123v-120q0 -54 -11 -83.5t-40 -59.5l-40 29q23 23 30 44t8 67h-33v123h86z" />
    <glyph glyph-name="dagger" unicode="&#x2020;" horiz-adv-x="466" 
d="M272 -111h-78v541h-162v73h162v226h78v-226h162v-73h-162v-541z" />
    <glyph glyph-name="daggerdbl" unicode="&#x2021;" horiz-adv-x="466" 
d="M194 -111v282h-162v73h162v205h-162v73h162v207h78v-207h162v-73h-162v-205h162v-73h-162v-282h-78z" />
    <glyph glyph-name="bullet" unicode="&#x2022;" horiz-adv-x="319" 
d="M269 231h-219v217h219v-217z" />
    <glyph glyph-name="ellipsis" unicode="&#x2026;" horiz-adv-x="1059" 
d="M216 108v-108h-79v108h79zM569 108v-108h-79v108h79zM922 108v-108h-79v108h79z" />
    <glyph glyph-name="perthousand" unicode="&#x2030;" horiz-adv-x="1291" 
d="M347 0h-63l267 689h63zM371 472q0 -104 -44 -162t-123 -58q-80 0 -124 58t-44 165q0 105 45.5 163.5t125.5 58.5q79 0 121.5 -61.5t42.5 -163.5zM305 471q0 80 -26.5 123.5t-73.5 43.5t-74 -42t-27 -120q0 -82 26 -124t74 -42q49 0 75 41t26 120zM863 212
q0 -104 -44 -162t-123 -58q-80 0 -124 58t-44 165q0 105 45.5 163.5t125.5 58.5q79 0 121.5 -61.5t42.5 -163.5zM797 211q0 80 -26.5 123.5t-73.5 43.5t-74 -42t-27 -120q0 -82 26 -124t74 -42q49 0 75 41t26 120zM1255 212q0 -104 -44 -162t-123 -58q-80 0 -124 58t-44 165
q0 105 45.5 163.5t125.5 58.5q79 0 121.5 -61.5t42.5 -163.5zM1189 211q0 80 -26.5 123.5t-73.5 43.5t-74 -42t-27 -120q0 -82 26 -124t74 -42q49 0 75 41t26 120z" />
    <glyph glyph-name="guilsinglleft" unicode="&#x2039;" horiz-adv-x="280" 
d="M185 467l48 -36l-110 -162l110 -162l-48 -36l-145 198z" />
    <glyph glyph-name="guilsinglright" unicode="&#x203a;" horiz-adv-x="280" 
d="M95 72l-48 36l110 162l-110 162l48 36l145 -198z" />
    <glyph glyph-name="fraction" unicode="&#x2044;" horiz-adv-x="86" 
d="M-59 0h-63l267 689h63z" />
    <glyph glyph-name="zero.superior" unicode="&#x2070;" horiz-adv-x="407" 
d="M371 652q0 -104 -44 -162t-123 -58q-80 0 -124 58t-44 165q0 105 45.5 163.5t125.5 58.5q79 0 121.5 -61.5t42.5 -163.5zM305 651q0 80 -26.5 123.5t-73.5 43.5t-74 -42t-27 -120q0 -82 26 -124t74 -42q49 0 75 41t26 120z" />
    <glyph glyph-name="four.superior" unicode="&#x2074;" horiz-adv-x="407" 
d="M303 440h-64v95h-206v53l197 281h73v-277h75v-57h-75v-95zM99 592h140q0 116 1 205q-20 -32 -141 -205z" />
    <glyph glyph-name="five.superior" unicode="&#x2075;" horiz-adv-x="407" 
d="M139 812l-10 -112q38 34 96 34q64 0 101.5 -39t37.5 -107q0 -73 -43.5 -114.5t-121.5 -41.5q-60 0 -99.5 29t-52.5 83l62 25q12 -81 90 -81q45 0 70 25.5t25 70.5q0 44 -23.5 68.5t-64.5 24.5q-63 0 -82 -48l-58 8l17 232h253v-57h-197z" />
    <glyph glyph-name="six.superior" unicode="&#x2076;" horiz-adv-x="407" 
d="M364 782l-61 -25q-16 64 -79 64q-107 0 -114 -150q44 55 124 55q64 0 100.5 -39.5t36.5 -106.5q0 -68 -42 -108t-116 -40q-168 0 -168 214q0 112 45.5 171.5t134.5 59.5q103 0 139 -95zM305 578q0 44 -24 69t-66 25q-43 0 -70 -24.5t-27 -62.5q0 -44 26.5 -71.5
t69.5 -27.5q41 0 66 25t25 67z" />
    <glyph glyph-name="seven.superior" unicode="&#x2077;" horiz-adv-x="407" 
d="M36 811v58h321v-48q-74 -97 -109.5 -183.5t-46.5 -197.5h-72q19 212 155 371h-248z" />
    <glyph glyph-name="eight.superior" unicode="&#x2078;" horiz-adv-x="407" 
d="M124 665q-70 24 -70 98q0 52 41.5 83t112.5 31q67 0 106 -31t39 -84q0 -71 -73 -96q43 -10 65.5 -39.5t22.5 -70.5q0 -57 -45 -90.5t-121 -33.5q-75 0 -118.5 34t-43.5 92q0 80 84 107zM299 559q0 35 -26 57t-69 22q-42 0 -68.5 -21.5t-26.5 -55.5q0 -35 26 -55.5
t70 -20.5q42 0 68 20t26 54zM287 760q0 30 -23 48.5t-60 18.5q-39 0 -62.5 -18t-23.5 -48q0 -32 23 -51t62 -19q37 0 60.5 19.5t23.5 49.5z" />
    <glyph glyph-name="nine.superior" unicode="&#x2079;" horiz-adv-x="407" 
d="M41 526l62 25q16 -63 82 -63q104 0 113 149q-42 -54 -124 -54q-65 0 -101.5 39.5t-36.5 106.5q0 66 43 107t116 41q168 0 168 -213q0 -232 -180 -232q-56 0 -89.5 23t-52.5 71zM102 731q0 -44 24.5 -69t66.5 -25t69 24.5t27 62.5q0 44 -26 71t-69 27q-42 0 -67 -24.5
t-25 -66.5z" />
    <glyph glyph-name="parenleft.superior" unicode="&#x207d;" horiz-adv-x="275" 
d="M245 349l-25 -29q-77 45 -117.5 129.5t-40.5 173.5q0 191 160 294l23 -31q-118 -105 -118 -262q0 -82 30 -154t88 -121z" />
    <glyph glyph-name="parenright.superior" unicode="&#x207e;" horiz-adv-x="275" 
d="M30 888l25 29q77 -45 118 -129.5t41 -173.5q0 -190 -161 -294l-23 30q118 104 118 263q0 81 -30 153.5t-88 121.5z" />
    <glyph glyph-name="zero.inferior" unicode="&#x2080;" horiz-adv-x="407" 
d="M371 49q0 -104 -44 -162t-123 -58q-80 0 -124 58t-44 165q0 105 45.5 163.5t125.5 58.5q79 0 121.5 -61.5t42.5 -163.5zM305 48q0 80 -26.5 123.5t-73.5 43.5t-74 -42t-27 -120q0 -82 26 -124t74 -42q49 0 75 41t26 120z" />
    <glyph glyph-name="one.inferior" unicode="&#x2081;" horiz-adv-x="407" 
d="M95 147v61q86 3 95 64h59v-435h-67v332q-30 -19 -87 -22z" />
    <glyph glyph-name="two.inferior" unicode="&#x2082;" horiz-adv-x="407" 
d="M145 -104q43 1 212 1v-60h-307v55q9 7 56 39t59 41q69 48 95.5 85t26.5 81q0 36 -23.5 56.5t-65.5 20.5q-40 0 -62.5 -21t-22.5 -57q0 -28 7 -51l-65 10q-6 21 -6 44q0 62 42 98t113 36q73 0 113.5 -35t40.5 -97q0 -77 -82 -151q-50 -45 -131 -95z" />
    <glyph glyph-name="three.inferior" unicode="&#x2083;" horiz-adv-x="407" 
d="M144 30v54q12 -1 24 -1q113 0 113 72q0 30 -21.5 46.5t-57.5 16.5q-77 0 -89 -81l-61 20q28 117 155 117q67 0 104.5 -31t37.5 -85q0 -38 -24 -63.5t-69 -33.5q49 -5 77.5 -33t28.5 -75q0 -56 -43.5 -90t-115.5 -34q-130 0 -160 118l61 24q15 -85 96 -85q41 0 67.5 19
t26.5 54q0 72 -121 72q-17 0 -29 -1z" />
    <glyph glyph-name="four.inferior" unicode="&#x2084;" horiz-adv-x="407" 
d="M303 -163h-64v95h-206v53l197 281h73v-277h75v-57h-75v-95zM99 -11h140q0 116 1 205q-20 -32 -141 -205z" />
    <glyph glyph-name="five.inferior" unicode="&#x2085;" horiz-adv-x="407" 
d="M139 209l-10 -112q38 34 96 34q64 0 101.5 -39t37.5 -107q0 -73 -43.5 -114.5t-121.5 -41.5q-60 0 -99.5 29t-52.5 83l62 25q12 -81 90 -81q45 0 70 25.5t25 70.5q0 44 -23.5 68.5t-64.5 24.5q-63 0 -82 -48l-58 8l17 232h253v-57h-197z" />
    <glyph glyph-name="six.inferior" unicode="&#x2086;" horiz-adv-x="407" 
d="M364 179l-61 -25q-16 64 -79 64q-107 0 -114 -150q44 55 124 55q64 0 100.5 -39.5t36.5 -106.5q0 -68 -42 -108t-116 -40q-168 0 -168 214q0 112 45.5 171.5t134.5 59.5q103 0 139 -95zM305 -25q0 44 -24 69t-66 25q-43 0 -70 -24.5t-27 -62.5q0 -44 26.5 -71.5
t69.5 -27.5q41 0 66 25t25 67z" />
    <glyph glyph-name="seven.inferior" unicode="&#x2087;" horiz-adv-x="407" 
d="M36 208v58h321v-48q-74 -97 -109.5 -183.5t-46.5 -197.5h-72q19 212 155 371h-248z" />
    <glyph glyph-name="eight.inferior" unicode="&#x2088;" horiz-adv-x="407" 
d="M124 62q-70 24 -70 98q0 52 41.5 83t112.5 31q67 0 106 -31t39 -84q0 -71 -73 -96q43 -10 65.5 -39.5t22.5 -70.5q0 -57 -45 -90.5t-121 -33.5q-75 0 -118.5 34t-43.5 92q0 80 84 107zM299 -44q0 35 -26 57t-69 22q-42 0 -68.5 -21.5t-26.5 -55.5q0 -35 26 -55.5
t70 -20.5q42 0 68 20t26 54zM287 157q0 30 -23 48.5t-60 18.5q-39 0 -62.5 -18t-23.5 -48q0 -32 23 -51t62 -19q37 0 60.5 19.5t23.5 49.5z" />
    <glyph glyph-name="nine.inferior" unicode="&#x2089;" horiz-adv-x="407" 
d="M41 -77l62 25q17 -63 82 -63q104 0 113 149q-42 -54 -124 -54q-65 0 -101.5 39.5t-36.5 106.5q0 66 43 107t116 41q168 0 168 -213q0 -232 -180 -232q-56 0 -89.5 23t-52.5 71zM102 128q0 -44 24.5 -69t66.5 -25t69 24.5t27 62.5q0 44 -26 71t-69 27q-42 0 -67 -24.5
t-25 -66.5z" />
    <glyph glyph-name="parenleft.inferior" unicode="&#x208d;" horiz-adv-x="275" 
d="M245 -254l-25 -29q-77 45 -117.5 129.5t-40.5 173.5q0 191 160 294l23 -31q-118 -105 -118 -262q0 -82 30 -154t88 -121z" />
    <glyph glyph-name="parenright.inferior" unicode="&#x208e;" horiz-adv-x="275" 
d="M30 285l25 29q77 -45 118 -129.5t41 -173.5q0 -190 -161 -294l-23 30q118 104 118 263q0 81 -30 153.5t-88 121.5z" />
    <glyph glyph-name="Euro" unicode="&#x20ac;" horiz-adv-x="647" 
d="M600 609l-45 -65q-63 85 -159 85q-86 0 -137.5 -44t-75.5 -143h318v-56h-323q-2 -18 -2 -41q0 -19 1 -35h324v-56h-315q15 -95 68 -144t136 -49q103 0 164 101l52 -54q-83 -120 -219 -120q-116 0 -191.5 69.5t-97.5 196.5h-68v56h63q-1 11 -1 34q0 15 3 42h-65v56h70
q25 122 100.5 191t191.5 69q127 0 208 -93z" />
    <glyph glyph-name="afii61289" unicode="&#x2113;" horiz-adv-x="454" 
d="M396 144l55 -43q-66 -112 -185 -112q-73 0 -116 44.5t-51 134.5q-17 -15 -54 -42l-28 57q39 26 76 55q-3 73 -3 125q0 134 22 208q19 62 60 96.5t97 34.5q59 0 95 -38t36 -102q0 -84 -72 -183q-50 -68 -157 -166q2 -80 26.5 -116t79.5 -36q75 0 119 83zM167 289
q86 83 122.5 146.5t36.5 122.5q0 35 -16.5 54t-43.5 19q-100 0 -100 -259q0 -50 1 -83z" />
    <glyph glyph-name="trademark" unicode="&#x2122;" horiz-adv-x="779" 
d="M197 357h-59v295h-101v54h261v-54h-101v-295zM713 357h-58v178q0 38 2 112q-20 -65 -33 -104l-65 -186h-55l-61 174q-30 85 -38 109q3 -69 3 -109v-174h-58v349h88l62 -170q3 -7 34 -101q8 22 20 60t14 43l56 168h89v-349z" />
    <glyph glyph-name="Omega" unicode="&#x2126;" horiz-adv-x="710" 
d="M468 101v-30h188v-71h-258v144q165 69 165 258q0 115 -58 181.5t-147 66.5q-95 0 -154 -67t-59 -186q0 -96 40 -158.5t127 -94.5v-144h-258v71h187v30q-88 36 -134 113t-46 185q0 151 83.5 238t215.5 87q127 0 206.5 -86.5t79.5 -226.5q0 -226 -178 -310z" />
    <glyph glyph-name="estimated" unicode="&#x212e;" horiz-adv-x="817" 
d="M779 319h-651q11 -123 87.5 -190.5t204.5 -67.5q93 0 165 44.5t116 126.5l69 -45q-124 -199 -353 -199q-166 0 -269 100t-103 262q0 156 102 254t265 98q173 0 270 -107.5t97 -275.5zM129 392h560q-17 118 -89.5 177.5t-187.5 59.5q-117 0 -192.5 -61t-90.5 -176z" />
    <glyph glyph-name="onethird" unicode="&#x2153;" horiz-adv-x="899" 
d="M327 0h-63l267 689h63zM95 570v61q86 3 95 64h59v-435h-67v332q-30 -19 -87 -22zM638 193v54q12 -1 24 -1q113 0 113 72q0 30 -21.5 46.5t-57.5 16.5q-77 0 -89 -81l-61 20q28 117 155 117q67 0 104.5 -31t37.5 -85q0 -38 -24 -63.5t-69 -33.5q49 -5 77.5 -33t28.5 -75
q0 -56 -43.5 -90t-115.5 -34q-130 0 -160 118l61 24q15 -85 96 -85q41 0 67.5 19t26.5 54q0 72 -121 72q-17 0 -29 -1z" />
    <glyph glyph-name="twothirds" unicode="&#x2154;" horiz-adv-x="899" 
d="M351 0h-63l267 689h63zM131 319q43 1 212 1v-60h-307v55q9 7 56 39t59 41q69 48 95.5 85t26.5 81q0 36 -23.5 56.5t-65.5 20.5q-40 0 -62.5 -21t-22.5 -57q0 -28 7 -51l-65 10q-6 21 -6 44q0 62 42 98t113 36q73 0 113.5 -35t40.5 -97q0 -77 -82 -151q-50 -45 -131 -95z
M650 193v54q12 -1 24 -1q113 0 113 72q0 30 -21.5 46.5t-57.5 16.5q-77 0 -89 -81l-61 20q28 117 155 117q67 0 104.5 -31t37.5 -85q0 -38 -24 -63.5t-69 -33.5q49 -5 77.5 -33t28.5 -75q0 -56 -43.5 -90t-115.5 -34q-130 0 -160 118l61 24q15 -85 96 -85q41 0 67.5 19
t26.5 54q0 72 -121 72q-17 0 -29 -1z" />
    <glyph glyph-name="oneeighth" unicode="&#x215b;" horiz-adv-x="899" 
d="M314 0h-63l267 689h63zM85 570v61q86 3 95 64h59v-435h-67v332q-30 -19 -87 -22zM616 225q-70 24 -70 98q0 52 41.5 83t112.5 31q67 0 106 -31t39 -84q0 -71 -73 -96q43 -10 65.5 -39.5t22.5 -70.5q0 -57 -45 -90.5t-121 -33.5q-75 0 -118.5 34t-43.5 92q0 80 84 107z
M791 119q0 35 -26 57t-69 22q-42 0 -68.5 -21.5t-26.5 -55.5q0 -35 26 -55.5t70 -20.5q42 0 68 20t26 54zM779 320q0 30 -23 48.5t-60 18.5q-39 0 -62.5 -18t-23.5 -48q0 -32 23 -51t62 -19q37 0 60.5 19.5t23.5 49.5z" />
    <glyph glyph-name="threeeighths" unicode="&#x215c;" horiz-adv-x="899" 
d="M345 0h-63l267 689h63zM132 453v54q12 -1 24 -1q113 0 113 72q0 30 -21.5 46.5t-57.5 16.5q-77 0 -89 -81l-61 20q28 117 155 117q67 0 104.5 -31t37.5 -85q0 -38 -24 -63.5t-69 -33.5q49 -5 77.5 -33t28.5 -75q0 -56 -43.5 -90t-115.5 -34q-130 0 -160 118l61 24
q15 -85 96 -85q41 0 67.5 19t26.5 54q0 72 -121 72q-17 0 -29 -1zM627 225q-70 24 -70 98q0 52 41.5 83t112.5 31q67 0 106 -31t39 -84q0 -71 -73 -96q43 -10 65.5 -39.5t22.5 -70.5q0 -57 -45 -90.5t-121 -33.5q-75 0 -118.5 34t-43.5 92q0 80 84 107zM802 119q0 35 -26 57
t-69 22q-42 0 -68.5 -21.5t-26.5 -55.5q0 -35 26 -55.5t70 -20.5q42 0 68 20t26 54zM790 320q0 30 -23 48.5t-60 18.5q-39 0 -62.5 -18t-23.5 -48q0 -32 23 -51t62 -19q37 0 60.5 19.5t23.5 49.5z" />
    <glyph glyph-name="fiveeighths" unicode="&#x215d;" horiz-adv-x="899" 
d="M345 0h-63l267 689h63zM132 632l-10 -112q38 34 96 34q64 0 101.5 -39t37.5 -107q0 -73 -43.5 -114.5t-121.5 -41.5q-60 0 -99.5 29t-52.5 83l62 25q12 -81 90 -81q45 0 70 25.5t25 70.5q0 44 -23.5 68.5t-64.5 24.5q-63 0 -82 -48l-58 8l17 232h253v-57h-197zM619 225
q-70 24 -70 98q0 52 41.5 83t112.5 31q67 0 106 -31t39 -84q0 -71 -73 -96q43 -10 65.5 -39.5t22.5 -70.5q0 -57 -45 -90.5t-121 -33.5q-75 0 -118.5 34t-43.5 92q0 80 84 107zM794 119q0 35 -26 57t-69 22q-42 0 -68.5 -21.5t-26.5 -55.5q0 -35 26 -55.5t70 -20.5
q42 0 68 20t26 54zM782 320q0 30 -23 48.5t-60 18.5q-39 0 -62.5 -18t-23.5 -48q0 -32 23 -51t62 -19q37 0 60.5 19.5t23.5 49.5z" />
    <glyph glyph-name="seveneighths" unicode="&#x215e;" horiz-adv-x="899" 
d="M305 0h-63l267 689h63zM37 631v58h321v-48q-74 -97 -109.5 -183.5t-46.5 -197.5h-72q19 212 155 371h-248zM609 225q-70 24 -70 98q0 52 41.5 83t112.5 31q67 0 106 -31t39 -84q0 -71 -73 -96q43 -10 65.5 -39.5t22.5 -70.5q0 -57 -45 -90.5t-121 -33.5q-75 0 -118.5 34
t-43.5 92q0 80 84 107zM784 119q0 35 -26 57t-69 22q-42 0 -68.5 -21.5t-26.5 -55.5q0 -35 26 -55.5t70 -20.5q42 0 68 20t26 54zM772 320q0 30 -23 48.5t-60 18.5q-39 0 -62.5 -18t-23.5 -48q0 -32 23 -51t62 -19q37 0 60.5 19.5t23.5 49.5z" />
    <glyph glyph-name="partialdiff" unicode="&#x2202;" horiz-adv-x="552" 
d="M273 436q80 0 128 -53q-3 261 -136 261q-46 0 -89 -24l-22 69q62 27 115 27q103 0 156 -77.5t53 -254.5q0 -217 -59 -306t-169 -89q-33 0 -64.5 11.5t-60.5 34.5t-46.5 64.5t-17.5 96.5q0 98 57 169t155 71zM395 289q-47 81 -118 81t-104 -47.5t-33 -117.5q0 -65 28 -107
t87 -42q129 0 140 233z" />
    <glyph glyph-name="Delta" unicode="&#x2206;" horiz-adv-x="679" 
d="M655 0h-636l269 706h107zM535 77l-195 548l-201 -548h396z" />
    <glyph glyph-name="product" unicode="&#x220f;" horiz-adv-x="667" 
d="M591 -122h-79v755h-357v-755h-79v828h515v-828z" />
    <glyph glyph-name="summation" unicode="&#x2211;" horiz-adv-x="555" 
d="M531 -122h-494v64l253 368l-250 330v66h489v-73h-386l246 -318l-254 -364h396v-73z" />
    <glyph glyph-name="minus" unicode="&#x2212;" horiz-adv-x="740" 
d="M648 266h-556v80h556v-80z" />
    <glyph glyph-name="uni2215" unicode="&#x2215;" horiz-adv-x="86" 
d="M-59 0h-63l267 689h63z" />
    <glyph glyph-name="uni2219" unicode="&#x2219;" horiz-adv-x="201" 
d="M144 351v-123h-87v123h87z" />
    <glyph glyph-name="radical" unicode="&#x221a;" horiz-adv-x="740" 
d="M222 217l128 -293l230 782h92l-286 -893h-77l-135 297l-78 -37l-31 70z" />
    <glyph glyph-name="infinity" unicode="&#x221e;" horiz-adv-x="785" 
d="M229 477q53 0 91 -30.5t74 -84.5q84 113 172 113q71 0 114.5 -46.5t43.5 -127.5q0 -70 -45 -123.5t-118 -53.5q-47 0 -86 25.5t-84 88.5q-42 -56 -80.5 -84.5t-87.5 -28.5q-80 0 -120 52t-40 119q0 78 46 129.5t120 51.5zM220 195q33 0 62.5 23t66.5 81q-36 58 -63 82
t-62 24q-43 0 -65.5 -30t-22.5 -73t22.5 -75t61.5 -32zM570 403q-34 0 -65 -22.5t-69 -79.5q37 -57 67 -82t64 -25q39 0 61.5 32t22.5 75q0 42 -21.5 72t-59.5 30z" />
    <glyph glyph-name="integral" unicode="&#x222b;" horiz-adv-x="342" 
d="M216 561v-619q0 -138 -117 -138q-36 0 -72 16v82q30 -25 60 -25q22 0 34 14q15 17 15 72v619q0 138 117 138q36 0 72 -16v-82q-30 25 -60 25q-22 0 -34 -14q-15 -17 -15 -72z" />
    <glyph glyph-name="approxequal" unicode="&#x2248;" horiz-adv-x="715" 
d="M120 321l-59 60q79 108 177 108q30 0 58 -9.5t89 -44.5q63 -35 93 -35q31 0 58.5 19.5t59.5 67.5l58 -60q-78 -109 -175 -109q-47 0 -117 38q-59 33 -80.5 41.5t-42.5 8.5q-65 0 -119 -85zM120 121l-59 60q79 108 177 108q30 0 58 -9.5t89 -44.5q63 -35 93 -35
q31 0 58.5 19.5t59.5 67.5l58 -60q-78 -109 -175 -109q-47 0 -117 38q-59 33 -80.5 41.5t-42.5 8.5q-65 0 -119 -85z" />
    <glyph glyph-name="notequal" unicode="&#x2260;" horiz-adv-x="740" 
d="M554 602l-77 -156h171v-80h-210l-60 -122h270v-80h-310l-80 -164h-74l80 164h-172v80h212l60 122h-272v80h311l77 156h74z" />
    <glyph glyph-name="lessequal" unicode="&#x2264;" horiz-adv-x="740" 
d="M608 0h-482v80h482v-80zM607 143l-482 224v87l482 228v-96l-393 -175l393 -171v-97z" />
    <glyph glyph-name="greaterequal" unicode="&#x2265;" horiz-adv-x="740" 
d="M615 0h-482v80h482v-80zM133 682l482 -224v-87l-482 -228v96l393 175l-393 171v97z" />
    <glyph glyph-name="lozenge" unicode="&#x25ca;" horiz-adv-x="740" 
d="M331 706h86l167 -353l-170 -353h-86l-172 353zM248 354l122 -267l122 265l-118 267z" />
    <glyph glyph-name="uniF6C1" unicode="&#xf6c1;" horiz-adv-x="594" 
d="M22 175l80 37q52 -152 194 -152q73 0 118 33t45 91q0 48 -30.5 73.5t-118.5 54.5l-58 19q-101 33 -147 78.5t-46 119.5q0 84 67 137.5t166 53.5q90 0 157 -39.5t99 -117.5l-77 -38q-44 123 -175 123q-71 0 -110 -31.5t-39 -81.5q0 -45 31.5 -69t120.5 -54l60 -20
q102 -34 146.5 -79.5t44.5 -123.5q0 -87 -64 -141.5t-166 -61.5l-20 -43q12 2 20 2q37 0 60 -20t23 -57q0 -43 -28.5 -68.5t-74.5 -25.5q-51 0 -82 28l26 42q23 -22 53 -22q20 0 31.5 12t11.5 30q0 37 -45 37q-19 0 -41 -11l-17 22l37 74q-186 10 -252 189z" />
    <glyph glyph-name="uniF6C2" unicode="&#xf6c2;" horiz-adv-x="436" 
d="M20 118l73 34q14 -47 47.5 -73t80.5 -26t76 18.5t29 51.5t-20.5 50.5t-83.5 38.5l-53 18q-123 41 -123 141q0 57 49.5 97t127.5 40q132 0 182 -118l-72 -32q-26 87 -111 87q-48 0 -73.5 -19.5t-25.5 -49.5t20 -47t73 -34l48 -15q68 -21 104.5 -54t36.5 -91
q0 -63 -46.5 -102.5t-123.5 -43.5l-18 -42q12 2 20 2q38 0 60.5 -21t22.5 -56q0 -43 -28.5 -68.5t-74.5 -25.5q-50 0 -81 28l26 42q23 -22 52 -22q20 0 31.5 12t11.5 30q0 37 -45 37q-19 0 -41 -11l-17 22l38 74q-127 12 -172 128z" />
    <glyph glyph-name="acute.cap" 
d="M79 770h-72l96 118h107z" />
    <glyph glyph-name="breve.cap" 
d="M-28 885h62q12 -61 74 -61t74 61h63q-8 -55 -44.5 -87t-92.5 -32q-57 0 -92.5 31.5t-43.5 87.5z" />
    <glyph glyph-name="caron.cap" 
d="M-33 888h69l71 -67l76 67h67l-104 -119h-78z" />
    <glyph glyph-name="cedilla.cap" 
d="M82 4h45l-29 -61q12 2 20 2q37 0 60 -20t23 -57q0 -43 -28.5 -68.5t-74.5 -25.5q-51 0 -82 28l26 42q23 -22 53 -22q20 0 31.5 12t11.5 30q0 37 -45 37q-19 0 -41 -11l-17 22z" />
    <glyph glyph-name="circumflex.cap" 
d="M250 769h-69l-71 67l-76 -67h-67l104 119h78z" />
    <glyph glyph-name="commaaccent" 
d="M151 -33v-77q0 -73 -48 -121l-37 27q35 35 35 87h-31v84h81z" />
    <glyph glyph-name="dieresis.cap" 
d="M26 770h-74v90h74v-90zM265 770h-74v90h74v-90z" />
    <glyph glyph-name="dotaccent.cap" 
d="M146 770h-75v90h75v-90z" />
    <glyph glyph-name="grave.cap" 
d="M208 770h-72l-128 118h106z" />
    <glyph glyph-name="hungarumlaut.cap" 
d="M9 770h-56l76 118h93zM150 770h-56l76 118h94z" />
    <glyph glyph-name="macron.cap" 
d="M239 786h-261v65h261v-65z" />
    <glyph glyph-name="ring.cap" 
d="M106 900q43 0 68.5 -23t25.5 -65q0 -38 -25.5 -62.5t-65.5 -24.5q-41 0 -66.5 24.5t-25.5 63.5q0 38 25 62.5t64 24.5zM109 862q-23 0 -36 -13t-13 -36q0 -22 13.5 -36.5t35.5 -14.5q21 0 34.5 14.5t13.5 35.5q0 23 -13 36.5t-35 13.5z" />
    <glyph glyph-name="tilde.cap" 
d="M262 841q-38 -70 -94 -70q-27 0 -54 15l-24 13q-19 11 -36 11q-33 0 -50 -40l-49 33q19 39 41 56t53 17q25 0 51 -13l23 -12q30 -14 40 -14q17 0 27.5 7.5t22.5 29.5z" />
    <glyph glyph-name="caron.alt" 
d="M153 706v-85q0 -80 -51 -134l-39 30q37 38 37 96h-32v93h85z" />
    <glyph glyph-name="zero.tab" horiz-adv-x="554" 
d="M518 340q0 -169 -63 -260.5t-180 -91.5q-115 0 -177.5 92.5t-62.5 263.5q0 170 64 264t179 94q113 0 176.5 -96t63.5 -266zM438 337q0 139 -42.5 215.5t-116.5 76.5q-76 0 -119 -74.5t-43 -209.5q0 -139 41.5 -211.5t117.5 -72.5q77 0 119.5 70.5t42.5 205.5z" />
    <glyph glyph-name="one.tab" horiz-adv-x="554" 
d="M120 518v72q60 2 98.5 32.5t41.5 71.5h69v-694h-82v560q-42 -35 -127 -42z" />
    <glyph glyph-name="two.tab" horiz-adv-x="554" 
d="M500 74v-74h-443v59l193 158q89 73 130 138t41 133t-39.5 104.5t-107.5 36.5q-67 0 -107 -42t-40 -110q0 -30 13 -74l-80 12q-9 30 -9 63q0 98 63 161t168 63q103 0 163 -58t60 -158q0 -79 -36.5 -143t-118.5 -135q-60 -53 -177 -136q78 2 327 2z" />
    <glyph glyph-name="three.tab" horiz-adv-x="554" 
d="M188 316v77q11 -1 32 -1q177 0 177 125q0 55 -32 83.5t-91 28.5q-52 0 -88.5 -32.5t-48.5 -89.5l-75 29q27 82 85.5 124t132.5 42q93 0 145 -48.5t52 -131.5q0 -127 -139 -164q78 -8 119.5 -52t41.5 -119q0 -89 -62.5 -144t-163.5 -55q-87 0 -146.5 43t-82.5 124l76 37
q32 -131 147 -131q67 0 107 33t40 94q0 71 -46.5 100t-142.5 29q-23 0 -37 -1z" />
    <glyph glyph-name="four.tab" horiz-adv-x="554" 
d="M423 0h-79v157h-313v67l298 465h94v-461h113v-71h-113v-157zM344 228v211q0 112 3 168q-58 -106 -100 -172l-134 -207h231z" />
    <glyph glyph-name="five.tab" horiz-adv-x="554" 
d="M173 618l-18 -217q61 67 154 67q88 0 141 -64.5t53 -169.5q0 -114 -63 -180t-170 -66q-82 0 -138 44t-77 126l79 37q10 -68 46.5 -101t87.5 -33q70 0 110.5 43t40.5 124t-37 126t-101 45q-46 0 -79 -23.5t-49 -66.5l-71 10l25 370h354v-71h-288z" />
    <glyph glyph-name="six.tab" horiz-adv-x="554" 
d="M497 563l-72 -34q-30 100 -120 100q-168 0 -177 -275q24 50 73 79t115 29q88 0 143 -68t55 -172q0 -107 -62.5 -170.5t-161.5 -63.5q-109 0 -173.5 84t-64.5 254q0 181 67 278.5t191 97.5q73 0 117.5 -34t69.5 -105zM435 220q0 80 -38 126.5t-103 46.5q-64 0 -109 -44.5
t-45 -109.5q0 -72 40 -125t111 -53q65 0 104.5 42.5t39.5 116.5z" />
    <glyph glyph-name="seven.tab" horiz-adv-x="554" 
d="M46 618v71h455v-62q-45 -69 -75.5 -122.5t-67.5 -134t-59 -173.5t-28 -197h-87q13 170 76 330t151 288h-365z" />
    <glyph glyph-name="eight.tab" horiz-adv-x="554" 
d="M369 362q67 -15 103.5 -61t36.5 -117q0 -88 -64 -142t-170 -54q-104 0 -166 54.5t-62 143.5q0 64 34 110t104 65q-122 39 -122 162q0 81 59 130t156 49q94 0 150 -49.5t56 -132.5q0 -112 -115 -158zM128 190q0 -62 43 -96.5t109 -34.5q64 0 105.5 34t41.5 93
q0 63 -41 100t-108 37t-108.5 -36t-41.5 -97zM407 521q0 51 -37 82.5t-94 31.5q-59 0 -98 -31t-39 -86q0 -54 38 -87.5t99 -33.5q58 0 94.5 35t36.5 89z" />
    <glyph glyph-name="nine.tab" horiz-adv-x="554" 
d="M53 127l72 34q30 -100 128 -100q83 0 126 67t47 208q-24 -50 -72.5 -78t-114.5 -28q-89 0 -144 67t-55 171q0 105 64.5 169.5t160.5 64.5q109 0 173 -84t64 -254q0 -376 -256 -376q-144 0 -193 139zM119 470q0 -80 37 -125.5t104 -45.5q65 0 109.5 44t44.5 108
q0 73 -39.5 125.5t-110.5 52.5q-65 0 -105 -43t-40 -116z" />
    <glyph glyph-name="i.dot" 
d="M148 0h-79v494h79v-494zM149 617h-81v89h81v-89z" />
    <glyph glyph-name="Imacron" horiz-adv-x="235" 
d="M240 786h-245v65h245v-65zM160 0h-85v706h85v-706z" />
    <glyph glyph-name="ibreve" 
d="M148 0h-79v494h79v-494zM-22 695h59q12 -61 71 -61t71 61h60q-8 -55 -42.5 -87t-88.5 -32t-88 31.5t-42 87.5z" />
    <glyph glyph-name="zero.numerator" horiz-adv-x="407" 
d="M371 472q0 -104 -44 -162t-123 -58q-80 0 -124 58t-44 165q0 105 45.5 163.5t125.5 58.5q79 0 121.5 -61.5t42.5 -163.5zM305 471q0 80 -26.5 123.5t-73.5 43.5t-74 -42t-27 -120q0 -82 26 -124t74 -42q49 0 75 41t26 120z" />
    <glyph glyph-name="one.numerator" horiz-adv-x="407" 
d="M95 570v61q86 3 95 64h59v-435h-67v332q-30 -19 -87 -22z" />
    <glyph glyph-name="two.numerator" horiz-adv-x="407" 
d="M145 319q43 1 212 1v-60h-307v55q9 7 56 39t59 41q69 48 95.5 85t26.5 81q0 36 -23.5 56.5t-65.5 20.5q-40 0 -62.5 -21t-22.5 -57q0 -28 7 -51l-65 10q-6 21 -6 44q0 62 42 98t113 36q73 0 113.5 -35t40.5 -97q0 -77 -82 -151q-50 -45 -131 -95z" />
    <glyph glyph-name="three.numerator" horiz-adv-x="407" 
d="M144 453v54q12 -1 24 -1q113 0 113 72q0 30 -21.5 46.5t-57.5 16.5q-77 0 -89 -81l-61 20q28 117 155 117q67 0 104.5 -31t37.5 -85q0 -38 -24 -63.5t-69 -33.5q49 -5 77.5 -33t28.5 -75q0 -56 -43.5 -90t-115.5 -34q-130 0 -160 118l61 24q15 -85 96 -85q41 0 67.5 19
t26.5 54q0 72 -121 72q-17 0 -29 -1z" />
    <glyph glyph-name="four.numerator" horiz-adv-x="407" 
d="M303 260h-64v95h-206v53l197 281h73v-277h75v-57h-75v-95zM99 412h140q0 116 1 205q-20 -32 -141 -205z" />
    <glyph glyph-name="five.numerator" horiz-adv-x="407" 
d="M139 632l-10 -112q38 34 96 34q64 0 101.5 -39t37.5 -107q0 -73 -43.5 -114.5t-121.5 -41.5q-60 0 -99.5 29t-52.5 83l62 25q12 -81 90 -81q45 0 70 25.5t25 70.5q0 44 -23.5 68.5t-64.5 24.5q-63 0 -82 -48l-58 8l17 232h253v-57h-197z" />
    <glyph glyph-name="six.numerator" horiz-adv-x="407" 
d="M364 602l-61 -25q-16 64 -79 64q-107 0 -114 -150q44 55 124 55q64 0 100.5 -39.5t36.5 -106.5q0 -68 -42 -108t-116 -40q-168 0 -168 214q0 112 45.5 171.5t134.5 59.5q103 0 139 -95zM305 398q0 44 -24 69t-66 25q-43 0 -70 -24.5t-27 -62.5q0 -44 26.5 -71.5
t69.5 -27.5q41 0 66 25t25 67z" />
    <glyph glyph-name="seven.numerator" horiz-adv-x="407" 
d="M36 631v58h321v-48q-74 -97 -109.5 -183.5t-46.5 -197.5h-72q19 212 155 371h-248z" />
    <glyph glyph-name="eight.numerator" horiz-adv-x="407" 
d="M124 485q-70 24 -70 98q0 52 41.5 83t112.5 31q67 0 106 -31t39 -84q0 -71 -73 -96q43 -10 65.5 -39.5t22.5 -70.5q0 -57 -45 -90.5t-121 -33.5q-75 0 -118.5 34t-43.5 92q0 80 84 107zM299 379q0 35 -26 57t-69 22q-42 0 -68.5 -21.5t-26.5 -55.5q0 -35 26 -55.5
t70 -20.5q42 0 68 20t26 54zM287 580q0 30 -23 48.5t-60 18.5q-39 0 -62.5 -18t-23.5 -48q0 -32 23 -51t62 -19q37 0 60.5 19.5t23.5 49.5z" />
    <glyph glyph-name="nine.numerator" horiz-adv-x="407" 
d="M41 346l62 25q16 -63 82 -63q104 0 113 149q-42 -54 -124 -54q-65 0 -101.5 39.5t-36.5 106.5q0 66 43 107t116 41q168 0 168 -213q0 -232 -180 -232q-56 0 -89.5 23t-52.5 71zM102 551q0 -44 24.5 -69t66.5 -25t69 24.5t27 62.5q0 44 -26 71t-69 27q-42 0 -67 -24.5
t-25 -66.5z" />
    <glyph glyph-name="period.numerator" horiz-adv-x="150" 
d="M109 351v-91h-68v91h68z" />
    <glyph glyph-name="comma.numerator" horiz-adv-x="150" 
d="M109 351v-86q0 -60 -40 -100l-36 28q29 25 29 62v5h-22v91h69z" />
    <glyph glyph-name="hyphen.numerator" horiz-adv-x="266" 
d="M231 413h-195v58h195v-58z" />
    <glyph glyph-name="parenleft.numerator" horiz-adv-x="275" 
d="M245 169l-25 -29q-77 45 -117.5 129.5t-40.5 173.5q0 191 160 294l23 -31q-118 -105 -118 -262q0 -82 30 -154t88 -121z" />
    <glyph glyph-name="parenright.numerator" horiz-adv-x="275" 
d="M30 708l25 29q77 -45 118 -129.5t41 -173.5q0 -190 -161 -294l-23 30q118 104 118 263q0 81 -30 153.5t-88 121.5z" />
    <glyph glyph-name="dollar.numerator" horiz-adv-x="425" 
d="M234 746v-56q97 -7 142 -81l-50 -41q-30 58 -93 64v-119l19 -6q66 -17 98 -44t32 -77q0 -53 -40 -87t-108 -38v-62h-42v60q-121 7 -157 96l54 42q23 -71 103 -77v133l-21 6q-116 33 -116 118q0 48 37.5 78.5t99.5 34.5v56h42zM314 379q0 26 -16 39t-65 24v-125
q81 7 81 62zM120 581q0 -23 15.5 -36t56.5 -23v113q-33 -1 -52.5 -16.5t-19.5 -37.5z" />
    <glyph glyph-name="cent.numerator" horiz-adv-x="386" 
d="M231 625v-54q89 -5 116 -89l-59 -19q-11 50 -58 53v-203q50 3 62 50l59 -18q-29 -84 -120 -89v-59h-43v59q-63 7 -97.5 49t-34.5 110q0 66 35 107t97 49v54h43zM189 314v201q-71 -14 -71 -101t71 -100z" />
    <glyph glyph-name="sterling.numerator" horiz-adv-x="453" 
d="M204 489h134v-44h-118l6 -20q10 -28 10 -52q0 -19 -8 -35l23 -11q31 -15 58 -15q47 0 55 63l59 -20q-20 -103 -105 -103q-52 0 -100 28l-17 10q-36 -38 -92 -38q-32 0 -52.5 16t-20.5 46q0 29 20 46t53 17q30 0 67 -17q1 5 1 13q0 18 -20 72h-86v44h68q-22 61 -22 99
q0 50 39 79.5t101 29.5q106 0 143 -87q-10 -6 -30 -16l-26 -13q-23 62 -83 62q-37 0 -57.5 -18t-20.5 -48q0 -31 14 -69zM110 333q-27 0 -27 -20q0 -21 32 -21q26 0 47 24q-31 17 -52 17z" />
    <glyph glyph-name="yen.numerator" horiz-adv-x="473" 
d="M404 471h-111l-24 -33v-7h135v-40h-135v-131h-69v131h-137v40h137v6l-23 34h-114v42h88l-122 176h80q74 -110 127 -193q80 121 132 193h74l-122 -176h84v-42z" />
    <glyph glyph-name="florin.numerator" horiz-adv-x="317" 
d="M61 488v44h66l6 50q6 53 20 78q23 37 81 37q34 0 57 -9l-10 -60q-23 10 -39 10q-21 0 -30.5 -11.5t-13.5 -44.5l-5 -50h69v-44h-72l-24 -208q-7 -56 -30.5 -78.5t-68.5 -22.5q-26 0 -55 9l11 59q23 -9 35 -9q21 0 31 12.5t14 47.5l20 190h-62z" />
    <glyph glyph-name="Euro.numerator" horiz-adv-x="498" 
d="M462 643l-34 -57q-36 54 -113 54q-108 0 -134 -103h205v-40h-210q-1 -21 -1 -41h211v-40h-205q20 -107 134 -107q74 0 116 59l38 -46q-64 -70 -158 -70q-84 0 -136.5 42.5t-64.5 121.5h-50v40h46q0 25 1 41h-47v40h51q16 77 69.5 118.5t134.5 41.5q98 0 147 -54z" />
    <glyph glyph-name="zero.denominator" horiz-adv-x="407" 
d="M371 212q0 -104 -44 -162t-123 -58q-80 0 -124 58t-44 165q0 105 45.5 163.5t125.5 58.5q79 0 121.5 -61.5t42.5 -163.5zM305 211q0 80 -26.5 123.5t-73.5 43.5t-74 -42t-27 -120q0 -82 26 -124t74 -42q49 0 75 41t26 120z" />
    <glyph glyph-name="one.denominator" horiz-adv-x="407" 
d="M95 310v61q86 3 95 64h59v-435h-67v332q-30 -19 -87 -22z" />
    <glyph glyph-name="two.denominator" horiz-adv-x="407" 
d="M145 59q43 1 212 1v-60h-307v55q9 7 56 39t59 41q69 48 95.5 85t26.5 81q0 36 -23.5 56.5t-65.5 20.5q-40 0 -62.5 -21t-22.5 -57q0 -28 7 -51l-65 10q-6 21 -6 44q0 62 42 98t113 36q73 0 113.5 -35t40.5 -97q0 -77 -82 -151q-50 -45 -131 -95z" />
    <glyph glyph-name="three.denominator" horiz-adv-x="407" 
d="M144 193v54q12 -1 24 -1q113 0 113 72q0 30 -21.5 46.5t-57.5 16.5q-77 0 -89 -81l-61 20q28 117 155 117q67 0 104.5 -31t37.5 -85q0 -38 -24 -63.5t-69 -33.5q49 -5 77.5 -33t28.5 -75q0 -56 -43.5 -90t-115.5 -34q-130 0 -160 118l61 24q15 -85 96 -85q41 0 67.5 19
t26.5 54q0 72 -121 72q-17 0 -29 -1z" />
    <glyph glyph-name="four.denominator" horiz-adv-x="407" 
d="M303 0h-64v95h-206v53l197 281h73v-277h75v-57h-75v-95zM99 152h140q0 116 1 205q-20 -32 -141 -205z" />
    <glyph glyph-name="five.denominator" horiz-adv-x="407" 
d="M139 372l-10 -112q38 34 96 34q64 0 101.5 -39t37.5 -107q0 -73 -43.5 -114.5t-121.5 -41.5q-60 0 -99.5 29t-52.5 83l62 25q12 -81 90 -81q45 0 70 25.5t25 70.5q0 44 -23.5 68.5t-64.5 24.5q-63 0 -82 -48l-58 8l17 232h253v-57h-197z" />
    <glyph glyph-name="six.denominator" horiz-adv-x="407" 
d="M364 342l-61 -25q-16 64 -79 64q-107 0 -114 -150q44 55 124 55q64 0 100.5 -39.5t36.5 -106.5q0 -68 -42 -108t-116 -40q-168 0 -168 214q0 112 45.5 171.5t134.5 59.5q103 0 139 -95zM305 138q0 44 -24 69t-66 25q-43 0 -70 -24.5t-27 -62.5q0 -44 26.5 -71.5
t69.5 -27.5q41 0 66 25t25 67z" />
    <glyph glyph-name="seven.denominator" horiz-adv-x="407" 
d="M36 371v58h321v-48q-74 -97 -109.5 -183.5t-46.5 -197.5h-72q19 212 155 371h-248z" />
    <glyph glyph-name="eight.denominator" horiz-adv-x="407" 
d="M124 225q-70 24 -70 98q0 52 41.5 83t112.5 31q67 0 106 -31t39 -84q0 -71 -73 -96q43 -10 65.5 -39.5t22.5 -70.5q0 -57 -45 -90.5t-121 -33.5q-75 0 -118.5 34t-43.5 92q0 80 84 107zM299 119q0 35 -26 57t-69 22q-42 0 -68.5 -21.5t-26.5 -55.5q0 -35 26 -55.5
t70 -20.5q42 0 68 20t26 54zM287 320q0 30 -23 48.5t-60 18.5q-39 0 -62.5 -18t-23.5 -48q0 -32 23 -51t62 -19q37 0 60.5 19.5t23.5 49.5z" />
    <glyph glyph-name="nine.denominator" horiz-adv-x="407" 
d="M41 86l62 25q17 -63 82 -63q104 0 113 149q-42 -54 -124 -54q-65 0 -101.5 39.5t-36.5 106.5q0 66 43 107t116 41q168 0 168 -213q0 -232 -180 -232q-56 0 -89.5 23t-52.5 71zM102 291q0 -44 24.5 -69t66.5 -25t69 24.5t27 62.5q0 44 -26 71t-69 27q-42 0 -67 -24.5
t-25 -66.5z" />
    <glyph glyph-name="period.denominator" horiz-adv-x="150" 
d="M109 91v-91h-68v91h68z" />
    <glyph glyph-name="comma.denominator" horiz-adv-x="150" 
d="M109 91v-86q0 -60 -40 -100l-36 28q29 25 29 62v5h-22v91h69z" />
    <glyph glyph-name="hyphen.denominator" horiz-adv-x="266" 
d="M231 153h-195v58h195v-58z" />
    <glyph glyph-name="parenleft.denominator" horiz-adv-x="275" 
d="M245 -91l-25 -29q-77 45 -117.5 129.5t-40.5 173.5q0 191 160 294l23 -31q-118 -105 -118 -262q0 -82 30 -154t88 -121z" />
    <glyph glyph-name="parenright.denominator" horiz-adv-x="275" 
d="M30 448l25 29q77 -45 118 -129.5t41 -173.5q0 -190 -161 -294l-23 30q118 104 118 263q0 81 -30 153.5t-88 121.5z" />
    <glyph glyph-name="dollar.denominator" horiz-adv-x="425" 
d="M234 486v-56q97 -7 142 -81l-50 -41q-30 58 -93 64v-119l19 -6q66 -17 98 -44t32 -77q0 -53 -40 -87t-108 -38v-62h-42v60q-121 7 -157 96l54 42q23 -71 103 -77v133l-21 6q-116 33 -116 118q0 48 37.5 78.5t99.5 34.5v56h42zM314 119q0 26 -16 39t-65 24v-125
q81 7 81 62zM120 321q0 -23 15.5 -36t56.5 -23v113q-33 -1 -52.5 -16.5t-19.5 -37.5z" />
    <glyph glyph-name="cent.denominator" horiz-adv-x="386" 
d="M231 365v-54q89 -5 116 -89l-59 -19q-11 50 -58 53v-203q50 3 62 50l59 -18q-29 -84 -120 -89v-59h-43v59q-63 7 -97.5 49t-34.5 110q0 66 35 107t97 49v54h43zM189 54v201q-71 -14 -71 -101t71 -100z" />
    <glyph glyph-name="sterling.denominator" horiz-adv-x="453" 
d="M204 229h134v-44h-118l6 -20q10 -28 10 -52q0 -19 -8 -35l23 -11q31 -15 58 -15q47 0 55 63l59 -20q-20 -103 -105 -103q-52 0 -100 28l-17 10q-36 -38 -92 -38q-32 0 -52.5 16t-20.5 46q0 29 20 46t53 17q30 0 67 -17q1 5 1 13q0 18 -20 72h-86v44h68q-22 61 -22 99
q0 50 39 79.5t101 29.5q106 0 143 -87q-10 -6 -30 -16l-26 -13q-23 62 -83 62q-37 0 -57.5 -18t-20.5 -48q0 -31 14 -69zM110 73q-27 0 -27 -20q0 -21 32 -21q26 0 47 24q-31 17 -52 17z" />
    <glyph glyph-name="yen.denominator" horiz-adv-x="473" 
d="M404 211h-111l-24 -33v-7h135v-40h-135v-131h-69v131h-137v40h137v6l-23 34h-114v42h88l-122 176h80q74 -110 127 -193q80 121 132 193h74l-122 -176h84v-42z" />
    <glyph glyph-name="florin.denominator" horiz-adv-x="317" 
d="M61 228v44h66l6 50q6 53 20 78q23 37 81 37q34 0 57 -9l-10 -60q-23 10 -39 10q-21 0 -30.5 -11.5t-13.5 -44.5l-5 -50h69v-44h-72l-24 -208q-7 -56 -30.5 -78.5t-68.5 -22.5q-26 0 -55 9l11 59q23 -9 35 -9q21 0 31 12.5t14 47.5l20 190h-62z" />
    <glyph glyph-name="Euro.denominator" horiz-adv-x="498" 
d="M462 383l-34 -57q-36 54 -113 54q-108 0 -134 -103h205v-40h-210q-1 -21 -1 -41h211v-40h-205q20 -107 134 -107q74 0 116 59l38 -46q-64 -70 -158 -70q-84 0 -136.5 42.5t-64.5 121.5h-50v40h46q0 25 1 41h-47v40h51q16 77 69.5 118.5t134.5 41.5q98 0 147 -54z" />
    <glyph glyph-name="one.superior" horiz-adv-x="407" 
d="M95 750v61q86 3 95 64h59v-435h-67v332q-30 -19 -87 -22z" />
    <glyph glyph-name="two.superior" horiz-adv-x="407" 
d="M145 499q43 1 212 1v-60h-307v55q9 7 56 39t59 41q69 48 95.5 85t26.5 81q0 36 -23.5 56.5t-65.5 20.5q-40 0 -62.5 -21t-22.5 -57q0 -28 7 -51l-65 10q-6 21 -6 44q0 62 42 98t113 36q73 0 113.5 -35t40.5 -97q0 -77 -82 -151q-50 -45 -131 -95z" />
    <glyph glyph-name="three.superior" horiz-adv-x="407" 
d="M144 633v54q12 -1 24 -1q113 0 113 72q0 30 -21.5 46.5t-57.5 16.5q-77 0 -89 -81l-61 20q28 117 155 117q67 0 104.5 -31t37.5 -85q0 -38 -24 -63.5t-69 -33.5q49 -5 77.5 -33t28.5 -75q0 -56 -43.5 -90t-115.5 -34q-130 0 -160 118l61 24q15 -85 96 -85q41 0 67.5 19
t26.5 54q0 72 -121 72q-17 0 -29 -1z" />
    <glyph glyph-name="period.superior" horiz-adv-x="150" 
d="M109 531v-91h-68v91h68z" />
    <glyph glyph-name="comma.superior" horiz-adv-x="150" 
d="M109 531v-86q0 -60 -40 -100l-36 28q29 25 29 62v5h-22v91h69z" />
    <glyph glyph-name="hyphen.superior" horiz-adv-x="266" 
d="M231 593h-195v58h195v-58z" />
    <glyph glyph-name="dollar.superior" horiz-adv-x="425" 
d="M234 926v-56q97 -7 142 -81l-50 -41q-30 58 -93 64v-119l19 -6q66 -17 98 -44t32 -77q0 -53 -40 -87t-108 -38v-62h-42v60q-121 7 -157 96l54 42q23 -71 103 -77v133l-21 6q-116 33 -116 118q0 48 37.5 78.5t99.5 34.5v56h42zM314 559q0 26 -16 39t-65 24v-125
q81 7 81 62zM120 761q0 -23 15.5 -36t56.5 -23v113q-33 -1 -52.5 -16.5t-19.5 -37.5z" />
    <glyph glyph-name="cent.superior" horiz-adv-x="386" 
d="M231 805v-54q89 -5 116 -89l-59 -19q-11 50 -58 53v-203q50 3 62 50l59 -18q-29 -84 -120 -89v-59h-43v59q-63 7 -97.5 49t-34.5 110q0 66 35 107t97 49v54h43zM189 494v201q-71 -14 -71 -101t71 -100z" />
    <glyph glyph-name="sterling.superior" horiz-adv-x="453" 
d="M204 669h134v-44h-118l6 -20q10 -28 10 -52q0 -19 -8 -35l23 -11q31 -15 58 -15q47 0 55 63l59 -20q-20 -103 -105 -103q-52 0 -100 28l-17 10q-36 -38 -92 -38q-32 0 -52.5 16t-20.5 46q0 29 20 46t53 17q30 0 67 -17q1 5 1 13q0 18 -20 72h-86v44h68q-22 60 -22 99
q0 50 39 79.5t101 29.5q106 0 143 -87q-10 -6 -30 -16l-26 -13q-23 62 -83 62q-37 0 -57.5 -18t-20.5 -48q0 -31 14 -69zM110 513q-27 0 -27 -20q0 -21 32 -21q26 0 47 24q-31 17 -52 17z" />
    <glyph glyph-name="yen.superior" horiz-adv-x="473" 
d="M404 651h-111l-24 -33v-7h135v-40h-135v-131h-69v131h-137v40h137v6l-23 34h-114v42h88l-122 176h80q74 -110 127 -193q80 121 132 193h74l-122 -176h84v-42z" />
    <glyph glyph-name="florin.superior" horiz-adv-x="317" 
d="M61 668v44h66l6 50q6 53 20 78q23 37 81 37q34 0 57 -9l-10 -60q-23 10 -39 10q-21 0 -30.5 -11.5t-13.5 -44.5l-5 -50h69v-44h-72l-24 -208q-7 -56 -30.5 -78.5t-68.5 -22.5q-26 0 -55 9l11 59q23 -9 35 -9q21 0 31 12.5t14 47.5l20 190h-62z" />
    <glyph glyph-name="Euro.superior" horiz-adv-x="498" 
d="M462 823l-34 -57q-36 54 -113 54q-108 0 -134 -103h205v-40h-210q-1 -21 -1 -41h211v-40h-205q20 -107 134 -107q74 0 116 59l38 -46q-64 -70 -158 -70q-84 0 -136.5 42.5t-64.5 121.5h-50v40h46q0 25 1 41h-47v40h51q16 77 69.5 118.5t134.5 41.5q98 0 147 -54z" />
    <glyph glyph-name="period.inferior" horiz-adv-x="150" 
d="M109 -72v-91h-68v91h68z" />
    <glyph glyph-name="comma.inferior" horiz-adv-x="150" 
d="M109 -72v-86q0 -60 -40 -100l-36 28q29 25 29 62v5h-22v91h69z" />
    <glyph glyph-name="hyphen.inferior" horiz-adv-x="266" 
d="M231 -10h-195v58h195v-58z" />
    <glyph glyph-name="dollar.inferior" horiz-adv-x="425" 
d="M234 323v-56q97 -7 142 -81l-50 -41q-30 58 -93 64v-119l19 -6q66 -17 98 -44t32 -77q0 -53 -40 -87t-108 -38v-62h-42v60q-121 7 -157 96l54 42q23 -71 103 -77v133l-21 6q-116 33 -116 118q0 48 37.5 78.5t99.5 34.5v56h42zM314 -44q0 26 -16 39t-65 24v-125
q81 7 81 62zM120 158q0 -23 15.5 -36t56.5 -23v113q-33 -1 -52.5 -16.5t-19.5 -37.5z" />
    <glyph glyph-name="cent.inferior" horiz-adv-x="386" 
d="M231 202v-54q89 -5 116 -89l-59 -19q-11 50 -58 53v-203q50 3 62 50l59 -18q-29 -84 -120 -89v-59h-43v59q-63 7 -97.5 49t-34.5 110q0 66 35 107t97 49v54h43zM189 -109v201q-71 -14 -71 -101t71 -100z" />
    <glyph glyph-name="sterling.inferior" horiz-adv-x="453" 
d="M204 66h134v-44h-118l6 -20q10 -28 10 -52q0 -19 -8 -35l23 -11q31 -15 58 -15q47 0 55 63l59 -20q-20 -103 -105 -103q-52 0 -100 28l-17 10q-36 -38 -92 -38q-32 0 -52.5 16t-20.5 46q0 29 20 46t53 17q30 0 67 -17q1 5 1 13q0 18 -20 72h-86v44h68q-22 60 -22 99
q0 50 39 79.5t101 29.5q106 0 143 -87q-10 -6 -30 -16l-26 -13q-23 62 -83 62q-37 0 -57.5 -18t-20.5 -48q0 -31 14 -69zM110 -90q-27 0 -27 -20q0 -21 32 -21q26 0 47 24q-31 17 -52 17z" />
    <glyph glyph-name="yen.inferior" horiz-adv-x="473" 
d="M404 48h-111l-24 -33v-7h135v-40h-135v-131h-69v131h-137v40h137v6l-23 34h-114v42h88l-122 176h80q74 -110 127 -193q80 121 132 193h74l-122 -176h84v-42z" />
    <glyph glyph-name="florin.inferior" horiz-adv-x="317" 
d="M61 65v44h66l6 50q6 53 20 78q23 37 81 37q34 0 57 -9l-10 -60q-23 10 -39 10q-21 0 -30.5 -11.5t-13.5 -44.5l-5 -50h69v-44h-72l-24 -208q-7 -56 -30.5 -78.5t-68.5 -22.5q-26 0 -55 9l11 59q23 -9 35 -9q21 0 31 12.5t14 47.5l20 190h-62z" />
    <glyph glyph-name="Euro.inferior" horiz-adv-x="498" 
d="M462 220l-34 -57q-36 54 -113 54q-108 0 -134 -103h205v-40h-210q-1 -21 -1 -41h211v-40h-205q20 -107 134 -107q74 0 116 59l38 -46q-64 -70 -158 -70q-84 0 -136.5 42.5t-64.5 121.5h-50v40h46q0 25 1 41h-47v40h51q16 77 69.5 118.5t134.5 41.5q98 0 147 -54z" />
    <glyph glyph-name="zero.fitted" horiz-adv-x="559" 
d="M524 340q0 -170 -63.5 -261t-182.5 -91q-116 0 -179.5 92.5t-63.5 263.5q0 170 64.5 264t181.5 94q115 0 179 -95.5t64 -266.5zM444 337q0 139 -43 215.5t-119 76.5q-77 0 -121 -74.5t-44 -209.5q0 -139 42 -211.5t120 -72.5q79 0 122 70.5t43 205.5z" />
    <glyph glyph-name="one.fitted" horiz-adv-x="377" 
d="M42 518v72q57 2 92.5 32.5t38.5 71.5h69v-694h-82v560q-43 -36 -118 -42z" />
    <glyph glyph-name="two.fitted" horiz-adv-x="547" 
d="M497 74v-74h-440v59l188 158q169 142 169 271q0 69 -38 105t-106 36q-66 0 -104.5 -41.5t-38.5 -110.5q0 -33 12 -74l-80 12q-8 32 -8 63q0 98 62 161t165 63t161.5 -58t58.5 -158q0 -79 -36 -143.5t-116 -134.5q-57 -50 -173 -136q78 2 324 2z" />
    <glyph glyph-name="three.fitted" horiz-adv-x="554" 
d="M188 316v77q11 -1 32 -1q177 0 177 125q0 55 -32 83.5t-91 28.5q-52 0 -88.5 -32.5t-48.5 -89.5l-75 29q27 82 85.5 124t132.5 42q93 0 145 -48.5t52 -131.5q0 -127 -139 -164q78 -8 119.5 -52t41.5 -119q0 -89 -62.5 -144t-163.5 -55q-87 0 -146.5 43t-82.5 124l76 37
q32 -131 147 -131q67 0 107 33t40 94q0 71 -46.5 100t-142.5 29q-23 0 -37 -1z" />
    <glyph glyph-name="four.fitted" horiz-adv-x="560" 
d="M432 0h-79v157h-319v67l304 465h94v-461h113v-71h-113v-157zM116 228h236q0 172 3 379q-37 -70 -239 -379z" />
    <glyph glyph-name="five.fitted" horiz-adv-x="554" 
d="M173 618l-18 -217q61 67 154 67q88 0 141 -64.5t53 -169.5q0 -114 -63 -180t-170 -66q-82 0 -138 44t-77 126l79 37q10 -68 46.5 -101t87.5 -33q70 0 110.5 43t40.5 124t-37 126t-101 45q-46 0 -79 -23.5t-49 -66.5l-71 10l25 370h354v-71h-288z" />
    <glyph glyph-name="six.fitted" horiz-adv-x="554" 
d="M497 563l-72 -34q-30 100 -120 100q-168 0 -177 -275q24 50 73 79t115 29q88 0 143 -68t55 -172q0 -107 -62.5 -170.5t-161.5 -63.5q-109 0 -173.5 84t-64.5 254q0 181 67 278.5t191 97.5q73 0 117.5 -34t69.5 -105zM435 220q0 80 -38 126.5t-103 46.5q-64 0 -109 -44.5
t-45 -109.5q0 -72 40 -125t111 -53q65 0 104.5 42.5t39.5 116.5z" />
    <glyph glyph-name="seven.fitted" horiz-adv-x="493" 
d="M18 618v71h440v-62q-60 -91 -99.5 -165.5t-78 -200t-46.5 -261.5h-87q13 171 74 332t147 286h-350z" />
    <glyph glyph-name="eight.fitted" horiz-adv-x="554" 
d="M369 362q67 -15 103.5 -61t36.5 -117q0 -88 -64 -142t-170 -54q-104 0 -166 54.5t-62 143.5q0 64 34 110t104 65q-122 39 -122 162q0 81 59 130t156 49q94 0 150 -49.5t56 -132.5q0 -112 -115 -158zM128 190q0 -62 43 -96.5t109 -34.5q64 0 105.5 34t41.5 93
q0 63 -41 100t-108 37t-108.5 -36t-41.5 -97zM407 521q0 51 -37 82.5t-94 31.5q-59 0 -98 -31t-39 -86q0 -54 38 -87.5t99 -33.5q58 0 94.5 35t36.5 89z" />
    <glyph glyph-name="nine.fitted" horiz-adv-x="554" 
d="M53 127l72 34q30 -100 128 -100q83 0 126 67t47 208q-24 -50 -72.5 -78t-114.5 -28q-89 0 -144 67t-55 171q0 105 64.5 169.5t160.5 64.5q109 0 173 -84t64 -254q0 -376 -256 -376q-144 0 -193 139zM119 470q0 -80 37 -125.5t104 -45.5q65 0 109.5 44t44.5 108
q0 73 -39.5 125.5t-110.5 52.5q-65 0 -105 -43t-40 -116z" />
    <glyph glyph-name="onefifth" horiz-adv-x="899" 
d="M329 0h-63l267 689h63zM95 570v61q86 3 95 64h59v-435h-67v332q-30 -19 -87 -22zM636 372l-10 -112q38 34 96 34q64 0 101.5 -39t37.5 -107q0 -73 -43.5 -114.5t-121.5 -41.5q-60 0 -99.5 29t-52.5 83l62 25q12 -81 90 -81q45 0 70 25.5t25 70.5q0 44 -23.5 68.5
t-64.5 24.5q-63 0 -82 -48l-58 8l17 232h253v-57h-197z" />
    <glyph glyph-name="twofifths" horiz-adv-x="899" 
d="M345 0h-63l267 689h63zM132 319q43 1 212 1v-60h-307v55q9 7 56 39t59 41q69 48 95.5 85t26.5 81q0 36 -23.5 56.5t-65.5 20.5q-40 0 -62.5 -21t-22.5 -57q0 -28 7 -51l-65 10q-6 21 -6 44q0 62 42 98t113 36q73 0 113.5 -35t40.5 -97q0 -77 -82 -151q-50 -45 -131 -95z
M641 372l-10 -112q38 34 96 34q64 0 101.5 -39t37.5 -107q0 -73 -43.5 -114.5t-121.5 -41.5q-60 0 -99.5 29t-52.5 83l62 25q12 -81 90 -81q45 0 70 25.5t25 70.5q0 44 -23.5 68.5t-64.5 24.5q-63 0 -82 -48l-58 8l17 232h253v-57h-197z" />
    <glyph glyph-name="threefifths" horiz-adv-x="899" 
d="M353 0h-63l267 689h63zM144 453v54q12 -1 24 -1q113 0 113 72q0 30 -21.5 46.5t-57.5 16.5q-77 0 -89 -81l-61 20q28 117 155 117q67 0 104.5 -31t37.5 -85q0 -38 -24 -63.5t-69 -33.5q49 -5 77.5 -33t28.5 -75q0 -56 -43.5 -90t-115.5 -34q-130 0 -160 118l61 24
q15 -85 96 -85q41 0 67.5 19t26.5 54q0 72 -121 72q-17 0 -29 -1zM649 372l-10 -112q38 34 96 34q64 0 101.5 -39t37.5 -107q0 -73 -43.5 -114.5t-121.5 -41.5q-60 0 -99.5 29t-52.5 83l62 25q12 -81 90 -81q45 0 70 25.5t25 70.5q0 44 -23.5 68.5t-64.5 24.5q-63 0 -82 -48
l-58 8l17 232h253v-57h-197z" />
    <glyph glyph-name="fourfifths" horiz-adv-x="899" 
d="M348 0h-63l267 689h63zM291 260h-64v95h-206v53l197 281h73v-277h75v-57h-75v-95zM87 412h140q0 116 1 205q-20 -32 -141 -205zM643 372l-10 -112q38 34 96 34q64 0 101.5 -39t37.5 -107q0 -73 -43.5 -114.5t-121.5 -41.5q-60 0 -99.5 29t-52.5 83l62 25q12 -81 90 -81
q45 0 70 25.5t25 70.5q0 44 -23.5 68.5t-64.5 24.5q-63 0 -82 -48l-58 8l17 232h253v-57h-197z" />
    <glyph glyph-name="braceleft.cap" horiz-adv-x="334" 
d="M39 324v39q36 15 51.5 27.5t26 46t10.5 96.5v88q0 104 47 149t148 57v-43q-60 -15 -88.5 -51.5t-28.5 -121.5v-74q0 -99 -17.5 -133.5t-75.5 -59.5q40 -15 57.5 -31t26.5 -53t9 -109v-75q0 -86 28 -123.5t89 -47.5v-46q-102 11 -148.5 54t-46.5 152v91q0 92 -19.5 124
t-68.5 44z" />
    <glyph glyph-name="braceright.cap" horiz-adv-x="334" 
d="M295 362v-39q-36 -15 -51.5 -27.5t-26 -46t-10.5 -96.5v-88q0 -104 -47 -149t-148 -57v43q60 15 88.5 51.5t28.5 121.5v74q0 99 17.5 133.5t75.5 59.5q-40 15 -57.5 31t-26.5 53t-9 109v75q0 86 -28 123.5t-89 47.5v46q102 -11 148.5 -54t46.5 -152v-91q0 -92 19.5 -124
t68.5 -44z" />
    <glyph glyph-name="bracketleft.cap" horiz-adv-x="325" 
d="M284 -124h-193v935h193v-52h-115v-831h115v-52z" />
    <glyph glyph-name="bracketright.cap" horiz-adv-x="325" 
d="M41 811h193v-935h-193v52h115v831h-115v52z" />
    <glyph glyph-name="emdash.cap" horiz-adv-x="731" 
d="M685 307h-639v72h639v-72z" />
    <glyph glyph-name="endash.cap" horiz-adv-x="554" 
d="M508 307h-462v72h462v-72z" />
    <glyph glyph-name="guillemotleft.cap" horiz-adv-x="460" 
d="M185 541l48 -36l-110 -162l110 -162l-48 -36l-145 198zM365 541l48 -36l-110 -162l110 -162l-48 -36l-145 198z" />
    <glyph glyph-name="guillemotright.cap" horiz-adv-x="460" 
d="M275 146l-48 36l110 162l-110 162l48 36l145 -198zM95 146l-48 36l110 162l-110 162l48 36l145 -198z" />
    <glyph glyph-name="guilsinglleft.cap" horiz-adv-x="280" 
d="M185 541l48 -36l-110 -162l110 -162l-48 -36l-145 198z" />
    <glyph glyph-name="guilsinglright.cap" horiz-adv-x="280" 
d="M95 146l-48 36l110 162l-110 162l48 36l145 -198z" />
    <glyph glyph-name="hyphen.cap" horiz-adv-x="365" 
d="M319 307h-273v72h273v-72z" />
    <glyph glyph-name="parenleft.cap" horiz-adv-x="342" 
d="M336 -112l-34 -33q-112 85 -170 213t-58 285q0 148 58 274.5t170 209.5l31 -33q-84 -84 -127 -202.5t-43 -246.5q0 -138 43.5 -260.5t129.5 -206.5z" />
    <glyph glyph-name="parenright.cap" horiz-adv-x="342" 
d="M6 804l34 33q112 -85 170 -213t58 -285q0 -148 -58 -274.5t-170 -209.5l-31 33q84 84 127 202.5t43 246.5q0 138 -43.5 260.5t-129.5 206.5z" />
    <glyph glyph-name="periodcentered.cap" horiz-adv-x="201" 
d="M144 404v-123h-87v123h87z" />
    </font>
</defs>
</svg>
